<mxfile host="app.diagrams.net" modified="2023-11-02T21:27:35.115Z" agent="Mozilla/5.0 (Macintosh; Intel Mac OS X 10_15_7) AppleWebKit/537.36 (KHTML, like Gecko) Chrome/118.0.0.0 Safari/537.36" etag="o_txWUZS2jgPt0e6GCJh" version="22.0.8" type="device">
  <diagram name="Page-1" id="oH4vbCKi-f1i0J5cPs7B">
    <mxGraphModel dx="2280" dy="1356" grid="1" gridSize="10" guides="1" tooltips="1" connect="1" arrows="1" fold="1" page="1" pageScale="1" pageWidth="850" pageHeight="1100" math="0" shadow="0">
      <root>
        <mxCell id="0" />
        <mxCell id="1" parent="0" />
        <mxCell id="FNOwRppiXol3kP-O3xYT-10" value="&lt;h1&gt;DOMAIN&lt;/h1&gt;" style="shape=hexagon;perimeter=hexagonPerimeter2;whiteSpace=wrap;html=1;fixedSize=1;labelPosition=center;verticalLabelPosition=top;align=center;verticalAlign=bottom;" vertex="1" parent="1">
          <mxGeometry x="748.16" y="320" width="810" height="440" as="geometry" />
        </mxCell>
        <mxCell id="FNOwRppiXol3kP-O3xYT-27" style="edgeStyle=orthogonalEdgeStyle;orthogonalLoop=1;jettySize=auto;html=1;curved=1;" edge="1" parent="1" source="FNOwRppiXol3kP-O3xYT-11" target="FNOwRppiXol3kP-O3xYT-19">
          <mxGeometry relative="1" as="geometry" />
        </mxCell>
        <mxCell id="FNOwRppiXol3kP-O3xYT-28" style="edgeStyle=orthogonalEdgeStyle;orthogonalLoop=1;jettySize=auto;html=1;entryX=0;entryY=0.5;entryDx=0;entryDy=0;curved=1;" edge="1" parent="1" source="FNOwRppiXol3kP-O3xYT-11" target="FNOwRppiXol3kP-O3xYT-21">
          <mxGeometry relative="1" as="geometry" />
        </mxCell>
        <mxCell id="FNOwRppiXol3kP-O3xYT-46" style="edgeStyle=orthogonalEdgeStyle;orthogonalLoop=1;jettySize=auto;html=1;curved=1;" edge="1" parent="1" source="FNOwRppiXol3kP-O3xYT-11" target="FNOwRppiXol3kP-O3xYT-45">
          <mxGeometry relative="1" as="geometry" />
        </mxCell>
        <mxCell id="FNOwRppiXol3kP-O3xYT-11" value="&lt;h3&gt;SERVICE&lt;/h3&gt;" style="rounded=0;whiteSpace=wrap;html=1;" vertex="1" parent="1">
          <mxGeometry x="995" y="340" width="280" height="100" as="geometry" />
        </mxCell>
        <mxCell id="FNOwRppiXol3kP-O3xYT-14" value="" style="shape=image;verticalLabelPosition=bottom;labelBackgroundColor=default;verticalAlign=top;aspect=fixed;imageAspect=0;image=data:image/png,iVBORw0KGgoAAAANSUhEUgAABFQAAAKeCAYAAACLXk+4AAAMP2lDQ1BJQ0MgUHJvZmlsZQAASImVVwdYU8kWnluSkEBoAQSkhN4EkRpASggt9I5gIyQBQokxEFTsyKKCa0FFBGzoqoiCFRA7YmdR7H2xoKKsiwW78iYFdN1XvjffN3f++8+Z/5w5d+beOwCoHeeIRDmoOgC5wnxxbLA/fVxyCp30FFCAPqxawIzDzRMxo6PDASxD7d/Lu+sAkbZX7KVa/+z/r0WDx8/jAoBEQ5zGy+PmQrwfALyGKxLnA0CU8mbT8kVSDCvQEsMAIV4kxRlyXCPFaXK8W2YTH8uCuB0AJRUOR5wBgOolyNMLuBlQQ7UfYkchTyAEQI0OsU9u7hQexKkQW0MbEcRSfUbaDzoZf9NMG9bkcDKGsXwusqIUIMgT5XBm/J/p+N8lN0cy5MMSVpVMcUisdM4wbzezp4RJsQrEfcK0yCiINSH+IODJ7CFGKZmSkAS5PWrAzWPBnAEdiB15nIAwiA0gDhLmRIYr+LR0QRAbYrhC0OmCfHY8xLoQL+LnBcYpbDaKp8QqfKFN6WIWU8Gf5YhlfqW+7kuyE5gK/deZfLZCH1MtzIxPgpgCsXmBIDESYlWIHfKy48IUNmMLM1mRQzZiSaw0fnOIY/nCYH+5PlaQLg6KVdiX5uYNzRfbmClgRyrw3vzM+BB5frB2LkcWP5wLdokvZCYM6fDzxoUPzYXHDwiUzx17xhcmxCl0Pojy/WPlY3GKKCdaYY+b8nOCpbwpxC55BXGKsXhiPlyQcn08XZQfHS+PEy/M4oRGy+PBl4NwwAIBgA4ksKaBKSALCDr7mvvgnbwnCHCAGGQAPrBXMEMjkmQ9QniNA4XgT4j4IG94nL+slw8KIP91mJVf7UG6rLdANiIbPIE4F4SBHHgvkY0SDntLBI8hI/iHdw6sXBhvDqzS/n/PD7HfGSZkwhWMZMgjXW3IkhhIDCCGEIOINrg+7oN74eHw6gerE87APYbm8d2e8ITQRXhIuEboJtyaLCgS/xRlBOiG+kGKXKT9mAvcEmq64v64N1SHyrgOrg/scRfoh4n7Qs+ukGUp4pZmhf6T9t9m8MPTUNiRHckoeQTZj2z980hVW1XXYRVprn/MjzzWtOF8s4Z7fvbP+iH7PNiG/WyJLcL2YWewE9g57DDWDOjYMawF68COSPHw6nosW11D3mJl8WRDHcE//A09WWkm8xzrHXsdv8j78vnTpe9owJoimiEWZGTm05nwi8Cns4Vch1F0J0cnZwCk3xf56+tNjOy7geh0fOcW/AGA97HBwcFD37nQYwDscYfb/+B3zpoBPx3KAJw9yJWIC+QcLr0Q4FtCDe40PWAEzIA1nI8TcANewA8EglAQBeJBMpgEo8+E61wMpoFZYD4oAWVgOVgNqsAGsBlsB7vAXtAMDoMT4DS4AC6Ba+AOXD094AXoB+/AZwRBSAgVoSF6iDFigdghTggD8UECkXAkFklGUpEMRIhIkFnIAqQMKUeqkE1IHbIHOYicQM4hXcgt5AHSi7xGPqEYqoJqoYaoJToaZaBMNAyNRyeiGehUtBAtRpeilWgtuhNtQk+gF9BraDf6Ah3AAKaM6WAmmD3GwFhYFJaCpWNibA5WilVgtVgD1gqf8xWsG+vDPuJEnIbTcXu4gkPwBJyLT8Xn4EvwKnw73oS341fwB3g//o1AJRgQ7AieBDZhHCGDMI1QQqggbCUcIJyCe6mH8I5IJOoQrYjucC8mE7OIM4lLiOuIjcTjxC7iI+IAiUTSI9mRvElRJA4pn1RCWkvaSTpGukzqIX1QUlYyVnJSClJKURIqFSlVKO1QOqp0Wemp0meyOtmC7EmOIvPIM8jLyFvIreSL5B7yZ4oGxYriTYmnZFHmUyopDZRTlLuUN8rKyqbKHsoxygLlecqVyruVzyo/UP6ooqliq8JSmaAiUVmqsk3luMotlTdUKtWS6kdNoeZTl1LrqCep96kfVGmqDqpsVZ7qXNVq1SbVy6ov1chqFmpMtUlqhWoVavvULqr1qZPVLdVZ6hz1OerV6gfVb6gPaNA0xmhEaeRqLNHYoXFO45kmSdNSM1CTp1msuVnzpOYjGkYzo7FoXNoC2hbaKVqPFlHLSoutlaVVprVLq1OrX1tT20U7UXu6drX2Ee1uHUzHUoetk6OzTGevznWdTyMMRzBH8EcsHtEw4vKI97ojdf10+bqluo2613Q/6dH1AvWy9VboNevd08f1bfVj9Kfpr9c/pd83Umuk10juyNKRe0feNkANbA1iDWYabDboMBgwNDIMNhQZrjU8adhnpGPkZ5RltMroqFGvMc3Yx1hgvMr4mPFzujadSc+hV9Lb6f0mBiYhJhKTTSadJp9NrUwTTItMG03vmVHMGGbpZqvM2sz6zY3NI8xnmdeb37YgWzAsMi3WWJyxeG9pZZlkudCy2fKZla4V26rQqt7qrjXV2td6qnWt9VUbog3DJttmnc0lW9TW1TbTttr2oh1q52YnsFtn1zWKMMpjlHBU7agb9ir2TPsC+3r7Bw46DuEORQ7NDi9Hm49OGb1i9JnR3xxdHXMctzjeGaM5JnRM0ZjWMa+dbJ24TtVOV52pzkHOc51bnF+52LnwXda73HSluUa4LnRtc/3q5u4mdmtw63U3d091r3G/wdBiRDOWMM56EDz8PeZ6HPb46Onmme+51/MvL3uvbK8dXs/GWo3lj90y9pG3qTfHe5N3tw/dJ9Vno0+3r4kvx7fW96GfmR/Pb6vfU6YNM4u5k/nS39Ff7H/A/z3LkzWbdTwACwgOKA3oDNQMTAisCrwfZBqUEVQf1B/sGjwz+HgIISQsZEXIDbYhm8uuY/eHuofODm0PUwmLC6sKexhuGy4Ob41AI0IjVkbcjbSIFEY2R4EodtTKqHvRVtFTow/FEGOiY6pjnsSOiZ0VeyaOFjc5bkfcu3j/+GXxdxKsEyQJbYlqiRMS6xLfJwUklSd1jxs9bva4C8n6yYLklhRSSmLK1pSB8YHjV4/vmeA6oWTC9YlWE6dPPDdJf1LOpCOT1SZzJu9LJaQmpe5I/cKJ4tRyBtLYaTVp/VwWdw33Bc+Pt4rXy/fml/Ofpnunl6c/y/DOWJnRm+mbWZHZJ2AJqgSvskKyNmS9z47K3pY9mJOU05irlJuae1CoKcwWtk8xmjJ9SpfITlQi6p7qOXX11H5xmHhrHpI3Ma8lXwv+yHdIrCW/SB4U+BRUF3yYljht33SN6cLpHTNsZyye8bQwqPC3mfhM7sy2WSaz5s96MJs5e9McZE7anLa5ZnOL5/bMC563fT5lfvb834sci8qL3i5IWtBabFg8r/jRL8G/1JeolohLbiz0WrhhEb5IsKhzsfPitYu/lfJKz5c5llWUfVnCXXL+1zG/Vv46uDR9aecyt2XrlxOXC5dfX+G7Ynu5Rnlh+aOVESubVtFXla56u3ry6nMVLhUb1lDWSNZ0V4ZXtqw1X7t87ZeqzKpr1f7VjTUGNYtr3q/jrbu83m99wwbDDWUbPm0UbLy5KXhTU61lbcVm4uaCzU+2JG458xvjt7qt+lvLtn7dJtzWvT12e3ude13dDoMdy+rRekl9784JOy/tCtjV0mDfsKlRp7FsN9gt2f18T+qe63vD9rbtY+xr2G+xv+YA7UBpE9I0o6m/ObO5uyW5petg6MG2Vq/WA4ccDm07bHK4+oj2kWVHKUeLjw4eKzw2cFx0vO9ExolHbZPb7pwcd/Jqe0x756mwU2dPB50+eYZ55thZ77OHz3meO3iecb75gtuFpg7XjgO/u/5+oNOts+mi+8WWSx6XWrvGdh297Hv5xJWAK6evsq9euBZ5ret6wvWbNybc6L7Ju/nsVs6tV7cLbn++M+8u4W7pPfV7FfcN7tf+YfNHY7db95EHAQ86HsY9vPOI++jF47zHX3qKn1CfVDw1flr3zOnZ4d6g3kvPxz/veSF68bmv5E+NP2teWr/c/5ffXx394/p7XolfDb5e8kbvzba3Lm/bBqIH7r/Lfff5fekHvQ/bPzI+nvmU9Onp52lfSF8qv9p8bf0W9u3uYO7goIgj5sh+BTBY0fR0AF5vA4CaDAANns8o4+XnP1lB5GdWGQL/CcvPiLLiBkAD/H+P6YN/NzcA2L0FHr+gvtoEAKKpAMR7ANTZebgOndVk50ppIcJzwMaor2m5aeDfFPmZ84e4f26BVNUF/Nz+C53kfG6b965aAAAAimVYSWZNTQAqAAAACAAEARoABQAAAAEAAAA+ARsABQAAAAEAAABGASgAAwAAAAEAAgAAh2kABAAAAAEAAABOAAAAAAAAAJAAAAABAAAAkAAAAAEAA5KGAAcAAAASAAAAeKACAAQAAAABAAAEVKADAAQAAAABAAACngAAAABBU0NJSQAAAFNjcmVlbnNob3T4aMneAAAACXBIWXMAABYlAAAWJQFJUiTwAAAB12lUWHRYTUw6Y29tLmFkb2JlLnhtcAAAAAAAPHg6eG1wbWV0YSB4bWxuczp4PSJhZG9iZTpuczptZXRhLyIgeDp4bXB0az0iWE1QIENvcmUgNi4wLjAiPgogICA8cmRmOlJERiB4bWxuczpyZGY9Imh0dHA6Ly93d3cudzMub3JnLzE5OTkvMDIvMjItcmRmLXN5bnRheC1ucyMiPgogICAgICA8cmRmOkRlc2NyaXB0aW9uIHJkZjphYm91dD0iIgogICAgICAgICAgICB4bWxuczpleGlmPSJodHRwOi8vbnMuYWRvYmUuY29tL2V4aWYvMS4wLyI+CiAgICAgICAgIDxleGlmOlBpeGVsWURpbWVuc2lvbj42NzA8L2V4aWY6UGl4ZWxZRGltZW5zaW9uPgogICAgICAgICA8ZXhpZjpQaXhlbFhEaW1lbnNpb24+MTEwODwvZXhpZjpQaXhlbFhEaW1lbnNpb24+CiAgICAgICAgIDxleGlmOlVzZXJDb21tZW50PlNjcmVlbnNob3Q8L2V4aWY6VXNlckNvbW1lbnQ+CiAgICAgIDwvcmRmOkRlc2NyaXB0aW9uPgogICA8L3JkZjpSREY+CjwveDp4bXBtZXRhPgq9TD1zAAAAHGlET1QAAAACAAAAAAAAAU8AAAAoAAABTwAAAU8AAJuHUeSpUgAAQABJREFUeAHsnQW8FkUXxg8q0qJIKEg3ditYIKICghgIioKKhICAdLd0p4SACBjY8SkWtqigoICEdIfSIeE3z15m77xz9+19L5fLc/hx343Z2dn/7s7uPHvmTIZFy/76T5RdUaYYfmgkQAIkQAIkQAIkQAIkQAIkQAIkQAIkQAJhCGSgoBKGEFeTAAmQAAmQAAmQAAmQAAmQAAmQAAmQgEWAgooFhLMkQAIkQAIkQAIkQAIkQAIkQAIkQAIkEI4ABZVwhLieBEiABEiABEiABEiABEiABEiABEiABCwCFFQsIJwlARIgARIgARIgARIgARIgARIgARIggXAEKKiEI8T1JEACJEACJEACJEACJEACJEACJEACJGARoKBiAeEsCZAACZAACZAACZAACZAACZAACZAACYQjQEElHCGuJwESIAESIAESIAESIAESIAESIAESIAGLAAUVCwhnSYAESIAESIAESIAESIAESIAESIAESCAcAQoq4QhxPQmQAAmQAAmQAAmQAAmQAAmQAAmQAAlYBCioWEA4SwIkQAIkQAIkQAIkQAIkQAIkQAIkQALhCFBQCUeI60mABEiABEiABEiABEiABEiABEiABEjAIkBBxQLCWRIgARIgARIgARIgARIgARIgARIgARIIR4CCSjhCXE8CJEACJEACJEACJEACJEACJEACJEACFgEKKhYQzpIACZAACZAACZAACZAACZAACZAACZBAOAIUVMIR4noSIAESIAESIAESIAESIAESIAESIAESsAhQULGAcJYESIAESIAESIAESIAESIAESIAESIAEwhGgoBKOENeTAAmQAAmQAAmQAAmQAAmQAAmQAAmQgEWAgooFhLMkQAIkQAIkQAIkQAIkQAIkQAIkQAIkEI4ABZVwhLieBEiABEiABEiABEiABEiABEiABEiABCwCFFQsIJwlARIgARIgARIgARIgARIgARIgARIggXAEKKiEI8T1JEACJEACJEACJEACJEACJEACJEACJGARoKBiAeEsCZAACZAACZAACZAACZAACZAACZAACYQjQEElHCGuJwESIAESIAESIAESIAESIAESIAESIAGLAAUVCwhnSYAESIAESIAESIAESIAESIAESIAESCAcAQoq4QhxPQmQAAmQAAmQAAmQAAmQAAmQAAmQAAlYBCioWEA4SwIkQAIkQAIkQAIkQAIkQAIkQAIkQALhCFBQCUeI60mABEiABEiABEiABEiABEiABEiABEjAIkBBxQLCWRIgARIgARIgARIgARIgARIgARIgARIIR4CCSjhCXE8CJEACJEACJEACJEACJEACJEACJEACFgEKKhYQzpIACZAACZAACZAACZAACZAACZAACZBAOAIUVMIR4noSIAESIAESIAESIAESIAESIAESIAESsAhQULGAcJYESIAESIAESIAESIAESIAESIAESIAEwhGgoBKOENeTAAmQAAmQAAmQAAmQAAmQAAmQAAmQgEWAgooFhLMkQAIkQAIkQAIkQAIkQAIkQAIkQAIkEI4ABZVwhLieBEiABEiABEiABEiABEiABEiABEiABCwCFFQsIJwlARIgARIgARIgARIgARIgARIgARIggXAEKKiEI8T1JEACJEACJEACJEACJEACJEACJEACJGARoKBiAeEsCZAACZAACZAACZAACZAACZAACZAACYQjQEElHCGuJwESIAESIAESIAESIAESIAESIAESIAGLAAUVCwhnSYAESIAESIAESIAESIAESIAESIAESCAcAQoq4QhxPQmQAAmQAAmQAAmQAAmQAAmQAAmQAAlYBCioWEA4SwIkQAIkQAIkQAIkQAIkQAIkQAIkQALhCFBQCUeI60mABEiABEiABEiABEiABEiABEiABEjAIkBBxQLCWRIgARIgARIgARIgARIgARIgARIggdQnsPTPFfLmux/JMvUbj5UtU0rKlS4pD95fLZ5swm5LQSUsIiYgARIgARIgARIgARIgARIgARIgARJIJIE33/lQiSkf+rqLrh1aSTklriTKKKgkiizzJQESIAESIAESIAESIAESIAESIAESiIhAn4Ej4vZMsXcET5VuSlRJlKVbQWXfweMus7POyiDZMp/lznOCBEiABOIlcPDICdmx+6gUzpcp3qxO+fartxyRArnPlUwZM5zysrAAJBApgeMn/pMjR/+TLOeeJRnS6aWbnuqZSM8r05EACZAACZy5BB598ln34GdNHedORzuBbkN9lTijLZ68dB7BftOloLJm6xG5v+fKgGP+fFAZyX3eOQHLOEMC8RJ4tnUnOXDgoJPN6CF95bzzcsSb5Wm//WdffiMzZs9xjqPS7RWk/mO1T/tjsg/g81/3SrtJGwQNuutKZZMpzxe1k5yS+dHjp8gvvy529t288ZNy/bVXhSzHCVX+h/qukr82H5GzlfA8sVUR53hCbnQGrIyW4xmAxNdDjKfexMeSIXO2ysKVB2T9jn/dcv04spxkyZS+Ppyk1XrGhZ4KE5s2b5HOPQc4e7ooXx4Z2KdrKuw1aRc3t1zq1PGoGz9+obTkzHZ2qu2bO0o/BOKp79IPBR5JahE4lXWmX8fol6CC8viZV6jjS5eCCr621uoVKKh8NrCM5MlJQSXUxcB10RFApdWuSx9no4wZM8r0iSOjyyCdph40fKz8tniJc3T16j4kVatUSndH+lCfVbJy02H3uF7tXFzKFsrizp+qifqNWsrRo0ed3Q/s21UKFsgfsihfLd4nz41b56a55bIcMrZ5YXf+TJ2IluOZyimW446n3oSY8mj/vwKEFF2GH5SgkjWdCSpptZ7RzFPj9+NPv5SXZ73h7OqKy8pKxzYtUmO3zj6ubPKHuy9+lHNRcCIKAvHUd1HshklJwCVwKutMtxBxTvgpgviZV6jDoqASig7XxUTgja//lq9/3+due03JbPJkldzufHqZ+OSzeTJ95uvO4aT2i15aZhjQGFVfEwteErpRn5aPJVjZWoxdF3CNfzqgtOQ9P2Ow5KmyfPOWrdK2c29nX5EKfMs3HpbaykNF20O35pJuj6W/86WPL5LfWDhGki/TJBGIp958YfZmee2rv12UF+fKKJcXzSoZz84gvesXkHPUb3qy1KpnUA/M+mKXgw5Mm1TPm2YwDh4xTn5dlCRs1KvzoFS9+85UKxsFldRBnZavv3gJxFPfxbtvbn9mEjiVdaZfxP0UQfzMK9TxUVAJRYfrYiLQesJ6+eK3ve62aalLhFsoHyYGjxivXvR+d3J69JEHpPo9lX3I9fTOYsvWbdKmUy/nINCon/biCBXbIH01cnBw67YdkX6zt8j67UekvhIL695x4Sk/cXM/nyfTXkkS+C4rV1o6t2sZUZkmfrRDNVJ3STnlYQMx5VQLQxEVOoGJYuWYwCKlq6zjqTch/qHxBatwaXblTVUk3cZOwTGmVj3z4fzd0nnqRuxScuU4R74cXMaZTgt/nmrSWg4fOeIUpX/vzlK44CWpViwKKqmDOi1ff/ESiKe+i3ff3P7MJHAq60y/iPspgviZV6jjo6ASig7XxUTgTBFUAiqtXupFr1DqvejFdGJSYaNPv/haps541dlTNI36VChaut/F0FETZMHJ+Cl1H64l91W9K90fcyIOkBwTQTU5z1jrzf/+E7m22RInpgVyG9SwoNx9Xc7kjDkVM4G02qDdtn2HtO7Qwzmus886S16ePDpVBXoKKjFfUlFtmFavv6gOIkjiWOu7INlxMQmEJHCq68yQhYtipZ8iiJ95hToECiqh6HBdTATOBEElvVRaMZ3gEBsNG/2i/LJwkZOizkM1pUa1u0Ok5io/CZgvbv16dpKihQv6mf0Zkxc5Ju5Ux1Nv/nvsP7m+eVJsJpRwnvKiuEB5U9DiJ5BWG7QIcP7Sy7OdAyxbuqR069g6/oONIgcKKlHAiiNpWr3+4jgkZ9N46rt4983tz0wCp7rO9Iu6nyKIn3mFOr40LagcUsOSfvTzHiea/+ZdR2XPwWNSIn9mubJYVtVvOouUKZhFzj0nZXeCaIPSYtjFD5TL64IVGDXgiGCYwotznSsF85wr95e/QO0ncyiG7roNasSBX1cdlBUbD8mfyi159/7jUqpAZilXOIv6n1kuK5LVs7zIAA+Urf8kBZPE/C2X5pDSar9/7zsmPy7bL98t2S/LNhySAhee65QHX+bAIpzFc2zByrR5178qfsR++XbJPjlw6IRUvDKH86UQDGGIobLl7+RjgQtxvTuTu0RUveF8xTdlvIlY+OH4Zn6+U9THS9cuyH6OPHDLBe68OfE/dT2h/NoyZTwroGx6ebjfL+Z9K5Onz3KSxfOiB06/rznouLHnVkGTy6prutQlmYMGV8SoMn+sPST4WptZDRWqr00Ea/xp+QEnL4x00fDePM6oLfZxYFsEUwWD7FnOlitU/IGyhTI7edlpY5lv+GwbOXjokLNp3x4dpFiRwhFlg/Js333MSVtEDUN8fvak0RQwYheu/YOHjztBX68qnlVyZA0caeHA4RPqvjug7rvDcuz4f3JViWxyeZEsEY/4sWPPMflT3VvY/rjaHvfrpep/qMYa9qmD0l6gymoOnRzsHGH572sOyS+qnoGVVHUD2PvRxWbHjl3Ssn03J99ov+Su2nxY9qv7GIbAusGGTlbFlw2qixO6XODYz8t2jlymOOEa9BpdBfXw3pPD16MuvTDMKGvmNYAA4hjG2TZc5ytVeZdvOCw79x6T0upewbnySmtvG8l8PBzt/P2411Anon7YpJ5/eB7mvzCjFM6bSa5VI0upgUeC2p4DxwX3DgzcwR+2SzHD/bROnUdcf7ifLrogsC7GdbpodVKdtFPdG+gKdnWJrE5XECeTOP7EUm9iBKp9h47LUSWoNBy+xt07giejDoNlzXyW86x1V56cwPMB9/Zidd/hWsTzGNfrJerairQnYqznwC4L9v+zqqM37fxXdqvzg3r+CvUek18904NZqHrGa5u1qiviElXHr9ue9IzDeb9M1YVFL/Ie2n3JukMO1y8X7ZVpc3c6WSKw7/jnirjZgxWeTeb9rJe5iTwm8D6z9eR7gHkNeiQNumj4mIny84LfnPWPKIG+ZowCPZ4LYA8u21S5CuTOKFeo98gSF2eSs0LcSNEIKnhXW7DyoFNH7lfPB9yreEfDPRapxVK/JfJ5E+31hOMMVvfgevhh6X5Bnrge8W4dzfXnxTDaZzf2jfdyGJ5ZeH4Es+27j6r3pKT3WDwTYwk6H0t951Wev//+R/73yVxZteov2bJ1qxw7dlzKlS0jl5YrK2XKlJJCBQtG5Lm1adNmJ5916zfI5s2bnV3lz59feVcXlHuq3CWXXFLAa/fOst//WCJ/LFnqri9SuJDcfNONcki97y1Y+Jv88ON8QZqi6p0PZatZ4z7JnDm53kG69z/4SJb9uVz+Wr3GSXfNNVfL1Vdd4ZTfzfjkxPHjx2XOm2/LCbzsnrTqVe+VHDmyy5o1a2X+z7/IDz/Md4Lwly1bWirefptcdtmlOqnzu2jx7/LNt9/L8hUr5IjqNnjN1VfJVVdeqf5fEVC2gI2MmXh4ffbFl7JjR1KdiixvuP5aKV6smOzZs8fhNf/nn2XZsuUqxmABKVGiuFS843YB03jNrzoz3nKE2h5DGb/5Lq6FFQHJHqxZTR68v5qzzE8RxM+8AgpszaRZQeWlj3fImPe2u+69VrmdWbxMTW9XNIWwEI2ggsZ//1e3hNwPXsBGNysctOGDh/XId7bJy58m3zxe5cVL/7S2RT3zuafz8gAR4rn78zkvsk1GrfXKylnWqFpeeVYFjwv2YhjvsXmVCcH/hr65NaBMiJHS4K7c0lwF6ozEhjcpJJWuOs9NGg8/NPIeUCM66caDznRS66JyQ+lsetb5XaEagQ+r0VlMu+OKHDLy2cLmooimR4ydJD/98quTtvYDNeT+++6JaDud6Ns/9jnD7kK887JqSnRCPAu7obpaNZJqnRwSHEM5/jymnDQeudZ5WTTzsUe8+HThXhk6Z0vANWamxwvOiKaFBGJGrLZjp2rUt4utUd9szDoBE1jLWvmcoXubjlqnGvpJLz+6THix6VP/EkfAw3N2pgqkOExdj3iptC1cgNU/VaO81fh1QZmcr4bIHK0abRCdbDO/qOGl7PWuJdwk9jlaOO5SGaDqmNnzkoI+uglPTkBsbFnroqBiq53ea/6Lr76TydNmOqvKlCoh3Ts975XMc9ntbZY5DTysfKlNUblWBZG27aOfdkvPGZsEDVQvA4MJLYsENLrrvvCXLF2fJK5VuTanDH6moNem7rIHeq90hm/Ggho3n++cZ70SjRXEeMALuZfhXujwyMXyyO25vFZHvCwejnonftxryxS3fioAKwQ4L8OzD6JpsGDfs7/cJQNe2+Jser2qB4c2KiT1B69OUU8iwdP35JHmNfI6DUvw7Tp9o0BIsQ3PwaltiwUVe+30XvOx1JtVOi13GsFe+ellEAFQ52lDvdpFXS9mLC+9Dr/gh+eQ/Yww08R7DnReaGAOVOfiQ3UPeRnqtCcq55ZmNfKleJaHqmfMvPBs6ztzsyOEmcv1ND5A9ahXwBHR9DL8moKBudycrlvxQumo7i3zfr7t8hzOO5GZzp6uN/Av9/qN5P63t8e8KdD36dZeNUiKeCULugyPhUkfbXfEomDPWhzLQNV9zGuEKJNPsFF+cH5xr6GO9LJ8SrBs9/DFctc1ye88drp46rdEPG9ivZ5wXHbd06/BJfLogL8C6pRCSuh7v0+pqK4/k1msz+4+6h6Z801yUOup6n38GvUBxjaIt/d0We6WGeLznG7Jz3g7fbD5WOo7My+IAAOHDJdXZs42F6eYrlTxdhk6qL9ky5byWJB49+7d0q1nH/lk7mcptjUX3FW5kvTr3UPOP/98c7EzPXT4SHlx0kvu8qr3VJHOHdtLzQdqy66/k5nqBEWUsDJm5DApVbKEfP/Dj9Kxc3fZum2bXh3wO3L4YLn37ioBy/bvPyDX3FA+YNkH774pcz/9XEaNGRewXM80adRQnm/VQg4dVvVhvwHyhhJkvAyCytTJExLK68HajzoCk95/rx5dpXTJklKnXn29KMVv547tpP7jj0UkjqXY+OSCeOvMYPn6tfzNdz5UYsqHQbObNTXp3PopgviZV9CCqxVpUlBp8+J6+ezX5KCmoQ4AL9J4MbpdNYy1RSqo4CGIyj8Sw8N2ZsfiUkx90TAND+n7VQMXXz0iMeSDRoutdtviBbw4Pvllj2dD0dwPXpK8vDH8ODa7TBBBvF5Q4xFU/ODndb7hAfNRv9IBX3HxUMfXO214kZ3bv4zrDaGXR/LbqEU7QYUPi/ZFb+x72wSBQMMZPHtmdSoe4M1jvzzdX/58efPbf1JkZQoqI9/eJi99En5/uJdGKlHlVvWCGYvN+/p7mTj1FWfTUiWLS8/ObSLOxhRU8AL/7vf/OJ5iwTJ4UTXe5/95IOxxoYHduW7+FNnM+GynDJkTKAymSHRyAYSmilcGvgyHaujY56hxtTwy7v3twbJ3lqPRO1mJgLHaqPFT5MefFjibP/zAfVLrvnsjziqUoALRCsMqm6N2BcsYAtQMVUfiZRmGF1e8wMK0+IdfL0P9iYaztuntirlfduHR8+zotUHFHL0NfiEwtHrgInNRVNPxcMSO/LjX5i7Y44itkRQcw1yPUM+/jJanptmoQYPhyLETAXWfnTe43Vgmu4QS8LENGhYz2hdLIfTa+QWbj6XejFZQQSDXZ0asjeiZ3BgfJe7Lm6K4fpwDZIqyNBiyxvE0TbETa8HN5bLLsMaFAhr2oeoZvTk8jjAakJeorNPgF/feuBaF5aay2d3FpmDgLrQmtKBi388/jioXVASGBw7qFW0TWxVxri89H8nvzl1/y3NtuzpJ4XU3fdIoJfqdFcmmThq8WzQbvU4WKu/FcAbRY8rzRV1PLp3e5OMlqMCr7vFBq92Gt97O67d5zXzyjBJBbYu3fvP7eRPP9YRjM+seeJPjWsB9YFo8gko8z+7D/56Qe7uscO9HeF59rN4T7fpz9LvbZPL/kt6ZcN+826tkimvDPJ5g07HUdzqvffv2S4OnGwU0yvU6r98SxYvJpAljpUCBwPeddevXy+P1GwYVM+y8LsqXT2ZMn6y8VgK9JWxB5Y7bb1VCzR75bdFiOwt3HmUaMXSQVL//IXdZsIkXx41WXhq3uau9BJUWzZrK6LHj3TReE9jfD/N/ktden+O12l124w3XKV7jUniq+MXLFlQaPFHPEXgOHAhdH3mJS26hw0zEW2eGyd6X1X0GjkjhmaIzpoeKJuHTL77i4muul+Grkv3FWqf7fGAZxy0V814N7M/UeriRa8NXxLYT1+tZ9xeNbLjg2h4PSAAPk/d7lwzoShGsckdj+IT6PIKHiW1eo97Y4oW9TbB5CDSIyI/uH9r8OrZIy4Tjaao8ZRqpl1iY14ud2ZCCqzZeHmF+8fMSKTrWUV/VTo6+8rkS6J5XQp1pA54uKPden9NcFNF0PJUWGqZ4+dWGF7km6qUeHiLoevG9+kJsilZwi+31RLIbpvnypPPAL+4NuOWXVC7GcI/HF0UMIfr+j7ul67SNZlK5VLmA36nEsfNV16jf/jog7/0Q+GXt7Z4lpVgQF/GAjKwZszH60P3V5YGaVa0UwWdNQUWnAhucH3RJwEunKbLiPtXeErgvK199nvPCg24WOGbzGvxAfQnTXR6QN74GVmz3p96N08XlVtUwvVo1PLNnOUvwZfqNr/8JyGO+ajyY91iohk6wc4SvxOXL5XAEMnSbeV0N/2qWE/cFGsixmPni1qtLWylZoljE2YQSVHAtIiaSNryAojsiXpRRdngVzVuc5FmENOaXPDRobm65VG8qY9TxgbOXTVXdDUa8lSRw2aOM3NdtheqK+a+7GRr+15bM6nTbQHeMGZ/vCnguTHiuiFu/uBtFOBEPRz/uNTx3INCbhu5k+GCQV7H/VjWe0XXBvG4erXShdKh9sblJQKNGr8A9c+/15ztdQPCF9+3vAq9x1NHIF88UeBTgel2ryoPjMp9jXR/NLw/fFr0nUKz1JsQNdFVCDBV4o2lDAzW76uoDQ/13301JX1Vr9FgZ0ICrc0cu5746S7ly/vjnfseTwPTAMd8dkJdf5wBfuaupa9f82IJyoossnpl/q2N63eoea3t+hKpnUFZ0Ga3WdUXA9YAuWrhelOOsfKueN9pLDOlxjj8fWNrtzoghqPGegu6i+rmDNO0eThYl0TUG3ers+3mI8noK5nUB79i+s5LEVBzzt8PKpvC+QXlC2bxvlED/UpJAj/oM9Vo01vmljQFeQTguvHeAMY75c1W34V7ShnJ+M7RMQBegUIIK8qjefaXThUvngWcR8scHnR9UV+2flOhv3qv4EGAKWtgu3vrNz+dNvNcTjscUVDCvDc/z65T3Y97zz5HzVLfdp5RnXDTXH/Lx49mNd4TH1Mc1bbYIb9//jneW+sgTrcVa3+n9dOnWM6iHxYW5cnl6haAL0NtzXtVZqC7Mx6V23cc9RRntzeLVwL9cdZ15ffYMOfvs5O7VtqDi7sSnCXiNYJ/avAQVvc6v35cmTZBbKtzsZucnL1tQcXcSZgKC1qcfvy+ZMgV+vA+zmbM63jozkn3EmyZSb5FI00VSHj/zCrW/NOWhggf2La2XBTyAUHh0AailGpaIaYD+x4jVYX/xbaFeruACDQsnqKCLSflWS90GGbbBwxZfUfCiA4OSjZc3VPimmZWrep5KxbbJ7vJIB9f3yepLBx4YMDQEBr2+Rb5RLzbasK9fVFcNs++ul3iBdAOevkQND5nD+SKIGC+tVOPGFpXwZUWX269jQ1m9yoTlaPThRepyFRPmmIKgihngShxpUFo/+eGlBS+WZuwWNCC+HFzWaTDf1XG5+1UCx4CXGrzcxGJff/ejTJj8srNpCeWC3Fu5IkdqEFP01358pXmzR8kUX/nGqK8jk4yvI9+ol9FsJxsOXi9P9guBLgv631dst8y9znE9zeleIoVYAiHnwd7JXaFsEUfnF+7XbIz2VC+/paJo1NuCCkSfl5WXAkQhbRB+uqnuCKahcT3+ucIBIideks1YCy88eYlUuzHZhXXwG1vkFdUIh4HJm4qJHWMAX9Rq9Vrl1kV2Iz1UQ8frHHWqk1/QsDMNYkBN1fjTL9wYBnZciyJmkoim//5ntzR/vrOTFl9yp6kvufiN1EIJKmjca3EZ1+sbyu3ZFJawD1tIMMUnsy5A3CeMzOJlZnefRlXzON0fkA6CDa4Nbf2fukTgvWcaGto1uiff+0+o7odtHkxuEJppQ03Hw9Gve+2RfqtUzI/DbjHhsXCnEgtNw75q9FgR8FUc17AZU8tu1EAkgVBqxkuBqPe46pahhUnsA15Gb3Yv6X6cwDLEKXhIdcfSogq6I76gzkO0Fk+9iX3ZQWnRSLfjKeG+haCizWskIDTK8KzA+wasgfLOaW14Nfl1DmyR34sbPMAg9GsxA+UxBZ5Q9QzSPj1sjRuTCfN2PYVltrfNPeo+RBcX08z92IKmmc68n23xx0xndvd5XHVpbKu6vERroye8pL40/+Jshn71+HoZqS1YeUCeGrrGTQ6B4x11/dt1l+l1g8T29RJKUEG3dHT11vbU3Xmcd1U9j1+8/+He0fcY2H4xqIwrLvlRv/n5vPHjerLrHnAYpbpVm17kWGZapNefH89u7BfiPUR8bW+pOq94/qQGrHn/48PBy8ojLxaLp76D1weEENMggIwdNUyuVXFH0NhevnyFzHr1dZn92htmMvngnTlSqlRJZxnW9+zdL2A9xJIe3Tqr+CtJXSSXLF0qvfq8kEJ0QReVuo887G4bTFAZN3q4VKhQXk4o8eadd9+XXn37u9uYE+jOcn+N6ioGSg5ZuuxPadSkeQpR6Pdff3KFhGCCCroatVbdehA3BrFUWrZp77Aw94Xp0qVLycAX+kjpUqVk3769MmnKNPV/akCy1i2bS9PGz7jL/OTlJajgHI4cNkiuu/Ya5RmTWRb//oe0ad9JNmwIfK+d89pMueLyy9xyRToRT50Z6T7iTRepuBFpukjK42deofaXpgQV+8UcBceXMHwRs818sGMd1O+5/Us7ycIJKgjA1mr8+oAsx6gYKXZXB7zswAUaQWG1mV9g8QVqjOq+AWEABmEBD9Wc6qXUNLwAQ8AxbUaHYgGxGbzEC6/+nfiS9IwRmA95dlfdfh48GYTVr2NDvl5lgssqvgyGMvvcQOyB6GObn/yQNwKcPdo/+csDlqHLB66NUcaLDxrRcweUltxhgmRiey8b++JU+e7Hn51VtWpUlYdrVfdK5rnMbDgGe9HE9fS/n3c7QSiRSY2bL3BFF/vlKdj9ge3wBRpxL7SF+qII91a4ucLA59vhZQNcz3UewX7jaYwiT1NQgRA2b4j3/k33f5QTjXfbXRf5PaHcsBFYE2bHUoG3C4LTwRAoGrEhvKzD5A3ysep2B6uvGunPG4108wUwVAwVbGvvH8u0mV1E8NL/8QtJdZheH8mv+eJWvGhh6dO9QySbuWlCCSqIC6Abnneobk/B7hkzD/MrLGJy6G4kOF+I+YNf0xD8D4KnNjAACxjOE84XLN/5GVPU0c4K9ccU28w6Wq+P5Dcejn7ca/hYUFU19LWFEobwjHtIxYPSYpzulqG3tRs1ZhcqnQa/PV7eJO+o7nXa7OeSXj7xw+0y9mS3NXyF/6hvKb0q4t946k3sJBJBxbzesM0vYy71rB/AT3cFMQOH+nkOzHsCXkZvKjHSq65CIFLUa/o+Q0wbxFCDhapn4GVzZ4c/nXT4E8pz6EV1/vRHKK9609xPKEEF3UHQ/Q6GfLy6/UB4w7Frg5BhC9Z6XajfJi07yN69SR+ieqjuo6VVN9JIrd2kDY6QhPQoJzyLcd162ZOqS5a+FvAseK1LCTdZKEEF7LWnE7pDo+u5l9nijnkv+lG/2e8EsT5v/Lqe7LrHjpnnxSjS68+PZzf2j3rzfiW8as9HiClvdiupuk8HdlP9RLUpTM92r7IHWxZPfdd/4BCZOn1GQNa2NwVWHjt2TGrUelhW/bXaTduo4VPS9vmWzrzdqEeDHnFICuQPFDg3btwk96l8TG8V22PES1Cxu+lgp71V7BI75gu66rRo1sQtIyYQV6XB040DlplCgpeggjK9Mn2KnHtu8r28ffsOueWOygH54Djh5ZH7wmTPov9Ug67u4w1koQqgqw3dliaOH6NnxU9edl7YyVuvz0oRONdLPEO3par33u2WK9KJeOrMSPcRb7pIxY1I00VSHj/zCrW/NCWomF/vUWg0rL4fUS7gK7U+GIzwMODVJJdSLIO3B75e4uEZTlAxH7bYFg97PPS9DBU4VHvTUCbtMWAuDzV9Q4sl7lcKpLO7m9jiBSp4qOZeBjd6/fKF9eYXNj+PzS5TqBcts5yRCirmNuGmw/HT23vFjsE1oRseSNfz8QJSq4L3KEA6n1C/ZqWF4J8IAhqpmecHPF/tXNwRfCLd3n55Ml/O7DzMr03hvrRAxPlSuUCDUwblGl/pqhwpGr52/ub8tz/8JOMmTnMWxdKoNwWVUPFEOik3bh38D7EhIDp62UDlFTZLBayFwaMK3WmiNcS5wVdmmJ2H+QIYTlDx+mqsy2I2AHGdIoBttDZWcf9O8YchdgpiqERjZsMvWFDacPkh4OlvfyUJWLYXXwUlJuv6yqtb03QVzFt35bAbNOH2q9ebbtx4bvw0OnU5+nGvTVFfvLXwi2vhl7GXBsSA0seqf826zq6bzUYN8lqg8vIKXm4KUaH2+Y3yFGp+0lMoVr7x1Js45kgEFYwkcrcRiydY3ArN0P716xyg22AdFZRZG75yow4OZnhngacgDO8jEAVhoeoZeNnhiz0s3DmxP+rAEw4ecdrM/djXkk6DXzwnzPvZS6Q3vT4gJL2n4k9Ea4jN8GzrTu5mMyaPDuh+4K7wmEAZr2u2xH3mI0YOYuUEs3+Ux9LPJ0VbdIM1AxUHE1Qw8hQ+jmgzPRz0MvMXQinEOliwDylmens6VP1mvxPE+rzx63qy6x4vEd0+vkivP3u7YPOhnt16G5sbPobiWaTfFeGFB6+yWC2e+u62ilUCYp7cV72qE3TWqyxokL/73gfuqmLFisrjj9V1tkc+pvXo2kkee7SOucidnj5jpvTrP8idx8S38z6TvHmTPP9tQQWixcKfvnPeF82NEPi2Ras25iL58L23VDfkQEEUMWKuvbFCQLrJL46V2269xVnmJajYXjN64ypVa8jatev0rMCLZcSwwe68nhgybKRMnPySnnVGSdJdpBAw109etqBy0403yMtTJ7n7Nifs8w1BDMJYNBZPnRnNfuJNG6m4EWm6SMrjZ16h9pemBBXz6z0KDbf/WSrIYbQWTlDBlz095KnO23bH18v3HTwR0A8Xy233ap0Wv1C8/1IvRoj8ji9PGCoR/1+dF9h1KJygEuorg+mGj32afej9PDZbUPFyWcb+bYtHUImVny4DXGtRbrh1e1k4YcFrG3PZ7j175dlWHd1F0bzoYSMEkO39yiZ3ezRiKqvuU2ALT55wQp39EvCraoCbXcfcjNUE4oRoDrG8xJl5hZseP2m6fPP9fCdZzer3yCMP1gi3ScB6U1DB6FXNPAJFYgOw00F47a/yZoYIwgvvD5gthpjp9DQaHM69ivtWxaDB/YvRrPRLsJ2H+QIYTlAJJcDaXRQWTYjezRMNDzxMYd06thYM4x2NRSOowGtvj6rPdN2mfyEUajMFFSwzxS2v7gZmnRUsyLbOG7+4x3fvP+acJ5wz1NGIV4AXeVi4xqWTyONPPBz9uNcwKo0eej4SLxtTDMHh/Dr+MleAMRs1oZ6jZrytUI1fdEOCKzwsFr7x1pvYbySCCtJVUN2GzW6x6Kr2wK255DYlrCKovJewhO1gfp0Ds35AvhD4wC1aM/Ox6xl0f8Q1AEPeL7cP/a6kzx/Sm/HFMG/uJ5SggrTm/ezV7cf0DsToNhjFLFqDQAyhGFa0SCHp1yP5messDPEHH9vubP+nm8IWj9wVEUwEE1T+9/Me6Tgluc5D8Hg8y4MZunXpZ4kXM3O7aOs3+50g1ueNX9dTpHWPeczRXH/mdpiO9tltbh8shh+81eG1HqvFU98hjkfZy68J2HWnDm3lyfqBXYACEnjMwBPDHlHm1ZnTnaGDPZLLLwsWyqOPPxmwCjFN4BUCswUV27tDb+i13z//+FW9p6bshnz19eUDvGLCCSqmB4veH36fbNhEvvv+B3dRm1bPSeNGT7vzegLdo3r06qtnAwQVr3LHw8sWVPQIRO7OjYnHGzwt83/6xV3SskUzada0kTsfyUQ8dWYk+fuVJlJxI9J0kZTLz7xC7S9NCSrmiz0KDS8CeBNEa+EEFfPlN9q8kd7+AoBI74Pf2Op0DdJfYsPlG05QMWPC2HmZwxdinSmo+HlstqASqkxmGaMVVPzgZ+7fy6sI6/HC81G/UgFxBMztIpn+XvXpHqP6dsOKFC4oL/RM/ooWyfYIZNdSdTfTcVTsbeCWXEMFV8TITXlVFwfbzJcnHE8oj4Zrnk3+Shfv1xa7HPa82Rjt2qGVlCtTyk4Sct4UVBAzCV+LvMxPQQWeLmhQoktfuPs2VkEl3DmyR7eJVlDZs3evNG2Z3Nh4WcVPOeecc7zQBV1m1rteHiqIJzVLiRVw9/911UH3C16wDG1BxayP0fDDCFS68WF39zFHpzLzh/cLutVAODGDfJpp9HQsDf54OfpxryGo93wVNBVWXcX86adi/4Sy5UrkqH1S5EA6xGa48GQ3RrNRE8rjK7UElXjrTRxfpIIKrhXEz9BfmrGtNlwbiLtUW3UlhoeGLUb7dQ7M+BoI5Iy4KLGY2dC0BRWzrNHmbXYrwrbmfsIJKub9jPvY7PYDIfo2o7vPV0PLOnF5oi0fYpShCx6sZrW75ZGHakache0dZN4XEWdyMmEwQcX0qos2Ty8vvHjqt2jeCUI9b/y6niKte0xu0Vx/2C6eZ7e5X3wgeEzFkTJHf0S8KXQ7tbvum9uFm46nvtuxY6dUuP3OgF2YQkPAihAzXp4i87/7Si64wNvrZueuXVL+1koBOSI+SuU7k5bZgkowLxAvYWLF0kUB+eqZaAUVdFfCMMy22YJKuzat5JmnA8UhbPOqGvmnuxo+WpsZxNdvXrag0rN7F3m0Tm2964DfRk2by7yvvnGXxSKoxFNnujtOhYlIxY1I04Ur8tI/V0hfNbKQNj0ss5738zdNCSqhurJEc9DmA19vZ47yY3cf0Wki/TWHUUWMBUST93p5C5VfOEEFfajx0uNloQQVP4/NFlRClcksZzSCil/8zP1DtLi1zZ8BXymxHi+KGOHAfok2tw03/eKUGfLVt0lK+H1V75K6D9cKt0mK9XBJhmv5q2pEK90HO0UitQAj1yB4oBmYNZqXJ/Nl0Axc7LWveJahnzvcW7VheMuMUTbqU1NQgXgCjwoEBIzU0qqggqCNCEQGK1zwEunfOyk4baTHhXShBBV4jDVSMZvMYM/h8rYFFaQ3R14xvxi/rFys4QkE84pDgBfeiR8lx39wEob5E4ugEi9HP+41MxgiAqxDwA5lu/erWBUqKLo2DO1ZRHWxgEXaqEktQcWPejNSQQXHD7FptOquZwaDx3LT0HAarb5C64DuWOfXOTCHXfVqQJvlCDVtNjRtQcUsa6g8vNbZ3n3mfsIJKsjPHJnG7PZjdveBcIVA/7EYgmwjLhesS/uWcmnZ0hFnY39QMT23Is7kZELzvjaHTUbXPDzDYzHTE8yP+i2ad4JQgopf11OkdY/JLtLrz49nt7lfTNsjQIbzILK395qPp75DPJNKVaoGZBvKUyIgoTHz7vsfSrsOge8Dy35fGLTr3NGjR+XSK68zchAZMugFqVG9mrMsvQsqfvOyBZVg3ZUA1w9BJZ46M+CkJ3gmUqEk1PDKsRaxrPrQ20198E2UpSlBxW7A242YSCGEE1Ts/eDFCsFWg9l2FfwNQ1Zqq6q+HmK0BLu/tl4PF+MSqg80XkzOz3625FQj/uhGg06TKEHFr2NDOe28/BZU/OSnueIXI+RgpBwvC9ef2msbc5lZaXVu11IuKxf5i56Zj55G4FTELpmvhlc0h7fU6xEnBF4D2k09mpcnU1yzXbx1/n78/vjTAsGQybBYG/WpKaiY8T5QZoxscoN6+S+iYhfkUvfreWoe9yxG+NKeRHZdZL4A2g2daM5RqBdclC2cYVhRDJUHq37vXfJo7egFvmCCChqwNz23NEAsRnwHdJu7RNVx4IbRzPAlr83EDa6A6SWoYGjjISfjPWCUHsS7gpndfWzPP6w3+8JjHl/EyyvPguKq60bunBmd84T9Y8SkSONJIB/b4uXox72GYJ/wAoJ5iUt2mfFVG9eytq+VN4D+qhppoya1BBU/6s1oBBXNBF3ScIxJQ9jud0cq0uvxO7l1UYEXD8yvc2Dyx/sFPK9isVD1DII9IwYTDCJi57r5Q+7ikBKSs6iywMqpYZBLnYzTgnlzP5EIKmZXCbMBanb3MYUW7CNS27d/vzRu0d5NPn3iSMmYMaW3ppvAmjDrX6wyhUYradjZYIKKWZ8hk15PhPakxuiLMHwcQXBtDN8M86N+M483Ho9Iv64n89oP5R3nADj5J9Lrz49nt7lfdK+q2nV5ig9bZmB1M32k0/HUdwgMC88N0wb17yv314wuNtrX33wrDRs3M7ORuf97X3lWFwpYpmcwYs7d1QI9wcxAuOldUPGbV2oKKvHWmfoaSI3fSAUV27PEj7JhpDiMGJcoS1OCijnUHg441lEvwgkq9n7sxlKksGcrD4MBr24JSO4VfM4OkoYNEiWo+HVsKGOiBRU/+aG8MDsmRdLSwL8IkoevRNEagmRhaGBt0b7o6e2C/eLh/tXivTJkztaAbg1z1OgQOkhhNC9P5vmLdSjkYGU1l0+cqhr1Xyc16qvdU1kee+QBc3VE06klqKBRcZMK6qwNQuqzNfK5sSf0cvyaQyvadYT5AngqBZXn2naVnbuS4jN1bNNCrrisrHkIEU0HE1TMgLnIyPQssTOu3XeVYBhemJegYo78gcbfj6qBuWvfcal8cpSS7FnOFgyDq4VDnb8ZVwueBPAoQAPVNnP0s1g8VOLl6Me9Zo64E8lIOojL1d8IzG52F4u0UZMagopf9WYsgop9neD5gO5rZkwzNG4h5sH8OgcmV+T7lRq1DB9XorVQ9YxZ1ni8YFAmcz+RCCqmd5Tu9oO6VXf3wT0YbECBcAzm/7xQRo6b7CQreEl+Gdina7hNAtZDRLvl+WTPLXh5InZTLBZMUPlEeSa3V6PAaUPQZ9OTVC8P9+tH/RbNO0EoAd+v6ynSusdkE8n159ez29xvn5mbBV5VtuF5hFFDw8W0s7fDvB/1XalyVwZk3fiZp6RN65YBy8LNYGji+x98JCAZRrRB7BMv+/zLedK0WeA+3n/7DWf4YaRP74KK37xSU1CJt870uh4StSxSQQX7f/OdD2Xp8pWyTHXbicfgmfJgzapRhyKIdp9pSlCBFwdcwE1DsK9L1dcU2xD3oPHIte5i5yV9VNKoCOEEFXs/qDznDS7jOaQhdoCKPOn7QtLQyJnPTXqht/uc3lQ2u0DZts3+koj1iRJU/Do2lNFsJGA+Vg8VeOy83ydlTA0/+aF8cJ+F26pu2GHZVcWzqtETjrhfz7EMDWAMjWg33rAulP284DcZPmaik+SSAhfLoL7dQiWPeZ0dV6KtCuyHoLKwaF6ezGF/IU5+1E91dwoSNw+NFXx1PK6+pJ1zTgZ5onLuiF8Q422M4rhSS1AxhxUP9+XYfNlNi4LKfvUlq1HzZIFv6osjJJMxnCC4RmLBBBU01nXD0/wKbecJN2x019TmJahgHeprPQQ9GrAY1QTiIcwraLLdMAolhML7BV+NYdEKKn5w9ONeM7tL4DhCBZfEenPEMLMbAdZF2qgxG/52HshHWzxBaf2qN/0QVPTxmI1H83rx6xzYDddwjXoIgnhPwEPsOuUtA89EmNnQtIXbN77+W/rO2uykg6gRblQoJ2GQP+Z+4HmG2CfhzHx+wxtlz4FjggYqLB4Bf/L0WfLFvG+dfKrefafUq/OgMx3NH7NOC1cWeLchyCzYQ8ispjyQtQUTVNAVEt2etAV7T9XrvX79qt+ieSewr0tThPXreoq07jGZRHL9+fXs1vv9Wd1zDVV3Vm04h7imdUDru5UIN0iJcdGaH/WdHROkoOrOC3Eja9aUI4VNmjJVBg9NjhFxf43qMmhAPzl0+LBcec2NAcUPNVpQq+fbyUcfzw1Iv3jhT5I5c9LHx/QuqPjNKzUFFT/qzIATn8CZaASVBBYjIVmnKUEFDWF86TQND/f/qQBR5ldJfMmv0vHPAPdds8ETTlDBCD9wNTcNUb1HP1s4RSP7QxW4EjFSTNMR+80GAtbjCypiVZiGCORPDV0teCE1LVGCil/HhrLGKqiYjQt9zF6B4fzkh/3MVMPkDlLD5Zr2Ud9SgiEHza9JWB+s0Wdua09PmT5bPp+XFDjq3iqV5PG6D9lJQs7jZabHjKQRfjIq198uj+YPGiDXfCE0h/6M5uUJ3Qfgwq4Noy1g1AUvMxsYuNe+Ud4CkXxxO3DgoDzTvK2b5dQJqlGf6Vx3PtKJ1BJUEMwOQy/DQgkq9n1k1i/Y1nwBtBs60ZyjUC+42E8oM1/c8l98kQx5oXuo5EHXmdeaGZS267SN8v6PSXEM7rgih4xU9aOXmS/QWB/s3jL7qmNUKwgqWvzEsPXoTmTaLjVaRyVjtA6IshBnbUMdW101bvSIVmYD2U7rNe8HRz/uNTugJ2JQQKD3En7NxgWOyawjMG+ek1Bu96khqMRbb+J4YJEIKggG+9PJIXArKM+Tx5Uw7GXvfP+P442CdWY3CT/PgSnI4pp8v3cpyae6Ctu2SQ2ne1/3lW7XOlNAD1XPmF4iyDOUcIB7BLHN0IiHIdh/6YKZnWn8MetFk4ebwGPCvHYguIIdurDCZqrRGS9TozTGYi3bd5MdO5LE0fatm8lVV1wadTamwIqNMWIL3vFsQ1ccxHfCOYCZ3kqYDyaoYJ35fgQx8rXOxd0uVVhvGoSmpesOOYtq357LGXDBr/rNr+eNX9dTpHWPySeS689ME8+zG/vF/VBFDa+uxZMGVXJL6wcuUh7C++S5cevcoo1Sz7zb1bMvGvOjvntjzlvSpXuvgN0+UKumDOjXO2DZuvXr5a577gtYhjRIC2vfsYu8YwypjGXmeszD5rz1jnTu2iNp5uRfe3/pXVDBYfvJKzUFFT/qzICTn8AZCioJhGtnbQdcxXq4oFa9IafyLMgiyzYccoJIoSFimtn/Ppyggu3srjFYhq9C91yf0/GI+UcNy/nRT3ucFw2s02b2bfdqwKPhhREaCuU9VxavOShTP9kZ0H1D55MoQQX5+3FsyMd8YcB8pB4qEz7YLuPVf9PwAETsBHC5VzHGCDZ+8kPQzGpdV7gvpdi3fkhi2r6u8NL4v37eL7hI72WtO/SQbdt3OKvat35WvehFN8QtXt7Kt1rqDPuKTNA4fLNHSTlXeYSYhtgdL8xO+tKH5WObF3aG/sV0NC9PCM5bVTExA4p2r1dAvXif746ygjQfzN8jGDJRWzRxZhb8uliGjprgbBpPoz61BBX7pREjCj1ZJU9AoxVBDfGlygw0nRYFlakzXpVPv/jaYX/PXRXliUcf1qcwqt9ggsrcBXscLwidmSm26GVT5+50ukbpefwGE1TAE54sEMRx/2m+oTwj8NKr63qMyjKiaeGA+wXeXPUGrnbTYP/RCip+cPTrXms7cb0T8wPHAYMg0LxGXtFekViG50qDwcmj2IDl3AGlJffJEX6QJtJGjdkoDnUe4vFQibfexPHAIhFU7NFX8IUZX5pN26Fioj01ZLXAywAGIQ+Cnja/zgECruPjgjbsZ4ISyBB/TRsa1U8PWyNrth5xFuFcfje8rNswDyWoYAM7ADy6MDZWw85nNJ4pqP+fV2KKjtGF+wPxdsxryvaixT38iGr4hwrgbj/P9DHFM6rRwYOHpGGzNjoreWnCcMmcKVBodVeGmMDIgdW7JYtU4DqtXVG5omjyF354Hg94bYtAXNNmd9kOJajY3kx4fxz1bCHJoeJKaYP33lDlhWd2KzHFJj/qt2jeCcIJ+H5cT5HWPZoRfiO5/vx6dmN/+MCGblswtC8+Ud179HuY+S6C99ZoR/zxo77DqHP3VK0pu/4O7I5UofzNclflSnJ+zpyyaPHv8p4KPGun+e2XH1xPlj/+WCIP1H7UOU7zT837qgnygn3z3ffy/gcfmaud6bfnvOoMK6xXnAmCip+8UktQ8avO1Oc50b9+CiroEvTmux+q7jyJjY0SKZM05aGCQtsPwkgOBA3T99TXH/0lLxJBBQFRq3YJbICH2xcq1ze7l5D8FyZ9JYWrKL6MxmKJFFT8ODYcU6yCiv211uYzvEkhJ+iin/zMYHjYH7pxYUQf/dL4l+r2gy+Gpnl5FJnrzelDhw7L088+7y6K9UVvmOrWhpd+bXi5vaZkNrlW/ccXvp/UsKn6qz3SpLi21Yt3rZ5Jx4GXxFDDJmN7ewhJLMN2N5TJJkdVNx97GFysmzekjBNsFGnD2bRXXpO5n3/lJLu78h1S/7Ha4TbxXG++xCR62GRzhAoUBuegwqU5nGtlwcoDAY1zXdi0KKiYL27tWjWVq6+8XBc3qt9gggq+4kEANA0vn/gavWvfMefa0V/4zDTBBBWk6ak8tDD8sWnta18sj1VK6tJmLsc0YlQh1pJpaLgUzpckWOO+ti1aQcUvjn7ca3uVB8HdSkRCQ8y0S9XXfgQAXqS6hdjrIJI+qIZZNy3SRk2iBRW/6k0cWySCCq7ZW1X8DC3WYTvUoTeq7rjo9ojrBUKHuV4/j5AW5tc5QF5moE/Mw1COy1XDHt4cWixMWiPOcPGo/7SFE1TQyKzS6U9XpNfb4XpB8NNtSnA0h4TFeq/704xxpPPAfXSFCkBdq/wFAd1g9Hr8mp6NejkEHYjysZgp0F98UV4Z2r9nLNk425iBc3UmeC+4ST378O5hPmex3isOTShBBdvYH2qwDNcbBiXAdfS7Ej8hIGuznyN+1G9+Cip+XE+R1j2aCX4jvf78eHbb3n2TVFDqG04GpUZZMPIihC5dR4Tq7or0pvlZ32EYXYz+Eo01f7axPNf82YBNRo8dL6PHJn30ClgRYqZFs6bSolmTgBRngqCCA/aLV2oJKn7WmQEnPEEzfgoqfublx+GmOUEFB4UXjSYj16Z4cfQ6YLhoDm9cyP2igzSRCCpIhxfghsOT+0xiWTCDmDK9fbGAyPhIa7oOB9sWwx/jIWO+CCdSUEE5/Di2WAUV7N/uzoNl2swXWD/4oYGGhpppXl8mvQKQvaBGG0H3g3D266LfZfCI8U6yfHnzyPCBge6Y4bbX6/HC3/mlDTJPuZaGM7jqD1V90/XIHUgfzcuTzh/DAz83br37gqCX27/4sogua3roVXu913ybTj1ly9Ykb6S2LZvKNVfF1qhPTUEF9cPjg1a77r5ex+X0pVdecRiFAWa/CIdq6ERzjsJ9MfQqG5YdVv2jn2pqCHzjh6m+zsku/MG281oeTFBBWttLxWt7eJ7t2HNU0Ccd5tVg09stUW7vj/b/S886v+boNAEr1Azul8Yj16iGSZK7vL0e8xABMcoGuijBohFU/OSIfftxr+H6fFJ5UKCREc6CiY+RNmoSLaj4VW+CQySCCtLBbb/dpPUBDVkstw3XzYCnL5Eq1wZ6sCCdH+cA+Rz+94S0Ut4hejQeLAtmGCq7uQqQrT8MIV2oekbng65z9ZXHkpe4qdPo37x8+EEAAEAASURBVKbV80oT9d/LzJhJ5np7iGVzHbrTPjYg8H7G137TC8dMH256+szX5ZPP5jnJqtx5hzSoVzvcJiHXv/hhZEOuo3vdiKaFArqWI+Nwggq6UDUetTaFaOVVKHzAQRc+syutH/Wb38+beK+nSOsem1Ek11+8z27UqQgXoEUu3PuDnyloFyWF93S4GEg6Az/rO+T54UcfS+u2HXT2IX+7dekojz9WN0Wa48dPyNjxE2TMuBdTrPNaAFGmWdMmanjlwODvZ4qg4hev1BJU/K4zva4JP5f5KYL4mZcfx5gmBRUcGFxhMfztW9/+7VZ+5gHDPRlda+Diar6AII0dMAzLvGJ4YDkU+cmq3/XrX+3y3A9eziGI1L8rt+vtgO1Mg0cGhuzUbrt6Hb7mtn34IqfBXqH1soAXHlTi5oucrbw//+BFzj51Xuav7Y3xhCpbG5XetniPLZoy2fuG98OnC/fIKyquif2FzO7PHA8/fEXQ3Qh0GcoVyiKzVX9m2/DyUrHdsoDzDKHsuxHlggZr1XmYldZdlW6TJx+vo1fF9Iv+wGPe2+723TYzwRcu9LP26v9vXtvRNBzxRQ4vl+jGpr+86H1CSLlZfcHtVCd/VFHtDx85Ik81aa2zkSnjhkmWLLE16luqfstaZGr70EWex44doSsUukTBwAdpvcz8OukV/wPxNjpO2Sjo3mPzeFR5S6Bhg7pHB0218zDd+e3rLZpztFPVc3cacULMIIFex6WX/broDyXwjXNm4xH4kEEoQQXr0cUEgqXtDYJ7p5Xqd/7wbbmcWD260YjhW9FdIJiZbu52zAKvbXB++itPFQSOtBuN2L6L2h8arjouFsoV6TC1fnLUZffjXoO32tRPdjjXuinE633guJsoTwAE3fYys9tgKMbm19ri+TPJW92Tu76Y+ZoxhaLh62e9iWfKdc2XuMUKFbT3H3V/91ZxKxAE2eYHL4XLi2aR7o/ld71N3UyNiXjPgc4KwdIh+uM9Q8fq0Osg6iAGU6NqeaTilefpxe5vqHrGTaQmwj3rIRjgHcGMm2Juj2l04cE9Nks9s3X3ICxHfdhBeZEFs4rt/nTjF9l1YbBtgi03Bfo2zzWRa6++IljSiJejjkcXZPzahmftfTdf4PkeibSmoIKBCy5Q73S2obsf7jd0f7Q9jpAW+0A9eefVKc8v1sdbvyXieRPP9RRp3YNjNy3S6y+eZze6Nr/3Q1JcMLw/zR1QRhCn0Tbcs7V6rXTf6ZEWI9OF6gKHPPys73SZVv21Wma8Mktmv/aGXuT+ZsuWTa6/7hpp8EQ9KX/zTe5yr4mffv5FZsycLZ/M/cxrtdxdpbIjyNxw/XWe60eNGRcgygQLcPvbosVSu+7jAXmsWLooYF7P3HxLxYAuS+YwzYcOHZIrrw08po8/eEeKFSuqN3d/MTw0hj3W1qlDW3myfmAZsM6OFXPVlVfI67Nn6M0CfuPlVadefVm48Dc3z369e8jDD3mPgNnsudby6WdfuGnbtHpOGjd62p0PNZGIOjPU/uJd56cI4mde8R4Xtk+zgoo+ODxs8IK6VfUDPqRemvHluMTFmcJWbHr7SH+xn41qP+hvjP1ADMGXetM7IFxeeCDAjRS/KKfZpz3ctolc78exxVM+PJz0S23mczM4X5S98kur/FDWtp17y+YtW51iP9+isVx3zZVehxD1MnXZyfrtR2TH7mNyoYqBUET1s1fv2AkzNEo2qf7lcGtFP/tSyjU5i2qAxmK/LV4ig4aPdTbNk+dCGTmoTyzZnPJtMJTq9pP8EePH/IJ4ygsXpAAzZs+R/81NegBXrnirPPVEyi9TQTZNsdgUe73ipOgNUI8glsaRoydUt4Vzna/Qtpit0ybqFwLUWtXtDdcsYlKgcR+P+cnRLocf9xrqBzTSdEMcQ++iy2m8x22XNVHziao3oykvvAgw0huu1WLq3QFdp6IxP88BGoObd6l3DNWlq0DujCEFnWjKqNOicY8uv9gHjhexygpcmDHq9yV8fMB9jmO/UL0LBbvPsT8MQ6+/+CPYba0Kgd3PdNnC/doC/eSxQ1UsiNgC23rtC8e0UQWfhVCG+ygR75Gon3CvgkeuHGdLwTyZHI85r/J4LfO7fvPaRzTL/Lqeotkn0kZ6/aW1Z3ci67vDh4/Ili1bnDh+8B4pVLCg5Mvn7W0Wive+ffuVV/FW+ftkfJZcuXLJxRddJDlyZA+12Rm7Li3zSnSdmYiT7pcIslQNpdx34Ai3iLOmJn1gdBecgok0L6icAibcJQkEEDhy5F95skkrd9mkMUMkWzbvL8NuojNg4hXVqP/oZKO+0h23SMP6KYOfnQEYTskhtu/aRzZuShrRqnXzRnL9tVfFVA67GwViRJXIH5uXUUwFOMUb+cXxFB9Gmtw96800eVp8LZTZJRDeNmZA3Wh3tOj3pTJw2Bhns9wX5pJRQ/pGmwXTk8ApI8D67pShP2N3fDrWmX2UCLJMiSF+WtkypaRbh+Q2mp95R5MXBZVoaDHtGUlg8R/LZMDQ0c6x80Uv+RLo0K2vbNiYNBpRy2bPyI3XXZ28klMJI3DkXyXwNU5+eEwcM1iyK9ffaAxeYxghZ8Tb2wJGMkOQYzSMzgTzg+OZwCnWY2S9GSu502M7dAVsPCI51h26+aG7X6w287W35MOPk7ojVLq9gjRs8FisWXE7Ekh1AqzvUh35Gb/D07HOtD1L/DiJHOXHD4rMgwRSgcAs9aL3wckXvTtuLS+NnqqXCntN27s4evSo1G/U0i3kxNGqUZ89uka9uzEnoiLwx9I/5YXBo5xtcl1wvowZ9kJU2yMx4o0gLoZpoWJtmOnSy7QfHNMLi0QcB+vNRFA9tXmiO9FzY9c53bB1N16UCCLsFyrGiFc8ikhLbAr0zzV9Wm664dpIN2U6EjjlBFjfnfJTcMYV4HStMzHc8dLlK+P2VIFnyoM1q0o59ZsWjB4qaeEssAxpmkCn7i/Iug1JI4i0UC96N/NFT5YsWy79Bo10zlusjfo0fdLTcOFmv/G2vP/Rp04JYxX4avRYKeh/rg0xo17vWkLyqADFZ4r5wfFMYRXLcbLejIVa2t7GDE6sS4p4Phh69jI1VHOsZgv0L44eJDmyM6ZDrDy5XeoTYH2X+szP5D2yzkx7Z5+CSto7JyxRGiMw7ZXXZPeevU6pnq5fly96isSfK1bJx59+6TC5tGxpwchHtNQh8NmX3wi8K2D3VK4oZUqXiHrHnV/aKGtVMOQieTPJ1SWyygO3XHDGdPXRsPzgqPPib0oCrDdTMjndl2BEmbov/CXnqoDmCKpbpmAWaVQ1jxP8Np5j27//gEyePsvJIud5OeIeRS+esnBbEoiFAOu7WKhxm1gJsM6MlVzitqOgkji2zJkESIAESIAESIAESIAESIAESIAESCCdEqCgkk5PLA+LBEiABEiABEiABEiABEiABEiABEggcQQoqCSOLXMmARIgARIgARIgARIgARIgARIgARJIpwQoqKTTE8vDIgESIAESIAESIAESIAESIAESIAESSBwBCiqJY8ucSYAESIAESIAESIAESIAESIAESIAE0ikBCirp9MTysEiABEiABEiABEiABEiABEiABEiABBJHgIJK4tgyZxIgARIgARIgARIgARIgARIgARIggXRKgIJKOj2xPCwSIAESIAESIAESIAESIAESIAESIIHEEaCgkji2zJkESIAESIAESIAESIAESIAESIAESCCdEqCgkk5PLA+LBEiABEiABEiABEiABEiABEiABEggcQQoqCSOLXMmARIgARIgARIgARIgARIgARIgARJIpwQoqKTTE8vDIgESIAESIAESIAESIAESIAESIAESSBwBCiqJY8ucSYAESIAESIAESIAESIAESIAESIAE0ikBCirp9MTysEiABEiABEiABEiABEiABEiABEiABBJHgIJK4tgyZxIgARIgARIgARIgARIgARIgARIggXRKgIJKOj2xPCwSIAESIAESIAESIAESIAESIAESIIHEEaCgkji2zJkESIAESIAESIAESIAESIAESIAESCCdEqCgkk5PLA+LBEiABEiABEiABEiABEiABEiABEggcQQoqCSOLXMmARIgARIgARIgARIgARIgARIgARJIpwQoqKTTE8vDIgESIAESIAESIAESIAESIAESIAESSBwBCiqJY8ucSYAESIAESIAESIAESIAESIAESIAE0ikBCirp9MTysEiABEiABEiABEiABEiABEiABEiABBJHgIJK4tgyZxIgARIgARIgARIgARIgARIgARIggXRKgIJKOj2xPCwSIAESIAESIAESIAESIAESIAESIIHEEaCgkji2zJkESIAESIAESIAESIAESIAESIAESCCdEqCgkk5PLA+LBEiABEiABEiABEiABEiABEiABEggcQQoqCSOLXMmARIgARIgARIgARIgARIgARIgARJIpwQoqKTTE8vDIgESIAESIAESIAESIAESIAESIAESSBwBCiqJY8ucSYAESIAESIAESIAESIAESIAESIAE0ikBCirp9MTysEiABEiABEiABEiABEiABEiABEiABBJHgIJK4tgyZxIgARIgARIgARIgARIgARIgARIggXRKgIJKOj2xPCwSIAESIAESIAESIAESIAESIAESIIHEEaCgkji2zJkESIAESIAESIAESIAESIAESIAESCCdEqCgkk5PLA+LBEiABEiABEiABEiABEiABEiABEggcQQoqCSOLXMmARIgARIgARIgARIgARIgARIgARJIpwQoqKTTE8vDIgESIAESIAESIAESIAESIAESIAESSBwBCiqJY8ucSYAESIAESIAESIAESIAESIAESIAE0ikBCirp9MTysEiABEiABEiABEiABEiABEiABEiABBJHgIJK4tgyZxIgARIgARIgARIgARIgARIgARIggXRKgIJKOj2xPCwSIAESIAESIAESIAESIAESIAESIIHEEaCgkji2zJkESIAESIAESIAESIAESIAESIAESCCdEqCgkk5PLA+LBEiABEiABEiABEiABEiABEiABEggcQQoqCSOLXMmARIgARIgARIgARIgARIgARIgARJIpwQoqKTTE8vDIgESIAESIAESIAESIAESIAESIAESSBwBCiqJY8ucSYAESIAESIAESIAESIAESIAESIAE0ikBCirp9MTysEiABEiABEiABEiABEiABEiABEiABBJH4LQQVI78e1T27Dsg+w8eksNH/pVjx44njghzJgESIAESIAESIAESIAESIAESIAESIIEwBNK0oAIhZdvOf2T33v1hDoOrSYAESIAESIAESIAESIAESIAESIAESCD1CKRZQeXv3ftk49YdLokLcuaQ87JnlayZM8k555wjGTK4qzhBAiRAAiRAAiRAAiRAAiRAAiRAAiRAAqlKIE0KKtt37ZatO/52QEBIuSj3BZIx4zmpCoY7IwESIAESIAESIAESIAESIAESIAESIIFgBNKcoGJ6puTPl1tyX3BesLJzOQmQAAmQAAmQAAmQAAmQAAmQAAmQAAmcEgJpSlBBzJTlqzc4ICimnJLrgTslARIgARIgARIgARIgARIgARIgARKIgECaElTWb97uBKBFN5+CF+eJoPhMQgIkQAIkQAIkQAIkQAIkQAIkQAIkQAKpTyDNCCqmd0rZ4oUYMyX1rwXukQRIgARIgARIgARIgARIgARIgARIIEICaUZQ0YFo6Z0S4ZljMhIgARIgARIgARIgARIgARIgARIggVNGIM0IKqs3bJH9Bw5J4QL5JGeObKcMCHdMAiRAAiRAAiRAAiRAAiRAAiRAAiRAAuEIpBlBZemqdXLs2HFhd59wp4zrSYAESIAESIAESIAESIAESIAESIAETjWBNCOoLP5ztcPi8tLFJEOGU42F+ycBEiABEiABEiABEiABEiABEiABEiCB4ATSnKByRZliwUvLNSRAAiRAAiRAAiRAAiRAAiRAAiRAAiSQBghQUEkDJ4FFIAESIAESIAESIAESIAESIAESIAESOL0IUFA5vc4XS0sCJEACJEACJEACJEACJEACJEACJJAGCFBQSQMngUUgARIgARIgARIgARIgARIgARIgARI4vQhQUDm9zhdLSwIkQAIkQAIkQAIkQAIkQAIkQAIkkAYIUFBJAyeBRSABEiABEiABEiABEiABEiABEiABEji9CFBQOb3OF0tLAiRAAiRAAiRAAiRAAiRAAiRAAiSQBghQUEkDJ4FFIAESIAESIAESIAESIAESIAESIAESOL0IUFA5vc4XS0sCJEACJEACJEACJEACJEACJEACJJAGCFBQSQMngUUgARIgARIgARIgARIgARIgARIgARI4vQhQUDm9zhdLSwIkQAIkQAIkQAIkQAIkQAIkQAIkkAYIUFBJAyeBRSABEiABEiABEiABEiABEiABEiABEji9CFBQOb3OF0tLAiRAAiRAAiRAAiRAAiRAAiRAAiSQBghQUPHxJPz3339y6NAhOXz4sPz7779y9NgxOX78uJw4ccLZy1lnnSVnn322ZDznHDn33HMlc+bMkiVLFsmQIYOPpWBWJEACJEACJEACJEACJEACJEACJEACiSZAQcUHwgcPHpR9+/fLgQMHYsotW7ZskiN7dsmaNWtM23MjEiABEiABEiABEiABEiABEiABEiCB1CVAQSUO3vuViLJ7zx7HG0Vnk02JIpkyZZKzlCcK/E7gtYL/MHii4D/mTijPlSNHjsgBJcZog9fK+TlzSnYlrtBIgARIgARIgARIgARIgARIgARIgATSLgEKKjGcG3Tn+fvvv+Wg6t4Dg4CSXXmZOGLJSfEk0mz1NvuVdwsEFlhW1Q0oV65cTregSPNhOhIgARIgARIgARIgARIgARIgARIggdQjQEElStZ79+2TnTt3Oludo2Kh5DzvvChzCJ18z969ckzFXoHlzp1bzsuRI/QGXEsCJEACJEACJEACJEACJEACJEACJJDqBCioRIEcXino4gPLqbrmnC0nZOeCuXLi3+RuOzq7zHkLS85SN+jZgN+9K3+WQ9vWBizTM3lvqinHM5wte07uB12A4K1CIwESIAESIAESIAESIAESIAESIAESSDsEKKhEeC527tole5X3COzCkwLH8SMHZcN7I+XYgaTlZlY5il8t+W6tbS5yp7d/O0f2rlrgzpsTRet0kbMzJ8VQ2aUEHNh5ygsm94UXmsk4TQIkQAIkQAIkQAIkQAIkQAIkQAIkcAoJUFCJAL7pmYJuOP+dHAY50YJKBjXMsu5eRE+VCE4Uk5AACZAACZAACZAACZAACZAACZBAKhGgoBIGtBkzxRRTsFmiBRXswxRVGFMFRGgkQAIkQAIkQAIkQAIkQAIkQAIkcOoJUFAJcQ4wms/GTZucFLqbj5k8NQQVvT/d/eeSAgVOyeg/x9Uwz+ChLXPmzM6oRno+Lf8eOnwY41c7RTxbDWeN4alpJHA6E9i7b7+cdVYGZ3Qxv49jx85dcsH5OQVBt2Oxo0ePyp69+1Q3RcZ+ioVfWtsmkddaWjtWlocESIAESIAESIAEoiVAQSUEsa1btzpDIyMA7TmqIW5bagoqx5SggUC1GFL5oosusouS8PnZr70hPXr1dfcz8+WX5PrrrnXn0/LE1deXlwNqWGrYjTdcJzOmTUnLxWXZSCAkgS/mfSuTp89y0jRr/KRUuOn6kOmjWTl6wkvyw/xfJGPGjDKob1fJlzdPNJvLug0bpWvPAXJcdYu8845b5en6daPaPlji3xYvkeFjJjqrG9Z/VG6tcGOwpFzuI4FEXms+FpNZkQAJkAAJkAAJkMApI0BBJQj6/fv3y/YdO5yvtIhf8t9JDwcz+Yl/D8nGD8fLsYMpg9JmL3ql5C1fy0zuTu/44R3Zt/o3d96cKPxgOxWUNpu5yJnOkCGDM8IQhlTOmyePZM+eFLg2RcIELZg5+zXp1ecFN/dXpk+RG66/zp1PyxMUVNLy2WHZoiXQplNP2bJ1u7NZ8aKFpU/3DtFm4Zn+8JEj8lST1u66WjWqysO1qrvzkUxMn/m6fPLZPDfpzJfG+uLJNv+XX2Xk2ElOvg3qPSJV7rzd3QcnEkcgUdda4krMnEmABEiABEiABEggdQlQUAnCG1190MXFq6uP3gTBaY/8s0X+U94jtkEUOfc875F5ju7bJccOJXlM2Ntlzl1AxU1J6Q2j06HrD7qsoOuPH/bLgoXyTJPmblYd2j0vdWo/5M7rCQoqmgR/TxcCR5RAcNMtFd3iVq50hwwemCwKuitOs4kZs+fI/+Z+4ZT6gZpV5aH7oxM9Qh1u2869ZfOWrU6SHp3bSOmSxd3kK1b+JYOGj3Pm76tWRWpWu9tdpyd+W/yHm6ZEsSLSu1t7vSquXwoqceGLeeNw19rAYWNk5ao1Tv4TxwxW3dDOinlf3JAESIAESIAESIAETkcCFFQ8ztrBgwdl67ZtkilTpoTEKPDYZcSL9quuK2goXpQvn2TNmjXi7YIl/P6HH6XB043d1Z3at5UnGzzuzusJCiqaBH9PFwKInXPlNcldQ+64/VaZOH7M6VL8oOWEt9zvS/50Gq+XlSsdNF0sK44c+VcWLvpdChbIr0TbiwOyWPT7UkEDGla1SiWpVzel8Ip1a9dtkG07dso1V10uGWOMw4J8TKOgYtJIvelw11r7rn1UnLEtToFmTBkjZ1NQSb2Twz2RAAmQAAmQAAmkCQIUVDxOw7bt252YG6G8Uzw2S7VF8FLJli2bim+QN+59UlCJGyEzSKME0qugcqpwRyqoJKJ8FFQSQTX+PCmoxM+QOZAACZAACZAACZzeBCioWOcPX+TWrF3rLM194YWesVOsTVJ1FrFUdu7a5eyzaJEiMccn2KCCRyJGzK+/LZJBQ4a7x1D3kYelxn3VnPk8eXJLoYIFnelgHir79x+Q3xYtlkWLf5cC+S+WK6+4XIoUKRxRuX7/Y4ksX7FStqguBpkzZ5L8F1/sBLrNG2UgTLfwQSYijaGCY8G5/2v1GtmwYYPjBVSyZAkpUby4ilmTMq4NRj5apL7m/6f+RWpXXXmFYKShFStXyb59+9zNypQu5Yhk7gJjAnyxLxiChV5x+WXG2tgnMST4jz/+pOJxbJW9e/dK4cKFpGyZMlKsaBGnjHbOx4+fUMe72D1efX2ga9zi3/+Qxaq7RyZ1Hh964H7Hu8vcXu9r06bNsm//PsmrxEBcv9dde43aV+huAidU1zpsh3OzatVq+ffov4LzUrJEcafrm93NAMGbV/21Wg4dOixPPdPELcal5cpK185J8UYwShXmvWz58hWyZOkygbB64sR/Kgh0XildqpRcdmk5r+TOMmwD7zGYzhvlXqnO8y8LfxWMfHNX5Tude8RJFMcfBHw9rI4NljVrloB77Yg6F8eOHnO8V7JkyezuZdPmreo8b5N8+fJI/ovyeZ5fJEY5//33qJMn8naWqbhN/yrPlcVLlsno8VOcZZXuuEXqPnS/M31OxnMkkzFy1oEDB53lmTKdG3KkoH9275H1GzapNGdLUXXt6f05G1t//BJUcB8h/syOnTudrpOIQYPzFantUffJtm075J89eyXneTnkIlVXna9GRApm2N/hw0ec1ea5wvnYum274wWUV9WzqNdNw8g6GzZuUvf9CSlZvKiY59JMl/D8g1xrBw8ecp6NXXsPVPfJDqdIE0YNcj1UzGM1y8tpEiABEiABEiABEkhvBCioWGdUd/fJprrTRPOibWWT0NnDqivDAdUtKZ5uPwgwC5EklD2iYqn06dnNSeIlqKChP2TYyBRZFCx4icyeMU01mr1HCPlr9Wpp276z02hNsbFa8PCDtaRXj64hG2Ne2wVbFk5QQaNk+sszZcDgocGykIZPNZA2rVsGNP4hbJW/tVLQbbxWfPnZx06juk37TvL+Bx+5Sfr16ekct7vg5MSmzVukYuV73MUliheTj95/252PZQIN/WEjRsvEyS8F3RznHefftN27d8sN5ZODgdZ++EGpXKmiNGqaHIMH6b//5gs1ZG5y/KDRYyfI6LHjzazcaVwrA/r1Djpi1GolbnXs0t0R7dyNjAncA5NfHCulSpV0l/7vk7nSsnU7d95rAtt9/eXcgFV/LFnqjGQFoc/LSivRq0fXTo4IZK+/r9bDAlEFhrxfnTVdHnz4UdHDnWP5mJHDpMpdd2IyLvv0i69l6oxXnTxaN28k1197lZtfnwHDZdnylc48AsK+9PKr8vV3PzpCiZtITSDYbM3q96SIeTF01ARZ8OtiJ+mUccOchvz4SdPlm+/nm5sHTBcpXFBe6NnJWYbGdesOPZxpiC4Ykcc03Guvvfme/O+Tz52RgMx1EC2r31NZanjEZolXUIFQPuftD+SDjz9LweI8JYzcrYLcIghvMFu9dp1Mm/GarFq9NkUSHD8C5ZYqUSzFunc//ERem/Ous7xzu5aybv0GefOdDwUBgLVheOk2LZtIYXUvgN/El15xz6GZpsPzzVXdETjCW6Lz97rWICo1bdlRF83zt2uHVlKuTCnPdVxIAiRAAiRAAiRAAumJAAUV62z+rbrT7FZfuHNdcEGKr4ZW0lM2i8bB3//8Ixh9KFeuXDGVI15BBaLHG28Gb9ij4T/7lWmCIadN264aDA898pgTo8Zcbk8/UKum9O/by5dzEEpQwRfgxxs8LQjOG84gHowYNsj5so208Qgq8776JkCIQN7jxoxIUYTXXp8j3Xr2cZe3b9vaEXfcBTFMwCNp8kvTwm75RL1HpVOHtq43gy2o3HTjDQLxQQ9JrTM0BZXxL06S4SPDxy157+3XpUzp0joL5/frb76Vho2bBSwLNjNtyotS/uabnNWxCCqffzlPmjZrGSz7gOVDBr0gNaoneXHpFaaggq6ChYsUkoULA0fy8ktQmfv5VzLtlSQxtGWzZ+TG667WxZDe/YfJnytWOfN3V74jYMQdN9HJiTtuLS+NnqoXsHjwiPHyq/K6gk0eO9TxGhk7cZp898NPAenMGVNQgfcHRoaBVbq9gjRs8JgzjT/waujYvZ+6b/52l3lNYLunlRBjem3EK6hMmT5bPp/3jdfu3GVXXl5OWjVrpLyrznWXYQJBejv16J9CiDETIXZI354dHVHEXP7uBx87AhKWQWDCMMReBs+z3t3aSa9+QwPEFjNtZhXTq3/vzgFDWSc6f69rbbfyznm2VRhBpb0SVMpSUDHPH6dJgARIgARIgATSJwEKKtZ53aq6Pxw8dEhy584tGMUnlP13/Jgc2LBUThw7GipZVOtyqOGWM5x9TshtMqiX953KZT1rliyqO0LgF8uQGxor33r7XUGDdavq1mA2/NBdp1yZpIZthQrlXa8J20NFZ4XG49VXXSnLV65U3WQ26sXOLxrjT9Z/3F2Gbh+PPfGU+yUfK7C/infcJvv27pMv530d8EW/UcOnpO3zkTVy3Z14TIQSVGxhA7FpbqlwsxRQQTnnz/85hRfNjGlT5MYbrnP2AiGha4/eQa+Tv9asDThWsPp87odOMGF0rYC3hylGLFo4X7JY3Q/g/YEyavti7kdyySUF9GzUvy9OekmGDg/0KsI5uObqq+T7739MIXSNHjFU7q5S2dmPLajYO4e3Ca6B+d99JRdccL7gGoN3iWl3Va4kxYsVcwQsU8QCm9dnzxDkoa3WQ3UC+KOLDsoJwfOLL78KYIeuQ7NmTHU2RfezqdNelqOqq8qnnyWNhoMVOLe331rBSYMuR507JnmxoMtT1fseCMgPiSpVvN0Rk8w8nI3Vn7n/e1+KqG4q2kxBRS/Tv/BY2aeGYR86qL+Tp14e669XI1fnZQoqWAavj2rK66Ns6ZJO15NPPvtSCSZ/6OQysG9XJwCtXuAlqOzYuUvdl//In8tXyetvveckvfrKy+W+qnc50znUPtDdDxZKUHlDeYi8/V6SVxbqLowUVFp128qougz99vsSeee9/7leK726tFVdupI9PuIRVEwvDggf5W+63vHqgbcM8v1Z/Uc3Ktg9d1WUJx592JnGn92qWxJGPsIzAQYvEmxfskRRWb1mnfww/xf5S/3CIHgM6tdNeWcli9ym4IE0EE4wMlPZUiVkkxJqZr76lps31sPyX3yR46kDb5Q1KsDvzNfecsUciGT1H6udlFD9TXT+XtcaBP3lasQn2CjVBQyMYF3aw4PvbGcaIht40EiABEiABEiABEggvROgoGKd4Q0bNzovr3mUoIKuEaHs+JGDsuG9kXLswN5QyaJaV7ROFzk7c/aQ2yBmBGIA4OW84CXJDdCQGwVZGWtQWmSHbjmIuQKDp8egIcNk6vQZzjz+1FSxWMxhavsPHBKw/v4a1WVg/77ul+h//tktD9V5LECY+fC9t5xYGW6mMUyEElRsweL9t98QdO3QNvu1N5xuIHq+RbOm0qJZEz0b9BfxWB6oXVfWqq4C2ua8NjMg/kmffgNkxszZerXTdeW2W29x5w+pRtyV1yZ5XWDhNddcJa++Mt1dH+0E4pBUvOvegM2GDxko1aomdyn67Isv5dnmrdw0EBUmjB3lzHsJKhApILpA0EAcHG1e3jvvvPma+mpdRieRaS+/Ii8MGOzOV72nivIASpqH58uDtZO7i9geS4jbcnuluwMEuEULflRdVLK4+UUalLa3Og+vGOcB3lWvz37FjZuDfOopIdDsCoRrd9CAfu6+vAQVdA+qXr2qirVxnpvOjwmvRq7O1xRUIFpAMLkw1wV6tfM7aPhY+W1xUremOg/VDOhi4yWo6I0jCUobSlB5tnUnp/GNeqt/r06OcKDzxi+6Jk2Y/LKzCF2SzC44sQoqGHGoc8/+7m7atWoqEINMW6Hi8vTsN8RZhLJNHjfUHZ3I7EKFYaB7dW3n1lfYAOJCv8EjZemypO5eRZVnUr8eyd4bpuDheLGodYULJdfZEKpatOniFudiFa+nn+o+ZYoRZvlMbyBslOj8Q11r2D+D0oICjQRIgARIgARI4EwmQEHFOvtr161zhJRIAtKeKkFFB6aFsFKkcGHrCKKbjVVQQSMcjXHTEH/mqutudhfB2+DzTz505vE1+JbbK7sNYHy1//Tj91MEL0Vcltp1k71aWrZoJs2aNnLzjGUilKCCxjKCeMIQXNP2EIEwcs0N5d3dVih/s0ydPMGd95qAENeiVZsA74i+vboLYo6YZh9rvcfqSvcuyY0x23vGFLDMfCKdhtgFUUubGSNHL8Mv4o+g24y2BfO/kxw5sqvGcGAMFawPJnjZXZWCxYhBlx54Smn77ZcfHA8eCHS4nrRhiHA7eO2YcS/KqDHjdBJHbILopC0SQeWY8mK5/ubbArxTvI4Jnjd33h3Yzcf0KLIFld4qBk2d2oExaHS54v0N1cg1BZWnnqgrlSvemmJ38DTpPWCYs/y2CjdJk4ZPuGkSKai4OwkygbgiTzVp7axFd5GuqtuItlgFlekzX3e7PYUa6hneM/N/Tur216zxkypIbkGni1LDZm2cIkBoGTvsBVdk0+XCL4IfN1NikY6LMn7kAFdEMwWP22+5WRo/nVy36Ty69BqgAi6vd2afbdRAbrn5Br3K/a3fqKUj9EOUwfDE2hKdf6hrDWWgoKLPBH9JgARIgARIgATOVAIUVKwzv3rNGmcJuiCEs1MlqKBcOthlsaJFwxUz5PpYBZVgDUa7Ybli6SJn/+vWr5e77rnPLQsElfFjR7rzeuKIalTVeay+nlUjo1SSsaOGO/MI+ml3IXETGhPwmDC7xYQSVIzN3EmUASO27FfdNDBiyf0PPuKui8RLxI4bgngzEBRsw9dteFls3bbNWYVrDvFHdOyInr37yaxXX3c3M2OTYFvEognnRdW08TNuINR2HTrLu+8nCVzI9OWpk+WmG69389cTEL+OnhSZsEx7ntiCSqgAuR06d5O333lPZynDBg+QokWLuPN6YuTosQFdmrxiqei0OFacjwMHD6gRkvY73XrmvPWOXq2OZ5I6nuTGaCSCytp166XKvcnX5eWXXSpvvj7LzdOceLpRU/nm2+/dRabHjX3d//jtPBXfKNAzxN0wzolQjVxTUBnYR3XnuSR/ir2hiwa8RWBXXFZWOrZp4aY5lYLKETWS0JNNkkQUjL7Tp3vSiEwoXKyCitng79ujgxRT3dsiNdMjxxZ47DxMbmZcG1PwaNqwvtxa4UZ7U6fbzI8/LXCWjxzcR/LkTg7orBPr4wglqCQi/1DXGsqmy4VpCD0oH40ESIAESIAESIAEziQCFFSss01BRcU9aZDyK6odQyVYY/zJhk3ku+9/cKlqQQVxWurUSxZK3ARhJswGbqR5fPDum1KqZAk353CCCoY1feudd52YKV9/+12At4KbycmJcIKK7VWCuB+zVTcdLUrY+dleFrqRDvGgwm13usIZugJhNBttWF/msqv1bNBf06vliSefkR/nJwcX/XbeZ0FHYvLK0BZUMDzyC317eSUV+zrwTOSx8KVJE5wYNnoVutl8/MmnAuEPQxmHslgElQULf5W69Rq42QYTv5DA7rKG86G7aJmCCoSxH7790s3T74lQjVxTUHlFNXDtIaVRFsTvgccD7LJyZaRzu+ecafwxhQEdlFavNAWGYN4eobr8IB94cfyycJEgr1V/rXFGK4OQgjKZ5peg0qhFOyWMHnCynj5xpNNN0txPqOl533zvjLiDNFXvvlPq1Qn0MDO3nfPOB/LWux85ixDjBLFOYKagAs7gbRvikGhBxfRuMdN16NZXDaO82REsgnmoJCL/UNcaykdBxTxLnCYBEiABEiABEjgTCVBQsc46u/xEJqi8Mn2K3HB9UnBWE6H9FV8LKtGM2GLmZ3pBJEJQWb16jbRs0z4geKy5f3s6lKACbwcEUtWBZhFf5IN35jgBbu189Dz2f0/1+/WsPN+qhTRp1NARD5CXNntkmVgEFTvI65JFv0TVwLQFFXRhQlcmL7P35ZXGaxm8keCVhC4/k6a85Azv7JXOa1ksgop9XaJ7GbqZeRlGRsIISdpGDh8s995dxZk1BRV4X9lDMutt/PgN1cg1BRUMm6y9ncz9nipBZYOK4dN/yGg3iKlZJnvaL0Hl8aebOwFn0WUHgko0hiGWZ6mAsLAG9WpLlTvvcKa9/pjxXxB09qH7qzvJKKh40eIyEiABEiABEiABEkg/BCioWOeSQWkTI6hg5JWH69RzaaPRiSGAvWyPGsVFD7d8Xs7z5LZbkkZm2bR5i7z8ykyvTQKWYXQgs8tWKA+VKlVrBASO1SPBlFOeJeepYKI5smeX1v9n7z7goyjzP47/EkIn1NClKCpYUBRU7AX15K+np556VqRIk44ggjQpKiIWsIBYUBHLiY2iKHZFEEVE5VSKitIJvSfwf35PnMnsZHaTDcmyWT7PvY7MzszOzL5n4W6+eZ7fc0f20INwgYqGKFdeE1qE1t/bIuQiPS+84YPTI8c/bOjbeV+G1G/QIT+jx5iCyGamqUhNH/ibnHiC3cVfgPe96W8FDsMJd7xoAhV/bZT7RtzjTjftPb5Td8IpwqkhXbVqVeXdWe9Ltx53eHe1xYLPNT11qlZNs/dlxruzQuqv5CdQ+X7RD3bolHOioNpAzrbBQ4eLFil22qRnJsjpzbOGcBCoZKmE66Gy2xQRbteplzubTvnyqXJq0yZSs0Z1W5+nXNkyUtbUyRn8d3HYggpUOna/U7aYGcS0PfPEGNNTrFTWhebhT29I4p/9x/92nf3ozXfetau94QuBil+K1wgggAACCCCAQGIJEKj47mc00yZHqqFSqmpdKX9UU9/Rs15uWfKt7Fr7e+C2vMzyUxDTJjsn99dQ6dent7RpnV2k0tnPP+Qn2h4qK1etkvNaZM8mo1Pxaq2TWLRwgYq/0KhOh/zsxPGSkpLiXpbOJnN8k+w6I0GBivYW6d6rj7w36wP3fT27dxGtX5KXNvmll2Xo8OyZSL74ZLZ0vL2bO6tMpIf8vBzf2WfgkGGixWKd9vi4h+XCC853Xro/083MI1rXRUMbLQTbqGFDuy2aQMV/Lv/sSe7Jwiz0v3uweOujBIVTTz39rDzw4MPuEfITqPi/l94eUe6B/17QIWvaS8pp3uK1BCpZKuEClQULF9nhRLqXzmQzeuTgHL1ndGrpDl372gMVVKBy16CR8rspKKxt0F29pJGZrjiv7fsfFst9D461u+v79P3hmnfmpF5dO0izk0+0uxKohBNjPQIIIIAAAgggkBgCBCq++5ieni6bTA+JypUq5fg//L5dJVKgktrgJKl+9rX+t9jXaz//r2xZklWE0L9DXgIVfdBN37hRKlaoYApf5l48138O72t/oKLT02pvAn870EBFj6ezpGiIoU17gkx/+3UzdWpN+9r5Q4d6TJsxUzIysmoqHNmggZx4QmNnc75+hgtUpk2fKb36ZM+qM9DMsHOzmWnH2z7/Yo60ua2juyooUBk/4Wl58OFH3X00pBj36JjA+hXuTp6FdevWy5nntnDX9Oh2uzz8aHa9FC3e2+L889zt+V2YMfM96WGGNzlNe8O8PHlSyLAfLUirsyx5pwh2ZrOJJlDRWYJ0tiCn3da2tfTpnVVw1FmnP7XQsNZG2W/+k2T+o+FRyZIl5ZzzL3aL9ep+ixctCJnlR/8OXHfDLaIzJTktt0DFX/TXeZ+/l9LjYx+SC1tc4Gy2P/1/T/RYn5vgy5l56FALVM40M9Hcbmak8bdwgYp3tp32bW6S887OnjnLOYa3R0hBBSqvvP62rWOi5wh3zbrNmeVn//59ooFI7Vo1bb0XZ9YhLbb66IMjpFLFCrp7SNtiCiTr1MdOHZgJYx9we5MdSoHK4w/fZ/43qXyIDS8QQAABBBBAAIFEFyBQ8d1hnapVfzuv3c9z6x5+sAKVXWaq3+3mOnXYjE4neyDthx9/kqvMUBWnadDxmAkDdOhFsWLF3FCpIAIVf48C7Q0w4Ylx7ow8Wjzy/tFjQnpRDLirr7S6+Ubn8vL1M1yg4v/sej1TXnzOHW6kvRHadujs1kTRk/sDFX8NDp0qeuprU9xpU/N6wf4hMs779H58ZQqcashwoM0/BbQeT+ugaN2QmjVqiAY7z09+STQgctoN/7lWhgwaYF9GE6jo36MzzTTZTj0ZPYBOCa3nK1GihD3e3HnzpYfp2ePMWKWfdc5nH9kCvtpD58OPPrH76R9a/Paqf11uQyotInzP8JEhPVh0H3+gElRnRmenurTlJfaB16kv4g/EnL8DpzRras/37YLvpH2nriGfpcNtbaR3z6zCrnruQyFQ+eXXpTJkZFavMh2y8+QjodOmq0O4QOW9Dz4WDVW0XfnPlnLNVf+0y84f+r7BIx5wC8gWVKDivR49l05brNMXe5u3J4oOPXvqsdH23z7dx9vz5LDaNeXeof3dbbpdv2MDh41ypz3292RJ9EBlkPnsS5b9phR2+m2dhpuGAAIIIIAAAggcSgIEKr67rb/5Xv7bb3ZtWpUqdtiDbxf35cEIVPQhcP2GDfYaDq9f3w083IuKcmHL1q3S7LSzAt914/XXyeCB/e22gghUtPdDrzv6ifZe8DYNIfQ3/t7eBrpd182a+Y6tseDdP9rlcIGK9oZp1vyskAdlPbb23Fhp6rU4D/re83kDFR0ao71uvKGB7qsP5OGa1t04ofHxOTa/PW263NE3y9q78bpr/y3DTAhQUO3V116Xuwfn7IGk1kGfV8Oh44871p4+mkBF36D3U3u7+Jsaanjj9FZytnt7CPmHQek+eo21TM8Bb+8Z57360x+o6DpvfRp97TT9zs1+b7p9qdMrX3HVtSG1dJz9gn5qkKnDfVJTy7mbD4VARXtidOyW3cPpyCPq214fGjQcd0zWsDBvgHHBuWdKu1uzwtB16zdI9z7Z3+PmpzaVU8ywGJ39avHPS0QDF6eHh6IWVKCix/rk8zky/ukXdNG2ExsfK6c2O8kGI999/6N8PX+BW9tFi8lqUVmn6fTpfe8e7hbSTatSWU4/rakcXq+uGUr0l52dZ83adXb3cuXKyugRg0ztpVTn7Qk/y8+TE58X7VmkTQv/nnf26dLAfC9ObtJYykX4d9AFYgEBBBBAAAEEECjiAgQqATdwzdq19iFZH+AitYMRqOj16IOvPrRXr1Yt0uXleZt/Oljnjd6H+YIIVPS4u820qR1v7x4ytbJzPu9P/XxTX30pqqKp3vd7l8MFKrpPuCDDeb8WdZ339Xw3bPAGKkuXLZOWl13p7Jqnny+bKZT1GP6moYxep7+Fm57av19eX2tgqHVHdMaa3Nq4R8bIxRe1cHeLNlDRN+o01O3ad3aPEW7h1ltukv79socIbd6yRTp07hpSs8T/Xp3i+LXX33BXBwUqH3z4kXTuknOokX8mnmXLlsttnbrkCHncg/+9oP8mPP3UE3LsMY1CNh0KgYp+4OGjHpafFv8S8tnr16sjI4fcZdeFC1R044RnX5SPP/0y5L3eFxecd5Z8+PHndlVBBip6QO+0xt5zepc1ZLm9Q2sp7qmhpNvXb0iXvgOG2SFA3v29yxomjBp+t/k3uap3dcIHKktN7xTtoeNvd/ftYf6OHO1fzWsEEEAAAQQQQCDhBAhUAm6pM+xHh1lE+i3bwQhU9DemGkoUxHAf56Nr4dWZ771vZjB5NeQB9iZTT0SHaWjTYqZaaNRpOjSm6cknOS/dn/6hK860ye4OZkHDgyefelpenPxyYO+O1q1uklbmAbuCmWWnIJo3UGl+2qm2J4P3uFof48GHHs3R80FrmbS+9Rb5R8vL3XoeWrj2heeyhsQsX/6b/OPSK7yHynX51SkvuLPu+HfW2YSmz3jXXa0P759/8kHIEAN34wEufPTxp/LMc5NEh914mwZZpzQ72U7f7BSjdbZryHFK87Odl3L9ddfI0MF3u6/DLcz5aq48MX6ifDV3Xo5dNFzq0bWLND/tlBzbtOfIffePllnvz3YDLd2pWdOTpV/f3qJTnHt79YQrlKznf/W/U0Ns69evJ7NmvB1yTv18zz73gkx6YXLg91I/b9s2rUJmkHIO4O0J4+394mwvyJ+zP/5Mnp40xR7SWwBVV3gDj7DTJmdkSKvbutn3NznhOOnbM3ua6IfGTZCvv8kqvBs0K44OG5v+3mx5f/YnsmPnTnsMb6CivTV63jnYrr/w/LOlzS3X22Xnj+nvfiBvTX/PHdqj6zWM0J4hl7W8UG5sk3Ut2vvlnoHZvWHmf7tQxowdbw/TttX10uK87O+hc+zcfmovmDfemenO+uPsr71OLrn4Avk/899wbeWq1TLZTKG8YOEPOXY5/thGctN/rpa6dWrn2PbOjFky5bU37fpwIcPYJ5+ROXOz/h6OHzvKzmDlP1D/Ifea7/sK0VouLzw9zt1c2MeP9F1zLmLhop/knZmzQoK2cJ/VeQ8/EUAAAQQQQACBRBEgUAlzJ//86y/RoCFSL5WDEaho7xStQXFY7Zz/5z3MR4lqtdYE0ClOtUCodscvzJZhHuxWmQcV/UzJ5kGhdu1aEb0L81r02PoAr8NQypQuLTVr1iiUICPSZ7jh5tYy/5tv3V26dO4g3brk3rvDfUM+FrTXyZo1pkeWqXmin1lrqRRW0+mwV69eY89VqWJFe7+deiq5nVOnzN5pHuB1SuXyqdlDKnJ7n3+71l/RArhaK8OpoeLfR4em6ffSGVqn/wbUMNP76oM/LUtAezppuKv/TpQuXSrqvys6fEi/dzo8ppqZBjvcvShob73uzZu3mH9zNkpK8RSpbb7z3lm9cjuf/tu43gxf2r59h61flZZW2X6XcnvfobBdbfR/M5OTkk0PyjKHwkfmMyKAAAIIIIAAAkKgEuZLsM1M4bl23Tr7f7Z1Nh39P+I5mlmXucf8ltbMDOFvScWKS3Lx4EBi317zUJe51/8W+7pYSVN/w9RJ8Td94NDZhzSEqFa1qimqmV2/wb8vr4uewNQ33pJ+AwaFXPjcLz6RSpUqhqzjBQIIIIAAAggggAACCCCAQHwIEKhEuA+rV6+23dormEAlxcx4czBbhvmtuf6GX3tP1CjEXgQH8zMeauf+dclSM9ToEVm4cFHIkBZ16NyxveiQIxoCCCCAAAIIIIAAAggggEB8ChCoRLgv2n1Zh/5oizT0J8IhCmyTMwOLDvXJ6zCJAjs5ByoUAa3t0apN+xzHPvOM0+WRhx44oKEtOQ7KCgQQQAABBBBAAAEEEEAAgQIVIFDJhVOnFV6/fr3dKy0tzYzuyTm8J5dDHNDmJFNbxHv+A6kfcUAXwpsLXMAfqGhod+MN/5FOHdpFXZOiwC+OAyKAAAIIIIAAAggggAACCEQUIFCJyJO1Md0UTdX6JdpiGap4wxSt41LZPHDTEkdAZztasnSZKeppiuCaYVypqdTFSZy7yydBAAEEEEAAAQQQQACBRBcgUMnjHdYZP7aYaVW1xWr4jzPMp7yZPjitSpU8Xim7IYAAAggggAACCCCAAAIIIIBAYQsQqEQh7O2pooVqi6ekBM/+E8Ux/bvqbD57zUw+WoBWGz1T/EK8RgABBBBAAAEEEEAAAQQQQODgCxCoRHkPvDVVUkygUsH0HinIttn0gtGpkbXp8CJqphSkLsdCAAEEEEAAAQQQQAABBBBAoGAECFTy4aiz/2hvlR07d9p3lyxZUsqVLSvau2T//v1RHdF5zzZTT2P37t32vTo1stZLYTafqCjZGQEEEEAAAQQQQAABBBBAAIGYCRCoHAD1tm3bbLFaDVicVrZMGdGAJblYMUkyKzVgcUIWDU9sgGLW78vMtAHK9h07nLfaAEWH+JQrR3FSF4UFBBBAAAEEEEAAAQQQQAABBOJQgEClAG7KDhOKbDXhis7akp9W1vRuSTUhShkTxtAQQAABBBBAAAEEEEAAAQQQQCD+BQhUCvAeaU+UnWYY0K5du0R7rWhx2UzTE2Xfvn32LMnJyVLM9FzRYrY6nKdUqVJ2ylzttUJDAAEEEEAAAQQQQAABBBBAAIGiI0CgUnTuFVeKAAIIIIAAAggggAACCCCAAAJxIkCgEic3gstAAAEEEEAAAQQQQAABBBBAAIGiI0CgUnTuFVeKAAIIIIAAAggggAACCCCAAAJxIkCgEic3gstAAAEEEEAAAQQQQAABBBBAAIGiI0CgUnTuFVeKAAIIIIAAAggggAACCCCAAAJxIkCgEic3gstAAAEEEEAAAQQQQAABBBBAAIGiI0CgUnTuFVeKAAIIIIAAAggggAACCCCAAAJxIkCgEic3gstAAAEEEEAAAQQQQAABBBBAAIGiI0CgUnTuFVeKAAIIIIAAAggggAACCCCAAAJxIkCgEic3gstAAAEEEEAAAQQQQAABBBBAAIGiI0CgUnTuFVeKAAIIIIAAAggggAACCCCAAAJxIhB3gUrjhkdIUlKc6HAZCCCAAAIIIIAAAggggAACCCCAQIBA3AQqPy35XTIyMuWYBnWlePGUgEtlFQIIIIAAAggggAACCCCAAAIIIBAfAnETqCxbsUq2bd8p9WpXlwqpZeNDh6tAAAEEEEAAAQQQQAABBBBAAAEEAgTiJlBZu2GTrF6XLpUqpEqdmlUDLpVVCCCAAAIIIIAAAggggAACCCCAQHwIxE2gsnvPXvl52QqrwrCf+PhycBUIIIAAAggggAACCCCAAAIIIBAsEDeBil7eHyvXyqYt2+ilEnyvWIsAAggggAACCCCAAAIIIIAAAnEiEFeBireXSq3qaZJWqXycMHEZCCCAAAIIIIAAAggggAACCCCAQLZAXAUqelnpm7bKn6vX2SskVMm+USwhgAACCCCAAAIIIIAAAggggED8CMRdoKI0ToFaXdYitTXSKjGVsmLQEEAAAQQQQAABBBBAAAEEEEAgLgTiMlBRGW9PFX2twUoXFDGMAAAbO0lEQVT5cmWkTKmSkpKSIklJupaGAAIIIIAAAggggAACCCCAAAIIxF4gbgMVpdCaKmvWb7SFamNPwxkRQAABBBBAAAEEEEAAAQQQQACBYIG4DlScS9ZgZfPW7bJtx07ZtXuPZGRkOpv4iQACCCCAAAIIIIAAAggggAACCMRcoEgEKjFX4YQIIIAAAggggAACCCCAAAIIIIBABAEClQg4bEIAAQQQQAABBBBAAAEEEEAAAQSCBAhUglRYhwACCCCAAAIIIIAAAggggAACCEQQIFCJgMMmBBBAAAEEEEAAAQQQQAABBBBAIEiAQCVIhXUIIIAAAggggAACCCCAAAIIIIBABAEClQg4bEIAAQQQQAABBBBAAAEEEEAAAQSCBAhUglRYhwACCCCAAAIIIIAAAggggAACCEQQIFCJgMMmBBBAAAEEEEAAAQQQQAABBBBAIEiAQCVIhXUIIIAAAggggAACCCCAAAIIIIBABAEClQg4bEIAAQQQQAABBBBAAAEEEEAAAQSCBAhUglRYhwACCCCAAAIIIIAAAggggAACCEQQIFCJgMMmBBBAAAEEEEAAAQQQQAABBBBAIEiAQCVIhXUIIIAAAggggAACCCCAAAIIIIBABAEClQg4bEIAAQQQQAABBBBAAAEEEEAAAQSCBAhUglRYhwACCCCAAAIIIIAAAggggAACCEQQIFCJgMMmBBBAAAEEEEAAAQQQQAABBBBAIEiAQCVIhXUIIIAAAggggAACCCCAAAIIIIBABAEClQg4bEIAAQQQQAABBBBAAAEEEEAAAQSCBAhUglRYhwACCCCAAAIIIIAAAggggAACCEQQIFCJgMMmBBBAAAEEEEAAAQQQQAABBBBAIEiAQCVIhXUIIIAAAggggAACCCCAAAIIIIBABAEClQg4bEIAAQQQQAABBBBAAAEEEEAAAQSCBAhUglRYhwACCCCAAAIIIIAAAggggAACCEQQIFCJgMMmBBBAAAEEEEAAAQQQQAABBBBAIEiAQCVIhXUIIIAAAggggAACCCCAAAIIIIBABAEClQg4bEIAAQQQQAABBBBAAAEEEEAAAQSCBAhUglRYhwACCCCAAAIIIIAAAggggAACCEQQIFCJgMMmBBBAAAEEEEAAAQQQQAABBBBAIEiAQCVIhXUIIIAAAggggAACCCCAAAIIIIBABAEClQg4bEIAAQQQQAABBBBAAAEEEEAAAQSCBAhUglRYhwACCCCAAAIIIIAAAggggAACCEQQIFCJgMMmBBBAAAEEEEAAAQQQQAABBBBAIEigSAQqu/fslc1bt8u2HTtl1+49kpGRGfRZWIcAAggggAACCCCAAAIIIIAAAgjERCCuAxUNUtas3yibtmwLxEhOTpZ9+/YFbmMlAggggAACCCCAAAIIIIAAAgggUFgCcRuopG/aKn+uXud+7koVUqVCalkpWaKESFKS7N+/3/7X3YEFBBBAAAEEEEAAAQQQQAABBBBAIEYCcRmorN2wSVavS7cEGqRUr1JJkpKTJNP0RjE5Cg0BBBBAAAEEEEAAAQQQQAABBBA4qAJxF6h4e6bUqp4mFcuXk4xMDVJIUg7qN4WTI4AAAggggAACCCCAAAIIIICAKxBXgYrWTPl52Qp7cU6YspcCtO7NYgEBBBBAAAEEEEAAAQQQQAABBOJDIK4ClT9WrrUFaHWYT81qVYQwJT6+JFwFAggggAACCCCAAAIIIIAAAgiECsRNoOLtndLoiLqic/cwzCf0ZvEKAQQQQAABBBBAAAEEEEAAAQTiQyBuAhWnEK32TqlRtbKtmxIfRFwFAggggAACCCCAAAIIIIAAAgggECoQN4HKshWrZNv2nVL/sBpSokRxZvMJvU+8QgABBBBAAAEEEEAAAQQQQACBOBKIm0DlpyW/S4YpQNtQh/swo08cfUW4FAQQQAABBBBAAAEEEEAAAQQQ8AvETaDy/f+W2Wtr2KCe7NunFVRoCCCAAAIIIIAAAggggAACCCCAQHwKxF2gcrTpoUIx2vj8snBVCCCAAAIIIIAAAggggAACCCCQJRBXgUpycrI0qFebe4MAAggggAACCCCAAAIIIIAAAgjEtUBcBSoqddThdeIajItDAAEEEEAAAQQQQAABBBBAAAEECFT4DiCAAAIIIIAAAggggAACCCCAAAJRChCoRAnG7ggggAACCCCAAAIIIIAAAggggACBCt8BBBBAAAEEEEAAAQQQQAABBBBAIEoBApUowdgdAQQQQAABBBBAAAEEEEAAAQQQIFDhO4AAAggggAACCCCAAAIIIIAAAghEKUCgEiUYuyOAAAIIIIAAAggggAACCCCAAAIEKnwHEEAAAQQQQAABBBBAAAEEEEAAgSgFCFSiBGN3BBBAAAEEEEAAAQQQQAABBBBAgECF7wACCCCAAAIIIIAAAggggAACCCAQpQCBSpRg7I4AAggggAACCCCAAAIIIIAAAggQqPAdQAABBBBAAAEEEEAAAQQQQAABBKIUIFCJEozdEUAAAQQQQAABBBBAAAEEEEAAAQIVvgMIIIAAAggggAACCCCAAAIIIIBAlAIEKlGCsTsCCCCAAAIIIIAAAggggAACCCBAoMJ3AAEEEEAAAQQQQAABBBBAAAEEEIhSgEAlSjB2RwABBBBAAAEEEEAAAQQQQAABBAhU+A4ggAACCCCAAAIIIIAAAggggAACUQoQqEQJxu4IIIAAAggggAACCCCAAAIIIIAAgUrAd2D//v2y4s+/xPyQYsWS5bDatQL2yl7118pVkpGRaVfUrFFNSpQokb2RJQQQQAABBBBAAAEEEEAAAQR8Aps3b5FN5r/aSpcuJdWqpvn24GW8CxCoBNyh3bt3S+fufd0t7VrfLKef1sx97V+4rXNP2bdvn13du3tnOfaYhv5deI0AAggggAACCCCAAAIIIICAK/DCS6/Kx59+YV/XrXOYDB7Qx90WTwtLli53n3f1OkuVKhlPl3dQr4VAJYDfH6gkJyfLfcMHSpXKlQP2FiFQCWRhJQIIIIAAAggggAACCCCAQBiBohKotO3Y3f0EPbp0kMbHH+u+PtQXCFQCvgH+QEV30WE/Q+7uK0lJSTneQaCSg4QVCCCAAAIIIIAAAggggAACEQQIVCLgFJFNBCoBNyooUNHdLmt5sVx5xaU53pHXQGXbtu3y518rZefOXVLnsFpSpUrlwIAmMzNTduzYac9TrFgxKVOmtF1eu269/LHiT6lZo7rUqlkj5L1btmy12zTwObLB4VKyZORuWDpESa9l/foNkpKSIlXNeD09Lg0BBBBAAAEEEEAAAQQQQKDwBQoiUNHnutVr1srKVaulYoUK9jkzt2dB/WQ7duyQ382z5a5du6VundqBozG2bd8u+/ftlx59BrgYt7W5WY47ppEkJSdJubJl3fV5XdBj/rpkmaSWK2vOe1ie6o9u3bpNVq1eY+vNpKaWlRrVq0ulihUCT1lYz9K7d++RPXv22HNqzdSSJUuYmqv7hUAl4DaEC1R01/59e0qDI+qHvCu3QGXBd4vk6UmTTZCSFZI4b9ahRC3OP0eu+/e/QsKRz7+cK88+/5LdrUKF8qJ1WUY9OFb0y+c0LVjUs1snqVA+VSZNfkXmzvvG2WR/ajesrp3amaK6xULW64tPP58jL7/2hujn9LbKlStJh7a3mEDmCO9qlhFAAAEEEEAAAQQQQAABBApY4EACFQ1Enn1+inz73fc5rkqf63RoTu1aNXNsW/zzLzJh4vOyZevWkG36bHrFZZfIpaYTgTMqwzvUJ2Tnv188/eQjQatzrNPQZ8qrU2XBwkWyceOmkO36XNupfRsb6oRsMC/0+Xf8xEny0+Kf/ZukXt060rl9a0lLqxKyrbCepcdPfE7mzV9gz3VG81PkmIZHy/OmBg6BSgh/1otIgYqmcKNGDg7pARIpUHnznRnyzvT3As6Sver4446Rnl07uis+//Ir+5dDV2i6WNz0IPGGKc6O+uXTnirfff+Dsyrk58lNTpDbO7YNWffVvPny1DMvhKzzvtC/SDq0Kegvn3c/lhFAAAEEEEAAAQQQQAABBPIvkN9ARUc+9B0wNMcvyL1Xos91d/buGvLLcv3F+qQXX/bulmO5yQnHS9fOt9n1BRGoaC+Ox8c/Exj8OCfXa+3coY2cdGJjZ5X9bENHjpY1pvdNuKbP5vcM6ifaCcFphfUs/eRTz8nX32QFKtWrV3Ovi0DFkff89Acqt5ub+5j5Ejit6Ukn2hvuvA4XqOhxuvTsF1IRWdOsDDOkR3uU6NTMTntg5BDRJFGb90vgbNcvdrVqVeWrufNzpIkaujQ/NWsWos++mOOeT987ftwYM6Qnq5fKz78skVFjxjqHlMPr15Wzzmhuvqx75IOPPpH09I12mx5Pi/CWT01192UBAQQQQAABBBBAAAEEEECg4ATyG6i88dZ0mTZzlnshF7c4T2rXrmmG0iyXL7+a5z4PntL0JOl4263ufn36D3Gf+Y44vJ5ce/W/7L5ffvW1fQZ1drx/+CDb82PWBx/J3r0ZMvWtac4mObXZSaa+aG37jPmPiy5w14dbeOmV12X2R5+6m3WYT7OTm4iWs9CAwhk1Ubp0aRk75l7bO0ZDmGH3Pii//7HCfZ+OwNBeIUuXLZdvFix011eqVFFGDBlgh+DoysJ6lvYGKnoeDYHOaH4qPVQUw9/8gcq9wwbKQtMLRIfJOE3HjjkhRrhARWuUvPXOTPuWMmXKyM03XGPrlegKDTG69LzT/bLfcuN1cu7ZZ9h9/V+C6665UvQviTbtqXJHv8Hmi73XvtYbOWLoAHfO8v/9/Ks88NA4u03/8A5ReuSxCfL9oh/tNg1TdJu+X5sed8CgEW5PmNa3XG/DFruRPxBAAAEEEEAAAQQQQAABBApUIL+ByutvTpPVpqaItrPObC4nNj7Ova433p4h02ZkjZDQkGLcQ/fZbZs3b5Fedw509xtpniG1p4XTdGTFunUb7MtzzzlDjj6ygbNJvD1Vop3lx/us3PDoI6Vvr67ucTVUuWvgMPe1lro49piGtl7K3UNGuusvv/QSueKfLd3XX86ZZ0tqOCu6m+FNJ/w981BhPUv7A5WBd/WW+vXqEqg4N8H7MyhQ0eE1949+VH5ZstTuqkGEJnfaq8T7JXG+BN7jhVse/fBjsvh/v9jNLS9uIf++6nK77P8SeHuZ6A4amGhwou2YRkfLHT1ut8v6h6Z57Tr1cF9r75qTTY8abd1793cDkz49u0ijhke5++nC29PelbemZQVA2nNFQxUaAggggAACCCCAAAIIIIBAwQvkN1CJdCV/rPhLho4Y5e7i1DnJyMiQDl16u+s1MLnm6svNqIV6bs0Ud6NvIb+Bij8wGX3vUNEeJd42/5vvZOXq1XZVY1MKQ6/nsy++kudemGLXeXuueN83eNj9dpIVXeedPKawnqW9gYr2shk8oI+9HIb8eO/K38vhAhUt3NO3/1C3d0idw2pbyPa393J7mgQFKtpTReuc6JCbTZs321l+tJqyt0htuEBFx4ONuT87tdNLHPfkRNFCt9rOOet0aXXTf+yy80fn7n3drlNOoKI9UDRQ8bbixYt7X7qfS1dqWqmpJQ0BBBBAAAEEEEAAAQQQQKDgBQ4kUNERDz/+tFh+XbrcDoPRmXB0plh/7U0nUNGrH/PoE+Y9/wv5INpRQEcvND2piZzevFlg2Yf8Bire+p16nqcefyjk3OFe6AQtWlxWm79Xi/OecPt4A5WCepbWc3oDldNPO0Xatb7JXgqBinNHPD/DBSq6iw6Z0aEzTvvnpf+Q6TPfDwxUtJrxa6+/JbNmf+zsHvZnYQcqS5Yuk3sfyFsVZr1IDVueHDs67PWyAQEEEEAAAQQQQAABBBBAIP8C+Q1UdJpkHe3gnzEn6Eq8gYqWjdDaoIt++CloV7vuistayuVmth9vy2+gouUv3p7+rj2U9kzRHip5aSPuHyPLlv9udz3j9FOlbasbc7xNj+uU1/AGJ7EIVLQuattbCVRy3BRnRaRARffRyshaITmoeXuoeLsq6b46PEgrF1c3xWW1psozZiplDV20FXagsn37DunW+y57Lv3jpuuvMddQ2n2tC5kZmbJv/z4bppQyhWlPNIVwaQgggAACCCCAAAIIIIAAAgUvkN9AxVvKQXt+aN2Rhkc1kHLlykn6xo0hs8x6AxXnE+ioiTmmEO1iU0bil1+XhoxU0H06tLvVFp919s9voPKtKR7rTO4STQ8V7/P2kQ2OkLv6dHcuxf058dkXZc7cr+1rbxkMApXD67hIB2sht0BFx5/1M8VzghJBb6Dy8Ljxbvp33LGNpFe3TiEfyVtlubADFT2x9y+e1l3RLx4NAQQQQAABBBBAAAEEEEAg9gL5CVRWmWK03oKtQwfeaWbdqeVevDfE0JVBgYq7s1nQGpzfLfxBHp/wjPvL/tNObSrt29zi7uYNVLp0ahcyvbG7U8DCxk2bzYQqg9wtw4f0l5o1qruvdWHe/AWyctUqcx0iJzc5QerVPUy8RWd1BlotrKuBjLdpMVut0aLN26uGQKUIBCp607QuihbC8TdvoKJfdP3Ca9PppTTpc5qOXdMxbE6LRaDyqBmqtPDvWX60RsoQU0inRIkSziXIzFmzbQEgXXG8CYBuuO5qdxsLCCCAAAIIIIAAAggggAACBSeQn0BFh+voL+6dNmrkYKlSubJ9qb/4v2/0I7L8tz+czW6gsmDhIpnx7vt2vfZk6WSmU/Y+C3onPvHWCNE3eAOVCy84V66/9ir3+LktdOx6h9sDRoMfLebqhCP+Z+o7e3eTo01PmzVmSFP/wSPcQ/vP+cGHn8iUV6e627XjgnZg0EagUkQCFb1ZOi/3K/99Uxfd5g1UdJrl9z31UzRU0S5Lv/3+h5kfPKt7kvPGWAQq/joqOgTptFOaSkVT+FaL5jozDuk16Tg1Ha9GQwABBBBAAAEEEEAAAQQQKHgBb6CiR/fPgOM9oz4vtjj/HDv5iE5C4jR9pjvbzNAqSSJfmOmE16/PmvrY2e70UNmQnm4nWHHW60w15597llQ2tU2+NyHN7I8+dTbZkRVOQKErdbplnXbZaQ2OqC/6fi0jkVvTeqNT35rm7qafUXui6GiPRT8udsMWbx0U3dk7I66+rle3jhx1pD5LrxB9rnWa9ngZcndfSUlJsasIVIpQoKJ3zDuVsr72BiqauA0d8YDbdUq3e1u5smXdKsyxCFT03JpMjntiovcyciz7e9Pk2IEVCCCAAAIIIIAAAggggAACByTgD1QiHcz7vDh+4iQzVObbwN01sPCWpnACFd3ZW5sk8M1mpU6n3KdXF7cXie732tS35V0zmsHfvMf2b/O+nvzyf+XDjz/zrgpZ1h4rWpJCZ/Rxmva2GTnqYfn9jxXOqhw/9bPeY4Y8aX1SpxGoxGGgcv/wQZKWVsW5RyE/t2wxUykPyJ5K+Y6epjZJw+zaJH+tXGUDDGd8l75Zb3zrm6+X901XJafC8qUtL5KrrrjMHts7Zkz39VdDftxUZv7GFPjRdt45Z8rNN1xrl50/uvTs507JHDTGTcfVTTG9Z9LTNzpvsT814Pn3VZfLWWeclutc5CFv5AUCCCCAAAIIIIAAAggggEBUArkFDd6D/d8lF8nV/8p6XtS6J6+akRIfffqF28ND9z3L9FQ5/9wzZdi9D7pv9YceWrPk5demhvQ40Z3Lp6bKxRedbydLcd/890JmZqYtD6GhiLeniv/Y/vc5r/V6p5vhRt98u1D+WPGns9qGNlozpX3bVlKtapq73lnQ2qaTJr8iX5trdiZzcbY1Pv5Y+0ytPVu8rbCepSc887zMnfeNPZU+L7e+5Qa7zLTJXv1CXN6zZ4+sM92vUs14tfLlUwvxTHk/tFZ31vQyKSnJfIF15qHQWX/yfiT2RAABBBBAAAEEEEAAAQQQiLWADuXZuzdD0qpUMcNeiuX59BlmhtdVq1fborTVq1WTkiWza2tGOoiGK/reEiWK5+uX8Pr+P/9aJaXM+aqZ2W/1WTS3ptM9r9+QLtu3b5fSpUubz1rZXG/J3N4Wk+0EKjFh5iQIIIAAAggggAACCCCAAAIIIJBIAgQqiXQ3+SwIIIAAAggggAACCCCAAAIIIBATAQKVmDBzEgQQQAABBBBAAAEEEEAAAQQQSCQBApVEupt8FgQQQAABBBBAAAEEEEAAAQQQiIkAgUpMmDkJAggggAACCCCAAAIIIIAAAggkkgCBSiLdTT4LAggggAACCCCAAAIIIIAAAgjERIBAJSbMnAQBBBBAAAEEEEAAAQQQQAABBBJJgEAlke4mnwUBBBBAAAEEEEAAAQQQQAABBGIiQKASE2ZOggACCCCAAAIIIIAAAggggAACiSRAoJJId5PPggACCCCAAAIIIIAAAggggAACMREgUIkJMydBAAEEEEAAAQQQQAABBBBAAIFEEiBQSaS7yWdBAAEEEEAAAQQQQAABBBBAAIGYCBCoxISZkyCAAAIIIIAAAggggAACCCCAQCIJEKgk0t3ksyCAAAIIIIAAAggggAACCCCAQEwECFRiwsxJEEAAAQQQQAABBBBAAAEEEEAgkQQIVBLpbvJZEEAAAQQQQAABBBBAAAEEEEAgJgIEKjFh5iQIIIAAAggggAACCCCAAAIIIJBIAgQqiXQ3+SwIIIAAAggggAACCCCAAAIIIBATAQKVmDBzEgQQQAABBBBAAAEEEEAAAQQQSCQBApVEupt8FgQQQAABBBBAAAEEEEAAAQQQiIkAgUpMmDkJAggggAACCCCAAAIIIIAAAggkkgCBSiLdTT4LAggggAACCCCAAAIIIIAAAgjERIBAJSbMnAQBBBBAAAEEEEAAAQQQQAABBBJJgEAlke4mnwUBBBBAAAEEEEAAAQQQQAABBGIiQKASE2ZOggACCCCAAAIIIIAAAggggAACiSRAoJJId5PPggACCCCAAAIIIIAAAggggAACMREgUIkJMydBAAEEEEAAAQQQQAABBBBAAIFEEiBQSaS7yWdBAAEEEEAAAQQQQAABBBBAAIGYCBCoxISZkyCAAAIIIIAAAggggAACCCCAQCIJEKgk0t3ksyCAAAIIIIAAAggggAACCCCAQEwE4i5Qicmn5iQIIIAAAggggAACCCCAAAIIIIDAAQgQqBwAHm9FAAEEEEAAAQQQQAABBBBAAIFDUyDuApUTGh1xaN4JPjUCCCCAAAIIIIAAAggggAACCBQZAQKVInOruFAEEEAAAQQQQAABBBBAAAEEEIgXAQKVeLkTXAcCCCCAAAIIIIAAAggggAACCBQZgf8HAAD//1iypKEAAEAASURBVOzdB9yN9f/H8Y9R0dCSUrSnnyhUinbJjJKKNJCRPbKSlbJnEspIJZEdiswQSkoDqSQapEEpDfL7fr7H93Kd6z7n3PNw7tPr+j9+97nm97qu53X0v6/3/R051q7/cr+YqdjF5+rHYZs+2rDJnvtwX8dhA+DECCCAAAIIIIAAAggggAACCCCQbQRyEKhkm2fFhSKAAAIIIIAAAggggAACCCCAQIIIEKgkyIPgMhBAAAEEEEAAAQQQQAABBBBAIPsIEKhkn2fFlSKAAAIIIIAAAggggAACCCCAQIIIEKgkyIPgMhBAAAEEEEAAAQQQQAABBBBAIPsIEKhkn2fFlSKAAAIIIIAAAggggAACCCCAQIIIEKgkyIPgMhBAAAEEEEAAAQQQQAABBBBAIPsIEKhkn2fFlSKAAAIIIIAAAggggAACCCCAQIIIEKgkyIPgMhBAAAEEEEAAAQQQQAABBBBAIPsIEKhkn2fFlSKAAAIIIIAAAggggAACCCCAQIIIEKgkyIPgMhBAAAEEEEAAAQQQQAABBBBAIPsIEKhkn2fFlSKAAAIIIIAAAggggAACCCCAQIIIEKgkyIPgMhBAAAEEEEAAAQQQQAABBBBAIPsIEKhkn2fFlSKAAAIIIIAAAggggAACCCCAQIIIEKgkyIPgMhBAAAEEEEAAAQQQQAABBBBAIPsIEKhkn2fFlSKAAAIIIIAAAggggAACCCCAQIIIEKgkyIPgMhBAAAEEEEAAAQQQQAABBBBAIPsIEKhkn2fFlSKAAAIIIIAAAggggAACCCCAQIIIEKgkyIPgMhBAAAEEEEAAAQQQQAABBBBAIPsIEKhkn2fFlSKAAAIIIIAAAggggAACCCCAQIIIEKgkyIPgMhBAAAEEEEAAAQQQQAABBBBAIPsIEKhkn2fFlSKAAAIIIIAAAggggAACCCCAQIIIEKhEeBBz1u2Tz3/8Vz7f8W+EraFVF5ySUy7In1MqFskVdR82IIAAAggggAACCCCAAAIIIIBAcgoQqASeq4YoQ97+J7A2+qIGKy2uOyL6DmxBAAEEEEAAAQQQQAABBBBAAIGkEyBQCTxSDVNi1UwJ7G4XK16Sm5oqkWBYhwACCCCAAAIIIIAAAggggECSChCoBB5s0yl/BdakbZFQJW1O7IUAAggggAACCCCAAAIIIIBAMggQqASeYkYDlUAx6VrUZkMVL8kl+smEAAIIIIAAAggggAACCCCAAAKJL0CgEnhGhyNQcZdALRcnwScCCCCAAAIIIIAAAggggAACiS1AoBJ4PoczUKGD28DDYBEBBBBAAAEEEEAAAQQQQACBBBUgUAk8mMMZqOilPFP9qMAVsYgAAggggAACCCCAAAIIIIAAAokmQKASeCIEKgEQFhFAAAEEEEAAAQQQQAABBBBAIIUAgUqAhEAlAMIiAggggAACCCCAAAIIIIAAAgikECBQCZAQqARAWEQAAQQQQAABBBBAAAEEEEAAgRQCBCoBEgKVAAiLCCCAAAIIIIAAAggggAACCCCQQoBAJUBCoBIAYREBBBBAAAEEEEAAAQQQQAABBFIIEKgESAhUAiAsIoAAAggggAACCCCAAAIIIIBACgEClQAJgUoAhEUEEEAAAQQQQAABBBBAAAEEEEghQKASICFQCYCwiAACCCCAAAIIIIAAAggggAACKQQIVAIkBCoBEBYRQAABBBBAAAEEEEAAAQQQQCCFAIFKgIRAJQDCIgIIIIAAAggggAACCCCAAAIIpBAgUAmQEKgEQFhEAAEEEEAAAQQQQAABBBBAAIEUAgQqAZJkDlR+/mWnfP7FJrmseFE56sgjA3ceeTEjx0QuibUIIIAAAggggAACCCCAAAIIJI8AgUrgWSZroPLmW4vkxVdes3ebK2dO6dn9MSlc6PTA3YcvZuSY8BJYQgABBBBAAAEEEEAAAQQQQCA5BQhUAs81WQOVBs3ayu7dv3t3e8O110iDurW95UgzGTkmUjmsQwABBBBAAAEEEEAAAQQQQCDZBAhUAk80WQOVpq0fE22+46ZyN98gD9W+2y1G/MzIMRELYiUCCCCAAAIIIIAAAggggAACSSZAoBJ4oMkaqCxb8a6MHPWi7Pv3Xzk6b155qlsHObXAKYG7D1/MyDHhJbCEAAIIIIAAAggggAACCCCAQHIKEKgEnmuyBip6m3/+9Zds2/aDnHVmIcmRI0fgziMvZuSYyCWxFgEEEEAAAQQQQAABBBBAAIHkESBQCTzLIW//I5/v+Dew9tAsXnBKTmlx3RGH5mScBQEEEEAAAQQQQAABBBBAAAEEMixAoBKgm7Nun8xZvzew9tAsapiioQoTAggggAACCCCAAAIIIIAAAggktgCBSoTnozVU5qzfd8hqqmiIckH+nFKxSK4IV8MqBBBAAAEEEEAAAQQQQAABBBBINAEClUR7IlwPAggggAACCCCAAAIIIIAAAggkvACBSsI/Ii4QAQQQQAABBBBAAAEEEEAAAQQSTYBAJdGeCNeDAAIIIIAAAggggAACCCCAAAIJL0CgkvCPiAtEAAEEEEAAAQQQQAABBBBAAIFEEyBQSbQnwvUggAACCCCAAAIIIIAAAggggEDCCxCoJPwj4gIRQAABBBBAAAEEEEAAAQQQQCDRBAhUEu2JcD0IIIAAAggggAACCCCAAAIIIJDwAgQqCf+IuEAEEEAAAQQQQAABBBBAAAEEEEg0AQKVRHsiXA8CCCCAAAIIIIAAAggggAACCCS8AIFKwj8iLhABBBBAAAEEEEAAAQQQQAABBBJNgEAl0Z4I14MAAggggAACCCCAAAIIIIAAAgkvQKCS8I+IC0QAAQQQQAABBBBAAAEEEEAAgUQTIFBJtCfC9SCAAAIIIIAAAggggAACCCCAQMILEKgk/CPiAhFAAAEEEEAAAQQQQAABBBBAINEECFQS7YlwPQgggAACCCCAAAIIIIAAAgggkPACBCoJ/4i4QAQQQAABBBBAAAEEEEAAAQQQSDQBApVEeyJcDwIIIIAAAggggAACCCCAAAIIJLwAgUrCPyIuEAEEEEAAAQQQQAABBBBAAAEEEk2AQCXRngjXgwACCCCAAAIIIIAAAggggAACCS9AoJLwj4gLRAABBBBAAAEEEEAAAQQQQACBRBMgUEm0J8L1IIAAAggggAACCCCAAAIIIIBAwgsQqCT8I+ICEUAAAQQQQAABBBBAAAEEEEAg0QQIVBLtiXA9CCCAAAIIIIAAAggggAACCCCQ8AIEKgn/iLhABBBAAAEEEEAAAQQQQAABBBBINAEClUR7IlwPAggggAACCCCAAAIIIIAAAggkvEDCBSoJL8YFIoAAAggggAACCCCAAAIIIIDAf16AQOU//xUAAAEEEEAAAQQQQAABBBBAAAEE0iuQcIFKsYvPTe89sD8CCCCAAAIIIIAAAggggAACCCBwSAUIVA4pNydDAAEEEEAAAQQQQAABBBBAAIFkECBQSYanyD0ggAACCCCAAAIIIIAAAggggMAhFSBQOaTcnAwBBBBAAAEEEEAAAQQQQAABBJJBgEAlGZ4i94AAAggggAACCCCAAAIIIIAAAodUgEDlkHJzMgQQQAABBBBAAAEEEEAAAQQQSAYBApVkeIrcAwIIIIAAAggggAACCCCAAAIIHFIBApVDys3JEEAAAQQQQAABBBBAAAEEEEAgGQQIVJLhKXIPCCCAAAIIIIAAAggggAACCCBwSAUIVA4pNydDAAEEEEAAAQQQQAABBBBAAIFkECBQSYanyD0ggAACCCCAAAIIIIAAAggggMAhFSBQOaTcnAwBBBBAAAEEEEAAAQQQQAABBJJBgEAlGZ4i94AAAggggAACCCCAAAIIIIAAAodUgEDlkHJzMgQQQAABBBBAAAEEEEAAAQQQSAYBApVkeIrcAwIIIIAAAggggAACCCCAAAIIHFIBApVDys3JEEAAAQQQQAABBBBAAAEEEEAgGQQIVJLhKXIPCCCAAAIIIIAAAggggAACCCBwSAUIVA4pNydDAAEEEEAAAQQQQAABBBBAAIFkECBQSYanyD0ggAACCCCAAAIIIIAAAggggMAhFSBQOaTcnAwBBBBAAAEEEEAAAQQQQAABBJJBgEAlGZ4i94AAAggggAACCCCAAAIIIIAAAodUgEDlkHJzMgQQQAABBBBAAAEEEEAAAQQQSAYBApVkeIrcAwIIIIAAAggggAACCCCAAAIIHFIBApVDys3JEEAAAQQQQAABBBBAAAEEEEAgGQQIVNLwFNdt2ChTZsyR9eYzI9MlF18oRS66QKpXq5SRwzkGAQQQQAABBBBAAAEEEEAAAQQSTIBAJZUHMmX6bBOmzE5lr7Rtrl61EqFK2qjYCwEEEEAAAQQQQAABBBBAAIGEFiBQSeXx9OgzOMM1UyIVTagSSYV1CCCAAAIIIIAAAggggAACCGQvAQKVVJ5XrTqNvT1eGfusN5/ajP84DVH8tVwIVVLTYzsCCCCAAAIIIIAAAggggAACiS1AoJLK8/EHIxkNVPS4YNMhQpVU4DOwef/+/fLdd9/LGWecnoGjOQSB/4bAtu3b5ZT8+SVXrlz/jRvmLhFAAAEEEEAAgQQW+PW33ZIzZw459phjsvQq9d1o2/YdUvC0AhkuN17XluELSsADCVRSeShZFajoaQ5nqPLnn3/JX3//Jf/u+1fy5DkqxV3nzZs3xbrstGLv3r1S497a8um69VKixGXyyotjzX+YcmanW0iaa/3333/lr7/M98387xjz/xiOOOKILLm3zV9vkZr3PWjLatq4odxX694sKfe/VEjX7k/KhImvycknnSQzpk6SAgVO+S/dPveKAAIIIIAAAggklMDCxctk1LhX7DU1aVhHypS+IkuuT9+NWrbrIj//slNONb/vDezdTXLkyJGusuN1bRNemyZvvrXYXsuAXl0l/8knpeu6Em1nApVUnkhWBip6qsMVqlx3YzmTUG6Perf6gnX99dfKFaVKyC033yTH58sXdd9E3LDq3dVy/0P1vEub+toEKfq/It4yM4dOYPrMWdKuQyd7wlIlS8grL43NkpNv/PwLqVy1ui2rTcvm0rDBweedJSdI8kJ27/5dSlx5jXeX3bp0klr33u0tM4MAAggggAACCCBwaAXadOwm32/7wZ70vHPOkh5d2mfJBXyw9hPpN/hgdxVdH2sjF11wXrrKjte1jXphvCxcstxey4Be3TJVgyZdNxSnnQlUUoHN6kBFT3c4QpXUAhU/w/+KXCJjR42QE044wb86oed/M1XlSl5Vxl6j1opYsXRRxJo46b2JfaZGT4Uq1WTfvn2i4UCfnj3SW8R/bv8H6tSXlave9e570fw35YzTC3rLGZ1J9EBFa36MGvOCvb2nB/UX/XeUaNPdNe+XD9d+ZC9r1vTJcuGFFyTaJXI9CCCAAAIIIIDAf0bgpQmT5Y15C+393lm1otxVrXKW3Pvu33+XBk3b2rJymVr7o54dKEcddaRX9sbPv5S+g0KBS5VK5aRqpdu8bW4mXtdGoOKEs/jzow2bbInFLj43i0vOXHHxCFT0ivyhyiUXXyid27fM3IWmcrQ/UOn6eMewvX/6+Wf58suv5I2587z1F110obw45nk58cTsE6rofXzwwYemlk1JOf744717ycyMBimXXFrCFlH6qivlxbHPZ6a4pD/222+/kxtvrRB2n21atZCG9euGrcvIQqIHKsNHPi+Dhjxjb01r5WgAl2jTnj//lFWr3pNzzz1bzixcONEuj+tBAAEEEEAAAQT+UwLaz8nHn26wXRUULXJRlt77Lzt3ySem7OKXFpF8+Y4LK3vtx+ukz8DQ760Vy90ktWveFbZdF+J1bQQqKaizZkWyBSrpHW45PR3eZkTcBSqnnXqqvL3oYHDiL0v7qGjWso189tlGu/qhB2rLYx1CyaZ/v//SPIFK+p72yOfHyIBBQ8IOKly4kMx/c1a6222GFWIWCFSCIiwjgAACCCCAAAIIIJB+gbQEKukvNW1HEKikzSndeyVboLJuw0Z5ss/gNDskQqCiF+t/adWmM++vWhaxc1c7os732+T7778X7fTotNNOk8KFzog6cogGE3v2/Gk9jj46ry1Ty9i8+WvZ+s03ctZZZ8pZZ56Zwkv/ov7FF1/KH3/ssX9V19FJok267769+yRX7lySN0+eaLtJWsrUpj579uyRff/ukytKX2vL0s5uR40IVY3LlSunROvI948//pCtW7+RHT/+JCccn08KGZdYzae089Z//tlrTHLI0Ucf7V33lq1b5ZtvvpXTTz89pq13wIGZnTt3yjempshOk0qfdWZhe/60dkKlz1Kv/ftt2yTPUXmk4OmnmXaNpwVPEXFZn+ct5Svb4zVEufuu6l648tqrL0vxYpdGPC64cseOH+134u+//5Fzzj7Ldpyq1+//bqbWh4o+g02bvpLdv/8h5513jh3VJngetxzpu6nbfvhhh2z++mv7nS50xhly6qkF3CFhn+5799yoMTLiuVF223PDn/FqqOTNmyfiv4v0/hvS/X8396OTdiydO3duO7/jxx9NCPq5qZWVTy4t+j+7LtqPv//+W9Q1+F0L7q8dC39v/n1/vWWL7cD23HPPidi5sPvu6vHHHHN0zNDsd1P11NxC1H+faT1n8FpZRgABBBBAAAEEsqvAPvM715++dyT/7+x/6ruNeSfR3/lccx3d/8tNm+3vhIVMk/r8+U+K+vvXn+Ydw70b5TkqNCjJP+Z3/b//+ls++nS9DB0+2rLddENZqXlXNTuf+whzriNDTYNiXVvQW2vDbNn6rbnWXHKOea/T971oU1YFKvo7vPY/o78LH2muWfugyRPjHTB4PdvN7/o7fvzZvvOdfPKJUtBUPNDf26NNf5nfo/fadzZ9Dwztp7+/0odKNLED6zPa5EcP12Y968yLznoTrqQ2JUqgotdZ5Y4aXi2V5W8vSPEyunjJUhkw+GlvH3dvWvvlkUb1peY9Ndwq71P7l9ARRnR6dfw4+eDDtTJq9AuizXR0eqB2LXn8sYOdML2/5gN5smcfO2qP3eHADw15Gptz1H3oQfOSGj6Kj6uFoy+VUyaFesv2H5ueMhcsWiyPNGnhPzzF/MZ1a8PW7fr1V3l66LPy0vgJYet1ocJt5eTR1i1Eg4bg1LJ1W5nzZqjW0IZPPpCnnxkuEydN9mzc/tpU69577k5x3277l5s2ycDBQ+Wt+aF2mG69ml1tmit1Mr7R+jLR/xiMe3G8aCjgnok7Xj3btmklpa+K3eu49s2hfXTo1LJ5E6lcqYLccluoHWjt+2pKl04dXJERPzUA6dmnv7y9dFnYdm1+9njH9rb5WWqd0i5ctER69xtggzp/IdrpcsUKt0mHdm1SBAPB76aOStTjqd5eXyOuHG3y1cnU2NLr8U/+fy/+9W6+fdvWUq9OaHQity4j/4b8gZJ+l7TTZf038sWXoeaSZ5vwad6cme4UET8fe7yrTJ463W5bu2ZViuBx165d0qvvAJk6bUaK4/V70KljOylx+WXetieM08sHvu8vjB4p11xd2tvmn9m+/Qe59sZb7SoNJl99eZy3Ob3n9A5kBgEEEEAAAQQQyOYCby18W8a+9Kq9i1ZNG8gVJQ/+nnV/vabmj7v/ylnm/eFx0z3EgKdHyIaNX4TdsQYlOjpQycuLha3XhbqNWomGKjqKztP9Q+9hw58fJ0vfWZViX7fi7LMKS89uoe4hYl2b7q+BxsQpM023EQvsdboy9PPYY4+RyuVvkdsj9M2S2UBF/8g4edosmfXmfPNH6X/8p7VNm267+Xq54/aKYev9C8tXvicTJk2zIyD51+u8OtZ9oKaceELK7iN69B4k6827vU4vjX5Gho0cK++t/oBAxYrE+JGZQCVGsXZTPMsOntuFDbGa/LhjGjdtKfMXLrKLc16fJuefd7Bfm2XLV0jd+o3crhE/9cU/OKTtK69Okm5PPGX315dr9xLmCvAHKuMnTJTuPXq6TRE/9eV2zPPDvb/S607uHiMFKuktU+9fHWJN/kBF/zHXa9A4rDPW4LEapkyZOD5FbZUWrdp6/dc0b9rYBCqhWjDB43W5wcN1bTAT3Pbtd9/LXXfXShGG+PfTYOW54UNtHzP+9To/ZOgwGTb8ueDqsOXJ5tqLXVo0bJ1/wf9yPXf2DDnnnLNtwKJBi5575bJFJl0PpeP+43T+FzOkW9U77445EpWGCP0HhpoTRaqh4j9/sHy3XOaaq2Xo4AH2P/Junf+7qeFHn34D3aYUn5GGG65Y5Q4v1EhxgFnR7tFW8nDdh7xNGf03tHHj51K5Wqh9a7XbK8tbCxaZv0787pWblkClQ6cuXlgSDFS0qd9D9RrG/A7pyZ4dOsiOBKbz7763Wmo/WE9nbZDavevjdj74w//vr2vnx+S+mvfYXTJyzmDZLCOAAAIIIIAAAtlVYN6CJfLCyxPt5bdoUl+uKnW5dysuUCl4WgE58ogj5WtTizza1OyRenL1lSXDNkcKVIY994IsX3Fw8IiwA8yCP1CJdW3aeqBDl6fkx59CfxwPluOWb7q+jNR7sFZYLZrMBiqjx02QBYuXulNE/NR+Y1o2aeDV7HE7vbNqtTwzYoxbjPipAVSfHo97tVDcTk/0GugFWrfceK3MXxS6BmqoOKEon/EMPeJZdvB2XNiQlkDF/4K4avkSr2Na/wudlq99rOhfpLX5wXur35cxL7zkveBpk4cbzDDMbvK/tLp1NarfIfrXam3Gk9/8r8glF4t/tB7dr0e3zqac62S/+b/33/9AhpiwQZsJ6fT04P5Svlzor9667O4xGKhkpEwdYnbz5s2y1ySvrtaF1kzo1aObnkpy5splr1fnNSXt1Lmb95d/Hd3lrjurSVHzF/0vTe2B12e/IcvfWaG72mYg+pd8rZbmJn+gouv0xbjOg/fbJjJaBXDy1Gle2bp93huvm//YHWwepX/hr2FqhjiXq64sJZUqVrDX99FHH8s8U2PFP+rOmnffCQsUps94Xdp1DL0Ia2CggZeWoU2HlixdbmvL6Hk1FJk1Y0rEWi7a9KN02Rvt89f7nzY5lLT7X6T9L+Janpu0mVHd+o9416gBXrWqVeTKK0rZJk9aW2j2nDfd7vYzGKh88uk6ubNGTW8fDV+KFytmq0FqzQ7tLNb5aE0ZvUc3Rfpu3nLTjVLu1pttKLRmzYcyc9Zsr7aUfr+001kXDmnNoD3m/6loTZfXpkyzxWpoUPxA+FTQVMdUV50y828oeKyWd921ZeXastfY68yZI6eULXO1ro46xQpUGjVpLlrDRycts6oJbS6+6CLR6qbqP3bcS3abfg9Wr1xma0ppzaYbbi5vgzBd/96Kt8NCTnuA+VHr/jqy+v01dnHlssVy0kkn2vmMnNOVyScCCCCAAAIIIJDdBWKFFi5Qcfd4ztlnigYU+qlNVV6ZNFV27PjJbj46b14Z8XSfsN/DIgUq2iXBTz//Ihs++0ImTQ3VbL68+KVSpWLoneo4U7PE1WiPdW2vmRoi02bO8c6tIwVddP55piZ4bvnw409l+sw3vFor3Ts9Khecf/AP9JkJVGbMnisTJ4dqUuvoRdeUvsLW6tHaMqtMbRGtMaK1enQqf+uN8kCtgy0n1q03XXL0HWy36Q+97ytKFJcCp+Q3HQOvlyXLV9ouE3SbGut1uyb2us4fqOjyqQVOMTVwyomsXf/lfv3f4Z4S5TqCDjUfemS/+19wW2aXXbn6Ge/p2htu3X/BJcX262esyTSLsfvpvqXL3LDfvDDZ3ffu3bf/pnIVvW1Tpk5PUYwJDbztl5W6er8e4ybzYu1t07KXLF3mNoV9mhc3b78XXnw5bJsumJdje11aRuu2HcK2u3s0L9Zh6zNTpnnZ967n/oceDivXLUyfOcvbp0Llavt//fU3t8l+/vPPP/vNX/69fUztnLDtzVs+6m1TY9N3R9h2XWj/WGdvH/PiHrZdHdRD/6fn0WsOTk1btPb2MQGCt9n0EeKt1+M3bPjM2+Zmhg4b4e3TuFlLtzrsc95bC7x9/M9N78Vdm2lCFXaMW9D7cfvod+6nn352m7zPXn37e/voviNGjvK26UzP3v3sdv3emdpFYdt04bvvv/eOD95D8LtpmsWkON6EcvtvrVDFK8M0jUqxz7MjnvO2m4AxxfbM/hsytTm88tVAn0t6J//36I89e7zDTZOc/Wqn5dZ+sO5+09+Rt83NPNWrr3f+9Rs2uNX2Otzze2fFSm+9m9Gy3Xa/fWbO6crmEwEEEEAAAQQQyM4Cc+cv9t41V763JuxWatdt4m3r/ESfFL/j6ztGvUdae/ts2rwl7Pg6DVvabc3adApbrwsffvSpd9xLr4S/W7idY13bIy072OMfqN98v6kp7w7xPpcsW+GVP3XGbG+9zjw/9mVv23ffbw/bFmvhK3N//vfnNR9+lGL3zz7/0ttHr+1vY6STvh/psjt+4pQZKY7V3/f9nsF9uvcc4B3fpFXH/aaWji2DQCUFZfgKhx6P0COeZYffxX4bpOhLTaxAxfRrEhaamKYnXjH+oMXUZvDWB2f6DRjsvTxt2vSVt9n/0mqa/njrgzP6Mu5evvSY9EzRApXMlJmWQMU0gfKuWQOKSNPOXbu8fdq2fyxsF3+g8vqsOWHb3MJHH3/iHW+apLjV+3fv3u2t1xfin3/+xdvmnzGdNdmwRV+W+/Yf5G0a+fxo7/hIIZnuqKGahlT6XDTwiDRpWOKe27Zt4f9h9Pv8+NNPKQ73v+TrdzDSpM/BXYOeJxioRDomuO6e+x6w16hO/sn/3dRALFKYoPtrmOfu0R8MuLJSC1Qy+2/IH6ho8JaRyW/tD1TSUpY/MH3VF+p9tflgKGf6SUpRlN83UtiV4gDfimjn9O3CLAIIIIAAAgggkG0FYoUW/kBlm/kDVaRJX/rdO6XpGyRsl3gGKmEnirBgBm3wrqtHn4PvHrprRgMV0zTKKzNaCKTlT5r6+v42Hbvb/7mQScMX5/R4995epQHd3z99+dVmbz8NTfyTP1B5x2dNkx+trxNjimeznHiWHbwl1xxG1zdu1CBss3nJNX1AfCnatMFNWuV/2NODbXMeXecfDrf3U0/InXdUdbuGfc5fsFAaN2tl1w0Z1M92xqoL/mYV2ofFbeVuCTvOLfg7NtV1rVo0ldsrV5Izzjjd7RL1091jsMlPZsrU6mOXXFrCnlP7bXlx7PNh5/dv12YdK0w/IdEm15RK+1JZMHe2t5u/yY/re8TbeGDGBCWmSc0Ndkn7z+jbO9QfjTaj0OYUOmnHt2qenqnOw4285khvvfl6xJGWtLxeprNY1+Rj2eL5duQddx7txPZq09xHp0hGpgaPtOvQyW6P1L+Oc9EmIx+8947dL9IPHUFHO93VKdjkJ9L+/nUmkJF7aj0gH3/yqV3t7//G/92sX6+O6YA3et85N99WyY5iFOlZDx/5vG1apCfQJkGlSoa+N+46MvtvyN/k537TZKlzKp38uvP6P2M1+fHvF5w3/8/E9Jfyvtz/UKi/lI7tH7XN0tx+99Z+0P73I9QcaGnYqEauuY9uW7V8cVhzN3d8pM/UzhnpGNYhgAACCCCAAALZSSBWsxrX5EcHTBj33JCIt7V0+SoZPmqc3Vb73upS8babvf0iNflxG9MybHKsa3PlRPv866+/pU6j0O/UOvpOjy4HBx/JaJOfdo/3MCOZfm9P+WTX9nKu6SYhrdPLEybLnHkL7e41a1QzTZxMU50ok3PTzaOGDfBGLPI3+Xl2UC/TL2ao41oClSiQbnU8Q494lu2u3326sMEtx/rUMOWZpweFjQCio574R69xfUIEy/GPEOPvQNX/0qqj/PhHCvGXoQFFyzbtZO68+f7VdnScsqZD0ZtvusH22+Jvz+Z2dPcYDFQyU6Y/MIkUFugwXWWuO/gfrmgueo1+m9VmOOp8xx1nL90fqKz/+IOIo/jocLdFL7vC7l+1SiXp16ennX9j7jzR43XS8OmRhvXtfFp/lKt4u9e3SFqvfdTIYbbvDneO8a+8Kt2f7GUXO7Z7VGrcdafbZD9//e1X28+GLvj7V9FlHXK4eImrdDZiGGM3HPjhH3kpUqCiL+AaMK16d7XoiE7bt2+3nd363V150QIVDao0sIo2NWvZxvtu+vsC0f1TC1Qy+2/IH6i0adVCGtavG+0yo65PLVDR7/Ny0/H0ynffk89N3zOmZpVomOfv/FYLDwYq2neM9iOkk4aO+m9FJx16uuwNofBU+1x6zIySFJwyes5gOSwjgAACCCCAAALZTSBWaOEClUJnFJS+T3aOeGsfrP1Y+g0ebrfdd8+dUsmMrOMmFwz4R/lx27IiUNERhFavWSta1hdffiW///GHaJBimiK509jPrApUGjRrK9rPpU4aMGnQlNbpaTNE9Mp337e7d2jTTIoVvSTqoV169JUvNm222/s91cX0KXOanfcHKuPHDPM62iVQiUoZ2hDP0COeZQdvy4UNwfVuWTurveCC86RShfKmQ9PyXoebbnubdh3FNEdxi2n6rFK5ogzoG3rRTmugogVrbYIRz40WfVGP9DKsL/5tTKej2vGrf3L3GAxUMlNmaoHKpk1fSfnK4dfhv6Zo82/MmibnnRvqnMkfqHz26YfeP07/sdECFf+LbGphgL88N3/5FdekeFl226J9Ptm9i9xdo7q3+Y677vU6bPVWxpiZPXOq6ZjqPLvH5q+3SLkKVey8dlL8VI9uUY9ct36DVKseGh0mGKjof1wf79LNG346aiEHNkQLVF4eN9p2hhvteB2SeczYF+3mqWZobu142E2pBSqZ/TcU70BFh6tu0bpdmr4PwUBFhwy/onSoE2odwUc75dXJ9I/jDZce9NLtmTmnHs+EAAIIIIAAAghkZ4G0BCqFC51uR52JdJ+HK1DZ+u130qv/UK8T10jX5tZlVaDiAqZYNXbcOYOfPfsNkU/WfWZXD+jVVQqedmpwF295qBkFaIUZDUinbo+1kQvNO7JOBCqWIf0/4hl6xLPs4J26sCEto/wEj9Vl/1/XWzZvIkX/VyTSbnadvvzrKDanFiggOjKOTukJVOwB5se+ff+amgZrbFODVe++a2seuG36+YQZAejeu0PDyOqyu8dIgYpu1ym9ZaYWqARrqGjtjWiTc9HtV5gRbPLmyWN3zUyg8pYZwadJ81ATq6aNG4oOu5yeyV9DRUdmypkzR8TD1S1Hjhx2+0UXXiinnlrA7mf6FZHKVQ+GKxEPDqxs2KCebbKjq3V0oEsvD9Vm0CYy2lQm2uS/12Cg0uCRprJ4yVJ7qDYtudvUkjnnnLPNGPIn2PHojzv2WNsUbZuptaJTtEAlVnM2Pc4/pLiOaHP88QfHqE8tUMnsv6F4Biqmjx6565779BbtpKMHlSp5uZxuRijKd1w+W5tq0+bNYjrstduDgYqubPVoezsakL/ZjzYR0hpDOnLVvDmhnuRtAeZHVpzTlcUnAggggAACCCCQHQWyY6Dyl3nXe/iR1t5oOvnyHSdXlrzMhhTHHXesHHvM0XLM0UdL16f620eSVYFKoxbtxQz+YcscM3yg6Zoi9C6VlufuD0natWoslxUrGvWwTt17i+kA1273hy8EKlHJYm+IZ+gRz7KDd+XChowGKv7+K/r2etIOaxs8R6zljAQqwfK+3rJFRo0Z5w3jG3xJc/cYK1BJb5mpBSr+7VpzJlYfKsFzu+XMBCr+/mFuuvF6GTHsaVdsmj4fqFPfG654/txZcmbhwmk6zu00YPDTMtLUJtJJhxrW4Y4jTdq0x3TGazep07Il871+NqrcUUNMh6t2WOY17y6PWENHDxw2/DkZMjQUWPkDlT179kjxkqW90waDDrfBX5MmWqBS56H7RZstRZvcdyzSv6PUApXM/huKZ6DyzLMjxXRCbW+7WZNG0qzJIykINLDS4EqnSIGK1jZ5uGETu/3FsaPk3HPO9pr7tG/bWurVedBucz+y4pyuLD4RQAABBBBAAIHsKJAdAxV/rZiCpxWQ/j27pvj9/bfdu6Vhs3b2kWRVoNKxS0/5eus3tswuHVvLxReen+ZHPn7iVJn9ZqhLiXuq3y5VK5ePeuyDDVp4zZb8wQ2BSlSy2BviGXrEs+zgXcV6EQzuG2nZ3/mpNgka1L9PpN1Ea2Ho+OY6nXTiCZLXjImuU1oDFTNclfz77z475rf+pTs4aYBx4y0VxNU00E5M3X7uHoOBSmbK9Acm5593rsx5fVrwksQfSuh23S/SpJ3/arvC3LlyeTU8dL/MBCrqfVWZG2wzDXWYNX1yxA58tSZNh8c62+ejNUFaNAu9+PpDgB6mxs89vho//ntQw19/CyXCp5naKbnMPahN2etv8ZplrX1/pfe8/ce6ea3dMHnqdLv4wuiRti8cXdC+N7Tpkk7+/jfsigM/tCbLXffWtsGLrvIHKitXvWeewcN2z9qms9YuETprDdYkihaoaIfBM6dO8r5TB05vPz4xHdreeXctO6+dKmvnyv7Jb/nsM4NtwOTfntl/Q/EMVFzHsXq97yxdKPlPPtl/6Xb+yZ595MWXX7HzkQIV//dBn8OFF5wvXbr1sPsvXfRW2HdeV2bFOW3h/EAAAQQQQAABBLKpQCIEKmWuvlKaNHgohWC0axs3fpKY0Yns/g3q1pYbrr0mxbFvL18pI0aFmslnVaAyccpMmTHrTXuuaNesG1+bNktWvbdGzFil0rpZQ9MHSkH56JP10nvAUHus9knT+4lOpuZ9Trvs/7H+s8+lR+9BdtUpp5wsQ/qGfpfVFdECFYZNNj1Zxprc8Er6mdVTPMsOXqsbUjjWsMnBY/zLOmytK0OHjjX9SPg323nzQrXfPyyr6TDV28c/dKoOHxttqnFvbW9o2hUr302xmw71qsPe6jXcWqFK2HZ3fTq8rn/KTJk6ZLCey/0v0rC/Otyw267D2ZqXd//p7fyGDZ95+wSv2z9ssp4v0mQCBe/4R9uFD+Glw1C785s+Rvb/aYYp80/6XOo1aOztM3nqNG/zpk1feeu1jPffT/lsTNW6/TqcsDvH9gPDtvmHtA0OBe2dwDcTbX+9Hle2PltXvu/Q/Y93fcLbR/f1D5u8ZctWb1vDxs38h9l5/c7oMMfuHPrpn/zfTd3WotWjKYZS27lzZ/j3/4WU33//8NxP9errP4Wdz+y/If+wyaaPoRTl64q9e/ft1yGN9R4iDVHs//fpHza5Y6cuns/HZoju4OR/dmo0JsL96zFu2HR9jm6Yah02O9KUVeeMVDbrEEAAAQQQQACB7CBggon97p1w5Xtrwi7ZDZtsRrcJW+9f8A8HPOuNt/yb9scaNvmzjV94523YvF3YcW4h2rW9+dYi79hJU2a63b3P777fvr9+00e9fXSYYv+U0WGTtVxnpZ+Ll77jL9bOmw5yvX30/vX3b530fch56LFjX3rVrvf/+OWXnfsfqN/cO37662/4N+/3D5vsf2ejU1p/JBVhPp61SOJZdvBWXO2NSE0VgvtGW97w2Wdy+x13e5srli8nZczIO9r05lvTMZGOAuSGpdW/9M+dPcPWNNED0lpDZcq06dKxU6ifBq1x0dw0PShp+nLQvjC++HKT9BswyH5qmVrLoskjDXTWTu4egzVUMlOmFuyapOi8jlJT3QwZfcYZZ8iNN1ynq0z6uV86mtoXU6fNsMt679q5b6lSJeTfA/3A6JC5bgp2HpuZGipapjanedA03dHmPzppvzWVKtwmxS4tamp0fC4LFy/2+p9R0xVLF3nDYev+QR8d5ebKK0tZ8882fi4mvPBqoWhHwD2f7K6H2aGQdUhknYIj/9iVgR9ag6GU6bjUjRiz5t135Nhjj7H92jRp3lIWLlpij9DvaNXbK8lllxU3I/X8IAsWLpKly94JK81fQ0U3uOGMdV6bHt12261mCOjCoh3ZmsDL+17qdp2i1VAJbRW5ytx/uVtvkULmOX/8yScy4/XZdrhk3a7bxo4a6X233TGLFr8tJtBxi1LznhpSuvSVUuSSi73hqDPzbygtNVT8zW70QhYveFNOL1jQu6Zoo/zMeWOuHV1Ld9QmWbVq3m1H6tGaSVqzZtSYF7wydCZSDRVdr0239N+Lf9LabFqrLThl1TmD5bKMAAIIIIAAAghkF4FotUD0+l0nrPHolPZX8zteo+ahJjl6rvPPPVu01ofW3vjfJRfpKol2bdoaoUXbg6MOlb6ypFxRorh9v1j/2Re29so/vpF+sqqGil7TkmUrZOTol3TWTsUvLSJXlrrc1p7/8KNP5b3VH3h9u9xVrbLcWbWi21U2bf5auvbo522/4PxzpdTlxeWkk04QrZmyctX7Yv7gaPcvWuQi6fho87CmTNFqqBCoeMSRZ+IZesSz7ODduLAhM4GKlvnOipXyUL2GweLDlvWF7NVXxnkvkboxrYGKhgPNWrSxo3+EFRpY0P5C+pi+XI7Pl8/b4u4xGKhkpkwtfOKkydL5QNMF72Rmxv9Srv/RaNSkeYoXf//+Ou/vkNVty2ygouXo0LY1atb2Xvpd2f5PfS7Dhw2Ry4oX86+28/7+LFJsPLBCh8IdOXyo7UxXR9UpcWWoep+GNO++syRNQ5f17N1PTE0OW6K/Lx59ca9+Ty1vCOdI16BNktxzCAYqpjaG7TA20nG6TkOQ3LmPEFPTwu7if3b+72anju3E1C6JVozov5/pUyaa//CemGIf/Z7dVuF2rzma26Hdo63k4boPucUM/xtKS6Divxc94asvmyHKS1zmnTtaoPKHGeauSfPWno93gG9G+1YZOmyEXRMtUNGN/gBSl9euWeV1wKzLbsrKc7oy+UQAAQQQQAABBLKTQLTQQu8hnoGKlv9k38Hmj48bddabzj6rsPTs1tEux7q258a+LIvfDv+Dp1eImbnphrLmj7rL7KqsDFS0wMnTZ8nUGXNs2dF+aMjSpGEdOSJ37rBdPvzoE+k76NmwdcEFDZWe6tohxbsNgUpQKo3L8Qw94ll28PZc2KC1JxbMnR3cnK7lFStXybMjnvNqPbiD9cW6zoO15YHateQEU6PEP/lDiUkTXor4Uu/21xofE1+bIqZZQYoXbK19oSO41K51b1hiqMe6WgoaGOg5/FNGy9QydISb2W+8Ia9OnGz/Wu/K9b+U6zoNGUaOGi0vj3/Vq4Xh9tV+S3QUnmuuPth5qtvmRkfR5WjDJmtg87/ipewhd5oaMjoaTXD69rvvRfvxmGTs/JMGKddcU1o6tG0jp5yS37/Jm4/lo9+ZRxrWl6pVKnn/YZk7b740a9nGHh+t3xKvcN9MrE509foHDxlqa4P4DrFhSMf2bc1Q3kdKhcp32E1t27SU+vXq+HezNXR0JB1XS8ptbPBwXWlYv5506NRZdKQgnfzPzh9CvDp+nKk1c6z07T8oRain/aa0btHMjh7kyg5+asfJWt6k16Z634FgoKLHZOTfkNbQqlgldP+RytRyd+3aZQPPT9ettzV1hg0dFPbvJFqgosfqd6z/wCEy09TG8Q9Xrv/mOnVoZ0dLcsNWdzb91Nxv+kmJNL1saqo9YZ6DTjq8tg6zHW3KqnNGK5/1CCCAAAIIIIBAIgssWLxURo+bYC9R+/soZWp6uMkFKv6Qw21zn6aJi/QZ+IxdfKBWDSl/641ukzzcuI2tcRHsC8TtoO8us+cukLcWLPFqZvjPFevatAzt5HXG7Ln2HciVqUMaa82QyhVukfvqhvps1NovT3Q+WBtmzIsTZP6ipfaQQX26m5FhT3GHp/nTNEeSaa+/4Y364w7Mf/JJUr7cTVLR/C/apKHKhNemy9ZvvgvbJZfpU+XaMqWl1t132Fr0YRvNgj+AGj9mmPc7NjVUglKB5XiGHvEsO3AbcVnUTkq3bdsupsMJOTn/yRE7sszsibUz0q3ffGu+sCKFCxWywzEfzjK1ucpe03TlqCOPCms2478mbdryw44dYtrh2b/M69CzRx11lH+XuM6rmXba+/vvf9gaFZFqU0S7AA1W9GX6J1OVT4dJPv300yP+ByXa8VmxXmsufGOakOmkzVW0WVB6pj///Eu2bN1qE+lChc7wQqBoZQQDlRKXh2p06OhBX5mqgfofV23ilZ7r0O/A7+Y+1DPfccd5/8ENXkO8/g3p91QDzuDkrw0VreaIHvP9tm02nClwSoGItXGC5WbF8uE4Z1ZcN2UggAACCCCAAALZWUB/X91tfnfMYf4vb9483kicab0nbT6kzfR1+OQC5o+3+g5xKCa97l27fjXvLr9I7iNyyxkFT0vRJD/Wdeg9//jjz/aPinrtGsbowBvpnQhUUhGLZ+gRz7JTuS02I4DAAYFogUqyAfn7sNGwJdYQ1cl279wPAggggAACCCCAAALxECBQSUU1XqHHug0b5ck+g72zvzI2dlsub0dmEEAgSwWSPVDR6pyvTZlqOv092Dmx9inz0gujs9SRwhBAAAEEEEAAAQQQ+K8JEKik8sR7mNBjvQk/4jldcvGF0rl9y3iegrIRQCCKQLIHKjrSkev7xBG8OHaUGcXnCrfIJwIIIIAAAggggAACCGRAgEAlFbRgTZJUds/Q5upVK0n1apUydCwHIYBA5gR06Oc+fQfYQp4fOUyK/q9I5gpMsKPdUMbazEc7bG7cqL5cUapkgl0ll4MAAggggAACCCCAQPYTIFBJwzObMn22rDNjU2d1TRWtmVLdjI1dxHwyIYAAAvES+Pvvv7OkQ+d4XR/lIoAAAggggAACCCCQHQUIVLLjU+OaEUAAAQQQQAABBBBAAAEEEEDgsAoQqBxWfk6OAAIIIIAAAggggAACCCCAAALZUYBAJTs+Na4ZAQQQQAABBBBAAAEEEEAAAQQOqwCBymHl5+QIIIAAAggggAACCCCAAAIIIJAdBQhUsuNT45oRQAABBBBAAAEEEEAAAQQQQOCwChCoHFZ+To4AAggggAACCCCAAAIIIIAAAtlRgEAlOz41rhkBBBBAAAEEEEAAAQQQQAABBA6rAIHKYeXn5AgggAACCCCAAAIIIIAAAgggkB0FCFSy41PjmhFAAAEEEEAAAQQQQAABBBBA4LAKEKgcVn5OjgACCCCAAAIIIIAAAggggAAC2VGAQCU7PjWuGQEEEEAAAQQQQAABBBBAAAEEDqsAgcph5efkCCCAAAIIIIAAAggggAACCCCQHQUIVLLjU+OaEUAAAQQQQAABBBBAAAEEEEDgsAoQqBxWfk6OAAIIIIAAAggggAACCCCAAALZUYBAJTs+Na4ZAQQQQAABBBBAAAEEEEAAAQQOqwCBymHl5+QIIIAAAggggAACCCCAAAIIIJAdBQhUsuNT45oRQAABBBBAAAEEEEAAAQQQQOCwChCoHFZ+To4AAggggAACCCCAAAIIIIAAAtlRgEAlOz41rhkBBBBAAAEEEEAAAQQQQAABBA6rAIHKYeXn5AgggAACCCCAAAIIIIAAAgggkB0FCFSy41PjmhFAAAEEEEAAAQQQQAABBBBA4LAKEKgcVn5OjgACCCCAAAIIIIAAAggggAAC2VGAQCU7PjWuGQEEEEAAAQQQQAABBBBAAAEEDqsAgcph5efkCCCAAAIIIIAAAggggAACCCCQHQUSLlDJjohcMwIIIIAAAggggAACCCCAAAII/LcECFT+W8+bu0UAAQQQQAABBBBAAAEEEEAAgSwQSLhApdjF52bBbVEEAggggAACCCCAAAIIIIAAAgggED8BApX42VIyAggggAACCCCAAAIIIIAAAggkqQCBSpI+WG4LAQQQQAABBBBAAAEEEEAAAQTiJ0CgEj9bSkYAAQQQQAABBBBAAAEEEEAAgSQVIFBJ0gfLbSGAAAIIIIAAAggggAACCCCAQPwECFTiZ0vJCCCAAAIIIIAAAggggAACCCCQpAIEKkn6YLktBBBAAAEEEEAAAQQQQAABBBCInwCBSvxsKRkBBBBAAAEEEEAAAQQQQAABBJJUgEAlSR8st4UAAggggAACCCCAAAIIIIAAAvETIFCJny0lI4AAAggggAACCCCAAAIIIIBAkgoQqCTpg+W2EEAAAQQQQAABBBBAAAEEEEAgfgIEKvGzpWQEEEAAAQQQQAABBBBAAAEEEEhSAQKVJH2w3BYCCCCAAAIIIIAAAggggAACCMRPgEAlfraUjAACCCCAAAIIIIAAAggggAACSSpAoJKkD5bbQgABBBBAAAEEEEAAAQQQQACB+AkQqMTPlpIRQAABBBBAAAEEEEAAAQQQQCBJBQhUkvTBclsIIIAAAggggAACCCCAAAIIIBA/AQKV+NlSMgIIIIAAAggggAACCCCAAAIIJKkAgUqSPlhuCwEEEEAAAQQQQAABBBBAAAEE4idAoBI/W0pGAAEEEEAAAQQQQAABBBBAAIEkFSBQSdIHy20hgAACCCCAAAIIIIAAAggggED8BAhU4mdLyQgggAACCCCAAAIIIIAAAgggkKQCBCpJ+mC5LQQQQAABBBBAAAEEEEAAAQQQiJ8AgUr8bCkZAQQQQAABBBBAAAEEEEAAAQSSVIBAJQ0Pdt2GjTJlxhxZbz4zMl1y8YVS5KILpHq1Shk5nGMQQAABBBBAAAEEEEAAAQQQQCDBBAhUUnkgU6bPNmHK7FT2Stvm6lUrEaqkjYq9EEAAAQQQQAABBBBAAAEEEEhoAQKVVB5Pjz6DM1wzJVLRhCqRVFiHAAIIIIAAAggggAACCCCAQPYSIFBJ5XnVqtPY2+OVsc9686nN+I/TEMVfy4VQJTU9tiOAAAIIIIAAAggggAACCCCQ2AIEKqk8H38wktFARY8LNh0iVEkFns3/CYFdu3ZJrly55dhjj/lP3C83iQACCCCAAAIIIICAX+DX33ZLzpw55Nhjsvb34f3798u27Tuk4GkF/KdL13y8ri1dF5HgOxOopPKAsipQ0dMcrlBlz5499i5z5swpRx11VNQ71n90f/75Z7r3zZUrlxx55JFRy03rhkZNmsvatR9L4cKFZNKEl9J6WKr76f3//c8/cuQRR0jevHlT3T+tO1Sscof88stOueaa0jKgb6+0HsZ+BwSmz5wl7Tp0skujnntWritbBhsEEEAAAQQQQAABBP4zAgsXL5NR416x99ukYR0pU/qKLLn3vXv3Sst2XeRn865yaoFTZGDvbpIjR450lR2va5vw2jR5863F9loG9Ooq+U8+KV3XlWg7E6ik8kSyMlDRUx3qUEVf+K8qc729y/PPO1fmvD4t6h2/v+YDqVn7Ibv97LPPknlzZkbdd80HH8q99z1ot1csX04GD+wXdd+0bqh+dy35+JNP5bRTT5W3F81L62Ex99u69Ru5+baDoyt9uHqFHH300TGPSevGy6+4Rn7//Xcpc83VMnbUiLQexn4HBNzz1sUKt5WTIYMy/x0CFwEEEEAAAQQQQACB7CLQpmM3+X7bD/ZyzzvnLOnRpX2WXPoHaz+RfoMPdlfR9bE2ctEF56Wr7Hhd26gXxsvCJcvttQzo1S1TNWjSdUNx2plAJRXYrA5U9HSHOlTRmhRffLnJ3unKZYvlpJNOjHjXQ4eNkKHDhnvbFi94U04vWNBb9s88P3qs9Bsw2K7q3vVxqXlPDf/mDM27F+ysDFSGj3xeBg15xruegf16S+VKFbzlzMwkcqDy6br10rzVo/b2Hq77UJY8n8xYRTp2yNBhMmz4c3ZTVn2HIp2HdQgggAACCCCAAAIIJKLASxMmyxvzFtpLu7NqRbmrWuUsuczd5o++DZq2tWXlMq0URj070LRUONiiYOPnX0rfQaHApUqlclK10m0pzhuvayNQSUGdNSs+2hB64S928blZU2AWlRKPQEUvzR+qXHLxhdK5fcssuuKUxfQfOESeGzXGbhg+bIjcfOMNKXcya1yg4Tb2fuoJufOOqm4x7PPhhk3k7aXL7Lq5s2cIHyDLAAAsIklEQVTIOeecbecz88OdP6sCFW3CdEv5yqK1VNyUlbVJEjlQWf3+Gql1fx17261aNJVHGtZ3BAnz+e+//4rWdMqdO7dcVrxYwlwXF4IAAggggAACCCCAwKEQ0PeVjz/dYPpQySlFi1yUpaf8Zecu+cSUXfzSIpIv33FhZa/9eJ30GRj6o3PFcjdJ7Zp3hW3XhXhdG4FKCuqsWZFsgUp6h1tOT4e36RVftnyF1K3fyB5Wt84D0qFtmxRF+JsGuY2VKpaXQf37uEXvU9vkFSlW0i5nVfihhWV1oOJvluRdvJnR5kR63ZmdCFQyK8jxCCCAAAIIIIAAAgggcKgF0hKoxOuaCFTiJJtsgcq6DRvlyT6hJjFpIYtnoKKdshYvWdpexv+KXCLTJr+a4pLenPeWNG8ZaiLiNh5jeppevXKpGYUll1tlPz8x/Zzcafo70Umb+mhzjUjTzz//It98+638+utvUuCU/FL4zMKSN0+eSLvadZECFQ1vtIbJt999b5sqnWXK0OtKy9TtiafklVcn2V01GGr1aKhNYvu2raVenVD/L6mV85vpdfvrLVtkp0l4CxU6Qwqb/zmPtAYq/5gOcb/eslW2bdsuZ55ZSAqdcYZNoSOdW5Pg33//w27Kk+coW3tDF3b9+qts3vy1/PHHH3L66QVNGYXMdeRMUYSe66+//hatodLgkaZ2e6MGD0uDh+va+SOOyB21Y+L0Pi/9Xu3b96+9Rr1WnfT6Pv5knUm0/5VSJUt41283Bn7s27dP9uwJdYJ89NF5o5roYT/9/LN89dVmW94F558X8TvgL89vFzitXdxjOl/et3efnY82wlBazhmpbNYhgAACCCCAAAIIIJAWgX2mxvafvt+H/R3H6mAh7ndt11xH9/9y02b7vlDIvBPkz39S1M5m//zrL/v7bq7cuSTPgYFJ/jHvVn+bd4WPPl0vQ4ePtpd40w1lpeZd1ex8bn1XODDYSKxrC96b1obZsvVb87t6LjnnrDNNn5XRBwLJqkBFf/fX/md2/PijHSBF+6DJE+NdM3jN23/YYY792byP7JGTTz5RCpo/uOfNG/1d9a+//5a9/+y17yxuP61xTx8qQdnAckab/Ggx2qxn3Wefy3oTrqQ2xTNQ0XPXebiRLH9nhb2M90xIcny+fGGX9HjXJ2TSa1PsuqaNG8ozz46085MnjpdilxYN2/eFF1+Wnr1DHYg+M2SglLv15rDtn3/xpQwaPFTmL1wUtl4X6jx0v7Rs3jRisOIPVBbNf0NenTRZtLmSdvzqnx56oLa0atksYhluP31hvubam+yxV11ZSsaNeV5uuLm8GTpsu6TW4a6WsXv37+bcg71AxpWrYc5j7R81TaGqSanSZW350ZoRab813Xs8JaveXe0O9z5vuP5aebJ7Vylget32Txs//0IqV61uVz3auoVUu72KvQ4dEcc/6UhIWtPo1ltu8q+WXn37y9gXXgpb51+47tqyMmrkMP8qyejzcoHStWWvkSef6Cpt2na0QY4r/J2lC02v3Se7xRSf/lF+xo15Tq4ufVXYPvofydFjx8nwkaNSfAf0GdZ96AG59+6D1RPfmDtPWrQKtRXV73Dzpo3DyvMvaEfFrimYv6Pi9J7TXybzCCCAAAIIIIAAAgikR+CthW/L2JdCf+xu1bSBXFHyMu/w++s1FQ01zjK/9z9uuocY8PQI2bDxC2+7zmhQoqMDlbw8ZfP5uo1aiYYqOorO0/2ftMcNf36cLH1nVVgZ/oWzzyosPbt1tKtiXZvuoL83T5wyU96Yu8Bep78c/YNl5fK3yO0R+mbJbKCif4CePG2WzHpzvugfk/2TNm267ebr5Y7bK/pXh80vX/meTJg0zY6AFLbBLKhj3QdqyoknHB/cJD16D5L15t1ep5dGPyPDRo6V91Z/QKCSQiqwIjOBSqCoFIvxLDt4sjFjX5Te/QbY1fpCrS/WbtIvpYYP+hd5DR+6d3lcylcOpZRtWjaXhg3quV3tZ+OmLb2w5N13lsgJJ5zgbf9+2za5866atixvZWBGR3QZNKBPihoJ/kCl/G23igY30aaqVSpJ395PRU1k/TVuej7ZXe66s5oMfnqYPDsi1Anq1EmvSNGi/4tYvCbBzVq09u4x0k6NGzWQcS+NjxqozJw1Wx5t91ikQ7112uzohdEj5dxzz/HWbdz4uVSuFgoJNHyav2CR9+Lv7eSb0eOvuTpU+0hX9+pjApVxaQ9UMvO8XKBSosRl8s/f/9gRmnyXJqkFKlOnzZAOnbrYQ4L3oSHaA3XqpyjTX77O63ezdYtm9nugx+g16aSB04K5s+188Mdnn22UKnfUsKv9owtl5JzBsllGAAEEEEAAAQQQQCCtAvMWLJEXXp5od2/RpL5cVepy71AXqBQ8rYAcecSR8rWvX0hvpwMzzR6pJ1dfGeqSwW2LFKgMe+4FWb7iXbdLik9/oBLr2v74Y4906PKU/PjTzynK8K+46foyUu/BWmHvbJkNVEaPmyALFi/1nybFvPYb07JJg7COeHWnd1atlmdGhPoWTXHQgRUaQPXp8XiK2ipP9BroBVq33HitzF8UugZqqESTPLA+nqFHPMsO3ta69RukWvV77Gp9CdWgxE1aQ6HS7XfaxY7tHrW1SK67sZytzaEvy6++PM7taquduZoZl5pAYooJJtyktTpq3v+Q6AurTlp74rZyt8iZhQvLh2s/srU9tNmKTg3r15U2rVrYeffDBSpuWWuD3F3jTrm2TBm7atk778jESVO82gqxmu5oc5fFS0Jf8vdWvC3HH3+8vS73Il3nwfulo6lpEmnSkY50xCOd9Bruq3mPGRq5tE1A3166XF58+eA96z7BGir+2jG6vfZ9NaWsGVr5bFP9bfsPP5haFy96Hfqq0bCnB+ludvIHKm6dNtO63QRIJUtcLl+YZzVv/gJZuGiJ3azXN2PqRGusK7ZvN9XeduyQtR9/YmrH9LT71Kh+hzfKz3EmtT3rzDPt+sw+Lxeo2MLMDx2Wu2KF8qLXq2nxjTdcJ0cccYTbnOIzVqDirwWl4YiOVFT0f0XM/zM5Qt5d/b4MNDWgXM2l6VMmSpFLLrbla0Cj5eo0c9okufiilJ17ae2rp58J9Wo+8tmh9jp1/4yeU49lQgABBBBAAAEEEEAgvQKxQgsXqLgyzzn7TNGAQj+1qcork6aa3/t/spuPzptXRjzdJ6y5faRAZcePP5k/fP8iGz77QiZNnWmPvbz4pVKl4q12/jhTs+QM05RIp1jX9pqpITJt5hy7n55bRwq66PzzzO/+ueXDjz+V6TPf8GqtdO/0qFxw/sGBZzITqMyYPVcmTg79rq+jF11T+gpbq0dry6wytUW0xojW6tGp/K03ygO1Qn9E1eV1602XHH0H66yd9L6vKFHcdk3xsWkCtWT5StvNg25UY71uHTzDTf5ARdedaloa3G7um0DFCUX5jGfoEc+yg7ej7btKXhVqohIMQl4eP0GeeKq3PWTWjCly4QXnh9V0WL1qmeQ7LtQz9IbPPpPb77jb7tusySPSrEkj71SdOneT16ZMs8s6OlAvUzPE3w5QX/Y11NGaMDoFX3iDgcqLY5+X0lddafd1P95ZsVIeqtfQLcrCeXNs3ybeCjOzY8ePUub6m+2qW266UZ595uA/HDeEtAYRWrsm+MLvb3KjBbw6fpyUuPwyW5b7oWFGoyYHA6lgoDJ33nxp1rKN3b1+vTrStk1Ld6j91H/wd91zn+jQxnodq1cu8/pDCQYqGlJoaJXX/IfKP7Vt/5jMeD1UA0Ob3Ix+brh/s216k9ooP5l9Xv5ARZswDRnUP2YzrLALNAuxAhUNvjSYO/mkk2TShJdsjRP/8W/NXyhNmreyq7o+3lHuq3WvnV+56j1Ts+VhO6/fTf2OBqdyFW+3/dEEvwMZPWewfJYRQAABBBBAAAEEEEiLQKzQwh+onH/u2dL1sTZeX45atvY12ah5e/nD9AGi01Omqc45psmOmyIFKm5bWjqljXVtjVt1tOGDvkv16t5RTi94mivafr5twokRo1608zXuqBzWBCejgcrmr7fKY916eedp2/IR0VDEP238YpN0e6q/XaXXNurZAXKECUX0/avuI629JkLVqpSXu++83X+o7fKhZbsunmdwH3+gctKJJ0i/p7rYWiwEKmGMKRfiGXrEs+yUdyLSrkMnkxaG+uL44L13vI49XW0O/4g9/pGBRgx7Wm668Xpb5PhXXpXuT4a+yK+8NNZ2PKob/vzzLylWIhR+aI2CN2dNTxFW6H461LIOuayTa4pjF8wPf6Ci/V9oPxiRpiFDh8mw4aGmO5H6cHnJBEQ9DgREQwb1E23W4SYdPlr7ZdHJf19u+/QZr0u7jqFOdjUI0UAk0tS3/yAZNeYFuykYqETaP7hOa0i4fmrmvD7N1u7QfYKByltvvu7VKPGXoZ0nadMg1w/Ihk8+CGtCldqwyVnxvPyByrLF81P0B+O/3kjzsQKVSPv712ktoOIlQn2u+Eej0uZaZU2YpqFdpGY/fl9tUqU1stI6RTtnWo9nPwQQQAABBBBAAAEE/AKxQgt/oDKoT3dbI8J/rM5rLZPpr79pVzdtVFeuuaqUt0s8AxXvJFFmtO8WPb9ORS65UB5vd/APzBkNVMaNnyRz5y+2ZUYb6lk3au2ZVe+tsftp/zIaMn2w9mPpNzj0B2jtvPaJzu3C/vBvdzY/NpnWFI9372MXNTR5ZmCoxr+u8AcqzYz11QesCVQsV/Qf8Qw94ll2pDvSGg1as0En12eF/8X6ftM0pXOnDna7/+VRm6x0ObBeO/3Uzj91+nTtai808Q9RrLVTej/1hN0n+ENHkild9ga7WpvSdO0cuh5d4Q9U/M047M6+H2s/+lhq3FvbronU+airaaA7rH1/ZVjtji1bt8ott1W2x2pzpKGDQ/3K2BXmh78Pktkzp5rqaee5TWGf76/5QGrWfsiuS2+goi/9w4aP8AIVf38u/hf+aCMyuQvp2v1JmTDxNbs4f+4sr9mPrkgtUMmK5+UClbR08uuu2f+ZmUDF/73VsE/DMTf5w6rXp70mF110odtkzV1zHx3tSo3TOsU6Z1rLYD8EEEAAAQQQQAABBJxAWgIVrWkx7rnQH4Tdce5z6fJVMnzUOLtY+97qUvG2UC19XXE4AxUddbROo1CIogFGjy7t3SVLRgOVdo/3MCPIfm/LebJreznXDFKR1unlCZNlzryFdveaNaqZJk4H/+AeLMO56fpRwwZ4Ixb5A5VnB/Uy/YiGOq4lUAkKBpbjGXrEs+zAbdhFHeFG+0bRyTWHWLnqXdv5p64LdlbrOp91NVf8zYaCTWn8zVy0LG2qEW1yTX6CgYE/UFm7ZlXU5iM6lHHJq0L9qmhTk+eGP+Odyt/hqG4b2C+UMHo7mJk7765pm3zoumCnutpMRsMInfyBkV3h+7Fz50658ppQrZ1ogYqO8rNi5SpR4+/MsM8/mU6bftu92+v7wxUXLVDRjnS1Fk+0yV9b6Nmhg+SWmw+O+JNaoJIVz8sFKtHuP9p1u/WpBSoa6unIVO+9977pE+Zj0TDuNzMEt/v+uHKCgYoOr3xbpap2c7BZmmvuo02ptGZQcMroOYPlsIwAAggggAACCCCAQGoCaQlUCp1RUPo+2TliUf6aF/fdc6dUMiPruMkFA/5Rfty2zDb50XK0FsrqNWvN7+nr5Isvv5Lf//hDNEj5JzDyTlYFKg2atbXNcvTcGjAFu27Q9dGmp80Q0Svffd9u7tCmmRQrGv2Pql169JUvNm22+2qznjNODzVn8gcq48cM82q4EKhEUz+wPp6hRzzLjnZb7oWyVMkSok12BgwaIiOfH2N3D4YYr02eKp26hF7otenJP//sFe2DRCetWaI1TNzk39etS+1T+7DQpkducoGKhjErli1yqyN+upf5YO0Ibc6jzXrSOj3RrXPY0LtXl73RvrC7EClWORcWKW43BwMFDZ60OZBrWhSrDN0WLVBp0ayJNHmkQdTD/X25aAe72tGum1ILVLLieblnELx/dw2pfcYKVDZ/vcX2Q+M6OI5VVjBQ0X3vrnm/7QjZ//3w948T9NJjMntOLYMJAQQQQAABBBBAAIG0CqQlUClc6HQ76kykMg9XoLL12++kV/+hXieuka7NrcuqQMU1gYpVY8edM/jZs98Q+WTdZ3b1gF5dpeBppwZ38ZaHmlGAVpjRgHTqZvqtufCCUIsFAhWPKH0z8Qw94ll2tLv09/2hAYq+eOpLa7Cmhx7/ralVceMt5W1RPUzwoB3MPt411JRH+0jxD/frr/GgQy9H63tEC/v777/lyCOPNMNY5bHDNNsTmB8uUNHlYFMdt49+7vr1V7mi9LV2lb+mjHY2VPb6W1LUYPAfG5wPdtB7/0P1ZNW7oX9AH3/wrrnGo4KH2GWtJaHhi07BQGHsCy9Jr76hzpB0uzaButg0Oylwyily7HHH2g5+X5002RuNJlqgcke126VPzx5aRMTJ31dMsD+Y1AKVrHhe8QpU/jJpd2lj60bx0dok2jyrcKFCku/4fNbv2GOP9UatihSoTDS+nbuF7FyzH+13R/vf0SnY50tWnDPiQ2IlAggggAACCCCAAAJRBLJjoPKXeZd72HTw6kbTyWdGEb2y5GU2pDjOvOsce8zRcszRR0vXA53DZlWg0qhFe/nV1FbXaczwgZInT54oqilX+0OSdq0ay2XFiqbc6cCaTt17y1ebt9glf/hCoBKVLPaGeIYe8Sw72l35O5vt37enPNou1IdJ966Pe0Pr+o91o+Lo8L76pX191hzbnCdYg8Tfp0isPlT8ZQfn/YHK1Ncm2GFyg/vosr//D3/ntW8vWy4PN2jsHaId1kabmrZo7W3yh0O9+w2QMWZYY53ci7i3o2/m3fdWS+0H69k1wUDF32xo3Jjn5OrSV/mODM36a9JEC1S07w+9hmiThluTXptiNwdHO0otUMmK5xWvQMU/Uo/WpHp53OiwDnf1hv2hWqRAZdeuXXLF1ddZG/cdcbWzrru2rG3eZjce+JEV5/SXxzwCCCCAAAIIIIAAAqkJZMdAxV8rpuBpBaR/z65e8xd3v9rNQcNm7exiVgUqHbv0lK+3fmPL7NKxtVx84fnudKl+jp84VWa/Od/ud0/126Vq5VClgUgHPtighddsyR/cEKhE0krDuniGHvEsO9qt/WHatl1W6mq7WZvWuP4ogp2auuMHDh4qI54bZRe1iY7WGrjn7rtEa6z4J38nttpcZu4bM6P2gfLd99/L/v1iksu8pjOfE7xi/IFKg4fryqOtW3jb/DNa+0NrgeikQyJrLRWd2rTraAMfnfePQKTLwUlHO9JRj3Tyd2zr77g32P+Gv4xuTzwlr7w6ya7yByr+jkv9zU38x+q8e7nX+WiBim6bNX2yXHjhBTobNmmgUL5iVfv89LmseXd52H/I/IGKNgXSJi7+KSueV7wCFR39yHUc+/Tg/lK+3K3+S7fz895aIC4UixSo6E4tW7eVOW/OE30OGq5VrlrdHhsc+UlXZtU57Qn4gQACCCCAAAIIIIBAGgQSIVApc/WV0qTBQymuNtq1+UfbaVC3ttxw7TUpjvUPm5xVgcrEKTNlxqzQiEbRrlkvxI3ys3//v9K6WUPTB0pB+eiT9dJ7wFB7ndonTe8nOqX4g61uXP/Z59Kj9yC73ymnnCxD+h5sLUCgYlnS/yOeoUc8y451pw/UqW87SnX7xHrx99dkcPtHe8lt/1hnmTZ9pt1NQ46hQwaEjZWuG6ZMmy4dO3W1+/hHD9IV/kBFl4PNWHTd/IWLRDvLddPbi+aJBji//vablLqqrF2tQdGyJQvMuXO63VJ8Rtvf36GpHuRGQ/IXMGv2G9K6bWg0JF3vD1R0WTv+1Q6A9To0qNLAwz/5h27W9bECFR36V0ejyXfccV4R2kdL0+atrYWujBQofLpuvdxx1732mGgdsGb2eaUlUHlnxUp5bco0KXn5ZTaI83ceFa0PFX/YFamvk29Nm8069Rt5HQtHun+98cVLlooOCa6Tfh/1u6NTsK8gXZdV59SymBBAAAEEEEAAAQQQSItAtNBCj3V9hsSjD5WNn38p3XqGRjvVJjsjhqQcyCPatenQxRqq6HRHlQpS484qdt79+H7bD6a5Tz+vA9msClS03DYdu7nTSMN698v1ZUMVBdxKf3CSx3Td8Pyw/vZ9VN+fHm7cxnakq/uWu/l6eaj2wf5Add3OnbukRbsuXu2UYE0WAhVVysAUz9AjnmXHutXRY8dJn34Hm8PEqg2yd+9e23TC9Weh5a5avkRONONyBycNKe6t9YDp5XmT3VSixGVyqxl5puj//ie/7PxFtN+O2XNCqaLuMHf2DDnnnLPNXGgKBiq6Vke60cBCJx3xZfLU6XZef2gtGa0to5M/qGlYv660aRW5dovd+cAP/xDQL44dJaWvusJu0SY/2vTHTXqOq6+6UvQf4ttLl9mXb7dNP4OBir/2io5kVK1qFSle7FLRIZsXLlxsa034j48VqOh+GnhVqVRBLi1aVL7essU6ag0UnTSsmfP6VNNm8TS77H74m8ToOg0Uypl+SM4+60y5rHgxu1tmn1dqgcovv+yUq8pc7y5JBvXvI5UqHqxeFy1Q2b79B7n2xoO1UjR4u65sGdvk7CMz2o/WTnI1q7TwaIFKpO9uzXtqiDZvC05Zdc5guSwjgAACCCCAAAIIIBBNIFpoofvHM1D59bfd0qh5qEmOnuv8c88WrfWhtTf+d8lFukqiXduOH3+SFm0PtlYofWVJuaJEcfO7+lGmhscXooGLf6SfrApU9JqWLFshI0eHWirocvFLi8iVpS63ocmHH30q763+wOvb5a5qleXOqhV1Nztt2vy1dO3Rz9t+wfnnSqnLi8tJJ51ga6asXPW+/LFnj923aJGLpOOjzcNaABCoHIBM70c8Q494lh3rPtet3+B16Kn7vfTC6LDOYYPH+pvSBDtxDe6rNTPuqH5v2AtvcB9dHvnsULnxhlAfF267C1S0xomGGK4DUbfd/xl8Mb639oOyZs2HdpfpUyZKkUsu9u8ecf6t+QulSfNWdpu/35f9pj1S+46PpwhO/IU81qGtub5nbROoYKCitVwerNvA1lLxH+PmteZKhQq3ycvjJ9hV0QKV+vXqyFsLFno1Mdzx/s9XXx4nGlxFmlo92j4swNJ9gv2HZOZ5pRaobNz4uVSuFgq89NxtWjaXhg3q6aydogUqutE/+lRo7/CfjRo87DVFixao6BH+PnF0OZZXVp1Tz8OEAAIIIIAAAggggEBqAtFCCz0unoGKlv9k38Gybv1GnfWms88qLD27dbTLsa7tubEvy+K3D47W6hVwYOamG8rKwsXL7FJWBipa4OTps2TqjDkHzhT5Q0OWJg3ryBG5c4ft8OFHn0jfQc+GrQsuaKj0VNcOKYZlJlAJSqVxOZ6hRzzLjnV7+/b9K6VKl/VGUfl07eoUXxj/8TNnzfY6r/X3N+Lfxz+vw88+O3xkxECi2u2VRV+G/SMEuWPdULfazGX+m7Nkzhtz5cmefcLCGa2RUa/Og6K1UFzzkR07fpQy199si4nVfMmdx336+xHRdes/XuM1UdJtw0c8LzqSjr92jl5b+0dbS7lbbxYXKFxb9hoZ/dxwV6z91Gvq3O0J0aGN/ZOOVqN9wyxdulyeeKq33eQPgPwhhNayufuuO03/HiPsdfjL0Zovur1smfBqbv59tAbK5MnTZPyrE2XrgQ6cgoGK7p/R5+XuP1KZ7jpcsyJtdjRm1AjbPMttixWo6D7aVOj50WPDAiUNo1q1aCp3Vb9DLi56uS1Ka99oXzqRJn946L5XOlpVtCkrzhmtbNYjgAACCCCAAAIIIOAXWLB4qYweF/ojq/b3UcrU9HCTC1T8IYfb5j7XfrxO+gx8xi4+UKuGlL811LekrtAmLlrjItgXiDt29+7fZfbcBeYPuEu8mhn+c8W6Ni1DO3mdMXuu17RH1+n7mdYMqVzhFrmvbhNdZWu/PNH5YG2YMS9OkPmLltptg/p0l1MLnGLn0/NDa8FMe/0Nb9Qfd2z+k08y/S/eJBXN/6JNGqpMeG26bP3mu7BdcuXMKdeWKS217r5Djj02vMsG3dEfQI0fM8yrvZJj7fovTfegIsUuPlc/Dtv00YZQM5HDfR1BgHiGHvEsO3gfh2NZO2jd/sN2E0j8Iccff7x9mY7Vr0m0a/zhhx3y408/2S/26QULSu5A0hjtuKxYr9XVtBNdvYdTTskvp+TPn65iNbzaYprp/GOaThU643Q52gwhFmsKBioaHOmkzVe2bNkq2qlwQdOxkgYLaZ20xo2GKxok6BBmuXLlinhoVj2vYOEaSOl9B4OM8RMmSvcePe3ukfqqceVo8yXtN+WEE0LfoZzmP3bxng7HOeN9T5SPAAIIIIAAAggggEBQQN8Vdpvf13OY/8ubN0/Ud4XgcW5Zmw9p83nti6WAeV8K/s7v9svqT73uXbt+NX98/0VyH5Fbzih4WrreE/Wef/zxZ9s8Sa9dw5ho70mxrp1AJZaO2RbP0COeZadyW2xOUIFogUqCXm6mLks7F3Ydxc6cNkkuvijUXjNThXIwAggggAACCCCAAAIIIHCIBAhUUoGOV+ixbsNGebLPwWYKr4yN3ZYrlctkc5II/BcCFR2aetGi8M55I428kySPlNtAAAEEEEAAAQQQQACBJBUgUEnlwfYwocd6E37Ec7rk4gulc/uW8TwFZWcTgf9CoHJhkYNtQ/WxNG/aWLRvHiYEEEAAAQQQQAABBBBAIDsJEKik8rSCNUlS2T1Dm6tXrSTVq1XK0LEclFwCOkJQrfvr2JvSkOG+Wvcm1w2au3Gd2WrHuvebIZGrmo6KM9JeMelguCEEEEAAAQQQQAABBBDIVgIEKml4XFOmz5Z1n32e5TVVtGZKdTM2dhHzyYTAf0XgH9PRrxuh6b9yz9wnAggggAACCCCAAAIIJJ8AgUryPVPuCAEEEEAAAQQQQAABBBBAAAEE4ixAoBJnYIpHAAEEEEAAAQQQQAABBBBAAIHkEyBQSb5nyh0hgAACCCCAAAIIIIAAAggggECcBQhU4gxM8QgggAACCCCAAAIIIIAAAgggkHwCBCrJ90y5IwQQQAABBBBAAAEEEEAAAQQQiLMAgUqcgSkeAQQQQAABBBBAAAEEEEAAAQSST4BAJfmeKXeEAAIIIIAAAggggAACCCCAAAJxFiBQiTMwxSOAAAIIIIAAAggggAACCCCAQPIJEKgk3zPljhBAAAEEEEAAAQQQQAABBBBAIM4CBCpxBqZ4BBBAAAEEEEAAAQQQQAABBBBIPgECleR7ptwRAggggAACCCCAAAIIIIAAAgjEWYBAJc7AFI8AAggggAACCCCAAAIIIIAAAsknQKCSfM+UO0IAAQQQQAABBBBAAAEEEEAAgTgLEKjEGZjiEUAAAQQQQAABBBBAAAEEEEAg+QQSLlC59KJzJUeO5IPmjhBAAAEEEEAAAQQQQAABBBBAIHkEEiZQWffF17J37z655Lwz5YgjciePMHeCAAIIIIAAAggggAACCCCAAAJJJ5Awgcqmrd/L7t/3yFlnnCrHH3dM0kFzQwgggAACCCCAAAIIIIAAAgggkDwCCROo/PDTTtm242c58fjjpHDBU5JHmDtBAAEEEEAAAQQQQAABBBBAAIGkE0iYQOWvv/+RzzZttcA0+0m67xk3hAACCCCAAAIIIIAAAggggEBSCSRMoKKqW777QXb+uptaKkn1FeNmEEAAAQQQQAABBBBAAAEEEEg+gYQKVPy1VE4/Nb/kPzFf8olzRwgggAACCCCAAAIIIIAAAgggkO0FEipQUc2fd/4m32zbYWEJVbL994sbQAABBBBAAAEEEEAAAQQQQCApBRIuUFFl10GtzmsntaflP5GhlBWDCQEEEEAAAQQQQAABBBBAAAEEEkIgIQMVlfHXVNFlDVbyHXu0HJ3nKMmdO7fkyKFrmRBAAAEEEEAAAQQQQAABBBBAAIFDL5CwgYpSaJ8q23/8xXZUe+hpOCMCCCCAAAIIIIAAAggggAACCCAQWSChAxV3yRqs7Prtd9n9xx7586+/Ze/efW4TnwgggAACCCCAAAIIIIAAAggggMAhF8gWgcohV+GECCCAAAIIIIAAAggggAACCCCAQAwBApUYOGxCAAEEEEAAAQQQQAABBBBAAAEEIgkQqERSYR0CCCCAAAIIIIAAAggggAACCCAQQ4BAJQYOmxBAAAEEEEAAAQQQQAABBBBAAIFIAgQqkVRYhwACCCCAAAIIIIAAAggggAACCMQQIFCJgcMmBBBAAAEEEEAAAQQQQAABBBBAIJIAgUokFdYhgAACCCCAAAIIIIAAAggggAACMQQIVGLgsAkBBBBAAAEEEEAAAQQQQAABBBCIJECgEkmFdQgggAACCCCAAAIIIIAAAggggEAMAQKVGDhsQgABBBBAAAEEEEAAAQQQQAABBCIJEKhEUmEdAggggAACCCCAAAIIIIAAAgggEEOAQCUGDpsQQAABBBBAAAEEEEAAAQQQQACBSAIEKpFUWIcAAggggAACCCCAAAIIIIAAAgjEECBQiYHDJgQQQAABBBBAAAEEEEAAAQQQQCCSAIFKJBXWIYAAAggggAACCCCAAAIIIIAAAjEECFRi4LAJAQQQQAABBBBAAAEEEEAAAQQQiCRAoBJJhXUIIPD/duyYBgAAAGGYf9cYIFPQF76eI0CAAAECBAgQIECAAAECISCoBI6LAAECBAgQIECAAAECBAgQIPAEBJWnYiNAgAABAgQIECBAgAABAgQIhICgEjguAgQIECBAgAABAgQIECBAgMATEFSeio0AAQIECBAgQIAAAQIECBAgEAKCSuC4CBAgQIAAAQIECBAgQIAAAQJPQFB5KjYCBAgQIECAAAECBAgQIECAQAgIKoHjIkCAAAECBAgQIECAAAECBAg8AUHlqdgIECBAgAABAgQIECBAgAABAiEgqASOiwABAgQIECBAgAABAgQIECDwBASVp2IjQIAAAQIECBAgQIAAAQIECISAoBI4LgIECBAgQIAAAQIECBAgQIDAExBUnoqNAAECBAgQIECAAAECBAgQIBACgkrguAgQIECAAAECBAgQIECAAAECT0BQeSo2AgQIECBAgAABAgQIECBAgEAICCqB4yJAgAABAgQIECBAgAABAgQIPAFB5anYCBAgQIAAAQIECBAgQIAAAQIhIKgEjosAAQIECBAgQIAAAQIECBAg8AQEladiI0CAAAECBAgQIECAAAECBAiEgKASOC4CBAgQIECAAAECBAgQIECAwBMQVJ6KjQABAgQIECBAgAABAgQIECAQAoJK4LgIECBAgAABAgQIECBAgAABAk9AUHkqNgIECBAgQIAAAQIECBAgQIBACAgqgeMiQIAAAQIECBAgQIAAAQIECDwBQeWp2AgQIECAAAECBAgQIECAAAECISCoBI6LAAECBAgQIECAAAECBAgQIPAEBJWnYiNAgAABAgQIECBAgAABAgQIhICgEjguAgQIECBAgAABAgQIECBAgMATEFSeio0AAQIECBAgQIAAAQIECBAgEAKCSuC4CBAgQIAAAQIECBAgQIAAAQJPQFB5KjYCBAgQIECAAAECBAgQIECAQAgIKoHjIkCAAAECBAgQIECAAAECBAg8AUHlqdgIECBAgAABAgQIECBAgAABAiEgqASOiwABAgQIECBAgAABAgQIECDwBASVp2IjQIAAAQIECBAgQIAAAQIECISAoBI4LgIECBAgQIAAAQIECBAgQIDAExBUnoqNAAECBAgQIECAAAECBAgQIBACgkrguAgQIECAAAECBAgQIECAAAECT0BQeSo2AgQIECBAgAABAgQIECBAgEAICCqB4yJAgAABAgQIECBAgAABAgQIPAFB5anYCBAgQIAAAQIECBAgQIAAAQIhIKgEjosAAQIECBAgQIAAAQIECBAg8AQEladiI0CAAAECBAgQIECAAAECBAiEgKASOC4CBAgQIECAAAECBAgQIECAwBMQVJ6KjQABAgQIECBAgAABAgQIECAQAoJK4LgIECBAgAABAgQIECBAgAABAk9AUHkqNgIECBAgQIAAAQIECBAgQIBACAgqgeMiQIAAAQIECBAgQIAAAQIECDwBQeWp2AgQIECAAAECBAgQIECAAAECISCoBI6LAAECBAgQIECAAAECBAgQIPAEBJWnYiNAgAABAgQIECBAgAABAgQIhICgEjguAgQIECBAgAABAgQIECBAgMATEFSeio0AAQIECBAgQIAAAQIECBAgEAKCSuC4CBAgQIAAAQIECBAgQIAAAQJPQFB5KjYCBAgQIECAAAECBAgQIECAQAgIKoHjIkCAAAECBAgQIECAAAECBAg8AUHlqdgIECBAgAABAgQIECBAgAABAiEgqASOiwABAgQIECBAgAABAgQIECDwBASVp2IjQIAAAQIECBAgQIAAAQIECISAoBI4LgIECBAgQIAAAQIECBAgQIDAExBUnoqNAAECBAgQIECAAAECBAgQIBACgkrguAgQIECAAAECBAgQIECAAAECT0BQeSo2AgQIECBAgAABAgQIECBAgEAICCqB4yJAgAABAgQIECBAgAABAgQIPAFB5anYCBAgQIAAAQIECBAgQIAAAQIhIKgEjosAAQIECBAgQIAAAQIECBAg8AQEladiI0CAAAECBAgQIECAAAECBAiEgKASOC4CBAgQIECAAAECBAgQIECAwBMQVJ6KjQABAgQIECBAgAABAgQIECAQAoJK4LgIECBAgAABAgQIECBAgAABAk9AUHkqNgIECBAgQIAAAQIECBAgQIBACAgqgeMiQIAAAQIECBAgQIAAAQIECDwBQeWp2AgQIECAAAECBAgQIECAAAECISCoBI6LAAECBAgQIECAAAECBAgQIPAEBJWnYiNAgAABAgQIECBAgAABAgQIhICgEjguAgQIECBAgAABAgQIECBAgMATEFSeio0AAQIECBAgQIAAAQIECBAgEAKCSuC4CBAgQIAAAQIECBAgQIAAAQJPYDJUW/32CD3BAAAAAElFTkSuQmCC;" vertex="1" parent="1">
          <mxGeometry x="832" y="1370" width="648" height="391.84" as="geometry" />
        </mxCell>
        <mxCell id="FNOwRppiXol3kP-O3xYT-15" value="" style="shape=image;verticalLabelPosition=bottom;labelBackgroundColor=default;verticalAlign=top;aspect=fixed;imageAspect=0;image=data:image/png,iVBORw0KGgoAAAANSUhEUgAABFQAAAKeCAYAAACLXk+4AAAMP2lDQ1BJQ0MgUHJvZmlsZQAASImVVwdYU8kWnluSkEBoAQSkhN4EkRpASggt9I5gIyQBQokxEFTsyKKCa0FFBGzoqoiCFRA7YmdR7H2xoKKsiwW78iYFdN1XvjffN3f++8+Z/5w5d+beOwCoHeeIRDmoOgC5wnxxbLA/fVxyCp30FFCAPqxawIzDzRMxo6PDASxD7d/Lu+sAkbZX7KVa/+z/r0WDx8/jAoBEQ5zGy+PmQrwfALyGKxLnA0CU8mbT8kVSDCvQEsMAIV4kxRlyXCPFaXK8W2YTH8uCuB0AJRUOR5wBgOolyNMLuBlQQ7UfYkchTyAEQI0OsU9u7hQexKkQW0MbEcRSfUbaDzoZf9NMG9bkcDKGsXwusqIUIMgT5XBm/J/p+N8lN0cy5MMSVpVMcUisdM4wbzezp4RJsQrEfcK0yCiINSH+IODJ7CFGKZmSkAS5PWrAzWPBnAEdiB15nIAwiA0gDhLmRIYr+LR0QRAbYrhC0OmCfHY8xLoQL+LnBcYpbDaKp8QqfKFN6WIWU8Gf5YhlfqW+7kuyE5gK/deZfLZCH1MtzIxPgpgCsXmBIDESYlWIHfKy48IUNmMLM1mRQzZiSaw0fnOIY/nCYH+5PlaQLg6KVdiX5uYNzRfbmClgRyrw3vzM+BB5frB2LkcWP5wLdokvZCYM6fDzxoUPzYXHDwiUzx17xhcmxCl0Pojy/WPlY3GKKCdaYY+b8nOCpbwpxC55BXGKsXhiPlyQcn08XZQfHS+PEy/M4oRGy+PBl4NwwAIBgA4ksKaBKSALCDr7mvvgnbwnCHCAGGQAPrBXMEMjkmQ9QniNA4XgT4j4IG94nL+slw8KIP91mJVf7UG6rLdANiIbPIE4F4SBHHgvkY0SDntLBI8hI/iHdw6sXBhvDqzS/n/PD7HfGSZkwhWMZMgjXW3IkhhIDCCGEIOINrg+7oN74eHw6gerE87APYbm8d2e8ITQRXhIuEboJtyaLCgS/xRlBOiG+kGKXKT9mAvcEmq64v64N1SHyrgOrg/scRfoh4n7Qs+ukGUp4pZmhf6T9t9m8MPTUNiRHckoeQTZj2z980hVW1XXYRVprn/MjzzWtOF8s4Z7fvbP+iH7PNiG/WyJLcL2YWewE9g57DDWDOjYMawF68COSPHw6nosW11D3mJl8WRDHcE//A09WWkm8xzrHXsdv8j78vnTpe9owJoimiEWZGTm05nwi8Cns4Vch1F0J0cnZwCk3xf56+tNjOy7geh0fOcW/AGA97HBwcFD37nQYwDscYfb/+B3zpoBPx3KAJw9yJWIC+QcLr0Q4FtCDe40PWAEzIA1nI8TcANewA8EglAQBeJBMpgEo8+E61wMpoFZYD4oAWVgOVgNqsAGsBlsB7vAXtAMDoMT4DS4AC6Ba+AOXD094AXoB+/AZwRBSAgVoSF6iDFigdghTggD8UECkXAkFklGUpEMRIhIkFnIAqQMKUeqkE1IHbIHOYicQM4hXcgt5AHSi7xGPqEYqoJqoYaoJToaZaBMNAyNRyeiGehUtBAtRpeilWgtuhNtQk+gF9BraDf6Ah3AAKaM6WAmmD3GwFhYFJaCpWNibA5WilVgtVgD1gqf8xWsG+vDPuJEnIbTcXu4gkPwBJyLT8Xn4EvwKnw73oS341fwB3g//o1AJRgQ7AieBDZhHCGDMI1QQqggbCUcIJyCe6mH8I5IJOoQrYjucC8mE7OIM4lLiOuIjcTjxC7iI+IAiUTSI9mRvElRJA4pn1RCWkvaSTpGukzqIX1QUlYyVnJSClJKURIqFSlVKO1QOqp0Wemp0meyOtmC7EmOIvPIM8jLyFvIreSL5B7yZ4oGxYriTYmnZFHmUyopDZRTlLuUN8rKyqbKHsoxygLlecqVyruVzyo/UP6ooqliq8JSmaAiUVmqsk3luMotlTdUKtWS6kdNoeZTl1LrqCep96kfVGmqDqpsVZ7qXNVq1SbVy6ov1chqFmpMtUlqhWoVavvULqr1qZPVLdVZ6hz1OerV6gfVb6gPaNA0xmhEaeRqLNHYoXFO45kmSdNSM1CTp1msuVnzpOYjGkYzo7FoXNoC2hbaKVqPFlHLSoutlaVVprVLq1OrX1tT20U7UXu6drX2Ee1uHUzHUoetk6OzTGevznWdTyMMRzBH8EcsHtEw4vKI97ojdf10+bqluo2613Q/6dH1AvWy9VboNevd08f1bfVj9Kfpr9c/pd83Umuk10juyNKRe0feNkANbA1iDWYabDboMBgwNDIMNhQZrjU8adhnpGPkZ5RltMroqFGvMc3Yx1hgvMr4mPFzujadSc+hV9Lb6f0mBiYhJhKTTSadJp9NrUwTTItMG03vmVHMGGbpZqvM2sz6zY3NI8xnmdeb37YgWzAsMi3WWJyxeG9pZZlkudCy2fKZla4V26rQqt7qrjXV2td6qnWt9VUbog3DJttmnc0lW9TW1TbTttr2oh1q52YnsFtn1zWKMMpjlHBU7agb9ir2TPsC+3r7Bw46DuEORQ7NDi9Hm49OGb1i9JnR3xxdHXMctzjeGaM5JnRM0ZjWMa+dbJ24TtVOV52pzkHOc51bnF+52LnwXda73HSluUa4LnRtc/3q5u4mdmtw63U3d091r3G/wdBiRDOWMM56EDz8PeZ6HPb46Onmme+51/MvL3uvbK8dXs/GWo3lj90y9pG3qTfHe5N3tw/dJ9Vno0+3r4kvx7fW96GfmR/Pb6vfU6YNM4u5k/nS39Ff7H/A/z3LkzWbdTwACwgOKA3oDNQMTAisCrwfZBqUEVQf1B/sGjwz+HgIISQsZEXIDbYhm8uuY/eHuofODm0PUwmLC6sKexhuGy4Ob41AI0IjVkbcjbSIFEY2R4EodtTKqHvRVtFTow/FEGOiY6pjnsSOiZ0VeyaOFjc5bkfcu3j/+GXxdxKsEyQJbYlqiRMS6xLfJwUklSd1jxs9bva4C8n6yYLklhRSSmLK1pSB8YHjV4/vmeA6oWTC9YlWE6dPPDdJf1LOpCOT1SZzJu9LJaQmpe5I/cKJ4tRyBtLYaTVp/VwWdw33Bc+Pt4rXy/fml/Ofpnunl6c/y/DOWJnRm+mbWZHZJ2AJqgSvskKyNmS9z47K3pY9mJOU05irlJuae1CoKcwWtk8xmjJ9SpfITlQi6p7qOXX11H5xmHhrHpI3Ma8lXwv+yHdIrCW/SB4U+BRUF3yYljht33SN6cLpHTNsZyye8bQwqPC3mfhM7sy2WSaz5s96MJs5e9McZE7anLa5ZnOL5/bMC563fT5lfvb834sci8qL3i5IWtBabFg8r/jRL8G/1JeolohLbiz0WrhhEb5IsKhzsfPitYu/lfJKz5c5llWUfVnCXXL+1zG/Vv46uDR9aecyt2XrlxOXC5dfX+G7Ynu5Rnlh+aOVESubVtFXla56u3ry6nMVLhUb1lDWSNZ0V4ZXtqw1X7t87ZeqzKpr1f7VjTUGNYtr3q/jrbu83m99wwbDDWUbPm0UbLy5KXhTU61lbcVm4uaCzU+2JG458xvjt7qt+lvLtn7dJtzWvT12e3ude13dDoMdy+rRekl9784JOy/tCtjV0mDfsKlRp7FsN9gt2f18T+qe63vD9rbtY+xr2G+xv+YA7UBpE9I0o6m/ObO5uyW5petg6MG2Vq/WA4ccDm07bHK4+oj2kWVHKUeLjw4eKzw2cFx0vO9ExolHbZPb7pwcd/Jqe0x756mwU2dPB50+eYZ55thZ77OHz3meO3iecb75gtuFpg7XjgO/u/5+oNOts+mi+8WWSx6XWrvGdh297Hv5xJWAK6evsq9euBZ5ret6wvWbNybc6L7Ju/nsVs6tV7cLbn++M+8u4W7pPfV7FfcN7tf+YfNHY7db95EHAQ86HsY9vPOI++jF47zHX3qKn1CfVDw1flr3zOnZ4d6g3kvPxz/veSF68bmv5E+NP2teWr/c/5ffXx394/p7XolfDb5e8kbvzba3Lm/bBqIH7r/Lfff5fekHvQ/bPzI+nvmU9Onp52lfSF8qv9p8bf0W9u3uYO7goIgj5sh+BTBY0fR0AF5vA4CaDAANns8o4+XnP1lB5GdWGQL/CcvPiLLiBkAD/H+P6YN/NzcA2L0FHr+gvtoEAKKpAMR7ANTZebgOndVk50ppIcJzwMaor2m5aeDfFPmZ84e4f26BVNUF/Nz+C53kfG6b965aAAAAimVYSWZNTQAqAAAACAAEARoABQAAAAEAAAA+ARsABQAAAAEAAABGASgAAwAAAAEAAgAAh2kABAAAAAEAAABOAAAAAAAAAJAAAAABAAAAkAAAAAEAA5KGAAcAAAASAAAAeKACAAQAAAABAAAEVKADAAQAAAABAAACngAAAABBU0NJSQAAAFNjcmVlbnNob3T4aMneAAAACXBIWXMAABYlAAAWJQFJUiTwAAAB12lUWHRYTUw6Y29tLmFkb2JlLnhtcAAAAAAAPHg6eG1wbWV0YSB4bWxuczp4PSJhZG9iZTpuczptZXRhLyIgeDp4bXB0az0iWE1QIENvcmUgNi4wLjAiPgogICA8cmRmOlJERiB4bWxuczpyZGY9Imh0dHA6Ly93d3cudzMub3JnLzE5OTkvMDIvMjItcmRmLXN5bnRheC1ucyMiPgogICAgICA8cmRmOkRlc2NyaXB0aW9uIHJkZjphYm91dD0iIgogICAgICAgICAgICB4bWxuczpleGlmPSJodHRwOi8vbnMuYWRvYmUuY29tL2V4aWYvMS4wLyI+CiAgICAgICAgIDxleGlmOlBpeGVsWURpbWVuc2lvbj42NzA8L2V4aWY6UGl4ZWxZRGltZW5zaW9uPgogICAgICAgICA8ZXhpZjpQaXhlbFhEaW1lbnNpb24+MTEwODwvZXhpZjpQaXhlbFhEaW1lbnNpb24+CiAgICAgICAgIDxleGlmOlVzZXJDb21tZW50PlNjcmVlbnNob3Q8L2V4aWY6VXNlckNvbW1lbnQ+CiAgICAgIDwvcmRmOkRlc2NyaXB0aW9uPgogICA8L3JkZjpSREY+CjwveDp4bXBtZXRhPgq9TD1zAAAAHGlET1QAAAACAAAAAAAAAU8AAAAoAAABTwAAAU8AAJxqwB6hUAAAQABJREFUeAHsnQncDdUbxx9FdiG7ZF/b9yIVSf2lRYuIUpIlhOwi+77vkkJCC6WFSpuiokIUEllSspZ9p//5zevMe+68c++de+/c1/X6HR/vneXMmTPfmTlzzu885znpVqz5/T9R4YpyJfDDQAIkQAIkQAIkQAIkQAIkQAIkQAIkQAIkEIZAOgoqYQhxNwmQAAmQAAmQAAmQAAmQAAmQAAmQAAk4CFBQcQDhKgmQAAmQAAmQAAmQAAmQAAmQAAmQAAmEI0BBJRwh7icBEiABEiABEiABEiABEiABEiABEiABBwEKKg4gXCUBEiABEiABEiABEiABEiABEiABEiCBcAQoqIQjxP0kQAIkQAIkQAIkQAIkQAIkQAIkQAIk4CBAQcUBhKskQAIkQAIkQAIkQAIkQAIkQAIkQAIkEI4ABZVwhLifBEiABEiABEiABEiABEiABEiABEiABBwEKKg4gHCVBEiABEiABEiABEiABEiABEiABEiABMIRoKASjhD3kwAJkAAJkAAJkAAJkAAJkAAJkAAJkICDAAUVBxCukgAJkAAJkAAJkAAJkAAJkAAJkAAJkEA4AhRUwhHifhIgARIgARIgARIgARIgARIgARIgARJwEKCg4gDCVRIgARIgARIgARIgARIgARIgARIgARIIR4CCSjhC3E8CJEACJEACJEACJEACJEACJEACJEACDgIUVBxAuEoCJEACJEACJEACJEACJEACJEACJEAC4QhQUAlHiPtJgARIgARIgARIgARIgARIgARIgARIwEGAgooDCFdJgARIgARIgARIgARIgARIgARIgARIIBwBCirhCHE/CZAACZAACZAACZAACZAACZAACZAACTgIUFBxAOEqCZAACZAACZAACZAACZAACZAACZAACYQjQEElHCHuJwESIAESIAESIAESIAESIAESIAESIAEHAQoqDiBcJQESIAESIAESIAESIAESIAESIAESIIFwBCiohCPE/SRAAiRAAiRAAiRAAiRAAiRAAiRAAiTgIEBBxQGEqyRAAiRAAiRAAiRAAiRAAiRAAiRAAiQQjgAFlXCEuJ8ESIAESIAESIAESIAESIAESIAESIAEHAQoqDiAcJUESIAESIAESIAESIAESIAESIAESIAEwhGgoBKOEPeTAAmQAAmQAAmQAAmQAAmQAAmQAAmQgIMABRUHEK6SAAmQAAmQAAmQAAmQAAmQAAmQAAmQQDgCFFTCEeJ+EiABEiABEiABEiABEiABEiABEiABEnAQoKDiAMJVEiABEiABEiABEiABEiABEiABEiABEghHgIJKOELcTwIkQAIkQAIkQAIkQAIkQAIkQAIkQAIOAhRUHEC4SgIkQAIkQAIkQAIkQAIkQAIkQAIkQALhCFBQCUeI+0mABEiABEiABEiABEiABEiABEiABEjAQYCCigMIV0mABEiABEiABEiABEiABEiABEiABEggHAEKKuEIcT8JkAAJkAAJkAAJkAAJkAAJkAAJkAAJOAhQUHEA4SoJkAAJkAAJkAAJkAAJkAAJkAAJkAAJhCNAQSUcIe4nARIgARIgARIgARIgARIgARIgARIgAQcBCioOIFwlARIgARIgARIgARIgARIgARIgARIggXAEKKiEI8T9JEACJEACJEACJEACJEACJEACJEACJOAgQEHFAYSrJEACJEACJEACJEACJEACJEACJEACJBCOAAWVcIS4nwRIgARIgARIgARIgARIgARIgARIgAQcBCioOIBwlQRIgARIgARIgARIgARIgARIgARIgATCEaCgEo4Q95MACZAACZAACZAACZAACZAACZAACZCAgwAFFQcQrpIACZAACZAACZAACZAACZAACZAACZBAOAIUVMIR4n4SIAESIAESIAESIAESIAESIAESIAEScBCgoOIAwlUSIAESIAESIAESIAESIAESIAESIAFvBFb/+pvMfm+erFG/sYTy5cpIhbKl5aEH7oklmVQ9loJKquLmyUiABEiABEiABEiABEiABEiABEggbRCYPWeuElPm+noxXTu2lgpKXDkbAgWVs+EuMY8kQAIkQAIkQAIkQAIkQAIkQAIkkGAEeg8cEbNlivOSYKnSTYkqZ0NIs4LK/kMnbf7nnZdOsmY6z17nAgmQAAnESuDQ0VOyc89xKZo/Y6xJnfHjN/x9VArnuUAyZkh3xvPCDJCAVwInT/0nR4//J5kvOE/SpdFHNy2VM17vK+ORAAl4J3Ds2DE5fvy4fUDGjBklffr09joXkgjMee8DeePtWXJR7tzS8Mkn5NprriYaHwk89tSzdmozJo+zlyNdwLChPkqc0SGWtHQaqfGbJgWVjduOygM91gXw+3xQOcmTgwVMABSuxEzg2Tad5eDBQ1Y6o4f0kRw5ssec5tmewGdfLpRpM2dZl1H1tkrSoF7ts/2SUuT/8+X7pP3LWwQNuuvKZJVXni+eIs6Z2DB6/Cvy4/KV1qlbNHlKrr/2qpDZOKXy/3Cf9fL71qNyvhKeJ7YuZl1PyIPOgZ2RcjwHkPh6ibGUm+gsGTJrmyxbd1D+2HnMztfikRUkc8a01XGSqOWMDT0VFv7a+rd06THAOlOB/HllYO+uqXDWpFPc3Gq1VcajbPy4X1m5MOv5qXZunijtEIilvPNCoU27jjJ33sd21KaNG8nzrVva61wQWbbsJ6lTv4GNImvWrPLtwi8kc6ZM9rYzuZAW6hx+CSq4D36mlVr3NU0KKuhtrdUzUFD5bGA5yXshBZXUerDOhfOgotf+hd7WpWbIkEGmThx5Llx22GscNHys/LRylRWvft2HpUb1qmGPOdsiPNx7vaz764id7Te6lJTyl2S218/UQoPGreyeqoF9ukqRwoVCZuWrlfvluXGb7Ti3XJZdxrYoaq+fqwuRcjxXOUVz3bGUmxBTHuv/e4CQovPwnRJUsqQxQSVRyxnNPDV+P/70S3ltxtvWqa64rLx0apt6DcUrm/5iXyI75WwUXIiAQCzlndfTtH6+vcz7eL4dvckzDaVtm1b2OhdE+g8cIpOnTgtAMXH8GLn9tsoB287USlqoc/gpgviZVmrdUwoqqUX6HDrP21//I1//vN++4mtKZ5Wnquex19PKwiefLZCp09+yLie1K3qJzDDgw6B6E4tcHLpRn8jXEixvLcduDnjGPx1QVvLlzBAseqps3/r3NmnXpZd1Lq8C39o/j0htZaGiw8OVc0u3emnvfunr8/IbDUcv6TJOEoFYys1+M7fKm1/9Y6MsmDuDXF48i2Q4P530alBY0qvftBRSq5xBOTDji90WOjBtWjNfwmAcPGKcLF+RJGzUr/OQ1LjrjlTLGwWV1EGdyM9frARiKe+8npuCSnhSC75aKI2btQiIuOSbryRXrpwB287ESlqpc/gpgviZVmrdUwoqqUX6HDpPmwl/yBc/7bOvOJGGRNiZ8mFh8IjxqqL3s5XSY48+KDXvruZDqmd3En9v2y5tO/e0LgKN+ikvjVC+DdJWIwcXt3n7Uek782/5Y8dRaaDEwrq3X3TGb9z8zxfIlNeTBL7LKpSVLu299VBNnLdTNVJ3SwVlYQMx5UwLQ2caZLQcz3S+z5bzx1JuQvxD4wuh0qXZlDVVsTTrOwXXmFrlzNwle6TL5D9xSsmdPb18ObictZwIfxo2bSNHjh61stK/VxcpWuTiVMsWBZXUQZ3Iz1+sBGIp77yem4JKeFInT56S4SNHy/SZb0ru3LmkZfNm8sB9NcMfmAox0kqdw08RxM+0UuEWWqegoJJapM+h85wrgkpARa+nquhdknoVvUR9nD794muZPO0NK3uRNOoT9XrOpnwNHTVBlp72n1L3kVpyb407z6bsJ0xeyTG+tyLacvO//0Subb7K8mmBHA5qVETuuu7C+Gb2HEk9URu023fslDYdu1t34fzzzpPXJo1OVYGegkrqvACJ+vz5cfXRlneRnJuCindaJ0+elPNUWZJIHX1ppc7hpwjiZ1ren47YYlJQiY0fj3YhcC4IKme6oueCPSE2DRv9kvy4bIWVlzoP3y/33XNXQuTrXMiEWXHr26OzFC9a5Fy4bN+vkRx9R2onGEu5eezEf3J9iyTfTEhwgbKiyKWsKRhiJ5CoDVo4OH/1tZnWBZYvW1q6dWoT+8VGkAIFlQhgxRA1UZ+/GC7JOjSW8i6Sc1NQiYRW4sVNK3UOP0UQP9NKrTue0ILKYTUt6bwf9lre/LfuPi57D52QUoUyyZUlsqhx05mlXJHMckH6lMMJInVKi2kXP1Qmr0t/w6wBRwXTFBbMfYEUyXuBPFAxlzqPNy/QW9SMA8vXH5Lf/jwsvyqz5D0HTkqZwpmkQtHM6n8muaxYFtf84mbjg7Lt3+Rpz265NLuUVef9Z/8JWbzmgHyz6oCs2XJYCl90gZUf9MyBRbgQy7UFy9PW3ceU/4gDsmjVfjl4+JRUuTK71VMIhgjwofL3P8nXAhPi+nckD4mocUNOxTelv4lo+OH6pn++S1TnpR1yZUsvD96Sy143Fz5SzxPyr0PGDOcF5E1vD/f7xYJFMmnqDCtaLBU9cPp54yHLjD2PcppcXj3TZS7OFNS5ImaV+WXTYUFvbSY1Vah+NuGs8fu1B620MNNFo//ltWZtcV4HjoUzVTDIlvl8uUL5Hyh/SSYrLWfcaNYbPdtWDh0+bB3ap3tHKVGsqKdkkJ8de05YcYupaYhzZkuaTQEzduHZP3TkpOX09aqSWSR7lqR9OuGDR06p9+6geu+OyImT/8lVpbLK5cUye57xY+feE/Krerdw/El1PN7XS9X/UI01nFM7pc2l8mpOnRzsHmH7zxsPy4+qnEEorcoGsPdjiM3OnbulVYduVrqR9uSu33pEDqj3GAGOdYNNnayyL1vUECcMucC158iaXi5TnPAMus2ugnJ43+np61GWXhRmljXzGYADcUzj7Ax4ztep/K7dckR27TshZdW7gnvlFtd5rJf1WDg60/fjXUOZiPLhL/X9w/ew0EUZpGi+jHKtmllKTTwSNOw9eFLw7iCAO/gj7FbM8D5tVvcRzx/epwK5AstiPKcrNiSVSbvUu4GhYFeXymINBbESieFPNOUmZqDaf/ikHFeCSqPhG+2zw3kyyjCELJnOs7619s7TC/g+4N1eqd47PIv4HuN5vVg9W15HIkZ7D5x5wfl/UGX0X7uOyR51f1DOX6HqMYXUNz1YCFXOuB2zSQ1FXKXK+M07kr5xuO+XqbKweAH3qd1XbT5scf1yxT6ZMn+XlSQc+45/rpidPFjh22S+z3qbHcllAfWZbafrAeYz6BI16KbhYybKD0t/svY/qgT6+6MU6PFdAHtw2a7yVThPBrlC1SNLFcyoequDv0iRCCqoqy1dd8gqIw+o7wPeVdTR8I55DdGUb/H83kT6POE6g5U9eB6+W31AkCaeR9StI3n+3BhG+u3GuVEvR8A3C9+PYGHHnuOqnpRUj8U3MRqn89GUd878/Kcqe98tXiI/Ll0mm//Yosr9dFKqZEm55pqr5PrrrrWiRyqo/PXXVvnok/lWelu3brXSKFSokLKyLiJ3V79TLr64sDMb9vrPv6ySX1attteLFb1Ebr7pRjms6n1L1Uw6yCviFFd1vwrly8n9990rmTIllz+I98GH82TNr2vl9w0brXjXqOmLr77qCrmkSOhOIFiXLP9phfz++wZZt/536/icOS+U8uXKSrmyZdR/5csuX147b+bCrt275dPPvrA3YUj6ww8+YK9v375Dvljwlb2eOXNma0gQhgqtX7/e4v+tujbkoXTpUta1Va92h5x/fmB91E7A44KfdQ6Pp4wqGqYynv0e7ttvAcc/dP898tAD91jb/BRB/EwrIMNxXElYQeXVj3fKmPd32Oa9bgxQmZravngKYSESQQWN//5v/B3yPKiAjW5eNGjDBx/rkXO2y2ufJlVI3PKKbaj0T2lX3DWdu7usDRAhnnsgv1WRbTpqU7DkpPE9+eRZ5TwuWMUw1mtzyxOc/w2dvS0gT/CR8uSdeaSFctTpJQxveolUvSqHHTUWfmjkPahmdNKNB53oy22Kyw1ls+pV6/c31Qh8RM3OYobbr8guI5/11ug3jxsx9mX5/sfl1qbaD94nD9x7t7k77PKiX/Zb0+5CvHML9yjRCf4snA3VDaqRVOv0lOCYyvGHMRWkychNVmXRTMc548Wny/bJ0Fl/BzxjZnxUcEY0u0QgZkQbdu5Sjfr20TXqm4/ZLGCC0KpWfmvq3majNquGflLlR+cJFZveDS62BDyIStOVI8Vh6nlEpdIZwjlY/VU1yluP3xyUSU41ReZo1WiD6OQMZo8aKmVvdS1lR3Heo2XjLpUBqoyZuSDJ6aMd8fQCxMZWtQoEFVud8d3Wv/jqG5k0Zbq1q1yZUvJi5+fdorluu63tGquBh52vti0u1yon0s4w7/s90mPaX4IGqlsAgwmtigU0uuv2+11W/5EkrlW/9kIZ/EzoytKDvdZZ0zcj/ftuzmndZ30uNFbg4wEVcreAd6HjowXl0dtyu+32vC0WjvokfrxraxS3vsoBKwQ4t4BvH0TTYM6+Z365Wwa8+bd16PWqHBza+BJpMHhDinISEZ6+O6+0uC+f1bAE365T/xQIKc6A7+DkdiWCir3O+G7r0ZSb1TuvtRrBbunpbRABUObpgHL1BfW8mL689D78gh++Q85vhBkn1nug00IDc6C6F3PVO+QWUKY9US2PNL8vf4pveahyxkwL37Y+07daQpi5XS+jA6p7/cKWiKa34dcUDMzt5nLdKhdJJ/Vume/zrZdnt+pEZjzncv2Bv9vPr5f333k81k2Bvne3DlKyRDG3aEG34bPw8rwdllgU7FuLaxmoho+5zRBl8gk2yw/uL941lJFuIb8SLNs/UlDuvCa5zuOMF0v5Fo/vTbTPE67LWfb0ffJieWzA7wFlyiVK6Pugd5mInj+TWbTf7t7qHZm1MNmp9WRVH79GdcA4A8Tbu19Ya+cZ4vOsbsnfeGf8YOvRlHdmWpv/+ENaP99BVq1eY262l6tWuU16de8m/QYM8jTLz549e6Rbj97yyfzP7DTcFu6sVlX69uouOXPmTLF76PCR8tLLr9rba9xdXbp06iD3P1hbdv+TzFZHKKaElTEjh0kZJUJ8+91i6dTlRdm2fbveHfA7cvhg+d9d1QO26ZXf1q2Xjp27BmWh4/Xr0zNAKNHbf/hxqdR7oqFetX5/W51kTY2VrxcukkZNmtv7Ma3yj4sXSstWbeWzL760t5sLELUG9uuthKhLzM0RLftR54johFFEnj1nrhJT5gY9csbkcdY+P0UQP9MKmnGfdySkoNL2pT/ks+XJTk1DXTMq0qgY3aYaxjp4FVTwEUTh7yXgYzu9U0kpoXo0zICP9AOqgYteDy8B6aDR4lS7neIFrDg++XGva0PRPA8qSW7WGH5cmzNPEEHcKqixCCp+8HO737CAmde3bEAvLj7q6L3TARXZ+f3L2dYQeruX38Yt28uBA0mWBpFW9Ma+v13gCDRcgGXPjM4lA6x5nJWnByrmlNmL/k2RlCmojHx3u7z6Sfjz4V0aqUSVyqqCGU1Y8PW3MnHy69ahZUqXlB5d2npOxhRUUIF/79t/LUuxYAm8pBrvS349GPa60MDuUjflrDXTPtslQ2YFCoPBzgWhqcqVgZXhUA0d5z1qck9eGffBjmDJW9vR6J2kRMBow6jxr8ji75dahz/y4L1S697/eU4qlKAC0QrTKpuzdgVLGALUNFVGorKMgIorKrAIWvzDr1tA+YmGsw5T25ewe3Zh0fPs6E1BxRx9DH4hMLR+sIC5KaLlWDjiRH68a/OX7rXEVi8ZxzTXI9T3L4PDUtNs1KDBcPTEqYCyz5k2uN1YLpuEEvBxDBoW0zqUSCH0OtMLth5NuRmpoAJHrs+M2OTpm9wEnRL3ppzRxo97AAbIy5NDNlqWpsGY6O03V8gmw5pcEtCwD1XO6ONgcYTZgNxEZR0Hv3j3xrUsKjeVz2ZvNgUDe6NjQQsqzvd58agKQUVgWOCgXNFhYuti1vOl17387tr9jzzXrqsVFVZ3U18eZfk+8HIs4qBu0Xz0ZlmmrBfDBYgerzxf3Lbk0vFNPm6CCqzqHh+0wW546+Pcflvcn1+eUSKoM8Ravvn9vYnlecK1mWUPrMnxLOA9MEMsgkos3+4jx07J/174zX4fYXn1saonOsvP0e9tl0kfJdWZ8N6817N0imfDvJ5gy9GUdzqtjRs3yYO1H5ODB0M/v2jU586ZK6DR7zZtMsSZxxs0Cipm6PPq3wL588u0qZNSiAVOQQXTDu/Zs1d+WrFSH5rit1TJEjJi6CCp+cDDKfY5N7w0brRUuf3WgM1z530sbdp1DNgWauWZp5+Sds+3CvCTEo2gUvuRB2XylGmhTqWshUrIB3NmRW2pEmudI2TmfNrZe+CIFJYpOmlaqGgSIgknqKAXF725bgG9Ss4eax3v84HlLLNUrLs1sD9T+2FGrgN6EdtN/EOv2r9oZMME12nxgAiwMPmgV+mAoRTBCnc0hk+p7hF8TJzBbdYbp3jhPCbYOgQaeOTH8A8d/Lo2r3nC9TRTljKNVSUWwa1iZzakYKqNyiOCX/zcRIpOdVSv2unZVz5XAt3zSqgzw4Cni8j/ro/cqWEsFT00TFH51QEVuaaqUg8LEQy9+Fb1EJuiFcxiez6RbH5pVp50GvjFuwGz/NLKxBjm8ehRxBSiHyzeI12n/GlGlUuVCfgdShzLqYZG/fT7QXn/u8CetXd7lJYSQUzEAxJyrJgfhocfqCkP3l/DESP4qimo6Fhgg/uDIQmodJoiK95TbS2B97La1TmsCg+GWeCazWfwQ9UTpoc8IG30BlZp/6s+jTXEpbJqmF6tGp7ZMp8n6Jl+++t/A9JYohoP5jsWqqET7B6hl7hiheyWQIZhM2+p6V/NfOK9QAM5mmBW3Hq+0E5KlyrhOZlQggqeRfhE0gEVUAxHREUZeYdV0YKVSZZFiGP25KFBc3OrZNPgMer6wNktTFbDDUa8kyRwOWcZubfbb2ooZvIwPTT8ry2dxRq2geEY0z7fHfBdmKCGK+jyxe1cobbFwtGPdw3fHQj0ZsBwMnQY5FPsF6nGM4YumM/NY1Uvko61C5qHBDRq9A68M/+7Pqc1BAQ9vO9+E/iMo4xGuvimwKIAz+smlR9cl/kd6/pYIXnk1sgtgaItNyFuYKgSfKjAGk0HNFCzqaE+CCj/7r0pqTf1vu7rAhpwdW7Pbb1XMJVf/OsBy5LAtMAx6w5Iy697gF7ue9Sza3a2IJ8YIotv5j/qmt5yDI91Wn6EKmeQVwwZvafrbwHPA4Zo4XlRhrOySH1vtJUY4uMefz6wrD2cEVNQo56C4aL6u4M47R9JFiUxNAbD6pzv8xBl9RTM6gLWsX1mJImpuOZFw8qnsL5BfkKFBQuVQP9qkkCP8gzlWiShy6t/BlgF4bpQLoAxrvlzVbbhXdIB+Vw4tFzAEKBQggrSqPniOmsIl04D3yKkjw6d79RQ7e+V6G++q+gIMAUtHBdr+ebn9ybW5wnXYwoqWNcB3/PrlPVjvpzpJYcatttQWcZF8vwhHT++3agj1FOdazo4RXjn+29ZZ6lOnkhDtOUdzoNhPrCmwDCfaIJTUMEwldp1H7eG4jjTgyUGgptwc/lll8pbM6cFiAVOQcWZXqzrV115hXVOnQ7yXqXa/1IIQch3WeVXaZkaZuQWPnxvtmUVo/dFKqjo47z89un5otR+5CEvUVPEiaXOkSKxOG3wai3iNZ6XbPqZlpfz+REnoQQVfLBvabMm4AOEi8QQgFqqYQmfBhh/DF8dzh7flqpyBRNohHCCCoaYVGy92m6Q4Rh8bNGLgooOApRsVN5Q4JvBLFzV91SqtEs2l0c8mL5PUj0d+GAgoCEw6K2/ZaGq2OiAc/2ohmqYY3fdxAvEG/D0xWp6yOxWjyB8vLRWjRunqISeFZ1vv64NeXXLE7aj0YeK1OXKJ8wJBUFlM8CU2KtTWj/5odKCiqXpuwUNiC8Hl7cazHd2Wmv3SuAaUKlB5Saa8PU3i2XCpNesQ0spE+ReyhTZa4CYonv70Uszu3vpFL18Y1TvyMtG78hCVRnNerrh4FZ5clYIdF4w/r5K+zX2c47nadaLpVKIJRByHuqVPBTKKeLo9ML9mh+GHqryWyaCRr1TUIHo85qyUoAopAOEn25qOIIZ0Lge/1zRAJETlWTT10K/py6We25MNl0d/Pbf8rpqhCOAyWzFxOljAD1qtXqut8siZyM9VEPH7R51rlNI0LAzA8SA+1XjT1e4MQ3suJbFzCielv/5d4+0eL6LFRc9uVNUTy5+vYZQggoa91pcxvP6tjJ7NoUlnMMpJJjik1kWwO8TZmZxC+Zwn8Y18lrDHxAPgg2eDR36N7xYYL1nBjS073sx+d1/Qg0/bPtQcoPQjBtqORaOfr1rj/Zdr3x+HLGzCYuFO5RYaAac677uvwX0iuMZNn1qORs1EEkglJr+UiDqPa6GZWhhEueAldHsF0vbnRPYBj8FD6vhWFpUwXDEfuo+RBpiKTdxLqdTWjTSnf6U8N5CUNHBbSYgNMrwrUB9A+FJZZ3TxrBq8useOEV+N26wAIPQr8UM5McUeEKVM4j79LCNtk8mrDvLKWxzWtvcrd5DDHExg3kep6BpxjPfZ6f4Y8Yzh/s8roY0tlNDXiINoye8Kt8t+dE6DGP00RPqNSxdd1AaDt1oR4fAMUc9/86yy7S6QWTn8xJKUMGwdAz11qHhXXmtuqpexy/qf3h39DsGtl8MKmeLS36Ub35+b/x4npxlDziMUsOqTStybDOD1+fPj283zgvxHiK+Du+oMq9koSTrc/P9R8fBa8oiL5oQS3m34KuF0rhZixSnhdXF7bdWlgIFC8j3P/woU197XZZ8n/SOmJGdgsqMN96SHr36mlEEYkn3bl3k0gpJQyVXrV4tPXv3SyG69OzeVeo++oh9bDBBZdzo4VKpUkU5pQSQOe99ID379LePMRe6dGpv+SbJnj27rF7zqzRu2iLFUKGfl38vGTMm3Q/4emnVpr2ZhEwcP0Zuu/UWywLl2LFjisVSafhM04A4uLZ6dR+1t0UrqODan3yivmDo0qFDh2TCxEkBQ55wAljpIE+RhljqHJGeK5b4XsUNr/G85MXPtLycz484CSWoOCvmuED0hKFHzBnMDzv2Qf2e37+sFS2coAIHbK3H/xGQ5BjlI8U51AGVHZhAwymsDmYPLHqgxqjhGxAGECAs4KN6oaqUmgEVYAg4ZpjWsUSAbwY38cJtfCd6kp4xHPMhzRfVsJ+HTjth9evakK5bnmCyip7BUMF5byD2QPRxBj/5IW04OHusf3LPA7ZhyAeejVFGxQeN6PkDykqeME4ycbxbGPvSZPlm8Q/Wrlr31ZBHatV0i+a6zWw4Bqto4nn66Ic9lhNKJHLfzbls0cVZeQr2fuA49EDD74UOoXoUYd4KM1cE8Fk0vHyA6blOI9hvrB8GU1CBELZgiPv5TfN/5BONd6e5LvL4hDLDhmNNBKcvFVi7wDkdAhxFwzeEW+g4aYt8rIbdITRQjfTnjUa6WQEM5UMFxzrPj206mENEUOn/uF9SGab3e/k1K24lixeV3i96N41F+qEEFfgF0A3P29Wwp2DvjJmG2QsLnxx6GAnuF3z+4NcMcP4HwVMHMAALBNwn3C+E/DkzpCijrR3qjym2mWW03u/lNxaOfrxr6CyooRr6OoQShvCNe1j5g9JinB6WoY91NmrMIVQ6Dn67v/aXzFHD63Rwfpf09olzd8jY08PW0As/r08ZvcvzbyzlJk7iRVAxnzcc8+OYS13LB/DTQ0FMx6F+3gPznYCV0WwlRrqVVXBEinJNv2fwaQMfagihyhlY2dzRMdnSLpTl0Evq/ulOKLdy0zxPKEEFw0Ew/A4B6bgN+4HwhmvXAUKGU7DW+0L9Nm3VUfbtS+qI6q6Gj5ZVw0i9hvYvb7GEJMRHPmFZjOfWLTylhmTpZwHfgjdfKGVHCyWogL22dMJwaAw9dwtOccd8F/0o35x1gmi/N349T86yx+kzz42R1+fPj283zo9y8wElvGrLR4gps7uVVsOnA4epfqLaFKZlu1veg22Lpbzr2r2XvPX27ICknQIBdu7ff0AeePhR2bIlsKPJKag8pIYOwVGsDrDugAVH4UKBQueff/4l99Z6JMBaxWkx4iaouA3T6dV3gLw+faY+pfXbsnkzadk8UPiAX5Unn24SEG/Wm9Plissvs7ZBOFq+PNnXSfnyZeXWyrcExMfKyNFjZez4ifZ2+IEZO2q4vR6NoAL/MMOGDEwx1PDpxs1k4aJv7bSLFLlYPv9krr3udSGWOofXc/gRz6u44TWelzz5mZaX8/kRJ6EEFbP3HheHhtW3IyoE9FLri8YMDwPeSDIpxTZYe6D3Eh/PcIKK+bHFsfjY46PvFlCAQ7U3A/KkLQbM7aGWb2i5yu6lQDzncBOneIECHqq5W4AZva58Yb/Zw+bntTnzFKqiZebTq6BiHhNuORw/fbyb7xg8E7rhgXg9Hi8stSrl0odE/GtW9OD8E05AvQbz/oDnG11KWoKP1+OdlSezcuZMw+xtCtfTAhHnS2UCDU7plGl81auyp2j4OtM31xd9972MmzjF2hRNo94UVEL5E+mszLi18z/4hoDo6BYGKquwGcphLQIsqjCcJtIAPzfoZUZwpmFWAMMJKm69xjovZgMQzykc2EYaxiru3yj+CPCdAh8qkQSz4RfMKW249ODw9KffkwQspxVfJSUm6/LKbVjTVOXMWw/lcDZowp1X7zfNuPHd+H506nL04117RfV4a+EXz8KPYy8N8AGlr1X/mmWds2w2GzVIa6lKy815uSlEhTrnQmUp1OK0pVC0fGMpN3HNXgQVzCRyl+GLJ5jfCs3Q+evXPcCwwTrKKbMO6OVGGRwsoM4CS0EE1EcgCiKEKmdgZYcee4Rw98TZqQNLOFjE6WCex/ks6Tj4xXfCfJ/dRHrT6gNC0vvK/0SkAT4Znm3T2T5s2qTRAcMO7B0uC8jjdc1X2d98+MiBr5xg4V9lsfTDadEWw2BNR8XBBBXMPIXOER1MCwe9zfyFUAqxDiFYR4oZ37kcqnxz1gmi/d749Tw5yx43Ed15fV6fP+dxwdZDfbv1MU5u6AzFt0jXFWGFB6uyaEMs5d3Nt1QJsNqofEtFeWXieNesrPz5F3n40XoB+0xBBQ5gb61SPWB/966dpd5jdQK26ZWp06ZL3/6D9Kr1u2jBZ/bsOU5BBeLMsu+/seqN5kFwfNuydVtzk8x9/x01HDlQGIUodO2NlQLiTXpprKtoEhDJsTLn/Q+lQ6cX7K1l1aw/H7z7tr0ejaAy8/Upcq2agcgZ3vtgrrTv2CVg85qfl6syyrtlMA6Ote4WkIE4rngVN7zG85JVP9Pycj4/4iSUoGL23uPiYPY/Qzk5jDSEE1TQs6enPNVpO83x9fb9h04FjMPFdqd5tY6LXyjev6uKETy/o+cJUyXi/xsLAocOhRNUQvUymGb4OKc5ht7Pa3MKKm4myzi/M8QiqETLT+cBprXIN8y63UI4YcHtGHPbnr375NnWnexNkVT0cBAcyPZ6/S/7eDRiqqnhU2ALS55wQp2zErBcNcDNoWN2wmoBfkI0h2gqcWZa4ZbHvzxVFn67xIp2f8275dGH7gt3SMB+U1DB7FXNXRxF4gCw0054nb3yZoJwwgvrDwSnGGLG08tocFjvKt5b5YMG7y9ms9KVYGcaZgUwnKASSoB1DlFYMSGpV0bny8svGh5ogCB069RGMI13JCESQQVWe3tVeabLNv0LoVAHU1DBNlPcchtuYJZZwZxs67Txi3d8z4ET1n3CPUMZDX8FqMgjhGtcWpFc/sTC0Y93DbPS6KnnvVjZmGIILmf5+MtsAcZs1IT6jpr+tkI1fjEMCabwCNHwjbXcxHm9CCqIV0kNGzaHxWKo2oOVc8utSliFU3k3YQnHIfh1D8zyAelC4AO3SIOZjrOcwfBHPAMISPu1DqHrSvr+Ib7pXwzr5nlCCSqIa77PbsN+TOtAzG6DWcwiDRCI0dhAKF7sEunbPfmba20M8QedbXd0+NWO4RSP7B0eFoIJKh/9sFc6vZJc5sF5PL7lwQKGdelviRsz87hIyzdnnSDa741fz5PXsse85kieP/M4LEf67TaPD+bDD9bqsFqPNsRS3h0/flwuvfK6gFO3bdNKIJK4BfgYKX/5NQG7TEEFPkbq1G8QsP+N6VPlmquvCtimV+C35bHHn9Kr1i/8qMBSBcEpqAQb7uJ23l9/WZ7C2gNpXn19xQCrmFCCytGjR2Xtb+tkt3Javf/AfstK54ASZYaOGIWk7OCHoLL8h29F+5ixE1YLsJqp3+Bpc5OsXrlU0qdPH7At3EosdY5wafu536u44TWel7z5mZaX8/kRJ6EEFbNij4uDFQGsCSIN4QQVs/IbadqI7+wBgKf3wW9vs4YG6Z7YcOmGE1RMnzDOtMzpC7HPFFT8vDanoBIqT2YeIxVU/OBnnt/Nqgj7UeGZ17dMgB8B8zgvy9+qMd1j1NhuhGJFi0i/Hsm9aF6OhyO7Vmq4mfaj4jwGZsn3KeeKmLkpnxri4Axm5QnXE8qi4Zpnk3vpYu1tcebDuW5+GLp2bC0VypVxRgm5bgoq8JmE3iK34KegAksXNCgxpC/cexutoBLuHjlnt4lUUNm7b580a5Xc2HhN+U+J9KNulrtuFirwJzVDiRUw91++/pDdg+d2f7DNKaiY5TEafpiBSjc+nMN9zNmpzPRh/YJhNRBOTCefZhy9HE2DP1aOfrxrcOq9RDlNRaipfP70Vb5/QoW1SuSofVrkQDz4Zrjo9DBGs1ETyuIrtQSVWMtNXJ9XQQXPCvxn6J5mHKsDng34XaqthhLDQsMpRvt1D0z/GnDkDL8o0QSzoekUVMy8Rpq2OawIx5rnCSeomO8z3mNz2A+E6FuN4T5fDS1v+eWJNH/wUQZzeIT777lLHn34fs9JOK2DzPfCcyKnIwYTVEyrukjTdLPCi6V8i6ROEOp749fz5LXsMblF8vzhuFi+3eZ50UFQT/mRMmd/hL8pDDt1Dt03jwu3HEt5t3PnLql02x0Bp5gwdpRgiuRgwTmkxxRU3CxFlnzzleTK5W59s2v3bqlYuWrAqeAfpdodSducggqGxYwYNjggPlbcBBVzmmLzAC+CCvyyvDPnfVm8JMka1zzebTlWQQVCCgQVt4DhU2BuhkgFlVjrHOa5473sVdzwGi9cflf/+pv0UTML6aCnZdbrifqbUIJKqKEskQA0P/j6OHOWH+fwER3H6685jSp8LMCbvFvlLVR64QQVjKFGpccthBJU/Lw2p6ASKk9mPiMRVPziZ54fokXltr8G9FJiPyqKmOHAWYk2jw23/NIr0+SrRd9Z0e6tcafUfaRWuENS7IdJMkzL31AzWukx2CkiqQ2YuQbOA03HrJFUnszKoOm42O1csWzDOHeYt+qA6S0zRKjUp6agAvEEFhVwCOg1JKqgAqeNcN6IUFSN4+3fK9AM1cv1hRJUYDHWWPlsMp09h0vTKaggvjnzitlj/JoysYYlEIKbHwJUeCfOS/b/YEUM8ycaQSVWjn68a6YzRDhYh4AdKuw5oHxVKKfoOmBqz2JqiAWC10ZNagkqfpSbXgUVXD/EptFquJ7pDB7bzYCG02jVC60dumOfX/fAnHbVrQFt5iPUstnQdAoqZl5DpeG2z2ndZ54nnKCC9MyZacxhP+ZwHwhXcPQfTYCTbfjlQnihQyu5VPlN8BqcHSqm5ZbXNHQ88702p03G0Dx8w6MJpiWYH+VbJHWCUIKKX8+T17LHZOf1+fPj222eF8vOGSDDWRA5j3dbj6W8gz+UO+66JyDZUBYliNi0+XPyxZdf2ceYgor78JRlQYfQuVnIDBnUT+6rmZSn1BZU9u3fLy8qnzLzPp5vX5+XhUQXVGKtc3hh4Fccr0JJqOmVo81LedU520110p4NIaEEFWcD3tmI8Qo0nKDiPA8qVnC2GizsUM7fMGWlDjVU7yFmS3CO19b7YWJcSo2BRsUkZ7bz5UI1449uNOg48RJU/Lo25NOZlt+Cip/8NFf8YoYczJTjFsKNp3Y7xtxmVvS6tG8ll1XwXtEz09HLcJwK3yVL1PSK5vSWej/8hMBqQJupR1J5MsU1p4m3Tt+P38XfLxVMmYwQbaM+NQUV098H8oyZTW5Qlf9iyndBbvW+5lDreGcxw5e2JHKWRWYF0NnQieQehargIm/hAqYVxfSiCDX/d6c8VjtygS+YoIIG7E3PrQ4Qi+HfAcPmLlZlHLhhNjP05LWduMUWMN0EFUxtPOS0vwfM0gN/VwjmcB+n5R/2m2PhsY4e8YrKsqCkGrqR58IM1n3C+TFjkld/EkjHGWLl6Me7BmefsAJCcBOXnHlGrzaeZR2+VtYAulfVa6MmtQQVP8rNSAQVzQRD0nCNSVPYHrBnKtL78TupTXGBFQ+CX/fA5I/6BSyvogmhyhk4e4YPJgSIiF3qFgp5isNKSM6s8oJQQU2DXOa0nxasm+fxIqiYQyXMBqg53McUWnAOr2H/gQPSpGUHO/rUiSMlQ4aU1pp2BMeCWf5ilyk0OqKGXQ0mqJjlGRLp+URoS2rMvoiAzhE419bTuvtRvpnXG4tFpF/Pk/nsh7KOs4Cc/uP1+fPj222eF8OranRdm6Jjy3Ssbsb3uhxLeQfLhetvqhxwqgF9e8mDtYJbacFHCnyl6GAKKl8vXCSNmjTXu6zf+R99oCys3Z0ob9y4Se66J/Bcr748QW6pdLN1bGoLKn36DZTXXp8RkP+LcueW6667RgoXLiQ51GxBF+bIIXM/+iRgmulEF1RirXMEAInzildBxWlZ4ke2MLsbZnk7G0JCCSrmVHuAF+2sF+EEFed5nI0lrzduprIwGPDG3wHR3ZzPOZ2k4YB4CSp+XRvyGG9BxU9+yC+C0ydF0tbAv3CSh16iSMOBAwcFUwPrEGlFTx8X7Bcf969W7pMhs7YFDGuYpWaH0E4KI6k8mfcv2qmQg+XV3D5xsmrUf53UqL/n7mpS79EHzd2ellNLUEGj4ibl1FkHCKnP3pff9j2ht+PXnFrRWUaYFcAzKag8166r7FJjiRE6tW0pV1xW3lqO5E8wQcV0mIv0TMsSZ/q1+6wXTMOL4CaomDN/oPG3WDUwd+8/KdVOz1KSLfP5gmlwtXCo0zf9asGSABYFaKA6gzn7WTQWKrFy9ONdM2fc8TKTDvxy9Tccs5vDxbw2alJDUPGr3IxGUHE+J/g+YPia6dMMjVuIeQh+3QOTK9L9Ss1ahs6VSEOocsbMayxWMMiTeR4vgoppHaWH/aBs1cN98A4Gm1AgHIMlPyyTkeMmWdGKXFxIBvbuGu6QgP0Q0W55PtlyC1ae8N0UTQgmqHyiLJM7qFngdIDTZ9OSVG8P9+tH+RZJnSCUgO/X8+S17DHZeHn+/Pp2m+ftPX2rwKrKGfA9wqyh4XzaOY/Deqzl3X/KbKnspVcFJN3wqSekU/tAB686As53zQ0V9ar1awoqmJr4gYceDdiPKX7h+8QtfP7lAmnWvFXALjh3hUCBkNqCilMsuv/ee6Rfn54pRFbn1NCJLqjEWucIuEFxXvEqqCAbs+fMldVr18kaNWwnlgDLlIfurxGx+4BYzhnrsQklqMCKAybgZoCzr0tVb4ozwO9Bk5Gb7M1WJX1U0qwI4QQV53lQeC4YXM51SkOcAAV5Uv9C0tTImS5IqtA7x5zeVD6bQNl2BmdPIvbHS1Dx69qQR7ORgPVoLVRgsfNB76TCGOno4Cc/pAnzWZit6oYdtl1VMouaPeGo3XuObWgAY2pEZ+MN+0KFH5b+JMPHTLSiXFy4oAzq0y1U9Kj3Of1KtFOO/eBUFiGSypM57S/EyXl91XCnIH7z0FhBr+NJ1ZOWPn06eaJaHs8VRD8+DKklqJjTiofrOTYru4koqBw4qAS+FskC3+SXRkjGCy6I+LkLJqigsa4bnmYvtPMEMMPGcE0d3AQV7EN5raegRwMWs5pAPERwc5rsbBiFEkJh/YJeY4RIBRU/OPrxrpnDJXAdoZxLYr85Y5g5jAD7vDZqzIa/Mw2ko0MsTmn9Kjf9EFT09ZiNR/N58eseOBuu4Rr1EARRT8BH7DplLQPLRASzoekUbt/++h/pM2OrFQ+iRrhZoayIQf6Y54HlGXyfhAvm9xvWKHsPnhA0UBFiEfAnTZ0hXyxYZKVT4647pH6dh6zlSP6YZVq4vMC6DU5mwR5C5j3KAlmHYIIKhkJi2JMOweqper/br1/lWyR1AudzaYqwfj1PXssek4mX58+vb7c+7w/qnWukhrPqgHuIZ1o7tL5LiXCDlBgXafCjvIMTWfgg0QEWGe/PeVvy5smjN9m/Eye9KkOGjbTXsWAKKoePHJErr7kxYP+9NWvI0EH9A7bpldbPt08xvGblsu8lU6akTsjUFFQ2bNgod9d8QGfN+g1mXfNsi9by2Rdf2nETWVDxo85hX2gqLEQiqKRCdhL2FAklqKAhjJ5OM+Dj/pFyEGX2SqInv3qnXwPMd80GTzhBBTP8wNTcDPDqPfrZoika2XOV40r4SDGD9thvNhCwHz2o8FVhBnggbzh0g6BCaoZ4CSp+XRvyGq2gYjYu9DW7OYbzkx/OM11NkztITZdrhnl9ygimHDR7k7A/WKPPPNa5/MrUmfL5goXW5v9VryqP133YGSXkOioz3aclzfCTQZn+vvBYoaAOcs0KoTn1ZySVJwwfgAm7DphtAbMuuAWzgYF3baGyFvDS43bw4CF5pkU7O8nJE1SjPmPkjfrUElTgzA5TLyOEElSc75FZvuBYswLobOhEco9CVXBxnlDBrLgVKlhAhvR7MVT0oPvMZ810Stt1yp/yweI91nG3X5FdRqry0S2YFWjsD/ZumWPVMasVBBUtfmLaegwnMsNuNVtHVWO2DoiyEGedAWVsTdW40TNamQ1kZ1y3dT84+vGuOR16wgcFBHo34ddsXOCazDIC6+Y9CWV2nxqCSqzlJq4HwYugAmew35+eAreSsjx5XAnDbmHOt/9a1ijYZw6T8PMemIIsnskPepWR/GqosDP8pabTvffFdfbQOlNAD1XOmFYiSDOUcIB3BL7N0IhHgLP/skUyWcv4Y5aLJg87gsuC+exAcAU7DGFFmK5mZ7xMzdIYTWjVoZvs3JkkjnZo01yuuuLSiJMxBVYcjBlbUMdzBgzFgX8n3AME01oJ68EEFewz60cQI9/sUtIeUoX9ZoDQtHrzYWtT7dtyWxMu+FW++fW98et58lr2mHy8PH9mnFi+3Tgv3ofqanp1LZ48WT2PtHmwgLIQ3i/PjdtsZ22U+ubdpr59kQQ/yruXX5ksg4eOCDjtjTdcJ1NemRjg++S7xUukQcPGAfGwYgoqWMd0wphW2Axuw4hmvTNHunTtbkazhhohrg6pKai4DT9ym3rZbVhTIgsqftQ59P1IjV8KKt4oJ5Sggiw7Ha5iG0xQa9xwobIsyCxrthy2nEihIWIGc/x9OEEFxzmHxmAbeoXuvv5CyyLmXzUt57zv91oVDezTwRzb7taAR8MLMzRcku8CWbnxkEz+ZFfA8A2dTrwEFaTvx7UhHbPCgHWvFioTPtwh49V/M+ADCN8J4PI/xRgz2PjJD04z7+n6m10pxbn1RxLLzucKlcaP+rpXcBHfLbTp2F2279hp7erQ5llV0YtsiltU3iq2Xm1N+4pE0Dic3b20XKAsQswA3x39Zib19GH72BZFral/sRxJ5QnOeWsoJqZD0RfrF1YV75z2LCuI8+GSvYIpE3WIxM/M0uUrZeioCdahsTTqU0tQcVYaMaPQU9XzBjRa4dQQPVWmo+lEFFQmT3tDPv3ia4v93XdWkScee0Tfwoh+gwkq85futawgdGKm2KK3TZ6/yxoapdfxG0xQAU9YskAQx/un+YayjEClV5f1mJVlRLOiAe8LrLnqD9xgx8H5IxVU/ODo17vWbuIfls8PXAcCBIEW9+UTbRWJbfiuPDk4eRYbsJw/oKzkOT3DD+J4bdSYjeJQ9yEWC5VYy01cD4IXQcU5+wp6mNHTbIadyidawyEbBFYGCBDyIOjp4Nc9gMN1dC7ogPNMUAIZ/K/pgEb108M2ysZtR61NuJffDC9vN8xDCSo4wOkAHkMYm6hp5zMY3xSU/88rMUX76ML7AX875jPltKLFO/yoaviHcuDu/J7pa4plVqNDhw5Lo+bJQxtenTBcMmUMFFr1eUL9YubAmt2SRSpwndK+uFxRPIt9GCyPB7z5t0Bc08E5ZDuUoOK0ZkL9cdSzl0h25VdKB1jvDVVWeOawElNs8qN8i6ROEE7A9+N58lr2aEb49fL8+fXtxvnQwYZhWwhoX3yihvfoephZF0G9NdIZf/wo7+APBUNdnAGWKnfcUUVy58pl+QvBFMduwSmo/KJmpXnQMSsNjsPwmUoVk3yjLPzmW/ngw3kpknt31htyaYVki7XUFFSQmZtvqSK7//nHzlcR5Xz/8Xp15aYbr5c9e9QsjWrWn3ETkizH7UhqIZEFFT/qHOa1xnvZT0EFQ4JmvzdXDec5e3yjeOWbcIKK80Po5ULQMH1f9f7onjwvggocotZ4IbABHu5cKFxnv1hKCl2U1EsKU1H0jEYT4imo+HFtuKZoBRVnb62Tz/Cml1hOF/3kZzrDw/kwjAsz+uhK4+9q2A96DM3gZlFk7jeXDx8+Ik8/+7y9KdqK3jA1rA2Vfh1Qub2mdFa5Vv1HD9/3atpU3WuPOCmebVXxrtUj6TpQSQw1bTKOd04hiW047oZyWeW4GubjnAYX+xYMKWc5G0XccGHK62/K/M+/sqLdVe12aVCvdrhDXPeblZh4T5tszlCBzOAeVLo0u/WsLF13MKBxrjObiIKKWXFr37qZXH3l5Tq7Ef0GE1TQiwcB0AyofKI3evf+E9azo3v4zDjBBBXE6aEstDD9sRk61C4o9aomDWkzt2MZPqrga8kMaLgUzZ8kWOO9doZIBRW/OPrxru1TFgR3KREJDTEzXKp6++EAeIUaFuLcB5H0ITXNuhm8NmriLaj4VW7i2rwIKnhmKyv/GVqsw3EoQ29Uw3Ex7BHPC4QOc7/+HiEugl/3AGmZjj6xjoB8XK4a9rDm0GJh0h6xpotH+adDOEEFjczqnX+1RXp9HJ4XOD/drgRHc0pY7Hd7P00fRzoNvEdXKAfUtSrmChgGo/fj17Rs1Nsh6ECUjyaYAn3BAvlkaP8e0SRjHWM6ztWJoF5wk/r2oe5hfmex380PTShBBcc4O2qwDc8bJiXAc/SzEj8hIOvg/I74Ub75Kaj48Tx5LXs0E/x6ff78+HY7rfteVk6pbzjtlBp5wcyLELp0GRFquCvim8HP8s5tKI95LnMZQospOjgFFcQdPXa8+p/U+WUeG2q5ZfNm0rJ504AoqS2odO/ZR2a++XZAHrysJLKg4ledwwsHP+L4Kaj4mZYf1+ZnGgknqODiUNFoOnJTioqj24XDRHN4k0vsHh3E8SKoIB4qwI2GJ4+ZxLZgAWLK1A4lAjzjI65pOhzsWEx/jI+MWRGOp6CCfPhxbdEKKji/czgPtulgVmD94IcGGhpqZnDrmXRzQNZPzTaC4QfhwvIVP8vgEeOtaPnz5ZXhA3uGO8R1Pyr8XV7dIguUaWm4AFP9oWpsup65A/EjqTzp9DE98HPj/rArCHq78xc9ixiypqdede53W2/buYf8vS3JGqldq2ZyzVXRNepTU1BB+fD4oA22ua/bdVlj6ZVVHGZhQHBWhEM1dCK5R+F6DN3yhm1H1Ljohs0MgW/8MDXGOdmEP9hxbtuDCamKAHMAAEAASURBVCqI67RScTselmc79x4XjElHcGuw6eNWKbP3x/r/rletX3N2moAdagXvS5ORG1XDJMlc3rkf6xABMcsGhighRCKo+MkR5/bjXcPz+ZSyoEAjI1wIJj56bdTEW1Dxq9wEBy+CCuLBbL/9y38ENGSx3Rnw3Ax4+mKpfm2gBQvi+XEPkM6RY6ektbIO0bPxYFuwgKmyWygH2bpjCPFClTM6HQyda6AsltzETR1H/zarmU+aqv9uwfSZZO53TrFs7sNw2noDAt9n9PabVjhm/HDLU6e/JZ98tsCKVv2O2+XJ+rXDHRJy/0tzvU25juF1I5pdEjC0HAmHE1QwhKrJqE0pRCu3TKEDB0P4zKG0fpRvfn9vYn2evJY9TkZenr9Yv90oU+EuQItcePcHP1PEmZUU1tPhfCDpBPws706ePCV9BwyS16fP1Mm7/rZv21pWrVod4PfETVBBemPHT5Ax415yTce5scWzTaR5s6ZqiFGgE/jUFlQwbXKL5563LFGcedTrBfLnlwZP1JOBg4fpTQlroeJ3ncO+4Dgu+CmC+JlWHC85qqQTUlDBlcAUFtPfvrPoH7vwM68Q5skYWgMTV7MCgjhOh2HY5ubDA9uhyE9S467f+mq363lQOYcg0uDOPLa1A44zAywyMGWnNtvV+9Cb2+6RAlaDvVKbNQEVHhTiZkXOqbw//1AB65w6LfPXaY3xhMpbWxXfGWK9tkjy5Dw3rB8+XbZXXld+TZw9ZM7xzLHwQy+CHkag81DhkswyU41ndgZUXqq0XxNwnyGUfTOiQlBnrToNs6J3Z9Vb5anH6+hdUf1iPPCY93fYY7fNRNDDhXHWbuP/zWc7koYjeuRQucQwNt3zos8JIeVm1YPbuU6hiLzaHzl6VBo2baOTkVfGDZPMmaNr1LdS45a1yNTu4QKu144TYSgUhkQhgA/iugWzd9LN/wf8bXR65U/B8B4nj8eUtQQaNih7tNNUZxqmOb/zeYvkHu1S5dwdhp8Q00mg23XpbctX/KIEvnHWaiwCHxIIJahgP4aYQLB0WoPg3Wmtxp0/cmtuy1ePbjRi+lYMFwgWTDN3p88Ct2Nwf/orSxU4jnQ2GnH8C+p8aLhqv1jIl9dpav3kqPPux7sGa7XJn+y0nnVTiNfnwHU3VZYAcLrtFsxhg6EYm721JQtllHdeTB76YqZr+hSKhK+f5Sa+Kde1WGVnK5TT3n/V+91L+a2AE2QnP1gpXF48s7xYr5BtbWonaizEeg90UnCWDtEf9Qztq0Pvg6gDH0yN78krVa7MoTfbv6HKGTuSWgj3rYdggDqC6TfFPB7LGMKDd2yG+mbr4UHYjvKwo7IiCxaqtP/V9l/kLAuDHRNsuynQt32uqVx79RXBonrejjIeQ5Dx6wz41t57cy7XeiTimoIKJi7Ipep0zoDhfnjfMPzRaXGEuDgHysk7rk55f7E/1vItHt+bWJ4nr2UPrt0MXp+/WL7dGNr8/ndJfsFQf5o/oJzAT6Mz4J2t1XOdXadHXMxMF2oIHNLws7zTeZqnpgMeP3GSrF0baA1fqmQJ6dKpgzWdcdsOnQOG6zRv1lhatWyukwj4/f6HH2WaEmk+mf9ZwHa9clf1ataQmhuuv05vCvgdNWZcgCgTzMHtTytWSu26jwcc+9vqFQHresU5rMecphlxjh07pmYXGmU5nd2yJXl4OvY9Uf8xadqkkXz//Y/Sum0HbLLC5ZddKrPfmqFXZdnyn6ROvQb2OhbM/Hz73WJ58ukm9v6sWbPK8h++tdfNBbeZk9b8vCzAv40Z31yOR53DTD8ey36KIH6mFY9rjSXNhBVU9EXhY4MK6jY1DviwqjSj57hUwYxhCzZ9vNdfnOdPdR6MN8Z5IIagp960DgiXFj4IMCPFL/JpjmkPd2w89/txbbHkDx8nXanNdEE6q0fZLb1E5Ye8tuvSS7b+vc3K9vMtm8h111zpdgkRb1OPnfyx46js3HNCLlI+EIqpcfaqjh23gEbJX2p8OcxaMc6+jDJNzqwaoNGEn1aukkHDx1qH5s17kYwc1DuaZM74MZhKdcdp/vDxY/YgnvHMBcnAtJmz5KP5X1h7q1WpLA2fqBskZvjNptjr5idFp4ByBL40jh4/pYYtXGD1QjvFbB03Xr8QoDapYW94ZuGTAo37WIKfHJ358ONdQ/mARppuiGPqXQw5jfW6nXmN13q8ys1I8gsrAsz0hme1hKo7YOhUJMHPe4DG4Nbdqo6hhnQVzpMhpKATSR51XDTuMeQX58D1wldZ4YsyRFxfQucD3nNc+0WqLhTsPcf5MA297vGHs9talQKHn+m8hft1CvSTxg6VLFmic2zrdi5c05/K+SyEMrxH8ahHonzCuwoeubOfL0XyZrQs5tzy47bN7/LN7RyRbPPreYrknIjr9flLtG93PMs7DOnZtm27ZTFSsGBBuTCHu0DnlfX+/QeUdfE2+ee0f5LcathQwQIFJHv2bF6TOCPx/vnnX9m6datky55dChcqmGL65DOSqQhOGs86RwTZiCiqXyLIajWVcp+Byc6WZ0xO6hSMKDMJHDnhBZUEZsesnSMEjh49Jk81bW1f7ctjhkjWrO49w3akc2DhddWon3e6UV/19lukUYPHzoGrToxL7NC1t/z5199WZtq0aCzXX3tVVBlzDqOAj6hShaKzMooqA2f4IL84nuHLSMjTs9xMyNvia6bMIYGwtjEd6kZ6ohU/r5aBw8ZYh+W5KLeMGtIn0iQYnwTOGAGWd2cM/Vl14rOxztFbiSBrlBjiZyhfrox065jcrvIz7TOVFgWVM0We5z1rCKz8ZY0MGDrayi8resm3rWO3PrLlz63WhlbNn5Ebr7s6eSeX4kbgqDJ/fapJ8odo4pjBkk2Zp0YSYDWGGXJGvLs9YCYzODlGw+hcCH5wPBc4RXuNLDejJXd2HIehgE3UbGja+hTD/DDcL9ow/c13ZO7HScMQqt5WSRo9WS/apHgcCaQ6AZZ3qY78rDvh2VrncFqW+AGes/z4QZFpkMBZRmCGquh9eLqid3vlitK4Yf2z7Ar8z+7x48elQeNWdsITR6tGfbbIGvX2wVyIiMAvq3+VfoNHWcfkzpVTxgzrF9HxiAx/I/CLYYZQvjbMeGll2Q+OaYVFPK6D5WY8qJ7ZNDGc6Lmxm61h2FpIQY4gwn6hfIy4+aPwmmNToH+u2dNy0w3Xej2U8UjgjBNgeXfGb0HCZ+BsrnNguuPVa9fFbKkCy5SH7q8hFdRvWgu0UElrd5TX4zuBzi/2k82nHWG1VBW9m1nRk1Vr1krfQSMt1tE26n2/UedIgjPfflc+mPepdbXRCnz3dV8nGH+uA3xGvdW1lORVDorPleAHx3OFVTTXyXIzGmqJfYzpnFjnFP58MPXsZWqq5miDU6B/afQgyZ4tsX05RHutPC5tEmB5lzbvq59XxTqHnzQTLy0KKol3T5ijBCMw5fU3Zc/efVaunm5QlxU9ReLX39bLx59+aTG5tHxZwcxHDKlD4LMvFwp6OhDurlZFypUtFfGJu7z6p2xSzpCL5csoV5fKIg/ekuucGeqjYfnBUafF35QEWG6mZHK2b8GMMnX7/S4XKIfmcKpbrkhmaVwjr+X8NpZrO3DgoEyaOsNK4sIc2WOeRS+WvPBYEoiGAMu7aKidW8ewzpG27zcFlbR9f3l1JEACJEACJEACJEACJEACJEACJEACcSBAQSUOUJkkCZAACZAACZAACZAACZAACZAACZBA2iZAQSVt319eHQmQAAmQAAmQAAmQAAmQAAmQAAmQQBwIUFCJA1QmSQIkQAIkQAIkQAIkQAIkQAIkQAIkkLYJUFBJ2/eXV0cCJEACJEACJEACJEACJEACJEACJBAHAhRU4gCVSZIACZAACZAACZAACZAACZAACZAACaRtAhRU0vb95dWRAAmQAAmQAAmQAAmQAAmQAAmQAAnEgQAFlThAZZIkQAIkQAIkQAIkQAIkQAIkQAIkQAJpmwAFlbR9f3l1JEACJEACJEACJEACJEACJEACJEACcSBAQSUOUJkkCZAACZAACZAACZAACZAACZAACZBA2iZAQSVt319eHQmQAAmQAAmQAAmQAAmQAAmQAAmQQBwIUFCJA1QmSQIkQAIkQAIkQAIkQAIkQAIkQAIkkLYJUFBJ2/eXV0cCJEACJEACJEACJEACJEACJEACJBAHAhRU4gCVSZIACZAACZAACZAACZAACZAACZAACaRtAhRU0vb95dWRAAmQAAmQAAmQAAmQAAmQAAmQAAnEgQAFlThAZZIkQAIkQAIkQAIkQAIkQAIkQAIkQAJpmwAFlbR9f3l1JEACJEACJEACJEACJEACJEACJEACcSBAQSUOUJkkCZAACZAACZAACZAACZAACZAACZBA2iZAQSVt319eHQmQAAmQAAmQAAmQAAmQAAmQAAmQQBwIUFCJA1QmSQIkQAIkQAIkQAIkQAIkQAIkQAIkkLYJUFBJ2/eXV0cCJEACJEACJEACJEACJEACJEACJBAHAhRU4gCVSZIACZAACZAACZAACZAACZAACZAACaRtAhRU0vb95dWRAAmQAAmQAAmQAAmQAAmQAAmQAAnEgQAFlThAZZIkQAIkQAIkQAIkQAIkQAIkQAIkQAJpmwAFlbR9f3l1JEACJEACJEACJEACJEACJEACJEACcSBAQSUOUJkkCZAACZAACZAACZAACZAACZAACZBA2iZAQSVt319eHQmQAAmQAAmQAAmQAAmQAAmQAAmQQBwIUFCJA1QmSQIkQAIkQAIkQAIkQAIkQAIkQAIkkLYJUFBJ2/eXV0cCJEACJEACJEACJEACJEACJEACJBAHAhRU4gCVSZIACZAACZAACZAACZAACZAACZAACaRtAhRU0vb95dWRAAmQAAmQAAmQAAmQAAmQAAmQAAnEgQAFlThAZZIkQAIkQAIkQAIkQAIkQAIkQAIkQAJpmwAFlbR9f3l1JEACJEACJEACJEACJEACJEACJEACcSBAQSUOUJkkCZAACZAACZAACZAACZAACZAACZBA2iZAQSVt319eHQmQAAmQAAmQAAmQAAmQAAmQAAmQQBwIUFCJA1QmSQIkQAIkQAIkQAIkQAIkQAIkQAIkkLYJUFBJ2/eXV0cCJEACJEACJEACJEACJEACJEACJBAHAhRU4gCVSZIACZAACZAACZAACZAACZAACZAACaRtAhRU0vb95dWRAAmQAAmQAAmQAAmQAAmQAAmQAAnEgQAFlThAZZIkQAIkQAIkQAIkQAIkQAIkQAIkQAJpmwAFlbR9f3l1JEACJEACJEACJEACJEACJEACJEACcSBAQSUOUJkkCZAACZAACZAACZAACZAACZAACZBA2iZAQSVt319eHQmQAAmQAAmQAAmQAAmQAAmQAAmQQBwIUFCJA1QmSQIkQAIkQAIkQAIkQAIkQAIkQAIkkLYJUFBJ2/eXV0cCJEACJEACJEACJEACJEACJEACJBAHAhRU4gCVSZIACZAACZAACZAACZAACZAACZAACaRtAmeFoHL02HHZu/+gHDh0WI4cPSYnTpxM23eFV0cCJEACJEACJEACJEACJEACJEACJJDQBBJaUIGQsn3Xv7Jn34GEhsjMkQAJkAAJkAAJkAAJkAAJkAAJkAAJnFsEElZQ+WfPfvlz2077buS6MLvkyJZFsmTKKOnTp5d06exdXCABEiABEiABEiABEiABEiABEiABEiCBVCWQkILKjt17ZNvOfywQEFIK5MklGTKkT1UwPBkJkAAJkAAJkAAJkAAJkAAJkAAJkAAJBCOQcIKKaZlSKH8eyZMrR7C8czsJkAAJkAAJkAAJkAAJkAAJkAAJkAAJnBECCSWowGfK2g1bLBAUU87I88CTkgAJkAAJkAAJkAAJkAAJkAAJkAAJeCCQUILKH1t3WA5oMcynSMG8HrLPKCRAAiRAAiRAAiRAAiRAAiRAAiRAAiSQ+gQSRlAxrVPKl7yEPlNS/1ngGUmABEiABEiABEiABEiABEiABEiABDwSSBhBRTuipXWKxzvHaCRAAiRAAiRAAiRAAiRAAiRAAiRAAmeMQMIIKhu2/C0HDh6WooXzy4XZs54xIDwxCZAACZAACZAACZAACZAACZAACZAACYQjkDCCyur1m+XEiZPC4T7hbhn3kwAJkAAJkAAJkAAJkAAJkAAJkAAJnGkCCSOorPx1g8Xi8rIlJF26M42F5ycBEiABEiABEiABEiABEiABEiABEiCB4AQSTlC5olyJ4LnlHhIgARIgARIgARIgARIgARIgARIgARJIAAIUVBLgJjALJEACJEACJEACJEACJEACJEACJEACZxcBCipn1/1ibkmABEiABEiABEiABEiABEiABEiABBKAAAWVBLgJzAIJkAAJkAAJkAAJkAAJkAAJkAAJkMDZRYCCytl1v5hbEiABEiABEiABEiABEiABEiABEiCBBCBAQSUBbgKzQAIkQAIkQAIkQAIkQAIkQAIkQAIkcHYRoKBydt0v5pYESIAESIAESIAESIAESIAESIAESCABCFBQSYCbwCyQAAmQAAmQAAmQAAmQAAmQAAmQAAmcXQQoqJxd94u5JQESIAESIAESIAESIAESIAESIAESSAACFFQS4CYwCyRAAiRAAiRAAiRAAiRAAiRAAiRAAmcXAQoqZ9f9Ym5JgARIgARIgARIgARIgARIgARIgAQSgAAFlQS4CcwCCZAACZAACZAACZAACZAACZAACZDA2UWAgsrZdb+YWxIgARIgARIgARIgARIgARIgARIggQQgQEHFx5vw33//yeHDh+XIkSNy7NgxOX7ihJw8eVJOnTplneW8886T888/XzKkTy8XXHCBZMqUSTJnzizp0qXzMRdMigRIgARIgARIgARIgARIgARIgARIIN4EKKj4QPjQoUOy/8ABOXjwYFSpZc2aVbJnyyZZsmSJ6ngeRAIkQAIkQAIkQAIkQAIkQAIkQAIkkLoEKKjEwPuAElH27N1rWaPoZLIqUSRjxoxynrJEgd0JrFbwHwGWKPiPtVPKcuXo0aNyUIkxOsBqJeeFF0o2Ja4wkAAJkAAJkAAJkAAJkAAJkAAJkAAJJC4BCipR3BsM5/nnn3/kkBregwABJZuyMrHEktPiiddk9TEHlHULBBaELGoYUO7cua1hQV7TYTwSIAESIAESIAESIAESIAESIAESIIHUI0BBJULW+/bvl127dllHpVe+UC7MkSPCFEJH37tvn5xQvlcQ8uTJIzmyZw99APeSAAmQAAmQAAmQAAmQAAmQAAmQAAmkOgEKKhEgh1UKhvggXKiG5pwvp2TX0vly6ljysB2dXKZ8ReXCMjfo1YDffet+kMPbNwVs0yv5brpfTqY7X/aePg+GAMFahYEESIAESIAESIAESIAESIAESIAESCBxCFBQ8Xgvdu3eLfuU9QjCRacFjpNHD8mW90fKiYNJ282kspe8WvJXrm1uspd3LJol+9YvtdfNheJ1XpDzMyX5UNmtBByEHMoKJs9FF5nRuEwCJEACJEACJEACJEACJEACJEACJHAGCVBQ8QDftEzBMJz/Tk+DHG9BJZ2aZlkPL6KliocbxSgkQAIkQAIkQAIkQAIkQAIkQAIkkEoEKKiEAW36TDHFFBwWb0EF5zBFFfpUAREGEiABEiABEiABEiABEiABEiABEjjzBCiohLgHmM3nz7/+smLoYT5m9NQQVPT59PCfiwsXPiOz/5xU0zyDhw6ZMmWyZjXS64n8e/jIEcxfbWXxfDWdNaanZiCBs5nAvv0H5Lzz0lmzi/l9HTt37ZZcOS8UON2OJhw/flz27tuvhinS91M0/BLtmHg+a4l2rcwPCZAACZAACZAACURKgIJKCGLbtm2zpkaGA9r0qiHuDKkpqJxQggYc1WJK5QIFCjizEvf1mW++Ld179rHPM/21V+X666611xN54errK8pBNS01wo03XCfTprySyNll3kggJIEvFiySSVNnWHGaN3lKKt10fcj4kewcPeFV+W7Jj5IhQwYZ1Ker5M+XN5LDZfOWP6VrjwFyUg2LvOP2yvJ0g7oRHR8s8k8rV8nwMROt3Y0aPCaVK90YLCq3+0ggns+aj9lkUiRAAiRAAiRAAiRwxghQUAmC/sCBA7Jj506rlxb+S/47beFgRj917LD8OXe8nDiU0ilttuJXSr6Ktczo9vLO7+bI/g0/2evmQtGH2iuntFnNTdZyunTprBmGMKVyvrx5JVu2JMe1KSLGacP0mW9Kz9797NRfn/qK3HD9dfZ6Ii9QUEnku8O8RUqgbece8ve2HdZhJYsXld4vdow0Cdf4R44elYZN29j7at1XQx6pVdNe97Iwdfpb8slnC+yo018d64sl25Ifl8vIsS9b6T5Z/1Gpfsdt9jm4ED8C8XrW4pdjpkwCJEACJEACJEACqUuAgkoQ3hjqgyEubkN99CFwTnv037/lP2U94gwQRS7I4T4zz/H9u+XE4SSLCedxmfIUVn5TUlrD6HgY+oMhKxj640f4cekyeaZpCzupju2flzq1H7bX9QIFFU2Cv2cLgaNKILjplip2dqtVvV0GD0wWBe0dZ9nCtJmz5KP5X1i5fvD+GvLwA5GJHqEut12XXrL1721WlO5d2krZ0iXt6L+t+10GDR9nrd97T3W5/5677H164aeVv9hxSpUoJr26ddC7YvqloBITvqgPDvesDRw2Rtat32ilP3HMYDUM7byoz8UDSYAESIAESIAESOBsJEBBxeWuHTp0SLZt3y4ZM2aMi48Cl1N63nRADV1BQ7FA/vySJUsWz8cFi/jtd4vlyaeb2Ls7d2gnTz35uL2uFyioaBL8PVsIwHfOldckDw25/bbKMnH8mLMl+0HzCWu5n1f9ajVeL6tQNmi8aHYcPXpMlq34WYoULqRE24IBSaz4ebWgAY1Qo3pVqV83pfCKfZs2b5HtO3fJNVddLhmi9MOCdMxAQcWkkXrL4Z61Dl17Kz9jf1sZmvbKGDmfgkrq3RyeiQRIgARIgARIICEIUFBxuQ3bd+ywfG6Esk5xOSzVNsFKJWvWrMq/Qb6Yz0lBJWaETCBBCaRVQeVM4fYqqMQjfxRU4kE19jQpqMTOkCmQAAmQAAmQAAmc3QQoqDjuH3rkNm7aZG3Nc9FFrr5THIek6ip8qezavds6Z/FixaL2T7BFOY+Ej5jlP62QQUOG29dQ99FH5L5777HW8+bNI5cUKWItB7NQOXDgoPy0YqWsWPmzFC5UUK684nIpVqyop3z9/MsqWfvbOvlbDTHIlCmjFCpY0HJ0my9CR5h25oMsePWhgmvBvf99w0bZsmWLZQVUunQpKVWypPJZk9KvDWY+WqF68/9T/7yGq668QjDT0G/r1sv+/fvtw8qVLWOJZPYGYwF8cS4EOAu94vLLjL3RL2JK8MWLv1f+OLbJvn37pGjRS6R8uXJSongxK4/OlE+ePKWud6V9vfr5wNC4lT//IivVcI+M6j4+/OADlnWXebw+119/bZX9B/ZLPiUG4vm97tpr1LlCDxM4pYbW4Tjcm/XrN8ix48cE96V0qZLW0DfnMAM4b17/+wY5fPiINHymqZ2NSyuUl65dkvyNYJYqrLuFtWt/k1Wr1wiE1VOn/lNOoPNJ2TJl5LJLK7hFt7bhGFiPIei0ke916j7/uGy5YOabO6vdYb0jVqQY/sDh6xF1bQhZsmQOeNeOqntx4vgJy3olc+ZM9ln+2rpN3eftkj9/XilUIL/r/UVk5PPYseNWmkjb2qb8Nh1TlisrV62R0eNfsbZVvf0WqfvwA9Zy+gzpJaMxc9bBg4es7RkzXhBypqB/9+yVP7b8peKcL8XVs6fPZx3s+OOXoIL3CP5ndu7aZQ2dhA8a3C+vYa96T7Zv3yn/7t0nF+bILgVUWZVTzYgULOB8R44ctXab9wr3Y9v2HZYVUD5VzqJcNwNm1tny51/qvT8lpUsWF/NemvHinn6QZ+3QocPWt7Frr4HqPdlpZWnCqEG2hYp5rWZ+uUwCJEACJEACJEACaY0ABRXHHdXDfbKq4TSRVLQdycR19YgaynBQDUuKZdgPHMxCJAkVHlW+VHr36GZFcRNU0NAfMmxkiiSKFLlYZk6bohrN7jOE/L5hg7Tr0MVqtKY4WG145KFa0rN715CNMbfjgm0LJ6igUTL1tekyYPDQYElIo4ZPSts2rQIa/xC2KlauGvQYtx1ffvax1ahu26GzfPDhPDtK3949rOu2N5xe+Gvr31Kl2t325lIlS8i8D96116NZQEN/2IjRMnHSq0EPx33H/TfDnj175IaKyc5Aaz/ykFSrWkUaN0v2wYP43y78Qk2Zm+w/aPTYCTJ67HgzKXsZz8qAvr2Czhi1QYlbnV540RLt7IOMBbwDk14aK2XKlLa3fvTJfGnVpr297raA477+cn7Arl9WrbZmsoLQ5xbKKtGre9fOlgjk3H9vrUcEogoC0n5jxlR56JHHRE93ju1jRg6T6nfegcWYwqdffC2Tp71hpdGmRWO5/tqr7PR6Dxgua9aus9bhEPbV196Qr79ZbAkldiS1AGez99e8O4XPi6GjJsjS5SutqK+MG2Y15Me/PFUWfrvEPDxguVjRItKvR2drGxrXbTp2t5YhumBGHjPgXXtz9vvy0SefWzMBmfsgWta8u5rc5+KbJVZBBUL5rHc/lA8//iwFixxKGLlLObmFE95gYcOmzTJl2puyfsOmFFFw/XCUW6ZUiRT73pv7ibw56z1re5f2rWTzH1tk9py5AgfAOmB66batmkpR9S6A38RXX7fvoRmn4/MtVNkROMNbvNN3e9YgKjVr1UlnzfW3a8fWUqFcGdd93EgCJEACJEACJEACaYkABRXH3fxHDafZo3q4c+fKlaLX0BH1jK2icfDPv/8KZh/KnTt3VPmIVVCB6PH27OANezT8Z74+RTDltBl2qAbDw4/Ws3zUmNudyw/Wul/69+npyz0IJaigB/jxJ58WOOcNFyAejBg2yOrZRtxYBJUFXy0MECKQ9rgxI1Jk4c23Zkm3Hr3t7R3atbHEHXtDFAuwSJr06pSwRz5R/zHp3LGdbc3gFFRuuvEGgfigp6TWCZqCyviXXpbhI8P7LXn/3bekXNmyOgnr9+uFi6RRk+YB24KtTHnlJal4803W7mgElc+/XCDNmrcKlnzA9iGD+sl9NZOsuPQOU1DBUMGixS6RZcsCZ/LyS1CZ//lXMuX1JDG0VfNn5MbrrtbZkF79h8mvv6231u+qdnvAjDt2pNMLt1euKI0b1g/YPHjEeFmurK4QJo0dalmNjJ04Rb757vuAeOaKKajA+gMzwyBUva2SNHqynrWMP7Bq6PRiX/Xe/GNvc1vAcU8rIca02ohVUHll6kz5fMFCt9PZ2668vIK0bt5YWVddYG/DApz0du7eP4UQY0aC75A+PTpZooi5/b0PP7YEJGyDwIRpiN0CLM96dWsvPfsODRBbzLiZlE+v/r26BExlHe/03Z61Pco659nWYQSVDkpQKU9Bxbx/XCYBEiABEiABEkibBCioOO7rNjX84dDhw5InTx7BLD6hwn8nT8jBLavl1InjoaJFtC+7mm453fnpQx6TTlXedymT9SyZM6vhCIE9liEPNHa+8+57ggbrNjWswWz4YbhOhXJJDdtKlSraVhNOCxWdFBqPV191paxdt04Nk/lTb7Z+0Rh/qsHj9jYM+6j3REO7Jx87cL4qt98q+/ftly8XfB3Qo9+4UUNp97y3Rq59EpeFUIKKU9iAb5pbKt0shZVTziVLfkhhRTNtyity4w3XWWeBkNC1e6+gz8nvGzcFXCtYfT5/ruVMGEMrYO1hihErli2RzI7hB7D+QB51+GL+PLn44sJ6NeLfl15+VYYOD7Qqwj245uqr5NtvF6cQukaPGCp3Va9mnccpqDhPDmsTPANLvvlKcuXKKXjGYF1ihjurVZWSJUpYApYpYoHNWzOnCdLQodbDdQL4Y4gO8gnB84svvwpgh6FDM6ZNtg7F8LPJU16T42qoyqefJc2Ggx24t7dVrmTFwZCjLp2SrFgw5KnGvQ8GpIdIVavcZolJZhrWwerP/I8+kGJqmIoOpqCit+lfWKzsV9OwDx3U30pTb4/2162Rq9MyBRVsg9XHPcrqo3zZ0tbQk08++1IJJr/o6DKwT1fLAa3e4Cao7Ny1W72X/8qva9fLW++8b0W9+srL5d4ad1rL2dU5MNwPIZSg8rayEHn3/SSrLJRdmCmorBq2lUENGfrp51Uy5/2PbKuVni+0U0O6ki0+YhFUTCsOCB8Vb7resuqBtQzS/UH9xzAqhLvvrCJPPPaItYw/e9SwJMx8hG8CAqxIcHzpUsVlw8bN8t2SH+V39YsAwWNQ327KOitZ5DYFD8SBcIKZmcqXKSV/KaFm+hvv2GljP0KhggUsSx1Yo2xUDn6nv/mOLeZAJGtQr3ZSRPU33um7PWsQ9NeqGZ8QRqkhYGCE8EIHWPCdby1DZAMPBhIgARIgARIgARJI6wQoqDju8JY//7Qqr3mVoIKhEaHCyaOHZMv7I+XEwX2hokW0r3idF+T8TNlCHgOfEfABgMp5kYuTG6AhDwqyM1qntEgOw3LgcwUBlh6DhgyTyVOnWev4c7/yxWJOU9t/4JCA/Q/cV1MG9u9j90T/++8eebhOvQBhZu7771i+MuxEo1gIJag4BYsP3n1bMLRDh5lvvm0NA9HrLZs3k5bNm+rVoL/wx/Jg7bqySQ0V0GHWm9MD/J/07jtApk2fqXdbQ1durXyLvX5YNeKuvDbJ6gIbr7nmKnnj9an2/kgX4Iekyp3/Czhs+JCBck+N5CFFn33xpTzborUdB6LChLGjrHU3QQUiBUQXCBrwg6ODm/XOnNlvql7rcjqKTHntdek3YLC9XuPu6soCKGkdli8P1U4eLuK0WILfltuq3hUgwK1YulgNUclsp+fVKW0vdR9eN+4DrKvemvm67TcH6dRXQqA5FAjP7qABfe1zuQkqGB5Us2YN5Wsjhx3PjwW3Rq5O1xRUIFpAMLkody692/odNHys/LQyaVhTnYfvDxhi4yao6IO9OKUNJag826az1fhGudW/Z2dLONBp4xdDkyZMes3ahCFJ5hCcaAUVzDjUpUd/+zTtWzcTiEFm+E355enRd4i1CXmbNG6oPTuROYQK00D37NreLq9wAMSFvoNHyuo1ScO9iivLpL7dk603TMHDsmJR+4peklxmQ6hq2fYFOzsFlb+evmr4lClGmPkzrYFwULzTD/Ws4fx0SgsKDCRAAiRAAiRAAucyAQoqjru/afNmS0jx4pD2TAkq2jEthJViRYs6riCy1WgFFTTC0Rg3A/zPXHXdzfYmWBt8/slcax29wbfcVs1uAKPX/tOPP0jhvBR+WWrXTbZqadWyuTRv1thOM5qFUIIKGstw4okA55pOCxEII9fcUNE+baWKN8vkSRPsdbcFCHEtW7cNsI7o0/NFgc8RMzivtX69uvLiC8mNMaf1jClgmel4XYbYBVFLB9NHjt6GX/gfwbAZHZYu+UayZ8+mGsOBPlSwP5jg5RyqFMxHDIb0wFJKh59+/M6y4IFAh+dJB0wR7nReO2bcSzJqzDgdxRKbIDrp4EVQOaGsWK6/+dYA6xS3a4LlzR13BQ7zMS2KnIJKL+WDpk7tQB80Ol+x/oZq5JqCSsMn6kq1KpVTnA6WJr0GDLO231rpJmna6Ak7TjwFFfskQRbgV6Rh0zbWXgwX6aqGjegQraAydfpb9rCnUFM9w3pmyQ9Jw/6aN3lKOcktYg1RatS8rZUFCC1jh/WzRTadL/zC+XFzJRZpvyjjRw6wRTRT8LjtlpulydPJZZtO44WeA5TD5T+s1WcbPym33HyD3mX/NmjcyhL6IcpgemId4p1+qGcNeaCgou8Ef0mABEiABEiABM5VAhRUHHd+w8aN1hYMQQgXzpSggnxpZ5clihcPl82Q+6MVVII1GJ0Ny99Wr7DOv/mPP+TOu++18wJBZfzYkfa6XjiqGlV16jXQq2pmlKoydtRwax1OP51DSOyIxgIsJsxhMaEEFeMwexF5wIwtB9QwDcxY8sBDj9r7vFiJOP2GwN8MBAVnQO82rCy2bd9u7cIzB/8j2ndEj159ZcYbb9mHmb5JcCx80YSzomrW5BnbEWr7jl3kvQ+SBC4k+trkSXLTjdfb6esFiF/HT4tM2KYtT5yCSigHuR27dJN357yvk5RhgwdI8eLF7HW9MHL02IAhTW6+VHRcXCvux8FDB9UMSQesYT2z3pmjd6vreVldT3Jj1IugsmnzH1L9f8nP5eWXXSqz35php2kuPN24mSxc9K29ybS4cT73ixctUP6NAi1D7ANjXAjVyDUFlYG91XCeiwulOBuGaMBaBOGKy8pLp7Yt7ThnUlA5qmYSeqppkoiC2Xd6v5g0IxMyF62gYjb4+3TvKCXU8DavwbTIcQo8zjRMbqZfG1PwaNaogVSudKPzUGvYzOLvl1rbRw7uLXnzJDt01pH1dYQSVOKRfqhnDXnT+cIyhB7kj4EESIAESIAESIAEziUCFFQcd5uCivJ78mTKXlSnD5VgjfGnGjWVb779zqaqBRX4aalTP1kosSOEWTAbuF7T+PC92VKmdCk75XCCCqY1fWfOe5bPlK8XfRNgrWAncnohnKDitCqB34+ZapiOFiWc6TmtLHQjHeJBpVvvsIUzDAXCbDY6YH+5y67Wq0F/TauWJ556RhYvSXYuumjBZ0FnYnJL0CmoYHrkfn16ukUV53PgGsll46svT7B82OhdGGbz8SefCoQ/TGUcKkQjqCxdtlzq1n/STjaY+IUIziFruB96iJYpqEAY+27Rl3aafi+EauSagsrrqoHrnFIaeYH/Hlg8IFxWoZx0af+ctYw/pjCgndLqnabAEMzaI9SQH6QDK44fl60QpLX+943WbGUQUpAnM/glqDRu2V4JowetpKdOHGkNkzTPE2p5wcJvrRl3EKfGXXdI/TqBFmbmsbPmfCjvvDfP2gQfJ/B1gmAKKuAM3s4APyRaUDGtW8x4Hbv1UdMob7UEi2AWKvFIP9SzhvxRUDHvEpdJgARIgARIgATORQIUVBx3nUN+vAkqr099RW64Psk5q4nQ2YuvBZVIZmwx0zOtIOIhqGzYsFFate0Q4DzWPL9zOZSgAmsHOFLVjmbhX+TDObMsB7fOdPQ6zn93zQf0qjzfuqU0bdzIEg+Qlg7OmWWiEVScTl5Xrfgxogbm/9m7D/goqrWP40/oLdTQpSgqiKIoqKhYUZRXr72LIkWadAQRpCmgImIBCwgoKmK5YqMoil0RRBFRuSpFRXrvLcB7nhNnMjuZ3WRDsmyW37mfS2ZnZmdmv7Nw7/xzznP8gYoOYdKhTEHNf66gfYLWaW8k7ZWkQ36eHz/BTu8ctF/QuuwEKv7vpQ4v02FmQU1nRtIZkpz25OOPSrNLm9qX3kBFe1/5p2R23pMTPyM95HoDFZ022ent5D3v4QpUlpsaPg+NGOUWMfVek385pwKV21t3sgVndciOBirRNJ1i+VVTEFbbnc1vlKZNLrDLQX94679o0dnrr77C7kagEqTFOgQQQAABBBBAIHEECFR895KitLkTqOjMKzfc3NzV1odOnQI4qG0xs7g40y2XLFVSzmucNjPLipWr5KVXJgW9JWSdzg7kHbIVqYdK0/+7MqRwrDMTTF3Ts6SkKSaaXKKEdL8nfehBuEBFQ5RrbggtQuvvbRFykZ4X3vDB6ZHjHzb0w9xvQuo36JCfESNNQWQz01Skpg/89U852e7iL8D74bR3A4fhhDteNIGKvzbKw0MfcKeb9h7fqTvhFOHUkK5ChfLywcyPpEu3e7y72mLB55ueOuXLp9j7Mv2DmSH1V7ITqPy08Gc7dMo5UVBtIGfbwMFDRIsUO23ihLFyVqO0IRwEKmkq4Xqo7DFFhNt06OHOplOyZLKc0aC+VK5U0dbnKVG8mBQ3dXIG/lscNqcClfZd75WtZgYxbROeHWl6ihVJu9As/OkNSfyz//jfrrMfvfP+B3a1N3whUPFL8RoBBBBAAAEEEEgsAQIV3/2MZtrkSDVUipSvLiWPa+A7etrLrYt/kN1r/wrclpVZfnJi2mTn5P4aKn169ZRWLdOLVDr7+Yf8RNtDZeWqVXJBk/TZZHQqXq11EosWLlDxFxrV6ZBfGDdGChQo4F6WziZzUv30OiNBgYr2Funao5d8OPNj933du3YSrV+SlTbp1ddk8JD0mUi+/nyWtL+7izurTKSH/Kwc39mn/6AHRYvFOu2Z0U/IxRdd6Lx0f240M49oXRcNbbQQbJ3ate22aAIV/7n8sye5Jwuz0Pf+geKtjxIUTj0//gV59LEn3CNkJ1Dxfy+9PaLcA/+7oEPWtJeU07zFawlU0lTCBSrzFyy0w4l0L53JZsSwgRl6z+jU0u0697YHyqlA5b4Bw+QvU1BY24D7ekgdM11xVttPPy+Shx8bZXfX9+n7wzXvzEk9OreThqedYnclUAknxnoEEEAAAQQQQCAxBAhUfPdx48aNstn0kChbpkyG/8Pv21UiBSrJtU6Viufe6H+Lfb32q//K1sVpRQj9O2QlUNEH3Y2bNknpUqVM4cvMi+f6z+F97Q9UdHpa7U3gb4caqOjxdJYUDTG0aU+Qae+9ZaZOrWxfO3/oUI+p02dIampaTYVja9WSU06u52zO1s9wgcrUaTOkR6/0WXX6mxl2bjcz7XjbV1/PllZ3tXdXBQUqY8aOl8eeeMrdR0OK0U+NDKxf4e7kWVi3br2cc34Td023LnfLE0+l10vR4r1NLrzA3Z7dhekzPpRuZniT07Q3zGuTJoYM+9GCtDrLkneKYGc2m2gCFZ0lSGcLctpdrVtKr55pBUeddfpTCw1rbZSD5j9J5j8aHhUuXFjOu7CpW6xX91u0cH7ILD/6d+CmW+8QnSnJaZkFKv6iv877/L2Unhn1uFzc5CJns/3p/3uix/rKBF/OzENHWqByjpmJ5m4zI42/hQtUvLPttG3VXC44N33mLOcY3h4hORWovP7We7aOiZ4j3DXrNmeWn4MHD4gGIlWrVLb1XpxZh7TY6lOPDZUypUvp7iFtqymQrFMfO3Vgxo561O1NdiQFKs888bD536SSITa8QAABBBBAAAEEEl2AQMV3h3WqVv3tvHY/z6x7+OEKVHabqX53mOvUYTM6neyhtJ9/+VWuNUNVnKZBx9MmDNChF/nz53dDpZwIVPw9CrQ3wNhnR7sz8mjxyEdGjAzpRdHvvt7S4vbbnMvL1s9wgYr/s+v1TH7lRXe4kfZGaN2uo1sTRU/uD1T8NTh0qugpb052p03N6gX7h8g479P78a0pcKohw6E2/xTQejytg6J1QypXqiQa7Lw06VXRgMhpt958owwa0M++jCZQ0b9H55hpsp16MnoAnRJaz1eoUCF7vDlz50k307PHmbFKP+vsLz+1BXy1h84nn35u99M/tPjttVdfaUMqLSL8wJBhIT1YdB9/oBJUZ0Znp7q82WX2gdepL+IPxJy/A6c3bGDP98P8H6Vth84hn6XdXa2kZ/e0wq567iMhUPn9jyUyaFharzIdsvPck6HTpqtDuEDlw48/Ew1VtF3zn2Zyw7X/scvOH/q+gUMfdQvI5lSg4r0ePZdOW6zTF3ubtyeKDj17/ukR9t8+3cfb8+SoqpXlocF93W26Xb9j/R8c7k577O/JkuiBygDz2Rcv/VMp7PTbOg03DQEEEEAAAQQQOJIECFR8d1t/873szz/t2pRy5eywB98u7svDEajoQ+D6DRvsNRxds6YbeLgXFeXC1m3bpOGZjQPfddstN8nA/n3ttpwIVLT3Q497+oj2XvA2DSH0N/7e3ga6XdfNnPG+rbHg3T/a5XCBivaGadiocciDsh5be26sNPVanAd97/m8gYoOjdFeN97QQPfVB/JwTetunFzvpAyb35s6Te7pnWbt3XjTjdfLgyYEyKn2xptvyf0DM/ZAUuugz6vh0Ekn1rWnjyZQ0Tfo/dTeLv6mhhreOL2VnO3eHkL+YVC6j15jFdNzwNt7xnmv/vQHKrrOW59GXztNv3OzPpxmX+r0yldde2NILR1nv6CfGmTqcJ/k5BLu5iMhUNGeGO27pPdwOvaYmrbXhwYNJ56QNizMG2BcdP450ubOtDB03foN0rVX+ve40RkN5HQzLEZnv1r022LRwMXp4aGoORWo6LE+/2q2jBn/si7adkq9unJGw1NtMPLjT7/Id/Pmu7VdtJisFpV1mk6f3vv+IW4h3ZRyZeWsMxvI0TWqm6FEK+zsPGvWrrO7lyhRXEYMHWBqLyU7b0/4WX6eG/eSaM8ibVr494Jzz5Ja5ntxWv16UiLCv4MuEAsIIIAAAggggEAeFyBQCbiBa9autQ/J+gAXqR2OQEWvRx989aG9YoUKkS4vy9v808E6b/Q+zOdEoKLH3WOmTW1/d9eQqZWd83l/6ueb8sarURVN9b7fuxwuUNF9wgUZzvu1qOvc7+a5YYM3UFmydKk0u+IaZ9cs/XzNTKGsx/A3DWX0Ov0t3PTU/v2y+loDQ607ojPWZNZGPzlSml7SxN0t2kBF36jTULdp29E9RriFO+9oLn37pA8R2rJ1q7Tr2DmkZon/vTrF8Ztvve2uDgpUPv7kU+nYKeNQI/9MPEuXLpO7OnTKEPK4B/93Qf9NGP/8s1L3hDohm46EQEU/8JDhT8ivi34P+ew1a1STYYPus+vCBSq6cewLr8hnX3wT8l7vi4suaCyffPaVXZWTgYoe0Dutsfec3mUNWe5u11IKemoo6fb1GzZK734P2iFA3v29yxomDB9yv/k3ubx3dcIHKktM7xTtoeNv9/fuZv6OHO9fzWsEEEAAAQQQQCDhBAhUAm6pM+xHh1lE+i3b4QhU9DemGkrkxHAf56Nr4dUZH35kZjB5I+QBtrmpJ6LDNLRpMVMtNOo0HRrT4LRTnZfuT//QFWfaZHcHs6DhwXPPj5dXJr0W2LujZYvm0sI8YJcys+zkRPMGKo3OPMP2ZPAeV+tjPPb4Uxl6Pmgtk5Z33iGXNrvSreehhWtffjFtSMyyZX/KpZdf5T1UpstvTH7ZnXXHv7POJjRt+gfuan14/+rzj0OGGLgbD3Hh08++kAkvThQdduNtGmSd3vA0O32zU4zW2a4hx+mNznVeyi033SCDB97vvg63MPvbOfLsmHHy7Zy5GXbRcKlb507S6MzTM2zTniMPPzJCZn40yw20dKeGDU6TPr17ik5x7u3VE65Qsp7/jf9OCbGtWbOGzJz+Xsg59fO98OLLMvHlSYHfS/28rVu1CJlByjmAtyeMt/eLsz0nf8767EsZP3GyPaS3AKqu8AYeYadNTk2VFnd1se+vf/KJ0rt7+jTRj48eK999n1Z4N2hWHB02Nu3DWfLRrM9l565d9hjeQEV7a3S/d6Bdf/GF50qrO26xy84f0z74WN6d9qE7tEfXaxihPUOuaHax3NYq7Vq098sD/dN7w8z7YYGMHDXGHqZ1i1ukyQXp30Pn2Jn91F4wb78/w531x9lfe51c1vQi+T/z33Bt5arVMslMoTx/wc8Zdjmpbh1pfvN1Ur1a1Qzb3p8+Uya/+Y5dHy5kGPXcBJk9J+3v4ZhRw+0MVv4D9R30kPm+Lxet5fLy+NHu5tw+fqTvmnMRCxb+Ku/PmBkStIX7rM57+IkAAggggAACCCSKAIFKmDv5z4oVokFDpF4qhyNQ0d4pWoPiqKoZ/897mI8S1WqtCaBTnGqBUO2On5st1TzYrTIPKvqZ8pkHhapVq0T0zs1r0WPrA7wOQylWtKhUrlwpV4KMSJ/h1ttbyrzvf3B36dSxnXTplHnvDvcN2VjQXidr1pgeWabmiX5mraWSW02nw169eo09V5nSpe39duqpZHZOnTJ7l3mA1ymVSyanD6nI7H3+7Vp/RQvgaq0Mp4aKfx8dmqbfS2donf4bUMlM76sP/rQ0Ae3ppOGu/jtRtGiRqP+u6PAh/d7p8JgKZhrscPcip731urds2Wr+zdkkBQoWkKrmO++d1Suz8+m/jevN8KUdO3ba+lUpKWXtdymz9x0J29VG/zczX1I+04Oy2JHwkfmMCCCAAAIIIICAEKiE+RJsN1N4rl23zv6fbZ1NR/+PeIZm1u3fa35La2aG8Lek/AUlX8HgQOLAPvNQt3+f/y32df7Cpv6GqZPib/rAobMPaQhRoXx5U1QzvX6Df19e5z2BKW+/K336DQi58Dlffy5lypQOWccLBBBAAAEEEEAAAQQQQACB+BAgUIlwH1avXm27tZcygUoBM+PN4Wyp5rfm+ht+7T1RKRd7ERzOz3iknfuPxUvMUKMnZcGChSFDWtShY/u2okOOaAgggAACCCCAAAIIIIAAAvEpQKAS4b5o92Ud+qMt0tCfCIfIsU3ODCw61CerwyRy7OQcKFcEtLZHi1ZtMxz7nLPPkicff/SQhrZkOCgrEEAAAQQQQAABBBBAAAEEclSAQCUTTp1WeP369XavlJQUM7on4/CeTA5xSJuTTG0R7/kPpX7EIV0Ib85xAX+goqHdbbfeLB3atYm6JkWOXxwHRAABBBBAAAEEEEAAAQQQiChAoBKRJ23jRlM0VeuXaItlqOINU7SOS1nzwE1LHAGd7WjxkqWmqKcpgmuGcSUnUxcnce4unwQBBBBAAAEEEEAAAQQSXYBAJYt3WGf82GqmVdUWq+E/zjCfkmb64JRy5bJ4peyGAAIIIIAAAggggAACCCCAAAK5LUCgEoWwt6eKFqotWKBA8Ow/URzTv6vO5rPPzOSjBWi10TPFL8RrBBBAAAEEEEAAAQQQQAABBA6/AIFKlPfAW1OlgAlUSpneIznZtpheMDo1sjYdXkTNlJzU5VgIIIAAAggggAACCCCAAAII5IwAgUo2HHX2H+2tsnPXLvvuwoULS4nixUV7lxw8eDCqIzrv2W7qaezZs8e+V6dG1nopzOYTFSU7I4AAAggggAACCCCAAAIIIBAzAQKVQ6Devn27LVarAYvTihcrJhqw5MufX5LMSg1YnJBFwxMboJj1B/bvtwHKjp07nbfaAEWH+JQoQXFSF4UFBBBAAAEEEEAAAQQQQAABBOJQgEAlB27KThOKbDPhis7akp1W3PRuSTYhSjETxtAQQAABBBBAAAEEEEAAAQQQQCD+BQhUcvAeaU+UXWYY0O7du0V7rWhx2f2mJ8qBAwfsWfLlyyf5Tc8VLWarw3mKFClip8zVXis0BBBAAAEEEEAAAQQQQAABBBDIOwIEKnnnXnGlCCCAAAIIIIAAAggggAACCCAQJwIEKnFyI7gMBBBAAAEEEEAAAQQQQAABBBDIOwIEKnnnXnGlCCCAAAIIIIAAAggggAACCCAQJwIEKnFyI7gMBBBAAAEEEEAAAQQQQAABBBDIOwIEKnnnXnGlCCCAAAIIIIAAAggggAACCCAQJwIEKnFyI7gMBBBAAAEEEEAAAQQQQAABBBDIOwIEKnnnXnGlCCCAAAIIIIAAAggggAACCCAQJwIEKnFyI7gMBBBAAAEEEEAAAQQQQAABBBDIOwIEKnnnXnGlCCCAAAIIIIAAAggggAACCCAQJwIEKnFyI7gMBBBAAAEEEEAAAQQQQAABBBDIOwIEKnnnXnGlCCCAAAIIIIAAAggggAACCCAQJwJxF6jUq32MJCXFiQ6XgQACCCCAAAIIIIAAAggggAACCAQIxE2g8uvivyQ1db+cUKu6FCxYIOBSWYUAAggggAACCCCAAAIIIIAAAgjEh0DcBCpLl6+S7Tt2SY2qFaVUcvH40OEqEEAAAQQQQAABBBBAAAEEEEAAgQCBuAlU1m7YLKvXbZQypZKlWuXyAZfKKgQQQABXAYmvAAAcHklEQVQBBBBAAAEEEEAAAQQQQCA+BOImUNmzd5/8tnS5VWHYT3x8ObgKBBBAAAEEEEAAAQQQQAABBBAIFoibQEUv7++Va2Xz1u30Ugm+V6xFAAEEEEAAAQQQQAABBBBAAIE4EYirQMXbS6VKxRRJKVMyTpi4DAQQQAABBBBAAAEEEEAAAQQQQCBdIK4CFb2sjZu3yT+r19krJFRJv1EsIYAAAggggAACCCCAAAIIIIBA/AjEXaCiNE6BWl3WIrWVUsowlbJi0BBAAAEEEEAAAQQQQAABBBBAIC4E4jJQURlvTxV9rcFKyRLFpFiRwlKgQAFJStK1NAQQQAABBBBAAAEEEEAAAQQQQCD2AnEbqCiF1lRZs36TLVQbexrOiAACCCCAAAIIIIAAAggggAACCAQLxHWg4lyyBitbtu2Q7Tt3ye49eyU1db+ziZ8IIIAAAggggAACCCCAAAIIIIBAzAXyRKAScxVOiAACCCCAAAIIIIAAAggggAACCEQQIFCJgMMmBBBAAAEEEEAAAQQQQAABBBBAIEiAQCVIhXUIIIAAAggggAACCCCAAAIIIIBABAEClQg4bEIAAQQQQAABBBBAAAEEEEAAAQSCBAhUglRYhwACCCCAAAIIIIAAAggggAACCEQQIFCJgMMmBBBAAAEEEEAAAQQQQAABBBBAIEiAQCVIhXUIIIAAAggggAACCCCAAAIIIIBABAEClQg4bEIAAQQQQAABBBBAAAEEEEAAAQSCBAhUglRYhwACCCCAAAIIIIAAAggggAACCEQQIFCJgMMmBBBAAAEEEEAAAQQQQAABBBBAIEiAQCVIhXUIIIAAAggggAACCCCAAAIIIIBABAEClQg4bEIAAQQQQAABBBBAAAEEEEAAAQSCBAhUglRYhwACCCCAAAIIIIAAAggggAACCEQQIFCJgMMmBBBAAAEEEEAAAQQQQAABBBBAIEiAQCVIhXUIIIAAAggggAACCCCAAAIIIIBABAEClQg4bEIAAQQQQAABBBBAAAEEEEAAAQSCBAhUglRYhwACCCCAAAIIIIAAAggggAACCEQQIFCJgMMmBBBAAAEEEEAAAQQQQAABBBBAIEiAQCVIhXUIIIAAAggggAACCCCAAAIIIIBABAEClQg4bEIAAQQQQAABBBBAAAEEEEAAAQSCBAhUglRYhwACCCCAAAIIIIAAAggggAACCEQQIFCJgMMmBBBAAAEEEEAAAQQQQAABBBBAIEiAQCVIhXUIIIAAAggggAACCCCAAAIIIIBABAEClQg4bEIAAQQQQAABBBBAAAEEEEAAAQSCBAhUglRYhwACCCCAAAIIIIAAAggggAACCEQQIFCJgMMmBBBAAAEEEEAAAQQQQAABBBBAIEiAQCVIhXUIIIAAAggggAACCCCAAAIIIIBABAEClQg4bEIAAQQQQAABBBBAAAEEEEAAAQSCBAhUglRYhwACCCCAAAIIIIAAAggggAACCEQQIFCJgMMmBBBAAAEEEEAAAQQQQAABBBBAIEiAQCVIhXUIIIAAAggggAACCCCAAAIIIIBABAEClQg4bEIAAQQQQAABBBBAAAEEEEAAAQSCBPJEoLJn7z7Zsm2HbN+5S3bv2SupqfuDPgvrEEAAAQQQQAABBBBAAAEEEEAAgZgIxHWgokHKmvWbZPPW7YEY+fLlkwMHDgRuYyUCCCCAAAIIIIAAAggggAACCCCQWwJxG6hs3LxN/lm9zv3cZUolS6nk4lK4UCGRpCQ5ePCg/a+7AwsIIIAAAggggAACCCCAAAIIIIBAjATiMlBZu2GzrF630RJokFKxXBlJypck+01vFJOj0BBAAAEEEEAAAQQQQAABBBBAAIHDKhB3gYq3Z0qViilSumQJSd2vQQpJymH9pnByBBBAAAEEEEAAAQQQQAABBBBwBeIqUNGaKb8tXW4vzglT9lGA1r1ZLCCAAAIIIIAAAggggAACCCCAQHwIxFWg8vfKtbYArQ7zqVyhnBCmxMeXhKtAAAEEEEAAAQQQQAABBBBAAIFQgbgJVLy9U+ocU1107h6G+YTeLF4hgAACCCCAAAIIIIAAAggggEB8CMRNoOIUotXeKZXKl7V1U+KDiKtAAAEEEEAAAQQQQAABBBBAAAEEQgXiJlBZunyVbN+xS2oeVUkKFSrIbD6h94lXCCCAAAIIIIAAAggggAACCCAQRwJxE6j8uvgvSTUFaGvrcB9m9ImjrwiXggACCCCAAAIIIIAAAggggAACfoG4CVR++t9Se221a9WQAwe0ggoNAQQQQAABBBBAAAEEEEAAAQQQiE+BuAtUjjc9VChGG59fFq4KAQQQQAABBBBAAAEEEEAAAQTSBOIqUMmXL5/UqlGVe4MAAggggAACCCCAAAIIIIAAAgjEtUBcBSoqddzR1eIajItDAAEEEEAAAQQQQAABBBBAAAEECFT4DiCAAAIIIIAAAggggAACCCCAAAJRChCoRAnG7ggggAACCCCAAAIIIIAAAggggACBCt8BBBBAAAEEEEAAAQQQQAABBBBAIEoBApUowdgdAQQQQAABBBBAAAEEEEAAAQQQIFDhO4AAAggggAACCCCAAAIIIIAAAghEKUCgEiUYuyOAAAIIIIAAAggggAACCCCAAAIEKnwHEEAAAQQQQAABBBBAAAEEEEAAgSgFCFSiBGN3BBBAAAEEEEAAAQQQQAABBBBAgECF7wACCCCAAAIIIIAAAggggAACCCAQpQCBSpRg7I4AAggggAACCCCAAAIIIIAAAggQqPAdQAABBBBAAAEEEEAAAQQQQAABBKIUIFCJEozdEUAAAQQQQAABBBBAAAEEEEAAAQIVvgMIIIAAAggggAACCCCAAAIIIIBAlAIEKlGCsTsCCCCAAAIIIIAAAggggAACCCBAoMJ3AAEEEEAAAQQQQAABBBBAAAEEEIhSgEAlSjB2RwABBBBAAAEEEEAAAQQQQAABBAhU+A4ggAACCCCAAAIIIIAAAggggAACUQoQqEQJxu4IIIAAAggggAACCCCAAAIIIIAAgUrAd+DgwYOy/J8VYn5I/vz55KiqVQL2Sl+1YuUqSU3db1dUrlRBChUqlL6RJQQQQAABBBBAAAEEEEAAAQR8Alu2bJXN5r/aihYtIhXKp/j24GW8CxCoBNyhPXv2SMeuvd0tbVreLmed2dB97V+4q2N3OXDggF3ds2tHqXtCbf8uvEYAAQQQQAABBBBAAAEEEEDAFXj51Tfksy++tq+rVztKBvbr5W6Lp4XFS5a5z7t6nUWKFI6nyzus10KgEsDvD1Ty5csnDw/pL+XKlg3YW4RAJZCFlQgggAACCCCAAAIIIIAAAmEE8kqg0rp9V/cTdOvUTuqdVNd9faQvEKgEfAP8gYruosN+Bt3fW5KSkjK8g0AlAwkrEEAAAQQQQAABBBBAAAEEIggQqETAySObCFQCblRQoKK7XdGsqVxz1eUZ3pHVQGX79h3yz4qVsmvXbql2VBUpV65sYECzf/9+2blzlz1P/vz5pVixonZ57br18vfyf6RypYpSpXKlkPdu3brNbtPA59haR0vhwpG7YekQJb2W9es3SIECBaS8Ga+nx6UhgAACCCCAAAIIIIAAAgjkvkBOBCr6XLd6zVpZuWq1lC5Vyj5nZvYsqJ9s586d8pd5tty9e49Ur1Y1cDTG9h075OCBg9KtVz8X465Wt8uJJ9SRpHxJUqJ4cXd9Vhf0mH8sXirJJYqb8x6Vpfqj27Ztl1Wr19h6M8nJxaVSxYpSpnSpwFPm1rP0nj17Ze/evfacWjO1cOFCpubqQSFQCbgN4QIV3bVv7+5S65iaIe/KLFCZ/+NCGT9xkglS0kIS5806lKjJhefJTddfHRKOfPXNHHnhpVftbqVKlRStyzL8sVGiXz6nacGi7l06SKmSyTJx0usyZ+73zib7U7thde7QxhTVzR+yXl988dVsee3Nt0U/p7eVLVtG2rW+wwQyx3hXs4wAAggggAACCCCAAAIIIJDDAocSqGgg8sJLk+WHH3/KcFX6XKdDc6pWqZxh26Lffpex416Srdu2hWzTZ9OrrrhMLjedCJxRGd6hPiE7//ti/HNPBq3OsE5Dn8lvTJH5CxbKpk2bQ7brc22Htq1sqBOywbzQ598x4ybKr4t+82+SGtWrSce2LSUlpVzIttx6lh4z7kWZO2++PdfZjU6XE2ofLy+ZGjgEKiH8aS8iBSqawg0fNjCkB0ikQOWd96fL+9M+DDhL+qqTTjxBundu76746ptv7V8OXaHpYkHTg8Qbpjg76pdPe6r8+NPPzqqQn6fVP1nubt86ZN23c+fJ8xNeDlnnfaF/kXRoU9BfPu9+LCOAAAIIIIAAAggggAACCGRfILuBio586N1vcIZfkHuvRJ/r7u3ZOeSX5fqL9YmvvObdLcNy/ZNPks4d77LrcyJQ0V4cz4yZEBj8OCfXa+3YrpWceko9Z5X9bIOHjZA1pvdNuKbP5g8M6CPaCcFpufUs/dzzL8p336cFKhUrVnCvi0DFkff89Acqd5ub+7T5Ejitwamn2BvuvA4XqOhxOnXvE1IRWdOsVDOkR3uU6NTMTnt02CDRJFGb90vgbNcvdoUK5eXbOfMypIkaujQ6I20Woi+/nu2eT987ZvRIM6QnrZfKb78vluEjRzmHlKNrVpfGZzcyX9a98vGnn8vGjZvsNj2eFuEtmZzs7ssCAggggAACCCCAAAIIIIBAzglkN1B5+91pMnXGTPdCmja5QKpWrWyG0iyTb76d6z4Pnt7gVGl/153ufr36DnKf+Y45uobceN3Vdt9vvv3OPoM6Oz4yZIDt+THz409l375UmfLuVGeTnNHwVFNftKp9xrz0kovc9eEWXn39LZn16RfuZh3m0/C0+qLlLDSgcEZNFC1aVEaNfMj2jtEQ5sGHHpO//l7uvk9HYGivkCVLl8n38xe468uUKS1DB/WzQ3B0ZW49S3sDFT2PhkBnNzqDHiqK4W/+QOWhB/vLAtMLRIfJOE3HjjkhRrhARWuUvPv+DPuWYsWKye233mDrlegKDTE6db/X/bLfcdtNcv65Z9t9/V+Cm264RvQviTbtqXJPn4Hmi73PvtYbOXRwP3fO8v/99oc8+vhou03/8A5RevLpsfLTwl/sNg1TdJu+X5set9+AoW5PmJZ33GLDFruRPxBAAAEEEEAAAQQQQAABBHJUILuBylvvTJXVpqaItsbnNJJT6p3oXtfb702XqdPTRkhoSDH68Yftti1btkqPe/u7+w0zz5Da08JpOrJi3boN9uX5550txx9by9kk3p4q0c7y431Wrn38sdK7R2f3uBqq3Nf/Qfe1lrqoe0JtWy/l/kHD3PVXXn6ZXPWfZu7rb2bPtSU1nBVdzfCmk/+deSi3nqX9gUr/+3pKzRrVCVScm+D9GRSo6PCaR0Y8Jb8vXmJ31SBCkzvtVeL9kjhfAu/xwi2PeOJpWfS/3+3mZk2byPXXXmmX/V8Cby8T3UEDEw1OtJ1Q53i5p9vddln/0DSvTYdu7mvtXXOa6VGjrWvPvm5g0qt7J6lT+zh3P114b+oH8u7UtABIe65oqEJDAAEEEEAAAQQQQAABBBDIeYHsBiqRruTv5Stk8NDh7i5OnZPU1FRp16mnu14Dkxuuu9KMWqjh1kxxN/oWshuo+AOTEQ8NFu1R4m3zvv9RVq5ebVfVM6Uw9Hq+/PpbefHlyXadt+eK930DH3zETrKi67yTx+TWs7Q3UNFeNgP79bKXw5Af7135dzlcoKKFe3r3Hez2Dql2VFUL2fbuHm5Pk6BARXuqaJ0THXKzecsWO8uPVlP2FqkNF6joeLCRj6SndnqJo58bJ1roVtt5jc+SFs1vtsvOHx279na7TjmBivZA0UDF2woWLOh96X4uXalppaaWNAQQQAABBBBAAAEEEEAAgZwXOJRARUc8/PLrIvljyTI7DEZnwtGZYv21N51ARa9+5FPPmvf8L+SDaEcBHb3Q4NT6clajhoFlH7IbqHjrd+p5nn/m8ZBzh3uhE7RocVlt/l4tznvC7eMNVHLqWVrP6Q1UzjrzdGnTsrm9FAIV5454foYLVHQXHTKjQ2ec9p/LL5VpMz4KDFS0mvGbb70rM2d95uwe9mduByqLlyyVhx7NWhVmvUgNW54bNSLs9bIBAQQQQAABBBBAAAEEEEAg+wLZDVR0mmQd7eCfMSfoSryBipaN0NqgC3/+NWhXu+6qK5rJlWa2H2/LbqCi5S/em/aBPZT2TNEeKllpQx8ZKUuX/WV3PfusM6R1i9syvE2P65TX8AYnsQhUtC5q6zsJVDLcFGdFpEBF99HKyFohOah5e6h4uyrpvjo8SCsXVzTFZbWmygQzlbKGLtpyO1DZsWOndOl5nz2X/tH8lhvMNRR1X+vC/tT9cuDgARumFDGFaU8xhXBpCCCAAAIIIIAAAggggAACOS+Q3UDFW8pBe35o3ZHax9WSEiVKyMZNm0JmmfUGKs4n0FETs00h2kWmjMTvfywJGamg+7Rrc6ctPuvsn91A5QdTPNaZ3CWaHire5+1jax0j9/Xq6lyK+3PcC6/I7Dnf2dfeMhgEKkdXc5EO10JmgYqOP+tjiucEJYLeQOWJ0WPc9O/EunWkR5cOIR/JW2U5twMVPbH3L57WXdEvHg0BBBBAAAEEEEAAAQQQQCD2AtkJVFaZYrTegq2D+99rZt2p4l68N8TQlUGBiruzWdAanD8u+FmeGTvB/WX/mWc0kLat7nB38wYqnTq0CZne2N0pYGHT5i1mQpUB7pYhg/pK5UoV3de6MHfefFm5apW5DpHT6p8sNaofJd6iszoDrRbW1UDG27SYrdZo0ebtVUOgkgcCFb1pWhdFC+H4mzdQ0S+6fuG16fRSmvQ5Tceu6Rg2p8UiUHnKDFVa8O8sP1ojZZAppFOoUCHnEmTGzFm2AJCuOMkEQLfedJ27jQUEEEAAAQQQQAABBBBAAIGcE8hOoKLDdfQX904bPmyglCtb1r7UX/w/POJJWfbn385mN1CZv2ChTP/gI7tee7J0MNMpe58FvROfeGuE6Bu8gcrFF50vt9x4rXv8zBbad77H7QGjwY8Wc3XCEf8z9b09u8jxpqfNGjOkqe/Aoe6h/ef8+JPPZfIbU9zt2nFBOzBoI1DJI4GK3iydl/v1/76ji27zBio6zfJHnvopGqpol6U///rbzA+e1j3JeWMsAhV/HRUdgnTm6Q2ktCl8q0VznRmH9Jp0nJqOV6MhgAACCCCAAAIIIIAAAgjkvIA3UNGj+2fA8Z5RnxebXHienXxEJyFxmj7TnWtmaJUkka/NdMLr16dNfexsd3qobNi40U6w4qzXmWouPL+xlDW1TX4yIc2sT79wNtmRFU5AoSt1umWddtlptY6pKfp+LSORWdN6o1Penerupp9Re6LoaI+FvyxywxZvHRTd2Tsjrr6uUb2aHHesPksvF32udZr2eBl0f28pUKCAXUWgkocCFb1j3qmU9bU3UNHEbfDQR92uU7rd20oUL+5WYY5FoKLn1mRy9LPjvJeRYdnfmybDDqxAAAEEEEAAAQQQQAABBBA4JAF/oBLpYN7nxTHjJpqhMj8E7q6Bhbc0hROo6M7e2iSBbzYrdTrlXj06ub1IdL83p7wnH5jRDP7mPbZ/m/f1pNf+K5989qV3Vciy9ljRkhQ6o4/TtLfNsOFPyF9/L3dWZfipn/UBM+RJ65M6jUAlDgOVR4YMkJSUcs49Cvm5dauZSrlf+lTK93Q3tUlqp9cmWbFylQ0wnPFd+ma98S1vv0U+Ml2VnArLlze7RK696gp7bO+YMd3XXw35GVOZ+XtT4EfbBeedI7ffeqNddv7o1L2POyVz0Bg3HVc32fSe2bhxk/MW+1MDnuuvvVIan31mpnORh7yRFwgggAACCCCAAAIIIIAAAlEJZBY0eA/2f5ddItddnfa8qHVP3jAjJT794mu3h4fu29j0VLnw/HPkwYcec9/qDz20Zslrb04J6XGiO5dMTpaml1xoJ0tx3/zvwv79+215CA1FvD1V/Mf2v895rdc7zQw3+v6HBfL38n+c1Ta00ZopbVu3kArlU9z1zoLWNp046XX5zlyzM5mLs63eSXXtM7X2bPG23HqWHjvhJZkz93t7Kn1ebnnHrXaZaZO9+rm4vHfvXllnul8lm/FqJUsm5+KZsn5ore6s6WVSUpL5AuvMQ6Gz/mT9SOyJAAIIIIAAAggggAACCCAQawEdyrNvX6qklCtnhr3kz/LpU80Mr6tWr7ZFaStWqCCFC6fX1ox0EA1X9L2FChXM1i/h9f3/rFglRcz5KpjZb/VZNLOm0z2v37BRduzYIUWLFjWftay53sKZvS0m2wlUYsLMSRBAAAEEEEAAAQQQQAABBBBAIJEECFQS6W7yWRBAAAEEEEAAAQQQQAABBBBAICYCBCoxYeYkCCCAAAIIIIAAAggggAACCCCQSAIEKol0N/ksCCCAAAIIIIAAAggggAACCCAQEwEClZgwcxIEEEAAAQQQQAABBBBAAAEEEEgkAQKVRLqbfBYEEEAAAQQQQAABBBBAAAEEEIiJAIFKTJg5CQIIIIAAAggggAACCCCAAAIIJJIAgUoi3U0+CwIIIIAAAggggAACCCCAAAIIxESAQCUmzJwEAQQQQAABBBBAAAEEEEAAAQQSSYBAJZHuJp8FAQQQQAABBBBAAAEEEEAAAQRiIkCgEhNmToIAAggggAACCCCAAAIIIIAAAokkQKCSSHeTz4IAAggggAACCCCAAAIIIIAAAjERIFCJCTMnQQABBBBAAAEEEEAAAQQQQACBRBIgUEmku8lnQQABBBBAAAEEEEAAAQQQQACBmAgQqMSEmZMggAACCCCAAAIIIIAAAggggEAiCRCoJNLd5LMggAACCCCAAAIIIIAAAggggEBMBAhUYsLMSRBAAAEEEEAAAQQQQAABBBBAIJEECFQS6W7yWRBAAAEEEEAAAQQQQAABBBBAICYCBCoxYeYkCCCAAAIIIIAAAggggAACCCCQSAIEKol0N/ksCCCAAAIIIIAAAggggAACCCAQEwEClZgwcxIEEEAAAQQQQAABBBBAAAEEEEgkAQKVRLqbfBYEEEAAAQQQQAABBBBAAAEEEIiJAIFKTJg5CQIIIIAAAggggAACCCCAAAIIJJIAgUoi3U0+CwIIIIAAAggggAACCCCAAAIIxESAQCUmzJwEAQQQQAABBBBAAAEEEEAAAQQSSYBAJZHuJp8FAQQQQAABBBBAAAEEEEAAAQRiIkCgEhNmToIAAggggAACCCCAAAIIIIAAAokkQKCSSHeTz4IAAggggAACCCCAAAIIIIAAAjERIFCJCTMnQQABBBBAAAEEEEAAAQQQQACBRBIgUEmku8lnQQABBBBAAAEEEEAAAQQQQACBmAjEXaASk0/NSRBAAAEEEEAAAQQQQAABBBBAAIFDECBQOQQ83ooAAggggAACCCCAAAIIIIAAAkemQNwFKifXOebIvBN8agQQQAABBBBAAAEEEEAAAQQQyDMCBCp55lZxoQgggAACCCCAAAIIIIAAAgggEC8CBCrxcie4DgQQQAABBBBAAAEEEEAAAQQQyDMC/w8AAP//nYCqKQAAQABJREFU7d0JvA/V/8fxjy2S+rWgVFqUxL8oe9olCUlpI22UfU0pkX2PRPYsyZYtKkTZyr6WFnuytBDthLL853OuGfOdO99x9zvf22v+j5/vrGfO93mu/uZ9z5yTaf3Gb0+ItRS9toB+pNvy5abt5t7pXY90A+DGCCCAAAIIIIAAAggggAACCCAQMwKZCFRipq2oKAIIIIAAAggggAACCCCAAAIIhESAQCUkDUE1EEAAAQQQQAABBBBAAAEEEEAgdgQIVGKnragpAggggAACCCCAAAIIIIAAAgiERIBAJSQNQTUQQAABBBBAAAEEEEAAAQQQQCB2BAhUYqetqCkCCCCAAAIIIIAAAggggAACCIREgEAlJA1BNRBAAAEEEEAAAQQQQAABBBBAIHYECFRip62oKQIIIIAAAggggAACCCCAAAIIhESAQCUkDUE1EEAAAQQQQAABBBBAAAEEEEAgdgQIVGKnragpAggggAACCCCAAAIIIIAAAgiERIBAJSQNQTUQQAABBBBAAAEEEEAAAQQQQCB2BAhUYqetqCkCCCCAAAIIIIAAAggggAACCIREgEAlJA1BNRBAAAEEEEAAAQQQQAABBBBAIHYECFRip62oKQIIIIAAAggggAACCCCAAAIIhESAQCUkDUE1EEAAAQQQQAABBBBAAAEEEEAgdgQIVGKnragpAggggAACCCCAAAIIIIAAAgiERIBAJSQNQTUQQAABBBBAAAEEEEAAAQQQQCB2BAhUYqetqCkCCCCAAAIIIIAAAggggAACCIREgEAlJA1BNRBAAAEEEEAAAQQQQAABBBBAIHYECFRip62oKQIIIIAAAggggAACCCCAAAIIhESAQCUkDUE1EEAAAQQQQAABBBBAAAEEEEAgdgQIVGKnragpAggggAACCCCAAAIIIIAAAgiERIBAxachZm84Jlv3H5et+477HI3bVTBPZimYO7NULpIl6jkcQAABBBBAAAEEEEAAAQQQQACBjClAoOJpVw1R+n/2r2dv9E0NVprfli36CRxBAAEEEEAAAQQQQAABBBBAAIEMJ0Cg4mlSDVOCeqZ4TjeblQtnpaeKHwz7EEAAAQQQQAABBBBAAAEEEMigAgQqnoZtMu2IZ0/CNglVEubEWQgggAACCCCAAAIIIIAAAghkBAECFU8rJjVQ8RSTqE19bahy4SyinywIIIAAAggggAACCCCAAAIIIBB+AQIVTxulR6BiV4FeLrYEnwgggAACCCCAAAIIIIAAAgiEW4BAxdM+6RmoMMCtpzHYRAABBBBAAAEEEEAAAQQQQCCkAgQqnoZJz0BFqzKwRnZPjdhEAAEEEEAAAQQQQAABBBBAAIGwCRCoeFqEQMUDwiYCCCCAAAIIIIAAAggggAACCMQTIFDxkBCoeEDYRAABBBBAAAEEEEAAAQQQQACBeAIEKh4SAhUPCJsIIIAAAggggAACCCCAAAIIIBBPgEDFQ0Kg4gFhEwEEEEAAAQQQQAABBBBAAAEE4gkQqHhICFQ8IGwigAACCCCAAAIIIIAAAggggEA8AQIVDwmBigeETQQQQAABBBBAAAEEEEAAAQQQiCdAoOIhIVDxgLCJAAIIIIAAAggggAACCCCAAALxBAhUPCQEKh4QNhFAAAEEEEAAAQQQQAABBBBAIJ4AgYqHhEDFA8ImAggggAACCCCAAAIIIIAAAgjEEyBQ8ZAQqHhA2EQAAQQQQAABBBBAAAEEEEAAgXgCBCoeEgIVDwibCCCAAAIIIIAAAggggAACCCAQT4BAxUOSkQOVX3/7XbZu2y43FLtOsp9xhueb+28m5Rr/ktiLAAIIIIAAAggggAACCCCAQMYRIFDxtGVGDVTmfLJQ3pkwxXzbLJkzS/dOr0j+Sy/2fPvIzaRcE1kCWwgggAACCCCAAAIIIIAAAghkTAECFU+7ZtRApV7TF+XAgYPOt73j1nJSr05tZ9tvJSnX+JXDPgQQQAABBBBAAAEEEEAAAQQymgCBiqdFM2qg0uT5V0Rf37GXinfdIU/XfsTe9P1MyjW+BbETAQQQQAABBBBAAAEEEEAAgQwmQKDiadCMGqgsWb5Kho14R44dPy45zzxTunV8WS7Mm8fz7SM3k3JNZAlsIYAAAggggAACCCCAAAIIIJAxBQhUPO2aUQMV/ZqHjxyRPXt+lssvu1QyZcrk+eb+m0m5xr8k9iKAAAIIIIAAAggggAACCCCQcQQIVDxt2f+zf2XrvuOevWmzWTBPZml+W7a0uRl3QQABBBBAAAEEEEAAAQQQQACBJAsQqHjoZm84JrM3HvXsTZtNDVM0VGFBAAEEEEAAAQQQQAABBBBAAIFwCxCo+LSP9lCZvfFYmvVU0RClYO7MUrlIFp/asAsBBBBAAAEEEEAAAQQQQAABBMImQKASthahPggggAACCCCAAAIIIIAAAgggEHoBApXQNxEVRAABBBBAAAEEEEAAAQQQQACBsAkQqIStRagPAggggAACCCCAAAIIIIAAAgiEXoBAJfRNRAURQAABBBBAAAEEEEAAAQQQQCBsAgQqYWsR6oMAAggggAACCCCAAAIIIIAAAqEXIFAJfRNRQQQQQAABBBBAAAEEEEAAAQQQCJsAgUrYWoT6IIAAAggggAACCCCAAAIIIIBA6AUIVELfRFQQAQQQQAABBBBAAAEEEEAAAQTCJkCgErYWoT4IIIAAAggggAACCCCAAAIIIBB6AQKV0DcRFUQAAQQQQAABBBBAAAEEEEAAgbAJEKiErUWoDwIIIIAAAggggAACCCCAAAIIhF6AQCX0TUQFEUAAAQQQQAABBBBAAAEEEEAgbAIEKmFrEeqDAAIIIIAAAggggAACCCCAAAKhFyBQCX0TUUEEEEAAAQQQQAABBBBAAAEEEAibAIFK2FqE+iCAAAIIIIAAAggggAACCCCAQOgFCFRC30RUEAEEEEAAAQQQQAABBBBAAAEEwiZAoBK2FqE+CCCAAAIIIIAAAggggAACCCAQegECldA3ERVEAAEEEEAAAQQQQAABBBBAAIGwCRCohK1FqA8CCCCAAAIIIIAAAggggAACCIRegEAl9E1EBRFAAAEEEEAAAQQQQAABBBBAIGwCBCphaxHqgwACCCCAAAIIIIAAAggggAACoRcgUAl9E1FBBBBAAAEEEEAAAQQQQAABBBAImwCBSthahPoggAACCCCAAAIIIIAAAggggEDoBQhUQt9EVBABBBBAAAEEEEAAAQQQQAABBMImQKASthahPggggAACCCCAAAIIIIAAAgggEHqB0AUqoRejgggggAACCCCAAAIIIIAAAggg8J8XIFD5z/8IAIAAAggggAACCCCAAAIIIIAAAokVCF2gUvTaAon9DpyPAAIIIIAAAggggAACCCCAAAIIpKkAgUqacnMzBBBAAAEEEEAAAQQQQAABBBDICAIEKhmhFfkOCCCAAAIIIIAAAggggAACCCCQpgIEKmnKzc0QQAABBBBAAAEEEEAAAQQQQCAjCBCoZIRW5DsggAACCCCAAAIIIIAAAggggECaChCopCk3N0MAAQQQQAABBBBAAAEEEEAAgYwgQKCSEVqR74AAAggggAACCCCAAAIIIIAAAmkqQKCSptzcDAEEEEAAAQQQQAABBBBAAAEEMoIAgUpGaEW+AwIIIIAAAggggAACCCCAAAIIpKkAgUqacnMzBBBAAAEEEEAAAQQQQAABBBDICAIEKhmhFfkOCCCAAAIIIIAAAggggAACCCCQpgIEKmnKzc0QQAABBBBAAAEEEEAAAQQQQCAjCBCoZIRW5DsggAACCCCAAAIIIIAAAggggECaChCopCk3N0MAAQQQQAABBBBAAAEEEEAAgYwgQKCSEVqR74AAAggggAACCCCAAAIIIIAAAmkqQKCSptzcDAEEEEAAAQQQQAABBBBAAAEEMoIAgUpGaEW+AwIIIIAAAggggAACCCCAAAIIpKkAgUqacnMzBBBAAAEEEEAAAQQQQAABBBDICAIEKhmhFfkOCCCAAAIIIIAAAggggAACCCCQpgIEKmnKzc0QQAABBBBAAAEEEEAAAQQQQCAjCBCoZIRW5DsggAACCCCAAAIIIIAAAggggECaChCopCk3N0MAAQQQQAABBBBAAAEEEEAAgYwgQKCSEVqR74AAAggggAACCCCAAAIIIIAAAmkqQKCSptzcDAEEEEAAAQQQQAABBBBAAAEEMoIAgUpGaEW+AwIIIIAAAggggAACCCCAAAIIpKkAgUqacnMzBBBAAAEEEEAAAQQQQAABBBDICAIEKj6tOHvDMdm6/7hs3Xfc52jcroJ5MkvB3JmlcpEsUc/hAAIIIIAAAggggAACCCCAAAIIZEwBAhVPu2qI0v+zfz17o29qsNL8tmzRT+AIAggggAACCCCAAAIIIIAAAghkOAECFU+TapgS1DPFc7rZrFw4Kz1V/GDYhwACCCCAAAIIIIAAAgggEFXgz78OSObMmSTXWWdFPScpB06cOCF79u6TfBflTcrl5prUqluSKxTCCwlUPI3SZNoRz56EbRKqJMyJsxBAAAEEEEAAAQQQQAABBEQWLFoiI8ZMMBSN6z8jN5ctlSIsR48elRat28uvv/0uF+bNI6/37CiZMmVKVNmpVbeJU6bLnE8Wmbr07dFBcl9wfqLqFbaTCVQ8LZLUQMVTTKI29bWhyoWziH6yIIAAAggggAACCCCAAAIIZHyBVm06yk97fjZf9KorL5cu7V9KkS/9+fqv5bU3BjtldXillRQqeJWznZCV1KrbiLfHy4JPl5oq9O3RMVk9aBLyPVL7HAIVj3B6BCp2FejlYkvwiQACCCCAAAIIIIAAAghkbIGxE6fKRx8vMF/ywfsry0PVq6bIFz5w8KDUa/KiKStL5swyYvDrkj37GU7ZW7Z+K737xQUu91WpKPdXucc5Zq+kVt0IVGzhFP78ctN2U2LRawukcMmJKy49AxUGuE1cW3E2AggggAACCCCAAAIIIBCrAjrOyVffbLLGUMks1xUplKJf47ff/5CvrbKLXV9Ezjnn7Iiy13+1QXq9PtDsq1yxvNSu+VDEcd1IrboRqMSjTpkdBCpxjgNrZE8ZUEpBAAEEEEAAAQQQQAABBBBAwCOQkEDFc0mKbRKopBhlZEEEKnEeaRGo6CBFu3d/b72vt0dyZM8h+S6+yHp37aLIBnFtHTt2TA4dOmz25Mx5pklQdePXX3+TTZs3ywXnny+XXX6ZnJkjh+uqU6v//vuvHDnyjzUQkshZAaNXHzp8WI4dPSZZs2aVHDlOBUvR7r9r9275/vsf5Morr5CLLrww3kBLf/z5p3z33Q7R6wtfW0hy5sx5qlIBa1qPbdu+lb//PiQFClwheXLnDjibQwgggAACCCCAAAIIIIBA4gWOHT8uh13PWe6BYw/rs9Gx4+bZyH5dR8//dvsOOXjwb7n04nySO/f58Z6B7FocPnLEPFtlyZrFeuaLe7b613oO/Md6Lvvym43y5pCR5tTyd9wiNR+qbtazZssq2c+IezUoqG72PexP7Q2za/cPVl2zyJXWc6E+M0ZbUipQ0Wc8HX9m3/79coZVZx2DJkeU51G/uuz9eZ917a/Wc+4hueCC8ySf9Tx55pn+z7N6/ZF//pGj/x41z8L2ecet9mAMFY9uer7yo1VJzUBFG3zMO+Nl+IhR8suvv0Z88+uv+z95sVVLKVsm/sjSEydNkQ6duprz3x0/Rvb+/LP06z9QduzYGVHG4zUflVYtm0uuXJFTfvXu009GjHrbnLtk0TzJa4007bfcdMudpl4lSxSXCWNHO6d47//t9u/kzYFDrGnA9jrnaP1f69nNCkCuNEFRr959Zfacj53juqLn9OvbSy7Lnz9iv72xdt3n0rV7L/lmw0Z7l/nUEKhRg+ekztNPSZYsDBwcgcMGAggggAACCCCAAAIIJEngkwWfyeix75prWzapJ6VK3OCU80TdJqKhxuX5L5V2L7WQvgOGyqYt25zjuqJBic4OVOLGohH7daNOg5aioYrOojOgT9yz3JC3xsjiZSvjnWvvuOLy/NK9YxuzGVQ3PUEDjUnTPpCP5s439bTL0E99HqxaqYJU8xmbJbmBir6KNHX6TJk5Z57oL+7di77adM9dt8sD1Sq7d0esL12xWiZOnm5mQIo4YG2oY50na8p55/7Pe0i69OwnGzdvNfvHjhwog4aNltVrPidQ8Upl5ECl/5uDZNCQ4d6vHLE9ddJ4KXr9dRH7Jrw7WTp27mb2NWlUXwYOHhZx3L2hocXkieMigoeer/WVUaPfMaclJFApXvwGeXfcGKdY9/0b1HtWhg4f4Rxzr2hPmfHvjJKn69aPCFvc52hPlncnjJGL8+Vz75bxEydJpy7dI/Z5N8qWKS2j3hpiUmLvMbYRQAABBBBAAAEEEEAAgcQIfDz/U3l73CRzSfPGz0mZkjc6l9uBSr6L8soZ2c6QndYbBtGWpg3ryk2lS0Qc9gtUBg1/W5YuXxVxnnvDHagE1U178r/cvpvs/yXyl/TusnS9/O03S92nakX0okluoDJyzESZv2ix91YR2zpuTIvG9SIG4tUTlq1cIwOHjoo417uhAVSvLu3i9Vbp3ON1J9CqcOetMm9hXB3ooeIRzKiByoz3P5TWbdqZb6vBQ+3Ha0qZ0iXl999/l08XL5VJk6eaY9obY+b70+QSqwuZvbgDDd2n52iwUcrqSXKGNVr0suUrpM/r/e3TpbfVU6R6tVMjVKdkoKI30fo3a9rIBD/62o/eW19hci/63WpZPWYuv+wy2Wq9vtOzVx+nV06zJo1EgyF7+euvA1KizM32pnTp+KrccfttcsL6v7VrP5f+Awc7vXEGvNFHKlW82zmXFQQQQAABBBBAAAEEEEAgKQJBoYUdqNjlXnnFZSag0E99VWXC5Pdk375fzOGcZ54pQwf0ivjFr1+gsm//L9YzkQ7bsE0mv/eBufbGYtfLfZXjnm/OtnqW2M+BQXWbYvUQmf7BbOfeOlNQoauvkmzWK0NffPWNzPjgI6fXSqe2L0jBq09NPJOcQOX9WXNl0tT3zX119qJyZUuZXj3aW2al1VtEe4xorx5dKt19pzxZ62Gzrn9s2LhFuvZ+w9nW712qeDHJmye3NTDwRvl06Qrr2fgPc1yNtd46FIW9uAMV3Xeh9dZFNet7E6jYQic/M2KgsnPXLrm70n3ON/1w+hQpVOgaZ1tXtNfJACs40OXuCuVl0IB+Zl3/8AYqE8e9LSWKn0pP9Rx3YFO5UkV54/XXdLdZUjJQ0TBn6qRxclWBU38p9+3bLzfffpd9O9FXhkZaPUncY7ps2LhJqtd41Jxz2623yIhhg5zzZ380V1q0am2227ZpLU898bhzTFc0kHny6WdNIHNf1crSt3ePiONsIIAAAggggAACCCCAAAKJFQgKLdyBytXWuI4dXmllvQWQxbmFjovZoNlL8rc1Bogu3axXda60XtmxF79AxT6WkEFpg+rWqGUbEz5ky5ZNenRqY/X+jxyP8zMrnBg6Iu4NhYcfqBrxCk5SA5UdO3fLKx1PPYe92KKhaCjiXrZs2y4du/Uxu7RuIwb3lWxWKKKBS52GzzuvCFW/r5I88mA196Vy4MBBadG6vePpPccdqJx/3rnyWrf2phcLgUoEo0hGDFR0zBS7B0nPbp3lwQfu93zruGmxHnr0cfnq629MD5DlSxY657gDlUcfecj04HAOnlzRH9LC1xc3WxrWaGhjLykZqDxX9xlrrJcWdtHOZ72GTWTRp3HdrgYPfEMqlL/TOWav2GO0aCjz+epl9m4ZM3a8dOvR22x3bN9Waj32iHOMFQQQQAABBBBAAAEEEEAgNQSCQgt3oNKvVyfTI8JbB+1lMuPDOWZ3kwZ1pFyZks4pqRmoODeJsqJjt+j9dSlS+Bpp1/rU81tSA5Ux4yfL3HmLTJnRpnrWg9p7ZuXqdeY8HV9GQ6bP138lr70xxOzTwWs7v9o64jUkc8D6Y7s1Rmi7Tr3MpoYmA18/NSSEO1BpalnfdNKaQMXWO/mZEQOVZ55tIEuXLTff8JM5H5rXYDxf22z2sF6LGT1mrFl3j3XiDlS6d+0kDz1Y3e9yqXzfA7Lt2+3xApmUDFQGv9lPKtxVPt79O3frKePGTzT7Fy/8RC68MG+8c5585jlZsXKVeWXJHah8sf5LeaTmE875LZs3kWpVq8gll1zs7GMFAQQQQAABBBBAAAEEEEhJgYQEKtrTYszw/r63Xbx0pQwZETf2ZO3Hakjle+5yzkvPQEVneH2mQVyIogFGl/YvOfVKaqDSul0X+f6Hn0w5XTu8JAWuuNwp83Qr4yZOldkfLzCn1Xy4uvWKU8Wol9huesKIQX2dGYvcgcrgfj3k3JMD1xKoeCgzYqBSsXI1ZwwQHX8k2uKe+UdfidFXY3RxByp+r/vY5dV64hlZs3ZdvMAiJQMVnWWo+I032Ld0Pt2Byqpln1o/4Oc6x+wVO1jy9lDR3jX6ys/cj+fZp5rP/NaI2reUu0nuKn+HlLupbMQ7dBEnsoEAAggggAACCCCAAAIIJFIgIYHKpZfkk95dX/Ut2d3z4vFHH5Qq1sw69mIHA+5ZfuxjyX3lR8vRXihr1q0XLWvbt9/Jwb//Fg1SvDPvpFSgUq/pi+a1HL23BkwaNCV0GWBNEb1i1Vpz+sutmkrR6wpHvbR9l96ybfsOc1xf67nk4rjXmdyByvhRg5weLgQqHsqMGKjcWKqcNVf5Qc83Dd7s2qm9PPJwDXOSO1CJFmjoibEaqGjd9R3EocNHyvgJ7zqD1+p+e9EgqtXzzaP2zrHP4xMBBBBAAAEEEEAAAQQQSIhAQgKV/JdebGad8SsvvQKV3T/8KD36vOkM4upXN3tfSgUq9itQQT127Ht6P7u/1l++3rDZ7O7bo4Pku+hC7ynO9pvWLEDLrdmAdOlojVtzTcGrzDqBimE4/R8ZMVBx91AZPmSgZM6cyRfi2LHjJmnT44WuucZ5bSatAhU7+AmaNjlaoJOcHipuDDVYu26drFq9VlauWmX9L+4vk31OZ2sGoMescWRYEEAAAQQQQAABBBBAAIHkCMRioHLkn3/kWWuAV3s2nXPOOVtKl7jBhBRnn51Lcp2VU87KmVM6nBwcNqUClQbNX5I///zLcI8a8rrkyJEjwfTukKR1y0ZyQ9Hrol7btlNP+W7HLnPcHb4QqEQlizyQEQMVe+wQ/abz5s6Uy/KfGv058tv7byU3UOndp5+MGPW2KXz2h9Pl6qtOzdBj3/HQ4cNSrHgZs5megYpdH/tTZ0gaMWqMM630Fda7eh/PjptizD6HTwQQQAABBBBAAAEEEEAgsQKxGKi4e8Xkuyiv9OnewXn9xf7+fx04IPWbxs2imlKBSpv23WXn7u/NLdq3eV6uveZq+3an/Rw/6T2ZNSdueIdHa1ST+6tWinrNU/WaO68tuYMbApWoZJEHMmKgMmTYW9Kv/0DzRbtYPSx0ph6/5a+/Dsiff8WlfhdZg7ra03IlN1AZP3GSdOoSN0Ky9pC54/Zb491+7brPpWbtp83+tA5U9HsfP37MjJGi46t4Fx1j5c4K98qevXvNIR3Q1u8873VsI4AAAggggAACCCCAAALRBMIQqNx8U2lpXO/peFWMVjf3bDv16tSWO24tF+9a97TJKRWoTJr2gbw/M25Go2h11orYs/ycOHFcnm9a3xoDJZ98+fVG6dn3TVNPHZOmZ+e21lsbmePVe+PmrdKlZz+zP0+eC6R/7y7OOQQqDkXwSkYMVL77bofcU+XUVMnvjrMGdi0eObCrhgqP1nrCzNKjQtFm+Yn2yo1eE20MlXXrvpDHaj+lp0j5O2+XoYMGmHX7D+2d8pQ1A4/OtqNLWgcqOsOPfe93Ro+QsmVK2VUzn1q/creWN+PQ0EMlgoYNBBBAAAEEEEAAAQQQSKJAtNBCi7PHDEmNMVS2bP1WOnbva2qtr+wM7R83VbD7a0Srm05drKGKLg/cd688/OB97svkpz0/W6/7vOYMIJtSgYqW26pNR+de9es+IbffcpOzrSvu4CRH9uzy1qA+ppPA8ePH5dlGrcxAunpexbtul6drP6qrzvL7739I89btnd4p3p4sBCoOVfBKRgxU9BtPmz5D2rTtYL689q6oXq2qlC5dUs6zZsPZvGWrDB02whmMVadF1umR7SW5PVQ0rClR5ma7OLmnYgV5uMYDkitXLjP70NC3RjqzEOlJaR2oeG2aNW4oJUrcaGx0GujX+vZzgqbmTRtL44b1nO/CCgIIIIAAAggggAACCCCQFIFooYWWlZqByp/W81mDZnGv5Oi9ri5whWivD+298X+FC+kuiVa3fft/keYvnpp1qGzpElKqeDFrTJPssnHzNtHAxT3TT0oFKlqnT5csl2Ejx+qqWYpdX0RKl7zRhCZffPmNrF7zuTO2y0PVq8qD91e2T5XtO3ZKhy6vOccLXl1ASt5YTM4//1yr3ltlxcq18vehQ+b864oUkjYvNIt4lYlAxaEMXsmogYp+64GDh8mAgYMDAcqWKS3DhrwpZ7oG+UluoKI3/GTeAmncrGXUe99XtbIsW7bChDppHahoD5SmzVvJZ4uXRK2fHtDeNb16dJX/nXNO4HkcRAABBBBAAAEEEEAAAQROJxAttNDrUjNQ0fK79n5DNmzcoqvOcsXl+aV7xzZmO6huw0ePk0WfLXOu866Uv+MWWbAo7tkqJQMVvc/UGTPlvfdne28Zsa0hS+P6z0i2rFkj9n/x5dfSu1/w87CGSt06vBxvWmYClQjK6BsZOVA5ceKETJoyTUa9/U5EjxDVyJ//UmlY/zm5/74q8X54Jk2eKq92jHt/bPLEsXJDsaK+gPbgtzrF8PIlC+OdM3PWRzJ6zFj56utvIo41bdxAnq37jJS3xin55ddfpYzVc2bs2yOdcxJy/67de8k74yaYa1avWOwbejxbv7EJTbSHjo6D4l6CbAoVukYeeehBqV3rsYiU0n096wgggAACCCCAAAIIIIBAYgTmL1osI8dMNJfoeB8lrZ4e9mIHKu6Qwz5mf67/aoP0ej1urMwnaz0sle6+0z5kXnHRHhfesUDsEw4cOCiz5s6XT+Z/6vTMcN8rqG5ahg7y+v6suc6rPbpPpzTWniFV760gj9dprLtM75fOr57qDTPqnYkyb+Fic6xfr05yYd48Zj0xf2gvmOkffuTM+mNfm/uC86VSxfJS2fpftEVDlYlTZsju73+MOCWLNabKrTeXlVqP6JsU8cfVdAdQ40cNcp4LM63f+O0JLanotfFnXom4QypvfLlpu7lDetcjIwcqdhNqeKDBxS9Wd61MmTLJxRdf7PtDY5+f0p/aI2TXzl2S48wc1iBBF5vBYFP6Hskp78iRI9ZfsB8sGytouvRSOeOMM5JTHNcigAACCCCAAAIIIIAAAqEU0GfDAwcPSibr/860ns/siUkSWll9fWjv3p9Fx2LJmye3EzQk9Pqknqf1/uOPP63n2t8ka7asckm+ixL1XKnfef/+X83rSVp3DWMS+9217gQqnhbs/9m/snXfcc/etNksmCezNL8tW9rcjLsggAACCCCAAAIIIIAAAggggECSBQhUPHSzNxyT2RuPevamzaaGKRqqsCCAAAIIIIAAAggggAACCCCAQLgFCFR82kd7qMzeeCzNeqpoiFIwd2apXCSLT23YhQACCCCAAAIIIIAAAggggAACYRMgUAlbi1AfBBBAAAEEEEAAAQQQQAABBBAIvQCBSuibiAoigAACCCCAAAIIIIAAAggggEDYBAhUwtYi1AcBBBBAAAEEEEAAAQQQQAABBEIvQKAS+iaigggggAACCCCAAAIIIIAAAgggEDYBApWwtQj1QQABBBBAAAEEEEAAAQQQQACB0AsQqIS+iaggAggggAACCCCAAAIIIIAAAgiETYBAJWwtQn0QQAABBBBAAAEEEEAAAQQQQCD0AgQqoW8iKogAAggggAACCCCAAAIIIIAAAmETIFAJW4tQHwQQQAABBBBAAAEEEEAAAQQQCL0AgUrom4gKIoAAAggggAACCCCAAAIIIIBA2AQIVMLWItQHAQQQQAABBBBAAAEEEEAAAQRCL0CgEvomooIIIIAAAggggAACCCCAAAIIIBA2AQKVsLUI9UEAAQQQQAABBBBAAAEEEEAAgdALEKiEvomoIAIIIIAAAggggAACCCCAAAIIhE2AQCVsLUJ9EEAAAQQQQAABBBBAAAEEEEAg9AIEKqFvIiqIAAIIIIAAAggggAACCCCAAAJhEyBQCVuLUB8EEEAAAQQQQAABBBBAAAEEEAi9AIFK6JuICiKAAAIIIIAAAggggAACCCCAQNgECFTC1iLUBwEEEEAAAQQQQAABBBBAAAEEQi9AoBL6JqKCCCCAAAIIIIAAAggggAACCCAQNgEClbC1CPVBAAEEEEAAAQQQQAABBBBAAIHQCxCohL6JqCACCCCAAAIIIIAAAggggAACCIRNgEAlbC1CfRBAAAEEEEAAAQQQQAABBBBAIPQCBCqhbyIqiAACCCCAAAIIIIAAAggggAACYRMgUAlbi1AfBBBAAAEEEEAAAQQQQAABBBAIvQCBSuibiAoigAACCCCAAAIIIIAAAggggEDYBEIXqIQNiPoggAACCCCAAAIIIIAAAggggAACXgECFa8I2wgggAACCCCAAAIIIIAAAggggMBpBEIXqBS9tsBpqsxhBBBAAAEEEEAAAQQQQAABBBBAIH0FCFTS15+7I4AAAggggAACCCCAAAIIIIBADAoQqMRgo1FlBBBAAAEEEEAAAQQQQAABBBBIXwEClfT15+4IIIAAAggggAACCCCAAAIIIBCDAgQqMdhoVBkBBBBAAAEEEEAAAQQQQAABBNJXgEAlff25OwIIIIAAAggggAACCCCAAAIIxKAAgUoMNhpVRgABBBBAAAEEEEAAAQQQQACB9BUgUElff+6OAAIIIIAAAggggAACCCCAAAIxKECgEoONRpURQAABBBBAAAEEEEAAAQQQQCB9BQhU0tefuyOAAAIIIIAAAggggAACCCCAQAwKEKjEYKNRZQQQQAABBBBAAAEEEEAAAQQQSF8BApX09efuCCCAAAIIIIAAAggggAACCCAQgwIEKjHYaFQZAQQQQAABBBBAAAEEEEAAAQTSV4BAJX39uTsCCCCAAAIIIIAAAggggAACCMSgAIFKDDYaVUYAAQQQQAABBBBAAAEEEEAAgfQVIFBJX3/ujgACCCCAAAIIIIAAAggggAACMShAoBKDjUaVEUAAAQQQQAABBBBAAAEEEEAgfQUIVNLXn7sjgAACCCCAAAIIIIAAAggggEAMChCoxGCjUWUEEEAAAQQQQAABBBBAAAEEEEhfAQKV9PXn7ggggAACCCCAAAIIIIAAAgggEIMCBCox2GhUGQEEEEAAAQQQQAABBBBAAAEE0leAQCV9/bk7AggggAACCCCAAAIIIIAAAgjEoACBSgw2GlVGAAEEEEAAAQQQQAABBBBAAIH0FSBQSV9/7o4AAggggAACCCCAAAIIIIAAAjEoQKCSgEbbsGmLTHt/tmy0PpOyFL72GilSqKDUqF4lKZdzDQIIIIAAAggggAACCCCAAAIIhEyAQOU0DTJtxiwrTJl1mrMSdrjG/VUIVRJGxVkIIIAAAggggAACCCCAAAIIhFqAQOU0zdOl1xtJ7pniVzShip8K+xBAAAEEEEAAAQQQQAABBBCILQECldO0V61nGjlnTBg92Fk/3Yr7Og1R3L1cCFVOp8dxBBBAAAEEEEAAAQQQQAABBMItQKBymvZxByNJDVT0Ou+rQ4Qqp4HnMAKJENi792e54ILzJWvWrIm4Kv1PPXHihPz40x655OJ86V8ZaoAAAggggAACCCCQ5gJ//nVAMmfOJLnOOitF763/ztyzd5/kuyhvkstNrboluUIhvJBA5TSNklKBit4mbKHK8ePH5ciRI+Z/Z1l/gbNly3YajYx3+OjRo/Lvv/8m6YtlypRZcuTInqRruSjlBLp27yXvjJsgF5x/vkydPCFmwgn9u/fAQ4/Jtm+3S9kypWXMqOGSKVOmlIOhJAQQQAABBBBAAIFQCyxYtERGjJlg6ti4/jNyc9lSKVJffcZp0bq9/Prb73Jh3jzyes+Oif53ZmrVbeKU6TLnk0Xme/bt0UFyW78UjeWFQOU0rZeSgYreKkyhyowPZkrrl9sagZIlisuEsaNPo5HxDnfs3E0mvDs5SV8sf/5LZf7clBmwOEkV4CI5dPiwFCtexpF45eUX5eknazvbYV5ZsnS51HmugVPFmTOmyjXXFHS2WUEAAQQQQAABBBDI2AKt2nSUn/b8bL7kVVdeLl3av5QiX/jz9V/La2+cGq6iwyutpFDBqxJVdmrVbcTb42XBp0tNXfr26JisHjSJ+kKpdDKBymlgUzpQ0duFJVR58pnnZMXKVY7AwnlzYua3+06lE7Dy0iuvypq168yZH8/+ULJkyexc1aFTV5k4aYqznZgVApXEaCXt3KC2s0t84um6snLVGrP53pSJct3/FbEPhfrzjz/+kFI33WbqqL1rPlv48X+yl1ioG4nKIYAAAggggAACqSgwduJU+ejjBeYOD95fWR6qXjVF7nbg4EGp1+RFU1aWzJllxODXJXv2M5yyt2z9Vnr3iwtc7qtSUe6vco9zzF5JrboRqNjCKfz55abtpsSi1xZI4ZKTV1xqBCpaI3eoUvjaa+TVl1okr6KJvPqHH36UO+++N+KqVi2bS/3n6kTsywgb7uBo41frrEAli/O1lq9YKRs3bna27ZXtO3bI5CnTzKa+jnHHbbfah5zPc8/9nzz4wP3ONispLxDUdvbdDh8+YoLBK61U//LLLrN3x8Tnvv37Zf2XX0mpkiXkf+ecExN1ppIIIIAAAggggAACKSOg45x89c0mawyVzHJdkUIpU+jJUn77/Q/52iq72PVF5Jxzzo4oe/1XG6TX6wPNvsoVy0vtmg9FHNeN1KobgUo86pTZkdEClcROt5yYAW9TQnzYW6Okb7/+EUVpj4t5c2Ym+v26iEJCuJGQh3JvtVevWSuPPxkXLrVs3kQa1n/OewrbaSCQlLZLg2pxCwQQQAABBBBAAAEEYlYgIYFKan05ApVUks1ogcqGTVuka683EqyVloGKpo0VKlWV3bu/Fw1RHnmohhOuTHl3nBQren2C6/3Tnj3y3Xc7rMGELpArrrhczjjjVFeyoEKSet3ff/9t6r1v/y9y7v/OkUsvvUTOPfdc31sdtLq6WV9Vnm3QSNat+8Kcs3rFYsmSOa6Hylln5YwaHiU0UDl27JgcOnTYlJ0z55kmXVbfHTt2yu7vv5fLL7/Mt9eEDgj8kzW7y85du8xgqgUKXBn4usehQ4fk2LHjZhYbeyBcvffmLVvlL2tk8Msvz28NOJU36vfxAiXHf/v27+TAwb/lqquulDy5c3uLjrqt9f3+hx+s773XDOZbyBov5Mwzz/Q9PzFt988//8g///xrfXcRHVw52mLff4/1nqq2kQ7QpT//QTMDpbS7t246Bsyxo8ci2tV7jm7rwMk7d+2WPXv2ymWXXSqXXnKJ+VnznmvXV0eKz5kzp/ews60/S3quLmeckc33763+XUtqWzs3YgUBBBBAAAEEEEAgqsAx65ngsOtZwj1BwWH9d+LJf//br+vo+d9u3yEHrX+LX2rNEpk79/lR//1/2JoAQf+dmSVrFsmRPW4ijX+twWr/OfKPfPnNRnlzyEhTr/J33CI1H6pu1rNmyyrZTz7PBdXN+4W0N8yu3T9Y/6bNIldazz/6XBRtSalARf9tr+PPaI9vfQbVMWhy5MgR7bbx9u/9eZ917a/m38QXXHCe5LvwQuvZJPr1R6xnjqP/HjX/BrfP02c6xlCJRxu5I6mv/Ggp+lrPhs1bZaMVrpxuSctA5Yv1X8ojNZ8wVWrRrLFUrXKvVLgn7n292o/XlPZtXw6srr5i8VrffvLejA+sv8wHI87VwW27de4gV155RcR+3UjqdXrtH3/+KQPeHCxjx0/UzYjl3nsqygvPNzcPx/aB33//XUqXu93e9P0MCo8SGqjo+Cs6Dosu744fI59/sV5GjHxbfvn1V7Pvydq1pN0rpwaX0nEzevTuK+9Nf98cd/9x/XX/J23btJbiN97g3m3WbyxVzljfeks56f96H2n7akf5aO7HEeddZP1HoGf3zlLuprIR++2N5PgvWPip9HytrwmK7PL0U8f+qHzvPfJy61ZRAyENL95+Z5wMt3pF2S52GVdfVUAer/moPF7rMXuXJLbt2nXo7Lye9cWa5fGCBP0P3egxYyPaxb6Z1v+J2jWtV93qRrwKZh9PCXe7LL/Pm26505gUL36DvDtuTLxTdAagTl26OWPEuE+44/ZbpWunDpLXCobspWLlak4brV25VM4+O5d9KOJTf3aat4x7r7Zp4wbStHFD53hy2tophBUEEEAAAQQQQACB0wp8suAzGT32XXNeyyb1pFSJU88BT9RtIhpqXG79ArCdNTxE3wFDZdOWbRFlalCiswOVuLFoxH7dqNOgpWioorPoDOgT97wy5K0xsnjZynjn2juusH5J271jG7MZVDc9QQONSdM+sJ5J5pt62mXoZ65cZ0nVShWkms/YLMkNVPTZYur0mTJzzrx4s7Xqq0333HW7PFCtsrs6EetLV6yWiZOnmxmQIg5YG+pY58macp41tIN36dKzn2y0nu11GTtyoAwaNlpWr/mcQMUL5d1OTqDiLcu7nZple+/l3u7craeMOxlMzJ31vgk/NGDRoEV/w79iyUJr0KK4FNN9na7/bCV59Rs1lW82bPQeitgePmSg6AOfvST1Or1efztft16jiAF07XLtT+1pMG3SeKe3ym/WFGFlbg4OVCZPHCs3FIv/Hx8tM6GBis4QpDMF6aJhlO1qdlh/uAOVzZu3yNN168cLFexz7c/Bb/aTCneVtzfNp/1gr4GVJqKLlyyLOO7e8NrrseT4u39e3Pdxr99c7iZ5842+5j+e7v26/saAQTJ46HDv7ojtB6pXk07t25meK4ltOw2Xpkybbsr7fPWyeL1U+rzeX4aPGBVxP+9GtCAxue7e+3i37UBFfw7159G9fDBzlrzQ+hX3rnjrGqK9PXKYaA8nXQYNGS793xxk1vv16SVVKlcy694/NEyxA7kPp0+RQoWuMackt62992EbAQQQQAABBBBAILrAx/M/lbfHTTInNG/8nJQpeaNzsh2o5Lsor5yR7QzZab1dEG1p2rCu3FS6RMRhv0Bl0PC3ZenyU5OSRFxgbbgDlaC6/f33IXm5fTfZ/0vcL5G95djb5W+/Weo+VSuiF01yA5WRYybK/EWL7Vv4fuq4MS0a14sYiFdPXLZyjQwcGvxcoAFUry7t4vVW6dzjdSfQqnDnrTJvYVwd6KHi2wSndqZm6JGaZZ/6BpFrR6yUsqz1W3HtWfJ/RQrL9Klxiej4iZOs34R3Nyf7PdDbpQwYOFgGDh5mNvUhulXLZtYrCPll27ZvZd78hTJi1NvmmL7+o2GN3W0tqddpAqkPzFPfm2HK1To/9GB1uc7qzfGt9dv7D2d9JEuXLTfHNGzQh0vt8qW9EjacDH3aWNdrmKGLPrRmPTko7VVXXyVnRukWlpRAxdzA+uPhGg+I9jjQ12FyW/8rUvhac6hB42aiv/3XRXua3F+tqlxbqJDVc+ewzJo9x/Si0GMaaq1ZsSRiNiL7wV6P66Jh1f33VZWCBa+WPXv3ysBBQ00gpsc0XFJ796ssSfX/+psN8uDDNbVYs2hPoGJFi5ruhVu2bpN+/Qc6PSK0Z5MGE+7F3YNHv9cjDz8ot996ixy1uhsu+myJTHf1cmretLE0blgv0W0XFKhoj6YuVoCoi95fe8OUu6mM6aq3bPlKmTL1PSfgatWimdSvV9ddfUmue0RhPhvRAhV9FajcreWdHmDqeov19+0Kqwvl3p9/lpGj35HPFi8xJd5dobwMGtDPrO/avdvpbebe7761/t3X76WLBikaqOiS3LY2hfAHAggggAACCCCAQIIFgkILO1CxC7vyistEAwr91FdVJkx+T/bt+8Uczmm9Rj90QK+If//7BSo6bMIvv/4mmzZvk8nvfWCuvbHY9XJf5bvN+tlWz5JLrFeJdAmq2xSrh8j0D2ab8/TeOlNQIevZKpv1ytAXX30jMz74yOm10qntC1Lw6lMTzyQnUHl/1lyZNDWup7/OXlSubCnTq0d7y6y0eotojxHt1aNLpbvvlCdrPWzW9Y8NG60hOXq/4Wzr9y5VvJjkzZPbGhh4o3y6dIXVU/4Pc1yNtd7u5yl3oKIn6fAB1azvTaDikPqvpGbokZpl+38bkU/mLZDGzVqaw/p6yVNPPG7W9+3bLzfffpdZr1D+Thk88NQPm7usu+6pYsYw0YfTVcs+jfeah3saYvdvvpN63fsfzpIXX4r7Lb2+HjJpwtiI1xj0wfy5Bk2cUKVDuzYRr49o3ZMysGlSA5URwwfLbbfc7CYz69pD5J4q95sH5DKlS8pbQweb3hjuE7v3fM28GqP7Ppg+2YQt9nH3g722z5v9+0a8oqIOWv7uk8n1rA/es/7DdZV9uSTVv0evPibo0fbu07u73HXnHU6ZuqJjsdxe/h6zz/sAr6+rVL7vAef8d0aPkLJlSjnburJh4yapXuNRs89v6uCEtF20QEUDn6r313Du59cjyX1/PXHa5Amir17ZS3Ld7XKifUYLVOZ+PE+atmhlLnuu7jPyYqsWEUXo/9N46NHHTU8xbRt3AFfriWecacLXrVoWr9eQ+3Uf99+X5LR1ROXYQAABBBBAAAEEEEiQQFBo4Q5Uri5whXR4pVW8f/83aPaS/H1yXLxu1qs6V1qv7NiLX6BiH0vIoLRBdWvUso0JH7JlyyY9OrWRi/NdZBdtPj+zwomhI94x6w8/UDXiFZykBio7du6WVzr2cO7zYouGoqGIe9mybbt07NbH7NK6jRjcV7JlzWpeT6rT8HnnFaHq91WSRx6s5r5UDhw4KC1at3c8vee4A5XzzztXXuvW3vRiIVCJYIy/kZqhR2qWHf+bxO1p1KSFzFuw0GwsXviJXHhhXufUuvUaOq+SLLde+9EHXPeivT6uve5Gs0uPfbpgru9glu5rdD2p1+m17jp9MudD3wFedXyVUmXjXi+qbvX66N0z7hUcvV6XhDyUx5156s+kBCra+6HDq8GvaJy6Q/y1ZctXmFeC9EiXjq/Ko4+cmr7M/WC/aP4c6z9accmxu5TRb4+1xmeJ+w/IsMFvyp133GYOJ8ffXX609cdqP2UG/dUHe33lxl60J5P2jNElaKYkHV9l/smfyfbtXokIghLSdtECFff927R+QZ55Om7cILt+9ue7k6dK+45dzKY3vEiOu11+0Ge0QCXoGvuYu9fR7A+niwaOukybPkPatO1g1t/o29uMcWM2Tv7hft1n2eIFZkBp9/Gg9WhtHXQNxxBAAAEEEEAAAQT8BYJCC3eg0q9XJ9MjwluK9jKZ8eEcs7tJgzpSrkxJ55TUDFScm0RZ0bFb9P66FCl8jbRrfeqXg0kNVMaMnyxz5y0yZUab6lkPau+ZlavXmfN0fBkNmT5f/5W89sYQs08Hr+38amvnTQqz8+Qf262JRdp16mW2NDQZ+HrcGxy6wx2oNLWsbzppTaByEi/aR2qGHqlZtt/30QFB9QFOl7JlSss7o9+KOG3GBzOl9cttzT73b67dJ7kDDn2tpZE1nfBNZcvE66nivkbXk3Kd/ha+8PXFTVEa4GjIE23RnhDaI0Jfd5k/d1bEaQl5KI+4wNpISqCiY4jcU7GCt6gEbeurTatWr5Unnq5rzm/zkhUAPHUqALAf7IMc5s1fII2axv2Hq3vXTubVKPvmSfG3rw361J4xj9Z6Ur76+htz2pYN653T3e4zZ0yVa6xZfRK7uMvY+NW6iFTeLitaoOK+1h042NfZnz/88KPcefe9ZlN7p2gvFXtJrrtdTrTPpAYqOuL7oCFDndfv3rPqrK/B6fLnX39JyTK3mHX9edSfS3txv+4T1BPNPt/9GdTW7vNYRwABBBBAAAEEEEiYQEICFe1pMWZ4f98CFy9dKUNGjDHHaj9WQyrfc5dzXnoGKkesmYSeaRAXomiA0aX9qUk6khqotG7XxZox9Cfz/bp2eEkKWENMJHQZN3GqzP54gTm95sPVrVecKka91HbTE0YM6uvMWOQOVAb362GN3Rk3cC2BSlTKuAOpGXqkZtl+X2v8hHelU9e4blL6G/uHH3ow4rQ///pT7rgrbhBL9/gq7pPWrvtcatZ+2r3LrOuYIDq7zL2VKvr2nkjKdToF1s23nfqPgrfHjLsS7tlj1qxcIuecfbZz2P1gHe2h3Dn55EpSAhWd5cdvhh532fqdli5dLitWrZat1ispv1uz/vxqvcfonS0pWqDiF4TZ5a9YudrqjfOs2ezWpaMZy8U+lhR/+1oNe9asXWdmmtFy9lpjtujAsW5z+1x3oOKecebrL1YnqDeTXY79mZC2ixaouO//zfo1UUM/bw8ed3BnBypJdbe/R7TP0wUqGhIuX7HSDMj8448/yS/WwF9/HTgQ7+fFHajovfQ1OX1dThf3az9zPv5EmrV4wezXcVf0NS33ktS2dpfBOgIIIIAAAggggEDCBBISqFx6ST7p3fVV3wLdPS8ef/RBqWLNrGMvdjDgnuXHPpbcV360HO2FsmbdetGytn37nRz8+2/RIEUnFHEvKRWo1Gv6onktR8vWgEmDpoQuA6wpolesWmtOf7lVUyl6XeGol7bv0lu2bd9hjutrPZdcHPc6kztQGT9qkNPDhUAlKmXcgdQMPVKzbL+v9cBDj512dh73dd5xOOxjX371tZm1xR5g1d5vf95mDTqq0/fmvuACe5f5TOx127d/J5WqVo8oIyEbH82cLlcVODXwUUIeyr3lpkagooOINn++dbyHYe+9dTtaoKIDAY8eMdTvEuuhO3qgohck1l+v0XcJ27XvKLPnfKybp13cgYodRgT1qjldgQlpu2iBin1/nQnns4XB9XeHL37fITnuQd8xWqCiIY8O8KwzFCVk8QYqS6zQrs5zDcyl/fu9Jjq1uC4tnn/RtKW+nuWdzSs5bW0K5w8EEEAAAQQQQACBRAkkJFDJf+nFZtYZv4LTK1DZbfXw7tHnTWcQV7+62ftSKlCxX4EK6rFj39P72f21/vL1hs1md98eHSTfRRd6T3G237RmAVpuzQakS0dr3JprCl5l1glUDEPi/0jN0CM1y/Z+U+8And7jfts644nOfBJt0YFWlyxdZnovLFz0WUSPBZ3lZ8q74+R/55wT7/KEXuftoTJi2KB4Zdk7/vnnH6cHRKlSJSNm70nIQ7ldjv2Z0oGKhhk6iKi9aOhUssSNcrE1ivY5Z59jetRs37FDXmkXN/ZFagQq9r0T6q/n12vYRBZ9uthcqg/hj1i9mq688gprbvZzRed5PztXLvOakc40pIs7jLBfw9L969eusAZtOlNXE7UkpO2iBSrukOSrz1dFnQpcX58pfP2Npl7e8MUOZdI6UHGPh6MVe/CB+61Biq+xRiHPI7nOzmV+XnTsl/emv2/q7Q1U9HW5W26vYP5Oapiiocrf1m8Nbih5kzn/CWvWoFetWZncS3La2l0O6wgggAACCCCAAAIJE4jFQOWI9dz1rDXAqz2bjj4TlC5xgwkpzrb+nZrrrJxyVs6c0uHk4LApFag0aP6S/PnnXwZ21JDXrQk+ciQM2TrLHZK0btlIbih6XdRr23bqKd/t2GWOu8MXApWoZMEHUjP0SM2yvd+q7xsDZNjwkWa3jp1Q/f77vKeYbZ2u1Z5VR3sWLPl0nu+4Fd6LtWuXDk7SYWwAABo3SURBVHbbo2cfM42vHh/Y/3WpePepV3a81+h20HWJGUPFr2x7X0Ieyu1z7c+UDlTcA6Q2bdxAmjZuaN/K+dTgQh9qdUnNQMW5obUS5H/IGjG8WImyzumrl38m//tf3LuCzk5rxd3zyR2ouMdt8T7wu68PWk9I20ULVJ55toEz+1PQGC47d+2SuyvF/X24oVhRM7W2Xaf0ClRquWbqGTNquBmnyK6T/am9V4aPGGU2/Xz79usvw96KO66DBWuvFXvmIA07ixW93i5KktvWTkGsIIAAAggggAACCCRYIBYDFXevmHwX5ZU+3Ts4r7/YX1xfUa/ftLXZTKlApU377rLz5Iym7ds8L9dec7V9u9N+jp/0nsyaM8+c92iNanJ/1bhhLvwufKpec+e1JXdwEy1QkfUbvz2h/0vvJSz18DrUfLrhCft/3mPJ3bbL1c/UXKzBJE+UvfmOEwULFzX/s35THXi7Nm3bO+cuXbbcOdd6+D7x+++/m/9pmX7LtPdmONf26dffnJLU6/TiJ55+1ilv67boP6dWb5YT3//w44k9e/bGq5a7DGu8knjH/XasWr3Gue/gocP9TjH7xk+c5JxnjS8S9Txr3BnnPK2r39KlW0/nnFFvvxNxitWzwBx7um79iP3ujeUrVjnXT576nnMoqf7u8qyxd5zy3Cs/79vn3FN/vtzLyFFjnGPWlNDuQxHro8eMPVH7qTon1GjHzp0RxxLSdlavHuc+Bw4ccK4fOmyEs//NQUOd/d4Vdz379R8YcTg57hEFRdmw/14+/Fht54xDhw479b773vuc/d4VPWb/nf7qq6+9h09s3rLVOT57ztwTzVu+YLb1OuuVoojzk9vWEYWxgQACCCCAAAIIIJAgAWvWGudZc8XqdRHX1K7T2ByzBmON2O/eWPfFl871Mz/6xH3oxDP1W5hjTVu1jdivG198+Y1z3cBho+Md1x3R6vb2uEnOtQs/W+p77adLljvntOvUM+Kct0aPc479+FP8Z7eIk10b705937kuWp319MnvfXiiVZtOJ55/uYN5PtR91jgvzrUvtu18wvrFve6Ot2zYtMU5r9mL7SKOd+re1znm/rc0gUoEU/yN1Aw9UrNs9zfRUMR+8LJ6n7gP+a5HO3/xkmVOOdb4DCf8QhX3w+lHcz825Sf1Or3YHdCUr1j5hF8YsWnTZqdefg+gDRs3d45//Ml83+/s3ZnSgYo7pPJ7+HWba1ulZKCSVP9du3Y7bvUbNfUSnbDmvD/RqGkL5xxvoPL99z9EHJszN/I/8lrg2rWfO+fcesfd8X6mEtJ20QKV73bsdMrWuqmxd3HfX8/RnyX3ktxARQPIAQOHnNA6bty0yV20WfcLVPSAWmh99Lg7JLILGPbWyIjv5vczpedWr/GoOU//vmp5+j+rV4tdjPOZ3LZ2CmIFAQQQQAABBBBAIMEC0UILLSA1A5XNW7Y54UD9Zq196xutbnM+WehcO3naB/Gu1ZDkuSYvOOekVKCi5bqfnxctXhbv3u7gRAMl+3lVAxQ7YNIyRo99N9611qQbJ558rplzjxkffhRxTrRAhUFp/fr5uPal5ms5qVm26yuYqZB1SmRddBwSHb8jaNFXbUqWvdUZPNWeJUT331nhXueVHp2StWrle0VnBNLZaubNX2gGq7XL/mLNcmuaqZyS1Ou0HOunWNpY44rYY0XotMhV7q0kJUsWl+PW2Bdr161zXmvQ83v37CbVq1XVVWfp3aefGeBTd+hrTDUfe1gKX3utmTpa3/PzW1L6lZ/ZH82VFq3iur1pHWrVfMTc/6+/DpgxaHQAUveSkq/8JMf/rnuqyO6TXev0VbF77rlbLr8sv2zYuEmssMuZLtmuu/uVH9039+N5zmsmuv1A9Wpyx+23SpbMWcxMR9NnfOD8nLW3xvSo/XhNPc1ZEtJ20V750ULcU4HrGDBVKleSctY035kyZ5IVK1bJBzNnO/fv1KGd1Hz0YefeupLcV37cr93oz+4nH30omTNndu4RbVDajp27yYR3J5vz9O+XvqKnr+js2r1bFixYFG+QYL9XfvRi98xe9k0XzZ/jOxNXctvaLp9PBBBAAAEEEEAAgYQJpNcrP39azyANmsU9m2hNry5whdx8U2nRGYX+r3AhU/loddu3/xdp/uKpWYfKli4hpYoXs8Y0yS4bN28TK4hxXpnRglLqlR8ty+r5IsNGjtVVsxS7voiULnmjGaLC6nUjq9d87ozt8lD1qvLg/ZXtU2X7jp3SoctrzvGCVxeQkjcWk/PPP9eq91Zrgo+1Yv3C2Jx/XZFC0uaFZhGvMkV75YdAxSH2X0nN0CM1y7a/jc7cUbx0ObOpD5Srln2aoCmmrFc05O13xpnrevfo6oy5ojP7tGrdxnkIte/j/Xzzjb6igYu9JPU6vV7H+WjQuJlYPS3s4nw/ow2iu3nzFrnvgcgHZS1g8sSxomNm+C0pHajogKCNmz3vjOnhd08dW8V6NcUcSslARQtMqr+Oi9OoSdwc8n51LlO6pGTNms35Xt5ARa8ZM3a8dOvR2+9yZ1+txx6Rtm1ax/vZTEjbBQUqegMdR0SDjaClUYN60qJZ43inJDdQad7yRbF6ajnlrl+3MmLA5GiBynff7ZCn6tRzwkungJMrGsrde+89Mm78RLMnWqCiU3KXveUO5/KgwXVToq2dG7GCAAIIIIAAAgggcFqBaKGFXmjPapMas/xo+V17v2H9knSLrjrLFZfnl+4d25jtoLoNHz1OFn0W/dms/B23yIJFS0w5KRmoaIFTZ8yU996fbcqO9oeGLI3rPyPZsmaNOOWLL7+W3v0GR+zzbmio1K3Dy/GeSwhUvFIJ3E7N0CM1y7a/nruHgP72X3sBJGT5Yv2X8kjNJ8yp5e+8XYYOGuBc9sOPP0n3nr1l2fKVEcGKBjblbiojL734vFyWP79zvr2S1Ov0eg2Gho0YaT1AvhtxTz1WskRxadKovnXvsrrpu6xZu06s8U5k1uw5zvGgQGXd51/IY48/Zc594fnmUu/ZOs517pVJ1kwrr3bsYnYFlacnaDCkA4l+8OGsiBmRClmzt7R9ubWZNcd6RcOUpTOw6Ews9mI/2GvvomizHel31MFMdenZrbOZGca+Xj+T6q8/C9b4LvF6o6hJ/efqysttX5VP5i0wt/ILVPSA9hQZ/tZIa4767eY8+4/rr/s/01unxgPRp8c+Xdt16NRVJk6aYoqMNpvQlGnT5a2Ro2WHlUy7F+01UufpJ0UDnUyZMrkPmfXkuqud9dqSae8XW7WQ5+rGtY99o2iBih7ft2+/9bPV2YRh9vn6qUGl/kwuXrxUOlvtosuMaZOkSOFrzbr3j8bNWjrt06d3d6lWtYr3FGc7JdraKYwVBBBAAAEEEEAAgUCB+YsWy8gxcb8ge75pfSlp9fSwFztQcYcc9jH703rFRXq9PtBsPlnrYal09532IXm2USvT4yJPngukf++45xXnoLWiz1ez5s6XT+Z/6vTMcN8rqG5ajg7y+v6suaYcu1yd0lh7hlS9t4I8Xiful5Xa+6Xzq6d6w4x6Z6LMW7jYXNKvVye5MG8e+/IEf2ovmOkffuTM+mNfmPuC86VSxfJS2fpftEVDlYlTZsju73+MOCWL1Yv81pvLSq1HHpBcuc6KOKYb7gBq/KhBzrMDPVTiUUXuSM3QIzXLjvwWqbelD306vXGePLklT+7cCb5RUq/T11esgVDFesfN/KZfpx3Onj17gu975MgROWz9T1858fuLkuCCknniT3v2yB/Wa1J58+S1upmdl8zSEn95UvwPHz5iXjnRpPfSSy+Jl9qerhb6+pa22z6r/fQ/tpdZrw5l9aTGQWUkt+30/r/+9pvst35mdbkg9wXmFTC/ICWoHok9pj+z//571HSDdF9rDWYlJcrcYgJC7+xC7vN0Wudd1kxE/x49anXDvNi8Ruc+nhrryW3r1KgTZSKAAAIIIIAAAgikvID+G/nAwYOSyfq/M8/MkaAZXt210NeH9u792fxyOK/1TJja/7a27631/uOPP61fXP4mWbNllUvyXZSoZwv9zvv3/2p+6a1TP2sYkyVLFrv4BH8SqJyGKjVDj9Qs+zRfi8MIIJDOAjoOjd0j6e4K5WXQgH7pXCNujwACCCCAAAIIIIAAAokRIFA5jVZqhR7WlEzStdcbzt0njA5+l8s5kRUEEIhpgZ1Wb5P3rVegZlqvn9mvIDVv2lgaN6wX09+LyiOAAAIIIIAAAggg8F8TIFA5TYt3sUKPjVb4kZpL4WuvkVdfij7wZ2rem7IRQCBtBXQgWXvsE72zjj00f+6sdHn1K22/OXdDAAEEEEAAAQQQQCBjCRConKY9vT1JTnN6kg7XuL+K1KgefaDIJBXKRQggEEoBHRy5U5fuZvyWW28pJ00bNxQdHJcFAQQQQAABBBBAAAEEYkuAQCUB7TVtxizZYM1NndI9VbRnSg1rbuwi1icLAgj8NwR0MFodRCspg179N4T4lggggAACCCCAAAIIxIYAgUpstBO1RAABBBBAAAEEEEAAAQQQQACBEAkQqISoMagKAggggAACCCCAAAIIIIAAAgjEhgCBSmy0E7VEAAEEEEAAAQQQQAABBBBAAIEQCRCohKgxqAoCCCCAAAIIIIAAAggggAACCMSGAIFKbLQTtUQAAQQQQAABBBBAAAEEEEAAgRAJEKiEqDGoCgIIIIAAAggggAACCCCAAAIIxIYAgUpstBO1RAABBBBAAAEEEEAAAQQQQACBEAkQqISoMagKAggggAACCCCAAAIIIIAAAgjEhgCBSmy0E7VEAAEEEEAAAQQQQAABBBBAAIEQCRCohKgxqAoCCCCAAAIIIIAAAggggAACCMSGAIFKbLQTtUQAAQQQQAABBBBAAAEEEEAAgRAJEKiEqDGoCgIIIIAAAggggAACCCCAAAIIxIYAgUpstBO1RAABBBBAAAEEEEAAAQQQQACBEAkQqISoMagKAggggAACCCCAAAIIIIAAAgjEhkDoApXrCxWQTJliA49aIoAAAggggAACCCCAAAIIIIDAf1MgNIHKhm075ejRY1L4qsskW7as/83W4FsjgAACCCCAAAIIIIAAAggggEBMCIQmUNm++yc5cPCQXH7JhfK/s8+KCTwqiQACCCCAAAIIIIAAAggggAAC/02B0AQqP//yu+zZ96uc97+zJX++PP/N1uBbI4AAAggggAACCCCAAAIIIIBATAiEJlA58s+/snn7boPGaz8x8bNDJRFAAAEEEEAAAQQQQAABBBD4zwqEJlDRFtj148/y+58H6KXyn/1x5IsjgAACCCCAAAIIIIAAAgggEBsCoQpU3L1ULr4wt+Q+75zYUKSWCCCAAAIIIIAAAggggAACCCDwnxIIVaCi8r/+/pd8v2efaQRClf/UzyJfFgEEEEAAAQQQQAABBBBAAIGYEQhdoKJy9gC1uq6D1F6U+zymUlYMFgQQQAABBBBAAAEEEEAAAQQQCIVAKAMVlXH3VNFtDVbOyZVTcubILlmzZpVMmXQvCwIIIIAAAggggAACCCCAAAIIIJD2AqENVJRCx1TZu/83M1Bt2tNwRwQQQAABBBBAAAEEEEAAAQQQQMBfINSBil1lDVb++OugHPj7kBw+8o8cPXrMPsQnAggggAACCCCAAAIIIIAAAgggkOYCMRGopLkKN0QAAQQQQAABBBBAAAEEEEAAAQQCBAhUAnA4hAACCCCAAAIIIIAAAggggAACCPgJEKj4qbAPAQQQQAABBBBAAAEEEEAAAQQQCBAgUAnA4RACCCCAAAIIIIAAAggggAACCCDgJ0Cg4qfCPgQQQAABBBBAAAEEEEAAAQQQQCBAgEAlAIdDCCCAAAIIIIAAAggggAACCCCAgJ8AgYqfCvsQQAABBBBAAAEEEEAAAQQQQACBAAEClQAcDiGAAAIIIIAAAggggAACCCCAAAJ+AgQqfirsQwABBBBAAAEEEEAAAQQQQAABBAIECFQCcDiEAAIIIIAAAggggAACCCCAAAII+AkQqPipsA8BBBBAAAEEEEAAAQQQQAABBBAIECBQCcDhEAIIIIAAAggggAACCCCAAAIIIOAnQKDip8I+BBBAAAEEEEAAAQQQQAABBBBAIECAQCUAh0MIIIAAAggggAACCCCAAAIIIICAnwCBip8K+xBAAAEEEEAAAQQQQAABBBBAAIEAAQKVABwOIYAAAggggAACCCCAAAIIIIAAAn4CBCp+KuxDAAEEEEAAAQQQQAABBBBAAAEEAgQIVAJwOIQAAggggAACCCCAAAIIIIAAAgj4CRCo+KmwDwEEEEAAAQQQQAABBBBAAAEEEAgQIFAJwOEQAggggAACCCCAAAIIIIAAAggg4CdAoOKnwj4EEEAAAQQQQAABBBBAAAEEEEAgQIBAJQCHQwgggAACCCCAAAIIIIAAAggggICfAIGKnwr7EEAAAQQQQAABBBBAAAEEEEAAgQABApUAHA4hgAACCCCAAAIIIIAAAggggAACfgIEKn4q7EMAAQQQQAABBBBAAAEEEEAAAQQCBAhUAnA4hAACCCCAAAIIIIAAAggggAACCPgJEKj4qbAPAQQQQAABBBBAAAEEEEAAAQQQCBAgUAnA4RACCCCAAAIIIIAAAggggAACCCDgJ0Cg4qfCPgQQQAABBBBAAAEEEEAAAQQQQCBAgEAlAIdDCCCAAAIIIIAAAggggAACCCCAgJ8AgYqfCvsQQAABBBBAAAEEEEAAAQQQQACBAAEClQAcDiGAAAIIIIAAAggggAACCCCAAAJ+AgQqfirsQwABBBBAAAEEEEAAAQQQQAABBAIECFQCcDiEAAIIIIAAAggggAACCCCAAAII+AkQqPipsA8BBBBAAAEEEEAAAQQQQAABBBAIECBQCcDhEAIIIIAAAggggAACCCCAAAIIIOAnQKDip8I+BBBAAAEEEEAAAQQQQAABBBBAIECAQCUAh0MIIIAAAggggAACCCCAAAIIIICAnwCBip8K+xBAAAEEEEAAAQQQQAABBBBAAIEAAQKVABwOIYAAAggggAACCCCAAAIIIIAAAn4CBCp+KuxDAAEEEEAAAQQQQAABBBBAAAEEAgQIVAJwOIQAAggggAACCCCAAAIIIIAAAgj4CRCo+KmwDwEEEEAAAQQQQAABBBBAAAEEEAgQIFAJwOEQAggggAACCCCAAAIIIIAAAggg4CdAoOKnwj4EEEAAAQQQQAABBBBAAAEEEEAgQIBAJQCHQwgggAACCCCAAAIIIIAAAggggICfAIGKnwr7EEAAAQQQQAABBBBAAAEEEEAAgQABApUAHA4hgAACCCCAAAIIIIAAAggggAACfgIEKn4q7EMAAQQQQAABBBBAAAEEEEAAAQQCBAhUAnA4hAACCCCAAAIIIIAAAggggAACCPgJEKj4qbAPAQQQQAABBBBAAAEEEEAAAQQQCBAgUAnA4RACCCCAAAIIIIAAAggggAACCCDgJ0Cg4qfCPgQQQAABBBBAAAEEEEAAAQQQQCBAgEAlAIdDCCCAAAIIIIAAAggggAACCCCAgJ8AgYqfCvsQQAABBBBAAAEEEEAAAQQQQACBAAEClQAcDiGAAAIIIIAAAggggAACCCCAAAJ+AgQqfirsQwABBBBAAAEEEEAAAQQQQAABBAIECFQCcDiEAAIIIIAAAggggAACCCCAAAII+AkQqPipsA8BBBBAAAEEEEAAAQQQQAABBBAIECBQCcDhEAIIIIAAAggggAACCCCAAAIIIOAnQKDip8I+BBBAAAEEEEAAAQQQQAABBBBAIECAQCUAh0MIIIAAAggggAACCCCAAAIIIICAnwCBip8K+xBAAAEEEEAAAQQQQAABBBBAAIEAAQKVABwOIYAAAggggAACCCCAAAIIIIAAAn4CBCp+KuxDAAEEEEAAAQQQQAABBBBAAAEEAgQIVAJwOIQAAggggAACCCCAAAIIIIAAAgj4CRCo+KmwDwEEEEAAAQQQQAABBBBAAAEEEAgQIFAJwOEQAggggAACCCCAAAIIIIAAAggg4CdAoOKnwj4EEEAAAQQQQAABBBBAAAEEEEAgQIBAJQCHQwgggAACCCCAAAIIIIAAAggggICfAIGKnwr7EEAAAQQQQAABBBBAAAEEEEAAgQABApUAHA4hgAACCCCAAAIIIIAAAggggAACfgIEKn4q7EMAAQQQQAABBBBAAAEEEEAAAQQCBAhUAnA4hAACCCCAAAIIIIAAAggggAACCPgJEKj4qbAPAQQQQAABBBBAAAEEEEAAAQQQCBAgUAnA4RACCCCAAAIIIIAAAggggAACCCDgJ0Cg4qfCPgQQQAABBBBAAAEEEEAAAQQQQCBAgEAlAIdDCCCAAAIIIIAAAggggAACCCCAgJ8AgYqfCvsQQAABBBBAAAEEEEAAAQQQQACBAAEClQAcDiGAAAIIIIAAAggggAACCCCAAAJ+AgQqfirsQwABBBBAAAEEEEAAAQQQQAABBAIECFQCcDiEAAIIIIAAAggggAACCCCAAAII+AkQqPipsA8BBBBAAAEEEEAAAQQQQAABBBAIECBQCcDhEAIIIIAAAggggAACCCCAAAIIIOAnQKDip8I+BBBAAAEEEEAAAQQQQAABBBBAIECAQCUAh0MIIIAAAggggAACCCCAAAIIIICAnwCBip8K+xBAAAEEEEAAAQQQQAABBBBAAIEAAQKVABwOIYAAAggggAACCCCAAAIIIIAAAn4CBCp+KuxDAAEEEEAAAQQQQAABBBBAAAEEAgQIVAJwOIQAAggggAACCCCAAAIIIIAAAgj4CRCo+KmwDwEEEEAAAQQQQAABBBBAAAEEEAgQIFAJwOEQAggggAACCCCAAAIIIIAAAggg4CdAoOKnwj4EEEAAAQQQQAABBBBAAAEEEEAgQIBAJQCHQwgggAACCCCAAAIIIIAAAggggICfwP8DUTZbfmr00VEAAAAASUVORK5CYII=;" vertex="1" parent="1">
          <mxGeometry x="40" y="1330" width="608" height="367.65" as="geometry" />
        </mxCell>
        <mxCell id="FNOwRppiXol3kP-O3xYT-35" style="edgeStyle=orthogonalEdgeStyle;orthogonalLoop=1;jettySize=auto;html=1;strokeColor=none;curved=1;" edge="1" parent="1" source="FNOwRppiXol3kP-O3xYT-17">
          <mxGeometry relative="1" as="geometry">
            <mxPoint x="1057.5" y="580" as="targetPoint" />
          </mxGeometry>
        </mxCell>
        <mxCell id="FNOwRppiXol3kP-O3xYT-36" style="edgeStyle=orthogonalEdgeStyle;orthogonalLoop=1;jettySize=auto;html=1;curved=1;" edge="1" parent="1" source="FNOwRppiXol3kP-O3xYT-17" target="FNOwRppiXol3kP-O3xYT-22">
          <mxGeometry relative="1" as="geometry" />
        </mxCell>
        <mxCell id="FNOwRppiXol3kP-O3xYT-37" style="edgeStyle=orthogonalEdgeStyle;orthogonalLoop=1;jettySize=auto;html=1;curved=1;" edge="1" parent="1" source="FNOwRppiXol3kP-O3xYT-17" target="FNOwRppiXol3kP-O3xYT-20">
          <mxGeometry relative="1" as="geometry" />
        </mxCell>
        <mxCell id="FNOwRppiXol3kP-O3xYT-48" style="edgeStyle=orthogonalEdgeStyle;orthogonalLoop=1;jettySize=auto;html=1;curved=1;" edge="1" parent="1" source="FNOwRppiXol3kP-O3xYT-17" target="FNOwRppiXol3kP-O3xYT-45">
          <mxGeometry relative="1" as="geometry" />
        </mxCell>
        <mxCell id="FNOwRppiXol3kP-O3xYT-17" value="&lt;h3&gt;SERVICE&lt;/h3&gt;" style="rounded=0;whiteSpace=wrap;html=1;" vertex="1" parent="1">
          <mxGeometry x="995" y="630" width="280" height="100" as="geometry" />
        </mxCell>
        <mxCell id="FNOwRppiXol3kP-O3xYT-19" value="&lt;h3&gt;INPUT PORT&lt;/h3&gt;" style="rounded=0;whiteSpace=wrap;html=1;fillColor=#fff2cc;strokeColor=#d6b656;" vertex="1" parent="1">
          <mxGeometry x="680" y="390" width="180" height="40" as="geometry" />
        </mxCell>
        <mxCell id="FNOwRppiXol3kP-O3xYT-20" value="&lt;h3&gt;INPUT PORT&lt;/h3&gt;" style="rounded=0;whiteSpace=wrap;html=1;fillColor=#fff2cc;strokeColor=#d6b656;" vertex="1" parent="1">
          <mxGeometry x="670" y="648" width="180" height="30" as="geometry" />
        </mxCell>
        <mxCell id="FNOwRppiXol3kP-O3xYT-21" value="&lt;h3&gt;OUTPUT PORT&lt;/h3&gt;" style="rounded=0;whiteSpace=wrap;html=1;fillColor=#fff2cc;strokeColor=#d6b656;" vertex="1" parent="1">
          <mxGeometry x="1460" y="390" width="180" height="30" as="geometry" />
        </mxCell>
        <mxCell id="FNOwRppiXol3kP-O3xYT-22" value="&lt;h3&gt;OUTPUT PORT&lt;/h3&gt;" style="rounded=0;whiteSpace=wrap;html=1;fillColor=#fff2cc;strokeColor=#d6b656;" vertex="1" parent="1">
          <mxGeometry x="1475" y="678" width="180" height="30" as="geometry" />
        </mxCell>
        <mxCell id="FNOwRppiXol3kP-O3xYT-25" style="edgeStyle=orthogonalEdgeStyle;orthogonalLoop=1;jettySize=auto;html=1;curved=1;" edge="1" parent="1" source="FNOwRppiXol3kP-O3xYT-23" target="FNOwRppiXol3kP-O3xYT-19">
          <mxGeometry relative="1" as="geometry" />
        </mxCell>
        <mxCell id="FNOwRppiXol3kP-O3xYT-23" value="&lt;h3&gt;WEB ADAPTER&lt;/h3&gt;" style="rounded=0;whiteSpace=wrap;html=1;fillColor=#d5e8d4;strokeColor=#82b366;" vertex="1" parent="1">
          <mxGeometry x="310" y="380" width="280" height="100" as="geometry" />
        </mxCell>
        <mxCell id="FNOwRppiXol3kP-O3xYT-29" style="edgeStyle=orthogonalEdgeStyle;orthogonalLoop=1;jettySize=auto;html=1;entryX=1;entryY=0.25;entryDx=0;entryDy=0;curved=1;" edge="1" parent="1" source="FNOwRppiXol3kP-O3xYT-24" target="FNOwRppiXol3kP-O3xYT-21">
          <mxGeometry relative="1" as="geometry" />
        </mxCell>
        <mxCell id="FNOwRppiXol3kP-O3xYT-24" value="&lt;h3&gt;PERSISTENCE ADAPTER&lt;/h3&gt;" style="rounded=0;whiteSpace=wrap;html=1;fillColor=#d5e8d4;strokeColor=#82b366;" vertex="1" parent="1">
          <mxGeometry x="1770" y="370" width="280" height="100" as="geometry" />
        </mxCell>
        <mxCell id="FNOwRppiXol3kP-O3xYT-33" style="edgeStyle=orthogonalEdgeStyle;orthogonalLoop=1;jettySize=auto;html=1;curved=1;" edge="1" parent="1" source="FNOwRppiXol3kP-O3xYT-30" target="FNOwRppiXol3kP-O3xYT-20">
          <mxGeometry relative="1" as="geometry" />
        </mxCell>
        <mxCell id="FNOwRppiXol3kP-O3xYT-30" value="&lt;h3&gt;GENERAL EXTERNAL ADAPTER&lt;/h3&gt;" style="rounded=0;whiteSpace=wrap;html=1;fillColor=#d5e8d4;strokeColor=#82b366;" vertex="1" parent="1">
          <mxGeometry x="320" y="600" width="280" height="100" as="geometry" />
        </mxCell>
        <mxCell id="FNOwRppiXol3kP-O3xYT-32" style="edgeStyle=orthogonalEdgeStyle;orthogonalLoop=1;jettySize=auto;html=1;curved=1;" edge="1" parent="1" source="FNOwRppiXol3kP-O3xYT-31" target="FNOwRppiXol3kP-O3xYT-22">
          <mxGeometry relative="1" as="geometry" />
        </mxCell>
        <mxCell id="FNOwRppiXol3kP-O3xYT-31" value="&lt;h3 style=&quot;border-color: var(--border-color);&quot;&gt;GENERAL EXTERNAL ADAPTER&lt;/h3&gt;" style="rounded=0;whiteSpace=wrap;html=1;fillColor=#d5e8d4;strokeColor=#82b366;" vertex="1" parent="1">
          <mxGeometry x="1780" y="610" width="280" height="100" as="geometry" />
        </mxCell>
        <mxCell id="FNOwRppiXol3kP-O3xYT-50" style="edgeStyle=orthogonalEdgeStyle;rounded=0;orthogonalLoop=1;jettySize=auto;html=1;" edge="1" parent="1" source="FNOwRppiXol3kP-O3xYT-45" target="FNOwRppiXol3kP-O3xYT-49">
          <mxGeometry relative="1" as="geometry" />
        </mxCell>
        <mxCell id="FNOwRppiXol3kP-O3xYT-45" value="&lt;h3&gt;USE CASE&lt;/h3&gt;" style="rounded=0;whiteSpace=wrap;html=1;" vertex="1" parent="1">
          <mxGeometry x="1070" y="480" width="130" height="100" as="geometry" />
        </mxCell>
        <mxCell id="FNOwRppiXol3kP-O3xYT-49" value="&lt;h3&gt;ENTITIES&lt;/h3&gt;" style="rounded=0;whiteSpace=wrap;html=1;" vertex="1" parent="1">
          <mxGeometry x="850" y="480" width="125" height="100" as="geometry" />
        </mxCell>
      </root>
    </mxGraphModel>
  </diagram>
</mxfile>
